G04 MADE WITH FRITZING*
G04 WWW.FRITZING.ORG*
G04 DOUBLE SIDED*
G04 HOLES PLATED*
G04 CONTOUR ON CENTER OF CONTOUR VECTOR*
%ASAXBY*%
%FSLAX23Y23*%
%MOIN*%
%OFA0B0*%
%SFA1.0B1.0*%
%ADD10C,0.200000X0.196*%
%ADD11C,0.011000*%
%ADD12R,0.001000X0.001000*%
%LNSILK1*%
G90*
G70*
G54D10*
X407Y105D03*
X105Y105D03*
G54D11*
X341Y51D02*
X371Y51D01*
D02*
X40Y161D02*
X70Y161D01*
D02*
X40Y51D02*
X70Y51D01*
D02*
G54D12*
X0Y512D02*
X510Y512D01*
X0Y511D02*
X510Y511D01*
X0Y510D02*
X510Y510D01*
X0Y509D02*
X510Y509D01*
X0Y508D02*
X510Y508D01*
X0Y507D02*
X510Y507D01*
X0Y506D02*
X510Y506D01*
X0Y505D02*
X510Y505D01*
X0Y504D02*
X7Y504D01*
X65Y504D02*
X144Y504D01*
X366Y504D02*
X446Y504D01*
X503Y504D02*
X510Y504D01*
X0Y503D02*
X7Y503D01*
X63Y503D02*
X147Y503D01*
X364Y503D02*
X448Y503D01*
X503Y503D02*
X510Y503D01*
X0Y502D02*
X7Y502D01*
X61Y502D02*
X99Y502D01*
X111Y502D02*
X149Y502D01*
X362Y502D02*
X400Y502D01*
X412Y502D02*
X450Y502D01*
X503Y502D02*
X510Y502D01*
X0Y501D02*
X7Y501D01*
X58Y501D02*
X89Y501D01*
X120Y501D02*
X151Y501D01*
X359Y501D02*
X390Y501D01*
X421Y501D02*
X452Y501D01*
X503Y501D02*
X510Y501D01*
X0Y500D02*
X7Y500D01*
X56Y500D02*
X84Y500D01*
X126Y500D02*
X153Y500D01*
X357Y500D02*
X385Y500D01*
X427Y500D02*
X454Y500D01*
X503Y500D02*
X510Y500D01*
X0Y499D02*
X7Y499D01*
X54Y499D02*
X79Y499D01*
X130Y499D02*
X155Y499D01*
X356Y499D02*
X381Y499D01*
X431Y499D02*
X456Y499D01*
X503Y499D02*
X510Y499D01*
X0Y498D02*
X7Y498D01*
X53Y498D02*
X76Y498D01*
X133Y498D02*
X156Y498D01*
X354Y498D02*
X377Y498D01*
X434Y498D02*
X457Y498D01*
X503Y498D02*
X510Y498D01*
X0Y497D02*
X7Y497D01*
X51Y497D02*
X73Y497D01*
X136Y497D02*
X158Y497D01*
X352Y497D02*
X374Y497D01*
X437Y497D02*
X459Y497D01*
X503Y497D02*
X510Y497D01*
X0Y496D02*
X7Y496D01*
X49Y496D02*
X70Y496D01*
X139Y496D02*
X160Y496D01*
X351Y496D02*
X371Y496D01*
X440Y496D02*
X461Y496D01*
X503Y496D02*
X510Y496D01*
X0Y495D02*
X7Y495D01*
X48Y495D02*
X68Y495D01*
X142Y495D02*
X161Y495D01*
X349Y495D02*
X369Y495D01*
X443Y495D02*
X462Y495D01*
X503Y495D02*
X510Y495D01*
X0Y494D02*
X7Y494D01*
X46Y494D02*
X65Y494D01*
X144Y494D02*
X163Y494D01*
X347Y494D02*
X367Y494D01*
X445Y494D02*
X464Y494D01*
X503Y494D02*
X510Y494D01*
X0Y493D02*
X7Y493D01*
X45Y493D02*
X63Y493D01*
X146Y493D02*
X164Y493D01*
X346Y493D02*
X364Y493D01*
X447Y493D02*
X465Y493D01*
X503Y493D02*
X510Y493D01*
X0Y492D02*
X7Y492D01*
X44Y492D02*
X61Y492D01*
X148Y492D02*
X166Y492D01*
X345Y492D02*
X362Y492D01*
X449Y492D02*
X467Y492D01*
X503Y492D02*
X510Y492D01*
X0Y491D02*
X7Y491D01*
X42Y491D02*
X59Y491D01*
X150Y491D02*
X167Y491D01*
X343Y491D02*
X360Y491D01*
X451Y491D02*
X468Y491D01*
X503Y491D02*
X510Y491D01*
X0Y490D02*
X7Y490D01*
X41Y490D02*
X58Y490D01*
X152Y490D02*
X168Y490D01*
X342Y490D02*
X359Y490D01*
X453Y490D02*
X469Y490D01*
X503Y490D02*
X510Y490D01*
X0Y489D02*
X7Y489D01*
X40Y489D02*
X56Y489D01*
X153Y489D02*
X170Y489D01*
X341Y489D02*
X357Y489D01*
X454Y489D02*
X471Y489D01*
X503Y489D02*
X510Y489D01*
X0Y488D02*
X7Y488D01*
X38Y488D02*
X54Y488D01*
X155Y488D02*
X171Y488D01*
X339Y488D02*
X355Y488D01*
X456Y488D02*
X472Y488D01*
X503Y488D02*
X510Y488D01*
X0Y487D02*
X7Y487D01*
X37Y487D02*
X53Y487D01*
X157Y487D02*
X172Y487D01*
X338Y487D02*
X354Y487D01*
X458Y487D02*
X473Y487D01*
X503Y487D02*
X510Y487D01*
X0Y486D02*
X7Y486D01*
X36Y486D02*
X51Y486D01*
X158Y486D02*
X173Y486D01*
X337Y486D02*
X352Y486D01*
X459Y486D02*
X474Y486D01*
X503Y486D02*
X510Y486D01*
X0Y485D02*
X7Y485D01*
X35Y485D02*
X50Y485D01*
X159Y485D02*
X174Y485D01*
X336Y485D02*
X351Y485D01*
X461Y485D02*
X475Y485D01*
X503Y485D02*
X510Y485D01*
X0Y484D02*
X7Y484D01*
X34Y484D02*
X48Y484D01*
X161Y484D02*
X175Y484D01*
X335Y484D02*
X349Y484D01*
X462Y484D02*
X476Y484D01*
X503Y484D02*
X510Y484D01*
X0Y483D02*
X7Y483D01*
X33Y483D02*
X47Y483D01*
X162Y483D02*
X177Y483D01*
X334Y483D02*
X348Y483D01*
X463Y483D02*
X478Y483D01*
X503Y483D02*
X510Y483D01*
X0Y482D02*
X7Y482D01*
X32Y482D02*
X46Y482D01*
X163Y482D02*
X178Y482D01*
X333Y482D02*
X347Y482D01*
X465Y482D02*
X479Y482D01*
X503Y482D02*
X510Y482D01*
X0Y481D02*
X7Y481D01*
X31Y481D02*
X44Y481D01*
X165Y481D02*
X179Y481D01*
X332Y481D02*
X345Y481D01*
X466Y481D02*
X480Y481D01*
X503Y481D02*
X510Y481D01*
X0Y480D02*
X7Y480D01*
X30Y480D02*
X43Y480D01*
X166Y480D02*
X180Y480D01*
X331Y480D02*
X344Y480D01*
X467Y480D02*
X481Y480D01*
X503Y480D02*
X510Y480D01*
X0Y479D02*
X7Y479D01*
X29Y479D02*
X42Y479D01*
X167Y479D02*
X180Y479D01*
X330Y479D02*
X343Y479D01*
X468Y479D02*
X482Y479D01*
X503Y479D02*
X510Y479D01*
X0Y478D02*
X7Y478D01*
X28Y478D02*
X41Y478D01*
X168Y478D02*
X181Y478D01*
X329Y478D02*
X342Y478D01*
X469Y478D02*
X482Y478D01*
X503Y478D02*
X510Y478D01*
X0Y477D02*
X7Y477D01*
X27Y477D02*
X40Y477D01*
X169Y477D02*
X182Y477D01*
X328Y477D02*
X341Y477D01*
X470Y477D02*
X483Y477D01*
X503Y477D02*
X510Y477D01*
X0Y476D02*
X7Y476D01*
X26Y476D02*
X39Y476D01*
X170Y476D02*
X183Y476D01*
X327Y476D02*
X340Y476D01*
X471Y476D02*
X484Y476D01*
X503Y476D02*
X510Y476D01*
X0Y475D02*
X7Y475D01*
X25Y475D02*
X38Y475D01*
X172Y475D02*
X184Y475D01*
X326Y475D02*
X339Y475D01*
X473Y475D02*
X485Y475D01*
X503Y475D02*
X510Y475D01*
X0Y474D02*
X7Y474D01*
X24Y474D02*
X37Y474D01*
X173Y474D02*
X185Y474D01*
X325Y474D02*
X338Y474D01*
X474Y474D02*
X486Y474D01*
X503Y474D02*
X510Y474D01*
X0Y473D02*
X7Y473D01*
X23Y473D02*
X36Y473D01*
X173Y473D02*
X186Y473D01*
X325Y473D02*
X337Y473D01*
X474Y473D02*
X487Y473D01*
X503Y473D02*
X510Y473D01*
X0Y472D02*
X7Y472D01*
X23Y472D02*
X35Y472D01*
X174Y472D02*
X186Y472D01*
X324Y472D02*
X336Y472D01*
X475Y472D02*
X488Y472D01*
X503Y472D02*
X510Y472D01*
X0Y471D02*
X7Y471D01*
X22Y471D02*
X34Y471D01*
X175Y471D02*
X187Y471D01*
X323Y471D02*
X335Y471D01*
X476Y471D02*
X488Y471D01*
X503Y471D02*
X510Y471D01*
X0Y470D02*
X7Y470D01*
X21Y470D02*
X33Y470D01*
X176Y470D02*
X188Y470D01*
X322Y470D02*
X334Y470D01*
X477Y470D02*
X489Y470D01*
X503Y470D02*
X510Y470D01*
X0Y469D02*
X7Y469D01*
X21Y469D02*
X32Y469D01*
X177Y469D02*
X189Y469D01*
X322Y469D02*
X333Y469D01*
X478Y469D02*
X490Y469D01*
X503Y469D02*
X510Y469D01*
X0Y468D02*
X7Y468D01*
X20Y468D02*
X31Y468D01*
X178Y468D02*
X189Y468D01*
X321Y468D02*
X332Y468D01*
X479Y468D02*
X490Y468D01*
X503Y468D02*
X510Y468D01*
X0Y467D02*
X7Y467D01*
X19Y467D02*
X30Y467D01*
X137Y467D02*
X172Y467D01*
X179Y467D02*
X190Y467D01*
X320Y467D02*
X331Y467D01*
X439Y467D02*
X473Y467D01*
X480Y467D02*
X491Y467D01*
X503Y467D02*
X510Y467D01*
X0Y466D02*
X7Y466D01*
X18Y466D02*
X30Y466D01*
X136Y466D02*
X173Y466D01*
X180Y466D02*
X191Y466D01*
X319Y466D02*
X331Y466D01*
X437Y466D02*
X474Y466D01*
X481Y466D02*
X492Y466D01*
X503Y466D02*
X510Y466D01*
X0Y465D02*
X7Y465D01*
X18Y465D02*
X29Y465D01*
X135Y465D02*
X174Y465D01*
X180Y465D02*
X192Y465D01*
X319Y465D02*
X330Y465D01*
X436Y465D02*
X475Y465D01*
X481Y465D02*
X493Y465D01*
X503Y465D02*
X510Y465D01*
X0Y464D02*
X7Y464D01*
X17Y464D02*
X28Y464D01*
X135Y464D02*
X174Y464D01*
X181Y464D02*
X192Y464D01*
X318Y464D02*
X329Y464D01*
X436Y464D02*
X475Y464D01*
X482Y464D02*
X493Y464D01*
X503Y464D02*
X510Y464D01*
X0Y463D02*
X7Y463D01*
X16Y463D02*
X27Y463D01*
X135Y463D02*
X174Y463D01*
X182Y463D02*
X193Y463D01*
X318Y463D02*
X328Y463D01*
X436Y463D02*
X475Y463D01*
X483Y463D02*
X494Y463D01*
X503Y463D02*
X510Y463D01*
X0Y462D02*
X7Y462D01*
X16Y462D02*
X27Y462D01*
X135Y462D02*
X174Y462D01*
X183Y462D02*
X193Y462D01*
X317Y462D02*
X328Y462D01*
X436Y462D02*
X475Y462D01*
X484Y462D02*
X494Y462D01*
X503Y462D02*
X510Y462D01*
X0Y461D02*
X7Y461D01*
X15Y461D02*
X26Y461D01*
X135Y461D02*
X174Y461D01*
X183Y461D02*
X194Y461D01*
X316Y461D02*
X327Y461D01*
X436Y461D02*
X475Y461D01*
X484Y461D02*
X495Y461D01*
X503Y461D02*
X510Y461D01*
X0Y460D02*
X7Y460D01*
X15Y460D02*
X25Y460D01*
X135Y460D02*
X174Y460D01*
X184Y460D02*
X195Y460D01*
X316Y460D02*
X326Y460D01*
X436Y460D02*
X475Y460D01*
X485Y460D02*
X496Y460D01*
X503Y460D02*
X510Y460D01*
X0Y459D02*
X7Y459D01*
X14Y459D02*
X25Y459D01*
X136Y459D02*
X173Y459D01*
X185Y459D02*
X195Y459D01*
X315Y459D02*
X326Y459D01*
X437Y459D02*
X474Y459D01*
X486Y459D02*
X496Y459D01*
X503Y459D02*
X510Y459D01*
X0Y458D02*
X7Y458D01*
X13Y458D02*
X24Y458D01*
X137Y458D02*
X172Y458D01*
X185Y458D02*
X196Y458D01*
X314Y458D02*
X325Y458D01*
X438Y458D02*
X473Y458D01*
X486Y458D02*
X497Y458D01*
X503Y458D02*
X510Y458D01*
X0Y457D02*
X7Y457D01*
X13Y457D02*
X23Y457D01*
X139Y457D02*
X170Y457D01*
X186Y457D02*
X196Y457D01*
X314Y457D02*
X324Y457D01*
X440Y457D02*
X471Y457D01*
X487Y457D02*
X497Y457D01*
X503Y457D02*
X510Y457D01*
X0Y456D02*
X7Y456D01*
X12Y456D02*
X23Y456D01*
X186Y456D02*
X197Y456D01*
X313Y456D02*
X324Y456D01*
X488Y456D02*
X498Y456D01*
X503Y456D02*
X510Y456D01*
X0Y455D02*
X7Y455D01*
X12Y455D02*
X22Y455D01*
X187Y455D02*
X197Y455D01*
X313Y455D02*
X323Y455D01*
X488Y455D02*
X498Y455D01*
X503Y455D02*
X510Y455D01*
X0Y454D02*
X7Y454D01*
X11Y454D02*
X21Y454D01*
X188Y454D02*
X198Y454D01*
X312Y454D02*
X323Y454D01*
X489Y454D02*
X499Y454D01*
X503Y454D02*
X510Y454D01*
X0Y453D02*
X7Y453D01*
X11Y453D02*
X21Y453D01*
X188Y453D02*
X198Y453D01*
X312Y453D02*
X322Y453D01*
X489Y453D02*
X499Y453D01*
X503Y453D02*
X510Y453D01*
X0Y452D02*
X7Y452D01*
X10Y452D02*
X20Y452D01*
X189Y452D02*
X199Y452D01*
X312Y452D02*
X321Y452D01*
X490Y452D02*
X500Y452D01*
X503Y452D02*
X510Y452D01*
X0Y451D02*
X7Y451D01*
X10Y451D02*
X20Y451D01*
X189Y451D02*
X199Y451D01*
X311Y451D02*
X321Y451D01*
X490Y451D02*
X500Y451D01*
X503Y451D02*
X510Y451D01*
X0Y450D02*
X7Y450D01*
X9Y450D02*
X19Y450D01*
X190Y450D02*
X200Y450D01*
X311Y450D02*
X320Y450D01*
X491Y450D02*
X501Y450D01*
X503Y450D02*
X510Y450D01*
X0Y449D02*
X7Y449D01*
X9Y449D02*
X19Y449D01*
X197Y449D02*
X200Y449D01*
X310Y449D02*
X320Y449D01*
X499Y449D02*
X501Y449D01*
X503Y449D02*
X510Y449D01*
X0Y448D02*
X7Y448D01*
X9Y448D02*
X18Y448D01*
X197Y448D02*
X201Y448D01*
X310Y448D02*
X319Y448D01*
X499Y448D02*
X510Y448D01*
X0Y447D02*
X18Y447D01*
X197Y447D02*
X201Y447D01*
X309Y447D02*
X319Y447D01*
X499Y447D02*
X510Y447D01*
X0Y446D02*
X17Y446D01*
X197Y446D02*
X201Y446D01*
X309Y446D02*
X319Y446D01*
X499Y446D02*
X510Y446D01*
X0Y445D02*
X17Y445D01*
X197Y445D02*
X202Y445D01*
X308Y445D02*
X318Y445D01*
X499Y445D02*
X510Y445D01*
X0Y444D02*
X17Y444D01*
X197Y444D02*
X202Y444D01*
X308Y444D02*
X318Y444D01*
X499Y444D02*
X510Y444D01*
X0Y443D02*
X16Y443D01*
X197Y443D02*
X203Y443D01*
X308Y443D02*
X317Y443D01*
X499Y443D02*
X510Y443D01*
X0Y442D02*
X16Y442D01*
X197Y442D02*
X203Y442D01*
X307Y442D02*
X317Y442D01*
X499Y442D02*
X510Y442D01*
X0Y441D02*
X15Y441D01*
X197Y441D02*
X203Y441D01*
X307Y441D02*
X316Y441D01*
X499Y441D02*
X510Y441D01*
X0Y440D02*
X15Y440D01*
X197Y440D02*
X204Y440D01*
X307Y440D02*
X316Y440D01*
X499Y440D02*
X510Y440D01*
X0Y439D02*
X15Y439D01*
X197Y439D02*
X204Y439D01*
X306Y439D02*
X316Y439D01*
X499Y439D02*
X510Y439D01*
X0Y438D02*
X14Y438D01*
X197Y438D02*
X204Y438D01*
X306Y438D02*
X315Y438D01*
X499Y438D02*
X510Y438D01*
X0Y437D02*
X14Y437D01*
X197Y437D02*
X205Y437D01*
X306Y437D02*
X315Y437D01*
X499Y437D02*
X510Y437D01*
X0Y436D02*
X14Y436D01*
X197Y436D02*
X205Y436D01*
X305Y436D02*
X315Y436D01*
X499Y436D02*
X510Y436D01*
X0Y435D02*
X13Y435D01*
X197Y435D02*
X205Y435D01*
X305Y435D02*
X314Y435D01*
X499Y435D02*
X510Y435D01*
X0Y434D02*
X13Y434D01*
X197Y434D02*
X205Y434D01*
X305Y434D02*
X314Y434D01*
X499Y434D02*
X510Y434D01*
X0Y433D02*
X13Y433D01*
X197Y433D02*
X206Y433D01*
X305Y433D02*
X314Y433D01*
X499Y433D02*
X510Y433D01*
X0Y432D02*
X12Y432D01*
X197Y432D02*
X206Y432D01*
X304Y432D02*
X314Y432D01*
X499Y432D02*
X510Y432D01*
X0Y431D02*
X12Y431D01*
X197Y431D02*
X206Y431D01*
X304Y431D02*
X313Y431D01*
X499Y431D02*
X510Y431D01*
X0Y430D02*
X12Y430D01*
X197Y430D02*
X206Y430D01*
X304Y430D02*
X313Y430D01*
X499Y430D02*
X510Y430D01*
X0Y429D02*
X12Y429D01*
X197Y429D02*
X207Y429D01*
X304Y429D02*
X313Y429D01*
X499Y429D02*
X510Y429D01*
X0Y428D02*
X11Y428D01*
X198Y428D02*
X207Y428D01*
X303Y428D02*
X313Y428D01*
X499Y428D02*
X510Y428D01*
X0Y427D02*
X11Y427D01*
X198Y427D02*
X207Y427D01*
X303Y427D02*
X312Y427D01*
X499Y427D02*
X510Y427D01*
X0Y426D02*
X11Y426D01*
X198Y426D02*
X207Y426D01*
X303Y426D02*
X312Y426D01*
X499Y426D02*
X510Y426D01*
X0Y425D02*
X11Y425D01*
X198Y425D02*
X207Y425D01*
X303Y425D02*
X312Y425D01*
X499Y425D02*
X510Y425D01*
X0Y424D02*
X11Y424D01*
X198Y424D02*
X208Y424D01*
X303Y424D02*
X312Y424D01*
X500Y424D02*
X510Y424D01*
X0Y423D02*
X11Y423D01*
X199Y423D02*
X208Y423D01*
X303Y423D02*
X312Y423D01*
X500Y423D02*
X510Y423D01*
X0Y422D02*
X10Y422D01*
X199Y422D02*
X208Y422D01*
X302Y422D02*
X311Y422D01*
X500Y422D02*
X510Y422D01*
X0Y421D02*
X10Y421D01*
X199Y421D02*
X208Y421D01*
X302Y421D02*
X311Y421D01*
X500Y421D02*
X510Y421D01*
X0Y420D02*
X10Y420D01*
X199Y420D02*
X208Y420D01*
X302Y420D02*
X311Y420D01*
X500Y420D02*
X510Y420D01*
X0Y419D02*
X10Y419D01*
X199Y419D02*
X208Y419D01*
X302Y419D02*
X311Y419D01*
X500Y419D02*
X510Y419D01*
X0Y418D02*
X10Y418D01*
X199Y418D02*
X208Y418D01*
X302Y418D02*
X311Y418D01*
X500Y418D02*
X510Y418D01*
X0Y417D02*
X10Y417D01*
X199Y417D02*
X208Y417D01*
X302Y417D02*
X311Y417D01*
X501Y417D02*
X510Y417D01*
X0Y416D02*
X10Y416D01*
X200Y416D02*
X209Y416D01*
X302Y416D02*
X311Y416D01*
X501Y416D02*
X510Y416D01*
X0Y415D02*
X10Y415D01*
X200Y415D02*
X209Y415D01*
X302Y415D02*
X311Y415D01*
X501Y415D02*
X510Y415D01*
X0Y414D02*
X10Y414D01*
X200Y414D02*
X209Y414D01*
X302Y414D02*
X311Y414D01*
X501Y414D02*
X510Y414D01*
X0Y413D02*
X9Y413D01*
X200Y413D02*
X209Y413D01*
X301Y413D02*
X310Y413D01*
X501Y413D02*
X510Y413D01*
X0Y412D02*
X9Y412D01*
X200Y412D02*
X209Y412D01*
X301Y412D02*
X310Y412D01*
X501Y412D02*
X510Y412D01*
X0Y411D02*
X9Y411D01*
X200Y411D02*
X209Y411D01*
X301Y411D02*
X310Y411D01*
X501Y411D02*
X510Y411D01*
X0Y410D02*
X9Y410D01*
X200Y410D02*
X209Y410D01*
X301Y410D02*
X310Y410D01*
X501Y410D02*
X510Y410D01*
X0Y409D02*
X9Y409D01*
X200Y409D02*
X209Y409D01*
X301Y409D02*
X310Y409D01*
X501Y409D02*
X510Y409D01*
X0Y408D02*
X9Y408D01*
X200Y408D02*
X209Y408D01*
X301Y408D02*
X310Y408D01*
X501Y408D02*
X510Y408D01*
X0Y407D02*
X9Y407D01*
X200Y407D02*
X209Y407D01*
X301Y407D02*
X310Y407D01*
X501Y407D02*
X510Y407D01*
X0Y406D02*
X9Y406D01*
X200Y406D02*
X209Y406D01*
X301Y406D02*
X310Y406D01*
X501Y406D02*
X510Y406D01*
X0Y405D02*
X9Y405D01*
X200Y405D02*
X209Y405D01*
X301Y405D02*
X310Y405D01*
X501Y405D02*
X510Y405D01*
X0Y404D02*
X9Y404D01*
X200Y404D02*
X209Y404D01*
X301Y404D02*
X310Y404D01*
X501Y404D02*
X510Y404D01*
X0Y403D02*
X9Y403D01*
X200Y403D02*
X209Y403D01*
X301Y403D02*
X310Y403D01*
X501Y403D02*
X510Y403D01*
X0Y402D02*
X9Y402D01*
X200Y402D02*
X209Y402D01*
X301Y402D02*
X310Y402D01*
X501Y402D02*
X510Y402D01*
X0Y401D02*
X9Y401D01*
X200Y401D02*
X209Y401D01*
X302Y401D02*
X311Y401D01*
X501Y401D02*
X510Y401D01*
X0Y400D02*
X10Y400D01*
X200Y400D02*
X209Y400D01*
X302Y400D02*
X311Y400D01*
X501Y400D02*
X510Y400D01*
X0Y399D02*
X10Y399D01*
X200Y399D02*
X209Y399D01*
X302Y399D02*
X311Y399D01*
X501Y399D02*
X510Y399D01*
X0Y398D02*
X10Y398D01*
X199Y398D02*
X208Y398D01*
X302Y398D02*
X311Y398D01*
X501Y398D02*
X510Y398D01*
X0Y397D02*
X10Y397D01*
X199Y397D02*
X208Y397D01*
X302Y397D02*
X311Y397D01*
X500Y397D02*
X510Y397D01*
X0Y396D02*
X10Y396D01*
X199Y396D02*
X208Y396D01*
X302Y396D02*
X311Y396D01*
X500Y396D02*
X510Y396D01*
X0Y395D02*
X10Y395D01*
X199Y395D02*
X208Y395D01*
X302Y395D02*
X311Y395D01*
X500Y395D02*
X510Y395D01*
X0Y394D02*
X10Y394D01*
X199Y394D02*
X208Y394D01*
X302Y394D02*
X311Y394D01*
X500Y394D02*
X510Y394D01*
X0Y393D02*
X10Y393D01*
X199Y393D02*
X208Y393D01*
X302Y393D02*
X311Y393D01*
X500Y393D02*
X510Y393D01*
X0Y392D02*
X10Y392D01*
X199Y392D02*
X208Y392D01*
X302Y392D02*
X312Y392D01*
X500Y392D02*
X510Y392D01*
X0Y391D02*
X11Y391D01*
X199Y391D02*
X208Y391D01*
X303Y391D02*
X312Y391D01*
X500Y391D02*
X510Y391D01*
X0Y390D02*
X11Y390D01*
X198Y390D02*
X207Y390D01*
X303Y390D02*
X312Y390D01*
X499Y390D02*
X510Y390D01*
X0Y389D02*
X11Y389D01*
X198Y389D02*
X207Y389D01*
X303Y389D02*
X312Y389D01*
X499Y389D02*
X510Y389D01*
X0Y388D02*
X11Y388D01*
X198Y388D02*
X207Y388D01*
X303Y388D02*
X312Y388D01*
X499Y388D02*
X510Y388D01*
X0Y387D02*
X11Y387D01*
X198Y387D02*
X207Y387D01*
X303Y387D02*
X312Y387D01*
X499Y387D02*
X510Y387D01*
X0Y386D02*
X12Y386D01*
X198Y386D02*
X207Y386D01*
X304Y386D02*
X313Y386D01*
X499Y386D02*
X510Y386D01*
X0Y385D02*
X12Y385D01*
X197Y385D02*
X206Y385D01*
X304Y385D02*
X313Y385D01*
X499Y385D02*
X510Y385D01*
X0Y384D02*
X12Y384D01*
X197Y384D02*
X206Y384D01*
X304Y384D02*
X313Y384D01*
X499Y384D02*
X510Y384D01*
X0Y383D02*
X12Y383D01*
X197Y383D02*
X206Y383D01*
X304Y383D02*
X313Y383D01*
X499Y383D02*
X510Y383D01*
X0Y382D02*
X13Y382D01*
X197Y382D02*
X206Y382D01*
X305Y382D02*
X314Y382D01*
X499Y382D02*
X510Y382D01*
X0Y381D02*
X13Y381D01*
X197Y381D02*
X206Y381D01*
X305Y381D02*
X314Y381D01*
X499Y381D02*
X510Y381D01*
X0Y380D02*
X13Y380D01*
X197Y380D02*
X205Y380D01*
X305Y380D02*
X314Y380D01*
X499Y380D02*
X510Y380D01*
X0Y379D02*
X13Y379D01*
X197Y379D02*
X205Y379D01*
X305Y379D02*
X315Y379D01*
X499Y379D02*
X510Y379D01*
X0Y378D02*
X14Y378D01*
X197Y378D02*
X205Y378D01*
X306Y378D02*
X315Y378D01*
X499Y378D02*
X510Y378D01*
X0Y377D02*
X14Y377D01*
X197Y377D02*
X204Y377D01*
X306Y377D02*
X315Y377D01*
X499Y377D02*
X510Y377D01*
X0Y376D02*
X15Y376D01*
X197Y376D02*
X204Y376D01*
X306Y376D02*
X316Y376D01*
X499Y376D02*
X510Y376D01*
X0Y375D02*
X15Y375D01*
X197Y375D02*
X204Y375D01*
X307Y375D02*
X316Y375D01*
X499Y375D02*
X510Y375D01*
X0Y374D02*
X15Y374D01*
X197Y374D02*
X203Y374D01*
X307Y374D02*
X316Y374D01*
X499Y374D02*
X510Y374D01*
X0Y373D02*
X16Y373D01*
X197Y373D02*
X203Y373D01*
X307Y373D02*
X317Y373D01*
X499Y373D02*
X510Y373D01*
X0Y372D02*
X16Y372D01*
X197Y372D02*
X203Y372D01*
X308Y372D02*
X317Y372D01*
X499Y372D02*
X510Y372D01*
X0Y371D02*
X16Y371D01*
X197Y371D02*
X202Y371D01*
X308Y371D02*
X317Y371D01*
X499Y371D02*
X510Y371D01*
X0Y370D02*
X17Y370D01*
X197Y370D02*
X202Y370D01*
X308Y370D02*
X318Y370D01*
X499Y370D02*
X510Y370D01*
X0Y369D02*
X17Y369D01*
X197Y369D02*
X202Y369D01*
X309Y369D02*
X318Y369D01*
X499Y369D02*
X510Y369D01*
X0Y368D02*
X18Y368D01*
X197Y368D02*
X201Y368D01*
X309Y368D02*
X319Y368D01*
X499Y368D02*
X510Y368D01*
X0Y367D02*
X18Y367D01*
X197Y367D02*
X201Y367D01*
X309Y367D02*
X319Y367D01*
X499Y367D02*
X510Y367D01*
X0Y366D02*
X7Y366D01*
X9Y366D02*
X19Y366D01*
X197Y366D02*
X200Y366D01*
X310Y366D02*
X320Y366D01*
X499Y366D02*
X501Y366D01*
X503Y366D02*
X510Y366D01*
X0Y365D02*
X7Y365D01*
X9Y365D02*
X19Y365D01*
X197Y365D02*
X200Y365D01*
X310Y365D02*
X320Y365D01*
X498Y365D02*
X501Y365D01*
X503Y365D02*
X510Y365D01*
X0Y364D02*
X7Y364D01*
X10Y364D02*
X20Y364D01*
X190Y364D02*
X199Y364D01*
X311Y364D02*
X321Y364D01*
X491Y364D02*
X500Y364D01*
X503Y364D02*
X510Y364D01*
X0Y363D02*
X7Y363D01*
X10Y363D02*
X20Y363D01*
X189Y363D02*
X199Y363D01*
X311Y363D02*
X321Y363D01*
X490Y363D02*
X500Y363D01*
X503Y363D02*
X510Y363D01*
X0Y362D02*
X7Y362D01*
X11Y362D02*
X21Y362D01*
X189Y362D02*
X198Y362D01*
X312Y362D02*
X322Y362D01*
X490Y362D02*
X499Y362D01*
X503Y362D02*
X510Y362D01*
X0Y361D02*
X7Y361D01*
X11Y361D02*
X21Y361D01*
X188Y361D02*
X198Y361D01*
X312Y361D02*
X322Y361D01*
X489Y361D02*
X499Y361D01*
X503Y361D02*
X510Y361D01*
X0Y360D02*
X7Y360D01*
X12Y360D02*
X22Y360D01*
X187Y360D02*
X197Y360D01*
X313Y360D02*
X323Y360D01*
X488Y360D02*
X499Y360D01*
X503Y360D02*
X510Y360D01*
X0Y359D02*
X7Y359D01*
X12Y359D02*
X23Y359D01*
X187Y359D02*
X197Y359D01*
X313Y359D02*
X324Y359D01*
X488Y359D02*
X498Y359D01*
X503Y359D02*
X510Y359D01*
X0Y358D02*
X7Y358D01*
X13Y358D02*
X23Y358D01*
X186Y358D02*
X196Y358D01*
X314Y358D02*
X324Y358D01*
X487Y358D02*
X498Y358D01*
X503Y358D02*
X510Y358D01*
X0Y357D02*
X7Y357D01*
X13Y357D02*
X24Y357D01*
X137Y357D02*
X172Y357D01*
X185Y357D02*
X196Y357D01*
X314Y357D02*
X325Y357D01*
X438Y357D02*
X473Y357D01*
X487Y357D02*
X497Y357D01*
X503Y357D02*
X510Y357D01*
X0Y356D02*
X7Y356D01*
X14Y356D02*
X24Y356D01*
X136Y356D02*
X173Y356D01*
X185Y356D02*
X195Y356D01*
X315Y356D02*
X325Y356D01*
X437Y356D02*
X474Y356D01*
X486Y356D02*
X496Y356D01*
X503Y356D02*
X510Y356D01*
X0Y355D02*
X7Y355D01*
X14Y355D02*
X25Y355D01*
X135Y355D02*
X174Y355D01*
X184Y355D02*
X195Y355D01*
X315Y355D02*
X326Y355D01*
X436Y355D02*
X475Y355D01*
X485Y355D02*
X496Y355D01*
X503Y355D02*
X510Y355D01*
X0Y354D02*
X7Y354D01*
X15Y354D02*
X26Y354D01*
X135Y354D02*
X174Y354D01*
X184Y354D02*
X194Y354D01*
X316Y354D02*
X327Y354D01*
X436Y354D02*
X475Y354D01*
X485Y354D02*
X495Y354D01*
X503Y354D02*
X510Y354D01*
X0Y353D02*
X7Y353D01*
X16Y353D02*
X26Y353D01*
X135Y353D02*
X174Y353D01*
X183Y353D02*
X194Y353D01*
X317Y353D02*
X327Y353D01*
X436Y353D02*
X475Y353D01*
X484Y353D02*
X495Y353D01*
X503Y353D02*
X510Y353D01*
X0Y352D02*
X7Y352D01*
X16Y352D02*
X27Y352D01*
X135Y352D02*
X174Y352D01*
X182Y352D02*
X193Y352D01*
X317Y352D02*
X328Y352D01*
X436Y352D02*
X475Y352D01*
X483Y352D02*
X494Y352D01*
X503Y352D02*
X510Y352D01*
X0Y351D02*
X7Y351D01*
X17Y351D02*
X28Y351D01*
X135Y351D02*
X174Y351D01*
X181Y351D02*
X192Y351D01*
X318Y351D02*
X329Y351D01*
X436Y351D02*
X475Y351D01*
X482Y351D02*
X493Y351D01*
X503Y351D02*
X510Y351D01*
X0Y350D02*
X7Y350D01*
X17Y350D02*
X29Y350D01*
X135Y350D02*
X174Y350D01*
X181Y350D02*
X192Y350D01*
X319Y350D02*
X330Y350D01*
X436Y350D02*
X475Y350D01*
X482Y350D02*
X493Y350D01*
X503Y350D02*
X510Y350D01*
X0Y349D02*
X7Y349D01*
X18Y349D02*
X29Y349D01*
X136Y349D02*
X173Y349D01*
X180Y349D02*
X191Y349D01*
X319Y349D02*
X330Y349D01*
X437Y349D02*
X474Y349D01*
X481Y349D02*
X492Y349D01*
X503Y349D02*
X510Y349D01*
X0Y348D02*
X7Y348D01*
X19Y348D02*
X30Y348D01*
X137Y348D02*
X172Y348D01*
X179Y348D02*
X190Y348D01*
X320Y348D02*
X331Y348D01*
X438Y348D02*
X473Y348D01*
X480Y348D02*
X492Y348D01*
X503Y348D02*
X510Y348D01*
X0Y347D02*
X7Y347D01*
X19Y347D02*
X31Y347D01*
X140Y347D02*
X169Y347D01*
X178Y347D02*
X190Y347D01*
X321Y347D02*
X332Y347D01*
X441Y347D02*
X470Y347D01*
X479Y347D02*
X491Y347D01*
X503Y347D02*
X510Y347D01*
X0Y346D02*
X7Y346D01*
X20Y346D02*
X32Y346D01*
X177Y346D02*
X189Y346D01*
X321Y346D02*
X333Y346D01*
X478Y346D02*
X490Y346D01*
X503Y346D02*
X510Y346D01*
X0Y345D02*
X7Y345D01*
X21Y345D02*
X33Y345D01*
X176Y345D02*
X188Y345D01*
X322Y345D02*
X334Y345D01*
X478Y345D02*
X489Y345D01*
X503Y345D02*
X510Y345D01*
X0Y344D02*
X7Y344D01*
X22Y344D02*
X34Y344D01*
X176Y344D02*
X187Y344D01*
X323Y344D02*
X335Y344D01*
X477Y344D02*
X489Y344D01*
X503Y344D02*
X510Y344D01*
X0Y343D02*
X7Y343D01*
X22Y343D02*
X35Y343D01*
X175Y343D02*
X187Y343D01*
X324Y343D02*
X336Y343D01*
X476Y343D02*
X488Y343D01*
X503Y343D02*
X510Y343D01*
X0Y342D02*
X7Y342D01*
X23Y342D02*
X35Y342D01*
X174Y342D02*
X186Y342D01*
X324Y342D02*
X337Y342D01*
X475Y342D02*
X487Y342D01*
X503Y342D02*
X510Y342D01*
X0Y341D02*
X7Y341D01*
X24Y341D02*
X36Y341D01*
X173Y341D02*
X185Y341D01*
X325Y341D02*
X337Y341D01*
X474Y341D02*
X486Y341D01*
X503Y341D02*
X510Y341D01*
X0Y340D02*
X7Y340D01*
X25Y340D02*
X37Y340D01*
X172Y340D02*
X184Y340D01*
X326Y340D02*
X338Y340D01*
X473Y340D02*
X485Y340D01*
X503Y340D02*
X510Y340D01*
X0Y339D02*
X7Y339D01*
X26Y339D02*
X38Y339D01*
X171Y339D02*
X183Y339D01*
X327Y339D02*
X339Y339D01*
X472Y339D02*
X485Y339D01*
X503Y339D02*
X510Y339D01*
X0Y338D02*
X7Y338D01*
X27Y338D02*
X40Y338D01*
X170Y338D02*
X183Y338D01*
X328Y338D02*
X341Y338D01*
X471Y338D02*
X484Y338D01*
X503Y338D02*
X510Y338D01*
X0Y337D02*
X7Y337D01*
X28Y337D02*
X41Y337D01*
X169Y337D02*
X182Y337D01*
X329Y337D02*
X342Y337D01*
X470Y337D02*
X483Y337D01*
X503Y337D02*
X510Y337D01*
X0Y336D02*
X7Y336D01*
X28Y336D02*
X42Y336D01*
X167Y336D02*
X181Y336D01*
X329Y336D02*
X343Y336D01*
X469Y336D02*
X482Y336D01*
X503Y336D02*
X510Y336D01*
X0Y335D02*
X7Y335D01*
X29Y335D02*
X43Y335D01*
X166Y335D02*
X180Y335D01*
X330Y335D02*
X344Y335D01*
X467Y335D02*
X481Y335D01*
X503Y335D02*
X510Y335D01*
X0Y334D02*
X7Y334D01*
X30Y334D02*
X44Y334D01*
X165Y334D02*
X179Y334D01*
X331Y334D02*
X345Y334D01*
X466Y334D02*
X480Y334D01*
X503Y334D02*
X510Y334D01*
X0Y333D02*
X7Y333D01*
X31Y333D02*
X45Y333D01*
X133Y333D02*
X147Y333D01*
X164Y333D02*
X186Y333D01*
X202Y333D02*
X212Y333D01*
X267Y333D02*
X279Y333D01*
X332Y333D02*
X346Y333D01*
X362Y333D02*
X376Y333D01*
X465Y333D02*
X479Y333D01*
X503Y333D02*
X510Y333D01*
X0Y332D02*
X7Y332D01*
X32Y332D02*
X47Y332D01*
X132Y332D02*
X150Y332D01*
X163Y332D02*
X186Y332D01*
X199Y332D02*
X215Y332D01*
X239Y332D02*
X241Y332D01*
X264Y332D02*
X281Y332D01*
X296Y332D02*
X299Y332D01*
X333Y332D02*
X348Y332D01*
X360Y332D02*
X379Y332D01*
X464Y332D02*
X478Y332D01*
X503Y332D02*
X510Y332D01*
X0Y331D02*
X7Y331D01*
X33Y331D02*
X48Y331D01*
X132Y331D02*
X151Y331D01*
X161Y331D02*
X186Y331D01*
X198Y331D02*
X217Y331D01*
X238Y331D02*
X242Y331D01*
X263Y331D02*
X282Y331D01*
X296Y331D02*
X299Y331D01*
X334Y331D02*
X349Y331D01*
X359Y331D02*
X380Y331D01*
X462Y331D02*
X477Y331D01*
X503Y331D02*
X510Y331D01*
X0Y330D02*
X7Y330D01*
X34Y330D02*
X49Y330D01*
X132Y330D02*
X152Y330D01*
X160Y330D02*
X186Y330D01*
X198Y330D02*
X217Y330D01*
X238Y330D02*
X242Y330D01*
X262Y330D02*
X283Y330D01*
X296Y330D02*
X299Y330D01*
X336Y330D02*
X350Y330D01*
X360Y330D02*
X380Y330D01*
X461Y330D02*
X476Y330D01*
X503Y330D02*
X510Y330D01*
X0Y329D02*
X7Y329D01*
X36Y329D02*
X51Y329D01*
X132Y329D02*
X153Y329D01*
X159Y329D02*
X186Y329D01*
X197Y329D02*
X218Y329D01*
X238Y329D02*
X243Y329D01*
X262Y329D02*
X283Y329D01*
X296Y329D02*
X299Y329D01*
X310Y329D02*
X311Y329D01*
X337Y329D02*
X352Y329D01*
X360Y329D02*
X381Y329D01*
X460Y329D02*
X475Y329D01*
X503Y329D02*
X510Y329D01*
X0Y328D02*
X7Y328D01*
X37Y328D02*
X52Y328D01*
X132Y328D02*
X136Y328D01*
X149Y328D02*
X153Y328D01*
X157Y328D02*
X177Y328D01*
X182Y328D02*
X186Y328D01*
X197Y328D02*
X201Y328D01*
X214Y328D02*
X218Y328D01*
X238Y328D02*
X243Y328D01*
X262Y328D02*
X266Y328D01*
X280Y328D02*
X283Y328D01*
X296Y328D02*
X299Y328D01*
X309Y328D02*
X312Y328D01*
X338Y328D02*
X353Y328D01*
X377Y328D02*
X381Y328D01*
X458Y328D02*
X474Y328D01*
X503Y328D02*
X510Y328D01*
X0Y327D02*
X7Y327D01*
X38Y327D02*
X54Y327D01*
X132Y327D02*
X136Y327D01*
X150Y327D02*
X153Y327D01*
X155Y327D02*
X171Y327D01*
X174Y327D02*
X177Y327D01*
X182Y327D02*
X186Y327D01*
X197Y327D02*
X201Y327D01*
X215Y327D02*
X218Y327D01*
X237Y327D02*
X243Y327D01*
X262Y327D02*
X266Y327D01*
X280Y327D02*
X283Y327D01*
X296Y327D02*
X299Y327D01*
X309Y327D02*
X312Y327D01*
X339Y327D02*
X355Y327D01*
X377Y327D02*
X381Y327D01*
X457Y327D02*
X472Y327D01*
X503Y327D02*
X510Y327D01*
X0Y326D02*
X7Y326D01*
X39Y326D02*
X55Y326D01*
X132Y326D02*
X136Y326D01*
X150Y326D02*
X170Y326D01*
X174Y326D02*
X177Y326D01*
X183Y326D02*
X186Y326D01*
X197Y326D02*
X202Y326D01*
X215Y326D02*
X218Y326D01*
X237Y326D02*
X243Y326D01*
X262Y326D02*
X266Y326D01*
X280Y326D02*
X283Y326D01*
X296Y326D02*
X299Y326D01*
X309Y326D02*
X312Y326D01*
X340Y326D02*
X356Y326D01*
X377Y326D02*
X381Y326D01*
X455Y326D02*
X471Y326D01*
X503Y326D02*
X510Y326D01*
X0Y325D02*
X7Y325D01*
X40Y325D02*
X57Y325D01*
X132Y325D02*
X136Y325D01*
X150Y325D02*
X169Y325D01*
X174Y325D02*
X177Y325D01*
X184Y325D02*
X185Y325D01*
X198Y325D02*
X203Y325D01*
X216Y325D02*
X217Y325D01*
X237Y325D02*
X244Y325D01*
X262Y325D02*
X266Y325D01*
X280Y325D02*
X283Y325D01*
X296Y325D02*
X299Y325D01*
X309Y325D02*
X312Y325D01*
X341Y325D02*
X358Y325D01*
X377Y325D02*
X381Y325D01*
X453Y325D02*
X470Y325D01*
X503Y325D02*
X510Y325D01*
X0Y324D02*
X7Y324D01*
X42Y324D02*
X59Y324D01*
X132Y324D02*
X136Y324D01*
X150Y324D02*
X167Y324D01*
X174Y324D02*
X177Y324D01*
X199Y324D02*
X204Y324D01*
X236Y324D02*
X244Y324D01*
X262Y324D02*
X266Y324D01*
X280Y324D02*
X283Y324D01*
X296Y324D02*
X299Y324D01*
X309Y324D02*
X312Y324D01*
X343Y324D02*
X360Y324D01*
X377Y324D02*
X381Y324D01*
X452Y324D02*
X469Y324D01*
X503Y324D02*
X510Y324D01*
X0Y323D02*
X7Y323D01*
X43Y323D02*
X61Y323D01*
X132Y323D02*
X136Y323D01*
X149Y323D02*
X166Y323D01*
X174Y323D02*
X177Y323D01*
X199Y323D02*
X204Y323D01*
X236Y323D02*
X244Y323D01*
X262Y323D02*
X266Y323D01*
X280Y323D02*
X283Y323D01*
X296Y323D02*
X299Y323D01*
X309Y323D02*
X312Y323D01*
X344Y323D02*
X362Y323D01*
X377Y323D02*
X381Y323D01*
X450Y323D02*
X467Y323D01*
X503Y323D02*
X510Y323D01*
X0Y322D02*
X7Y322D01*
X44Y322D02*
X63Y322D01*
X132Y322D02*
X136Y322D01*
X147Y322D02*
X165Y322D01*
X174Y322D02*
X177Y322D01*
X200Y322D02*
X205Y322D01*
X236Y322D02*
X245Y322D01*
X262Y322D02*
X266Y322D01*
X280Y322D02*
X283Y322D01*
X296Y322D02*
X299Y322D01*
X309Y322D02*
X312Y322D01*
X345Y322D02*
X364Y322D01*
X377Y322D02*
X381Y322D01*
X448Y322D02*
X466Y322D01*
X503Y322D02*
X510Y322D01*
X0Y321D02*
X7Y321D01*
X46Y321D02*
X65Y321D01*
X132Y321D02*
X163Y321D01*
X174Y321D02*
X177Y321D01*
X201Y321D02*
X206Y321D01*
X235Y321D02*
X239Y321D01*
X241Y321D02*
X245Y321D01*
X262Y321D02*
X266Y321D01*
X280Y321D02*
X283Y321D01*
X296Y321D02*
X299Y321D01*
X309Y321D02*
X312Y321D01*
X347Y321D02*
X366Y321D01*
X377Y321D02*
X381Y321D01*
X446Y321D02*
X465Y321D01*
X503Y321D02*
X510Y321D01*
X0Y320D02*
X7Y320D01*
X47Y320D02*
X67Y320D01*
X132Y320D02*
X162Y320D01*
X174Y320D02*
X177Y320D01*
X202Y320D02*
X207Y320D01*
X235Y320D02*
X239Y320D01*
X241Y320D02*
X245Y320D01*
X262Y320D02*
X266Y320D01*
X280Y320D02*
X283Y320D01*
X296Y320D02*
X299Y320D01*
X309Y320D02*
X312Y320D01*
X348Y320D02*
X368Y320D01*
X377Y320D02*
X381Y320D01*
X443Y320D02*
X463Y320D01*
X503Y320D02*
X510Y320D01*
X0Y319D02*
X7Y319D01*
X49Y319D02*
X69Y319D01*
X132Y319D02*
X160Y319D01*
X174Y319D02*
X177Y319D01*
X203Y319D02*
X207Y319D01*
X235Y319D02*
X239Y319D01*
X242Y319D02*
X245Y319D01*
X262Y319D02*
X266Y319D01*
X280Y319D02*
X283Y319D01*
X296Y319D02*
X299Y319D01*
X309Y319D02*
X312Y319D01*
X350Y319D02*
X371Y319D01*
X377Y319D02*
X381Y319D01*
X441Y319D02*
X461Y319D01*
X503Y319D02*
X510Y319D01*
X0Y318D02*
X7Y318D01*
X51Y318D02*
X72Y318D01*
X132Y318D02*
X159Y318D01*
X174Y318D02*
X177Y318D01*
X203Y318D02*
X208Y318D01*
X235Y318D02*
X238Y318D01*
X242Y318D02*
X246Y318D01*
X262Y318D02*
X266Y318D01*
X280Y318D02*
X283Y318D01*
X296Y318D02*
X299Y318D01*
X309Y318D02*
X312Y318D01*
X352Y318D02*
X373Y318D01*
X377Y318D02*
X381Y318D01*
X438Y318D02*
X460Y318D01*
X503Y318D02*
X510Y318D01*
X0Y317D02*
X7Y317D01*
X52Y317D02*
X75Y317D01*
X132Y317D02*
X157Y317D01*
X174Y317D02*
X177Y317D01*
X204Y317D02*
X209Y317D01*
X234Y317D02*
X238Y317D01*
X242Y317D02*
X246Y317D01*
X262Y317D02*
X266Y317D01*
X280Y317D02*
X283Y317D01*
X296Y317D02*
X299Y317D01*
X309Y317D02*
X312Y317D01*
X328Y317D02*
X348Y317D01*
X353Y317D02*
X381Y317D01*
X435Y317D02*
X458Y317D01*
X503Y317D02*
X510Y317D01*
X0Y316D02*
X7Y316D01*
X54Y316D02*
X78Y316D01*
X131Y316D02*
X155Y316D01*
X174Y316D02*
X177Y316D01*
X205Y316D02*
X210Y316D01*
X234Y316D02*
X238Y316D01*
X243Y316D02*
X246Y316D01*
X262Y316D02*
X266Y316D01*
X280Y316D02*
X283Y316D01*
X296Y316D02*
X299Y316D01*
X309Y316D02*
X312Y316D01*
X327Y316D02*
X348Y316D01*
X355Y316D02*
X380Y316D01*
X432Y316D02*
X456Y316D01*
X503Y316D02*
X510Y316D01*
X0Y315D02*
X7Y315D01*
X56Y315D02*
X82Y315D01*
X127Y315D02*
X154Y315D01*
X174Y315D02*
X177Y315D01*
X206Y315D02*
X210Y315D01*
X234Y315D02*
X237Y315D01*
X243Y315D02*
X247Y315D01*
X262Y315D02*
X266Y315D01*
X280Y315D02*
X283Y315D01*
X296Y315D02*
X299Y315D01*
X309Y315D02*
X312Y315D01*
X327Y315D02*
X348Y315D01*
X357Y315D02*
X383Y315D01*
X428Y315D02*
X455Y315D01*
X503Y315D02*
X510Y315D01*
X0Y314D02*
X7Y314D01*
X58Y314D02*
X87Y314D01*
X122Y314D02*
X151Y314D01*
X174Y314D02*
X177Y314D01*
X206Y314D02*
X211Y314D01*
X233Y314D02*
X237Y314D01*
X243Y314D02*
X247Y314D01*
X262Y314D02*
X266Y314D01*
X280Y314D02*
X283Y314D01*
X296Y314D02*
X300Y314D01*
X308Y314D02*
X313Y314D01*
X327Y314D02*
X348Y314D01*
X359Y314D02*
X388Y314D01*
X423Y314D02*
X453Y314D01*
X503Y314D02*
X510Y314D01*
X0Y313D02*
X7Y313D01*
X60Y313D02*
X94Y313D01*
X115Y313D02*
X149Y313D01*
X174Y313D02*
X177Y313D01*
X207Y313D02*
X212Y313D01*
X233Y313D02*
X237Y313D01*
X244Y313D02*
X247Y313D01*
X262Y313D02*
X266Y313D01*
X280Y313D02*
X283Y313D01*
X296Y313D02*
X314Y313D01*
X327Y313D02*
X348Y313D01*
X359Y313D02*
X395Y313D01*
X416Y313D02*
X450Y313D01*
X503Y313D02*
X510Y313D01*
X0Y312D02*
X7Y312D01*
X62Y312D02*
X147Y312D01*
X174Y312D02*
X177Y312D01*
X208Y312D02*
X213Y312D01*
X233Y312D02*
X237Y312D01*
X244Y312D02*
X248Y312D01*
X262Y312D02*
X266Y312D01*
X280Y312D02*
X283Y312D01*
X296Y312D02*
X315Y312D01*
X328Y312D02*
X348Y312D01*
X359Y312D02*
X448Y312D01*
X503Y312D02*
X510Y312D01*
X0Y311D02*
X7Y311D01*
X64Y311D02*
X148Y311D01*
X174Y311D02*
X177Y311D01*
X209Y311D02*
X214Y311D01*
X233Y311D02*
X236Y311D01*
X244Y311D02*
X248Y311D01*
X262Y311D02*
X266Y311D01*
X280Y311D02*
X283Y311D01*
X296Y311D02*
X315Y311D01*
X359Y311D02*
X363Y311D01*
X365Y311D02*
X446Y311D01*
X503Y311D02*
X510Y311D01*
X0Y310D02*
X7Y310D01*
X66Y310D02*
X148Y310D01*
X174Y310D02*
X177Y310D01*
X210Y310D02*
X214Y310D01*
X232Y310D02*
X248Y310D01*
X262Y310D02*
X266Y310D01*
X280Y310D02*
X283Y310D01*
X296Y310D02*
X314Y310D01*
X359Y310D02*
X363Y310D01*
X367Y310D02*
X444Y310D01*
X503Y310D02*
X510Y310D01*
X0Y309D02*
X7Y309D01*
X69Y309D02*
X140Y309D01*
X144Y309D02*
X149Y309D01*
X174Y309D02*
X177Y309D01*
X210Y309D02*
X215Y309D01*
X232Y309D02*
X248Y309D01*
X262Y309D02*
X266Y309D01*
X280Y309D02*
X283Y309D01*
X309Y309D02*
X312Y309D01*
X359Y309D02*
X363Y309D01*
X370Y309D02*
X441Y309D01*
X503Y309D02*
X510Y309D01*
X0Y308D02*
X7Y308D01*
X72Y308D02*
X137Y308D01*
X145Y308D02*
X149Y308D01*
X174Y308D02*
X177Y308D01*
X211Y308D02*
X216Y308D01*
X232Y308D02*
X249Y308D01*
X262Y308D02*
X266Y308D01*
X280Y308D02*
X283Y308D01*
X309Y308D02*
X312Y308D01*
X359Y308D02*
X363Y308D01*
X373Y308D02*
X438Y308D01*
X503Y308D02*
X510Y308D01*
X0Y307D02*
X7Y307D01*
X75Y307D02*
X136Y307D01*
X146Y307D02*
X150Y307D01*
X174Y307D02*
X177Y307D01*
X212Y307D02*
X217Y307D01*
X231Y307D02*
X249Y307D01*
X262Y307D02*
X266Y307D01*
X280Y307D02*
X283Y307D01*
X309Y307D02*
X312Y307D01*
X359Y307D02*
X363Y307D01*
X376Y307D02*
X435Y307D01*
X503Y307D02*
X510Y307D01*
X0Y306D02*
X7Y306D01*
X78Y306D02*
X136Y306D01*
X146Y306D02*
X151Y306D01*
X174Y306D02*
X177Y306D01*
X198Y306D02*
X199Y306D01*
X213Y306D02*
X217Y306D01*
X231Y306D02*
X249Y306D01*
X262Y306D02*
X266Y306D01*
X280Y306D02*
X283Y306D01*
X309Y306D02*
X312Y306D01*
X359Y306D02*
X363Y306D01*
X379Y306D02*
X432Y306D01*
X503Y306D02*
X510Y306D01*
X0Y305D02*
X7Y305D01*
X83Y305D02*
X127Y305D01*
X132Y305D02*
X136Y305D01*
X147Y305D02*
X151Y305D01*
X174Y305D02*
X177Y305D01*
X197Y305D02*
X200Y305D01*
X213Y305D02*
X218Y305D01*
X231Y305D02*
X235Y305D01*
X246Y305D02*
X250Y305D01*
X262Y305D02*
X266Y305D01*
X280Y305D02*
X283Y305D01*
X309Y305D02*
X312Y305D01*
X359Y305D02*
X363Y305D01*
X384Y305D02*
X428Y305D01*
X503Y305D02*
X510Y305D01*
X0Y304D02*
X7Y304D01*
X88Y304D02*
X122Y304D01*
X132Y304D02*
X136Y304D01*
X147Y304D02*
X152Y304D01*
X174Y304D02*
X177Y304D01*
X197Y304D02*
X201Y304D01*
X214Y304D02*
X218Y304D01*
X230Y304D02*
X234Y304D01*
X246Y304D02*
X250Y304D01*
X262Y304D02*
X266Y304D01*
X280Y304D02*
X283Y304D01*
X309Y304D02*
X312Y304D01*
X359Y304D02*
X363Y304D01*
X389Y304D02*
X423Y304D01*
X503Y304D02*
X510Y304D01*
X0Y303D02*
X7Y303D01*
X95Y303D02*
X114Y303D01*
X148Y303D02*
X152Y303D01*
X174Y303D02*
X177Y303D01*
X197Y303D02*
X201Y303D01*
X230Y303D02*
X234Y303D01*
X246Y303D02*
X250Y303D01*
X262Y303D02*
X266Y303D01*
X280Y303D02*
X283Y303D01*
X309Y303D02*
X312Y303D01*
X359Y303D02*
X363Y303D01*
X396Y303D02*
X415Y303D01*
X503Y303D02*
X510Y303D01*
X0Y302D02*
X7Y302D01*
X149Y302D02*
X153Y302D01*
X174Y302D02*
X177Y302D01*
X197Y302D02*
X205Y302D01*
X230Y302D02*
X234Y302D01*
X247Y302D02*
X250Y302D01*
X262Y302D02*
X283Y302D01*
X309Y302D02*
X312Y302D01*
X359Y302D02*
X362Y302D01*
X503Y302D02*
X510Y302D01*
X0Y301D02*
X7Y301D01*
X150Y301D02*
X153Y301D01*
X174Y301D02*
X177Y301D01*
X198Y301D02*
X202Y301D01*
X230Y301D02*
X233Y301D01*
X247Y301D02*
X251Y301D01*
X262Y301D02*
X281Y301D01*
X309Y301D02*
X312Y301D01*
X359Y301D02*
X359Y301D01*
X503Y301D02*
X510Y301D01*
X0Y300D02*
X7Y300D01*
X152Y300D02*
X153Y300D01*
X174Y300D02*
X177Y300D01*
X199Y300D02*
X200Y300D01*
X231Y300D02*
X233Y300D01*
X247Y300D02*
X251Y300D01*
X263Y300D02*
X278Y300D01*
X310Y300D02*
X312Y300D01*
X503Y300D02*
X510Y300D01*
X0Y299D02*
X7Y299D01*
X174Y299D02*
X177Y299D01*
X233Y299D02*
X233Y299D01*
X248Y299D02*
X250Y299D01*
X264Y299D02*
X276Y299D01*
X312Y299D02*
X312Y299D01*
X503Y299D02*
X510Y299D01*
X0Y298D02*
X7Y298D01*
X267Y298D02*
X274Y298D01*
X503Y298D02*
X510Y298D01*
X0Y297D02*
X7Y297D01*
X503Y297D02*
X510Y297D01*
X0Y296D02*
X7Y296D01*
X503Y296D02*
X510Y296D01*
X0Y295D02*
X7Y295D01*
X503Y295D02*
X510Y295D01*
X0Y294D02*
X7Y294D01*
X503Y294D02*
X510Y294D01*
X0Y293D02*
X7Y293D01*
X503Y293D02*
X510Y293D01*
X0Y292D02*
X7Y292D01*
X503Y292D02*
X510Y292D01*
X0Y291D02*
X7Y291D01*
X503Y291D02*
X510Y291D01*
X0Y290D02*
X7Y290D01*
X503Y290D02*
X510Y290D01*
X0Y289D02*
X7Y289D01*
X503Y289D02*
X510Y289D01*
X0Y288D02*
X7Y288D01*
X503Y288D02*
X510Y288D01*
X0Y287D02*
X7Y287D01*
X503Y287D02*
X510Y287D01*
X0Y286D02*
X7Y286D01*
X503Y286D02*
X510Y286D01*
X0Y285D02*
X7Y285D01*
X503Y285D02*
X510Y285D01*
X0Y284D02*
X7Y284D01*
X503Y284D02*
X510Y284D01*
X0Y283D02*
X7Y283D01*
X503Y283D02*
X510Y283D01*
X0Y282D02*
X7Y282D01*
X503Y282D02*
X510Y282D01*
X0Y281D02*
X7Y281D01*
X503Y281D02*
X510Y281D01*
X0Y280D02*
X7Y280D01*
X503Y280D02*
X510Y280D01*
X0Y279D02*
X7Y279D01*
X503Y279D02*
X510Y279D01*
X0Y278D02*
X7Y278D01*
X503Y278D02*
X510Y278D01*
X0Y277D02*
X7Y277D01*
X503Y277D02*
X510Y277D01*
X0Y276D02*
X7Y276D01*
X503Y276D02*
X510Y276D01*
X0Y275D02*
X7Y275D01*
X503Y275D02*
X510Y275D01*
X0Y274D02*
X7Y274D01*
X503Y274D02*
X510Y274D01*
X0Y273D02*
X7Y273D01*
X503Y273D02*
X510Y273D01*
X0Y272D02*
X7Y272D01*
X503Y272D02*
X510Y272D01*
X0Y271D02*
X7Y271D01*
X503Y271D02*
X510Y271D01*
X0Y270D02*
X7Y270D01*
X503Y270D02*
X510Y270D01*
X0Y269D02*
X7Y269D01*
X503Y269D02*
X510Y269D01*
X0Y268D02*
X7Y268D01*
X503Y268D02*
X510Y268D01*
X0Y267D02*
X7Y267D01*
X503Y267D02*
X510Y267D01*
X0Y266D02*
X7Y266D01*
X503Y266D02*
X510Y266D01*
X0Y265D02*
X7Y265D01*
X503Y265D02*
X510Y265D01*
X0Y264D02*
X7Y264D01*
X503Y264D02*
X510Y264D01*
X0Y263D02*
X7Y263D01*
X503Y263D02*
X510Y263D01*
X0Y262D02*
X7Y262D01*
X503Y262D02*
X510Y262D01*
X0Y261D02*
X7Y261D01*
X503Y261D02*
X510Y261D01*
X0Y260D02*
X7Y260D01*
X503Y260D02*
X510Y260D01*
X0Y259D02*
X7Y259D01*
X503Y259D02*
X510Y259D01*
X0Y258D02*
X7Y258D01*
X503Y258D02*
X510Y258D01*
X0Y257D02*
X7Y257D01*
X503Y257D02*
X510Y257D01*
X0Y256D02*
X7Y256D01*
X503Y256D02*
X510Y256D01*
X0Y255D02*
X7Y255D01*
X503Y255D02*
X510Y255D01*
X0Y254D02*
X7Y254D01*
X503Y254D02*
X510Y254D01*
X0Y253D02*
X7Y253D01*
X503Y253D02*
X510Y253D01*
X0Y252D02*
X7Y252D01*
X503Y252D02*
X510Y252D01*
X0Y251D02*
X7Y251D01*
X503Y251D02*
X510Y251D01*
X0Y250D02*
X7Y250D01*
X503Y250D02*
X510Y250D01*
X0Y249D02*
X7Y249D01*
X503Y249D02*
X510Y249D01*
X0Y248D02*
X7Y248D01*
X503Y248D02*
X510Y248D01*
X0Y247D02*
X7Y247D01*
X503Y247D02*
X510Y247D01*
X0Y246D02*
X7Y246D01*
X503Y246D02*
X510Y246D01*
X0Y245D02*
X7Y245D01*
X503Y245D02*
X510Y245D01*
X0Y244D02*
X7Y244D01*
X503Y244D02*
X510Y244D01*
X0Y243D02*
X7Y243D01*
X503Y243D02*
X510Y243D01*
X0Y242D02*
X7Y242D01*
X503Y242D02*
X510Y242D01*
X0Y241D02*
X7Y241D01*
X503Y241D02*
X510Y241D01*
X0Y240D02*
X7Y240D01*
X503Y240D02*
X510Y240D01*
X0Y239D02*
X7Y239D01*
X503Y239D02*
X510Y239D01*
X0Y238D02*
X7Y238D01*
X503Y238D02*
X510Y238D01*
X0Y237D02*
X7Y237D01*
X503Y237D02*
X510Y237D01*
X0Y236D02*
X7Y236D01*
X503Y236D02*
X510Y236D01*
X0Y235D02*
X7Y235D01*
X503Y235D02*
X510Y235D01*
X0Y234D02*
X7Y234D01*
X503Y234D02*
X510Y234D01*
X0Y233D02*
X7Y233D01*
X503Y233D02*
X510Y233D01*
X0Y232D02*
X7Y232D01*
X503Y232D02*
X510Y232D01*
X0Y231D02*
X7Y231D01*
X503Y231D02*
X510Y231D01*
X0Y230D02*
X7Y230D01*
X503Y230D02*
X510Y230D01*
X0Y229D02*
X7Y229D01*
X503Y229D02*
X510Y229D01*
X0Y228D02*
X7Y228D01*
X503Y228D02*
X510Y228D01*
X0Y227D02*
X7Y227D01*
X503Y227D02*
X510Y227D01*
X0Y226D02*
X7Y226D01*
X503Y226D02*
X510Y226D01*
X0Y225D02*
X7Y225D01*
X503Y225D02*
X510Y225D01*
X0Y224D02*
X7Y224D01*
X503Y224D02*
X510Y224D01*
X0Y223D02*
X7Y223D01*
X503Y223D02*
X510Y223D01*
X0Y222D02*
X7Y222D01*
X503Y222D02*
X510Y222D01*
X0Y221D02*
X7Y221D01*
X503Y221D02*
X510Y221D01*
X0Y220D02*
X7Y220D01*
X503Y220D02*
X510Y220D01*
X0Y219D02*
X7Y219D01*
X503Y219D02*
X510Y219D01*
X0Y218D02*
X7Y218D01*
X503Y218D02*
X510Y218D01*
X0Y217D02*
X7Y217D01*
X503Y217D02*
X510Y217D01*
X0Y216D02*
X7Y216D01*
X503Y216D02*
X510Y216D01*
X0Y215D02*
X7Y215D01*
X503Y215D02*
X510Y215D01*
X0Y214D02*
X7Y214D01*
X503Y214D02*
X510Y214D01*
X0Y213D02*
X7Y213D01*
X503Y213D02*
X510Y213D01*
X0Y212D02*
X7Y212D01*
X503Y212D02*
X510Y212D01*
X0Y211D02*
X7Y211D01*
X503Y211D02*
X510Y211D01*
X0Y210D02*
X7Y210D01*
X91Y210D02*
X97Y210D01*
X412Y210D02*
X420Y210D01*
X503Y210D02*
X510Y210D01*
X0Y209D02*
X7Y209D01*
X85Y209D02*
X96Y209D01*
X413Y209D02*
X426Y209D01*
X503Y209D02*
X510Y209D01*
X0Y208D02*
X7Y208D01*
X80Y208D02*
X95Y208D01*
X413Y208D02*
X430Y208D01*
X503Y208D02*
X510Y208D01*
X0Y207D02*
X7Y207D01*
X76Y207D02*
X95Y207D01*
X414Y207D02*
X434Y207D01*
X503Y207D02*
X510Y207D01*
X0Y206D02*
X7Y206D01*
X73Y206D02*
X94Y206D01*
X415Y206D02*
X437Y206D01*
X503Y206D02*
X510Y206D01*
X0Y205D02*
X7Y205D01*
X70Y205D02*
X93Y205D01*
X415Y205D02*
X440Y205D01*
X503Y205D02*
X510Y205D01*
X0Y204D02*
X7Y204D01*
X67Y204D02*
X93Y204D01*
X416Y204D02*
X443Y204D01*
X503Y204D02*
X510Y204D01*
X0Y203D02*
X7Y203D01*
X65Y203D02*
X92Y203D01*
X417Y203D02*
X445Y203D01*
X503Y203D02*
X510Y203D01*
X0Y202D02*
X7Y202D01*
X63Y202D02*
X92Y202D01*
X417Y202D02*
X447Y202D01*
X503Y202D02*
X510Y202D01*
X0Y201D02*
X7Y201D01*
X61Y201D02*
X91Y201D01*
X418Y201D02*
X450Y201D01*
X503Y201D02*
X510Y201D01*
X0Y200D02*
X7Y200D01*
X59Y200D02*
X90Y200D01*
X421Y200D02*
X452Y200D01*
X503Y200D02*
X510Y200D01*
X0Y199D02*
X7Y199D01*
X57Y199D02*
X84Y199D01*
X426Y199D02*
X454Y199D01*
X503Y199D02*
X510Y199D01*
X0Y198D02*
X7Y198D01*
X55Y198D02*
X80Y198D01*
X430Y198D02*
X456Y198D01*
X503Y198D02*
X510Y198D01*
X0Y197D02*
X7Y197D01*
X53Y197D02*
X76Y197D01*
X434Y197D02*
X457Y197D01*
X503Y197D02*
X510Y197D01*
X0Y196D02*
X7Y196D01*
X51Y196D02*
X73Y196D01*
X437Y196D02*
X459Y196D01*
X503Y196D02*
X510Y196D01*
X0Y195D02*
X7Y195D01*
X50Y195D02*
X71Y195D01*
X160Y195D02*
X160Y195D01*
X440Y195D02*
X461Y195D01*
X503Y195D02*
X510Y195D01*
X0Y194D02*
X7Y194D01*
X48Y194D02*
X68Y194D01*
X160Y194D02*
X161Y194D01*
X442Y194D02*
X462Y194D01*
X503Y194D02*
X510Y194D01*
X0Y193D02*
X7Y193D01*
X46Y193D02*
X66Y193D01*
X161Y193D02*
X163Y193D01*
X347Y193D02*
X348Y193D01*
X445Y193D02*
X464Y193D01*
X503Y193D02*
X510Y193D01*
X0Y192D02*
X7Y192D01*
X45Y192D02*
X64Y192D01*
X161Y192D02*
X164Y192D01*
X346Y192D02*
X348Y192D01*
X447Y192D02*
X465Y192D01*
X503Y192D02*
X510Y192D01*
X0Y191D02*
X7Y191D01*
X44Y191D02*
X62Y191D01*
X161Y191D02*
X166Y191D01*
X345Y191D02*
X348Y191D01*
X449Y191D02*
X467Y191D01*
X503Y191D02*
X510Y191D01*
X0Y190D02*
X7Y190D01*
X42Y190D02*
X59Y190D01*
X161Y190D02*
X167Y190D01*
X343Y190D02*
X348Y190D01*
X451Y190D02*
X468Y190D01*
X503Y190D02*
X510Y190D01*
X0Y189D02*
X7Y189D01*
X41Y189D02*
X58Y189D01*
X161Y189D02*
X168Y189D01*
X342Y189D02*
X348Y189D01*
X453Y189D02*
X469Y189D01*
X503Y189D02*
X510Y189D01*
X0Y188D02*
X7Y188D01*
X40Y188D02*
X56Y188D01*
X161Y188D02*
X170Y188D01*
X341Y188D02*
X347Y188D01*
X454Y188D02*
X471Y188D01*
X503Y188D02*
X510Y188D01*
X0Y187D02*
X7Y187D01*
X38Y187D02*
X54Y187D01*
X161Y187D02*
X171Y187D01*
X339Y187D02*
X347Y187D01*
X456Y187D02*
X472Y187D01*
X503Y187D02*
X510Y187D01*
X0Y186D02*
X7Y186D01*
X37Y186D02*
X53Y186D01*
X161Y186D02*
X172Y186D01*
X338Y186D02*
X347Y186D01*
X457Y186D02*
X473Y186D01*
X503Y186D02*
X510Y186D01*
X0Y185D02*
X7Y185D01*
X36Y185D02*
X51Y185D01*
X161Y185D02*
X173Y185D01*
X337Y185D02*
X347Y185D01*
X459Y185D02*
X474Y185D01*
X503Y185D02*
X510Y185D01*
X0Y184D02*
X7Y184D01*
X35Y184D02*
X50Y184D01*
X161Y184D02*
X174Y184D01*
X336Y184D02*
X347Y184D01*
X460Y184D02*
X475Y184D01*
X503Y184D02*
X510Y184D01*
X0Y183D02*
X7Y183D01*
X34Y183D02*
X48Y183D01*
X161Y183D02*
X175Y183D01*
X335Y183D02*
X348Y183D01*
X462Y183D02*
X476Y183D01*
X503Y183D02*
X510Y183D01*
X0Y182D02*
X7Y182D01*
X33Y182D02*
X47Y182D01*
X162Y182D02*
X176Y182D01*
X334Y182D02*
X348Y182D01*
X463Y182D02*
X477Y182D01*
X503Y182D02*
X510Y182D01*
X0Y181D02*
X7Y181D01*
X32Y181D02*
X46Y181D01*
X163Y181D02*
X178Y181D01*
X333Y181D02*
X347Y181D01*
X464Y181D02*
X479Y181D01*
X503Y181D02*
X510Y181D01*
X0Y180D02*
X7Y180D01*
X31Y180D02*
X44Y180D01*
X165Y180D02*
X179Y180D01*
X332Y180D02*
X346Y180D01*
X466Y180D02*
X480Y180D01*
X503Y180D02*
X510Y180D01*
X0Y179D02*
X7Y179D01*
X30Y179D02*
X43Y179D01*
X166Y179D02*
X179Y179D01*
X331Y179D02*
X344Y179D01*
X467Y179D02*
X481Y179D01*
X503Y179D02*
X510Y179D01*
X0Y178D02*
X7Y178D01*
X29Y178D02*
X42Y178D01*
X167Y178D02*
X180Y178D01*
X330Y178D02*
X343Y178D01*
X468Y178D02*
X481Y178D01*
X503Y178D02*
X510Y178D01*
X0Y177D02*
X7Y177D01*
X28Y177D02*
X41Y177D01*
X168Y177D02*
X181Y177D01*
X329Y177D02*
X342Y177D01*
X469Y177D02*
X482Y177D01*
X503Y177D02*
X510Y177D01*
X0Y176D02*
X7Y176D01*
X27Y176D02*
X40Y176D01*
X169Y176D02*
X182Y176D01*
X328Y176D02*
X341Y176D01*
X470Y176D02*
X483Y176D01*
X503Y176D02*
X510Y176D01*
X0Y175D02*
X7Y175D01*
X26Y175D02*
X39Y175D01*
X170Y175D02*
X183Y175D01*
X327Y175D02*
X340Y175D01*
X471Y175D02*
X484Y175D01*
X503Y175D02*
X510Y175D01*
X0Y174D02*
X7Y174D01*
X25Y174D02*
X38Y174D01*
X171Y174D02*
X184Y174D01*
X326Y174D02*
X339Y174D01*
X472Y174D02*
X485Y174D01*
X503Y174D02*
X510Y174D01*
X0Y173D02*
X7Y173D01*
X24Y173D02*
X37Y173D01*
X172Y173D02*
X185Y173D01*
X325Y173D02*
X338Y173D01*
X473Y173D02*
X486Y173D01*
X503Y173D02*
X510Y173D01*
X0Y172D02*
X7Y172D01*
X24Y172D02*
X36Y172D01*
X173Y172D02*
X186Y172D01*
X325Y172D02*
X337Y172D01*
X474Y172D02*
X487Y172D01*
X503Y172D02*
X510Y172D01*
X0Y171D02*
X7Y171D01*
X23Y171D02*
X35Y171D01*
X174Y171D02*
X186Y171D01*
X324Y171D02*
X336Y171D01*
X475Y171D02*
X487Y171D01*
X503Y171D02*
X510Y171D01*
X0Y170D02*
X7Y170D01*
X22Y170D02*
X34Y170D01*
X175Y170D02*
X187Y170D01*
X323Y170D02*
X335Y170D01*
X476Y170D02*
X488Y170D01*
X503Y170D02*
X510Y170D01*
X0Y169D02*
X7Y169D01*
X21Y169D02*
X33Y169D01*
X176Y169D02*
X188Y169D01*
X322Y169D02*
X334Y169D01*
X477Y169D02*
X489Y169D01*
X503Y169D02*
X510Y169D01*
X0Y168D02*
X7Y168D01*
X21Y168D02*
X32Y168D01*
X177Y168D02*
X189Y168D01*
X322Y168D02*
X333Y168D01*
X478Y168D02*
X490Y168D01*
X503Y168D02*
X510Y168D01*
X0Y167D02*
X7Y167D01*
X20Y167D02*
X31Y167D01*
X178Y167D02*
X189Y167D01*
X321Y167D02*
X332Y167D01*
X479Y167D02*
X490Y167D01*
X503Y167D02*
X510Y167D01*
X0Y166D02*
X7Y166D01*
X19Y166D02*
X30Y166D01*
X179Y166D02*
X190Y166D01*
X320Y166D02*
X332Y166D01*
X339Y166D02*
X353Y166D01*
X480Y166D02*
X491Y166D01*
X503Y166D02*
X510Y166D01*
X0Y165D02*
X7Y165D01*
X18Y165D02*
X30Y165D01*
X179Y165D02*
X191Y165D01*
X319Y165D02*
X331Y165D01*
X337Y165D02*
X354Y165D01*
X481Y165D02*
X492Y165D01*
X503Y165D02*
X510Y165D01*
X0Y164D02*
X7Y164D01*
X18Y164D02*
X29Y164D01*
X180Y164D02*
X191Y164D01*
X319Y164D02*
X330Y164D01*
X337Y164D02*
X355Y164D01*
X481Y164D02*
X493Y164D01*
X503Y164D02*
X510Y164D01*
X0Y163D02*
X7Y163D01*
X17Y163D02*
X28Y163D01*
X181Y163D02*
X192Y163D01*
X318Y163D02*
X329Y163D01*
X336Y163D02*
X355Y163D01*
X482Y163D02*
X493Y163D01*
X503Y163D02*
X510Y163D01*
X0Y162D02*
X7Y162D01*
X17Y162D02*
X27Y162D01*
X182Y162D02*
X193Y162D01*
X318Y162D02*
X329Y162D01*
X336Y162D02*
X356Y162D01*
X483Y162D02*
X494Y162D01*
X503Y162D02*
X510Y162D01*
X0Y161D02*
X7Y161D01*
X16Y161D02*
X27Y161D01*
X182Y161D02*
X193Y161D01*
X317Y161D02*
X328Y161D01*
X336Y161D02*
X357Y161D01*
X484Y161D02*
X494Y161D01*
X503Y161D02*
X510Y161D01*
X0Y160D02*
X7Y160D01*
X15Y160D02*
X26Y160D01*
X183Y160D02*
X194Y160D01*
X316Y160D02*
X327Y160D01*
X336Y160D02*
X358Y160D01*
X484Y160D02*
X495Y160D01*
X503Y160D02*
X510Y160D01*
X0Y159D02*
X7Y159D01*
X15Y159D02*
X25Y159D01*
X184Y159D02*
X194Y159D01*
X316Y159D02*
X326Y159D01*
X336Y159D02*
X359Y159D01*
X485Y159D02*
X496Y159D01*
X503Y159D02*
X510Y159D01*
X0Y158D02*
X7Y158D01*
X14Y158D02*
X25Y158D01*
X185Y158D02*
X195Y158D01*
X315Y158D02*
X326Y158D01*
X337Y158D02*
X360Y158D01*
X486Y158D02*
X496Y158D01*
X503Y158D02*
X510Y158D01*
X0Y157D02*
X7Y157D01*
X13Y157D02*
X24Y157D01*
X185Y157D02*
X196Y157D01*
X315Y157D02*
X325Y157D01*
X338Y157D02*
X362Y157D01*
X486Y157D02*
X497Y157D01*
X503Y157D02*
X510Y157D01*
X0Y156D02*
X7Y156D01*
X13Y156D02*
X23Y156D01*
X186Y156D02*
X196Y156D01*
X314Y156D02*
X324Y156D01*
X340Y156D02*
X363Y156D01*
X487Y156D02*
X497Y156D01*
X503Y156D02*
X510Y156D01*
X0Y155D02*
X7Y155D01*
X12Y155D02*
X23Y155D01*
X186Y155D02*
X197Y155D01*
X313Y155D02*
X324Y155D01*
X487Y155D02*
X498Y155D01*
X503Y155D02*
X510Y155D01*
X0Y154D02*
X7Y154D01*
X12Y154D02*
X22Y154D01*
X187Y154D02*
X197Y154D01*
X313Y154D02*
X323Y154D01*
X488Y154D02*
X498Y154D01*
X503Y154D02*
X510Y154D01*
X0Y153D02*
X7Y153D01*
X11Y153D02*
X22Y153D01*
X188Y153D02*
X198Y153D01*
X313Y153D02*
X323Y153D01*
X489Y153D02*
X499Y153D01*
X503Y153D02*
X510Y153D01*
X0Y152D02*
X7Y152D01*
X11Y152D02*
X21Y152D01*
X188Y152D02*
X198Y152D01*
X312Y152D02*
X322Y152D01*
X489Y152D02*
X499Y152D01*
X503Y152D02*
X510Y152D01*
X0Y151D02*
X7Y151D01*
X11Y151D02*
X20Y151D01*
X189Y151D02*
X199Y151D01*
X312Y151D02*
X321Y151D01*
X490Y151D02*
X500Y151D01*
X503Y151D02*
X510Y151D01*
X0Y150D02*
X7Y150D01*
X10Y150D02*
X20Y150D01*
X189Y150D02*
X199Y150D01*
X311Y150D02*
X321Y150D01*
X490Y150D02*
X500Y150D01*
X503Y150D02*
X510Y150D01*
X0Y149D02*
X7Y149D01*
X10Y149D02*
X19Y149D01*
X190Y149D02*
X200Y149D01*
X311Y149D02*
X320Y149D01*
X491Y149D02*
X501Y149D01*
X503Y149D02*
X510Y149D01*
X0Y148D02*
X7Y148D01*
X9Y148D02*
X12Y148D01*
X190Y148D02*
X200Y148D01*
X310Y148D02*
X313Y148D01*
X491Y148D02*
X501Y148D01*
X503Y148D02*
X510Y148D01*
X0Y147D02*
X7Y147D01*
X9Y147D02*
X12Y147D01*
X191Y147D02*
X201Y147D01*
X310Y147D02*
X313Y147D01*
X492Y147D02*
X510Y147D01*
X0Y146D02*
X12Y146D01*
X191Y146D02*
X201Y146D01*
X309Y146D02*
X313Y146D01*
X492Y146D02*
X510Y146D01*
X0Y145D02*
X12Y145D01*
X192Y145D02*
X201Y145D01*
X309Y145D02*
X313Y145D01*
X493Y145D02*
X510Y145D01*
X0Y144D02*
X12Y144D01*
X192Y144D02*
X202Y144D01*
X308Y144D02*
X313Y144D01*
X493Y144D02*
X510Y144D01*
X0Y143D02*
X12Y143D01*
X193Y143D02*
X202Y143D01*
X308Y143D02*
X313Y143D01*
X494Y143D02*
X510Y143D01*
X0Y142D02*
X12Y142D01*
X193Y142D02*
X203Y142D01*
X308Y142D02*
X313Y142D01*
X494Y142D02*
X510Y142D01*
X0Y141D02*
X12Y141D01*
X193Y141D02*
X203Y141D01*
X307Y141D02*
X313Y141D01*
X494Y141D02*
X510Y141D01*
X0Y140D02*
X12Y140D01*
X194Y140D02*
X203Y140D01*
X307Y140D02*
X313Y140D01*
X495Y140D02*
X510Y140D01*
X0Y139D02*
X12Y139D01*
X194Y139D02*
X204Y139D01*
X307Y139D02*
X313Y139D01*
X495Y139D02*
X510Y139D01*
X0Y138D02*
X12Y138D01*
X194Y138D02*
X204Y138D01*
X306Y138D02*
X313Y138D01*
X496Y138D02*
X510Y138D01*
X0Y137D02*
X12Y137D01*
X195Y137D02*
X204Y137D01*
X306Y137D02*
X313Y137D01*
X496Y137D02*
X510Y137D01*
X0Y136D02*
X12Y136D01*
X195Y136D02*
X205Y136D01*
X306Y136D02*
X313Y136D01*
X496Y136D02*
X510Y136D01*
X0Y135D02*
X12Y135D01*
X196Y135D02*
X205Y135D01*
X305Y135D02*
X313Y135D01*
X497Y135D02*
X510Y135D01*
X0Y134D02*
X12Y134D01*
X196Y134D02*
X205Y134D01*
X305Y134D02*
X313Y134D01*
X497Y134D02*
X510Y134D01*
X0Y133D02*
X12Y133D01*
X196Y133D02*
X205Y133D01*
X305Y133D02*
X313Y133D01*
X497Y133D02*
X510Y133D01*
X0Y132D02*
X12Y132D01*
X196Y132D02*
X206Y132D01*
X305Y132D02*
X313Y132D01*
X498Y132D02*
X510Y132D01*
X0Y131D02*
X12Y131D01*
X197Y131D02*
X206Y131D01*
X304Y131D02*
X313Y131D01*
X498Y131D02*
X510Y131D01*
X0Y130D02*
X12Y130D01*
X197Y130D02*
X206Y130D01*
X304Y130D02*
X313Y130D01*
X498Y130D02*
X510Y130D01*
X0Y129D02*
X12Y129D01*
X197Y129D02*
X206Y129D01*
X304Y129D02*
X313Y129D01*
X498Y129D02*
X510Y129D01*
X0Y128D02*
X12Y128D01*
X197Y128D02*
X207Y128D01*
X304Y128D02*
X313Y128D01*
X499Y128D02*
X510Y128D01*
X0Y127D02*
X11Y127D01*
X198Y127D02*
X207Y127D01*
X303Y127D02*
X313Y127D01*
X499Y127D02*
X510Y127D01*
X0Y126D02*
X11Y126D01*
X198Y126D02*
X207Y126D01*
X303Y126D02*
X312Y126D01*
X499Y126D02*
X510Y126D01*
X0Y125D02*
X11Y125D01*
X198Y125D02*
X207Y125D01*
X303Y125D02*
X312Y125D01*
X499Y125D02*
X510Y125D01*
X0Y124D02*
X11Y124D01*
X198Y124D02*
X207Y124D01*
X303Y124D02*
X312Y124D01*
X499Y124D02*
X510Y124D01*
X0Y123D02*
X11Y123D01*
X198Y123D02*
X208Y123D01*
X303Y123D02*
X312Y123D01*
X500Y123D02*
X510Y123D01*
X0Y122D02*
X11Y122D01*
X199Y122D02*
X208Y122D01*
X303Y122D02*
X312Y122D01*
X500Y122D02*
X510Y122D01*
X0Y121D02*
X10Y121D01*
X199Y121D02*
X208Y121D01*
X302Y121D02*
X311Y121D01*
X500Y121D02*
X510Y121D01*
X0Y120D02*
X10Y120D01*
X199Y120D02*
X208Y120D01*
X302Y120D02*
X311Y120D01*
X500Y120D02*
X510Y120D01*
X0Y119D02*
X10Y119D01*
X199Y119D02*
X208Y119D01*
X302Y119D02*
X311Y119D01*
X500Y119D02*
X510Y119D01*
X0Y118D02*
X10Y118D01*
X199Y118D02*
X208Y118D01*
X302Y118D02*
X311Y118D01*
X500Y118D02*
X510Y118D01*
X0Y117D02*
X10Y117D01*
X199Y117D02*
X208Y117D01*
X302Y117D02*
X311Y117D01*
X500Y117D02*
X510Y117D01*
X0Y116D02*
X10Y116D01*
X199Y116D02*
X208Y116D01*
X302Y116D02*
X311Y116D01*
X501Y116D02*
X510Y116D01*
X0Y115D02*
X10Y115D01*
X200Y115D02*
X209Y115D01*
X302Y115D02*
X311Y115D01*
X501Y115D02*
X510Y115D01*
X0Y114D02*
X10Y114D01*
X200Y114D02*
X209Y114D01*
X302Y114D02*
X311Y114D01*
X501Y114D02*
X510Y114D01*
X0Y113D02*
X10Y113D01*
X200Y113D02*
X209Y113D01*
X302Y113D02*
X311Y113D01*
X501Y113D02*
X510Y113D01*
X0Y112D02*
X9Y112D01*
X200Y112D02*
X209Y112D01*
X301Y112D02*
X311Y112D01*
X501Y112D02*
X510Y112D01*
X0Y111D02*
X9Y111D01*
X200Y111D02*
X209Y111D01*
X301Y111D02*
X310Y111D01*
X501Y111D02*
X510Y111D01*
X0Y110D02*
X9Y110D01*
X200Y110D02*
X209Y110D01*
X301Y110D02*
X310Y110D01*
X501Y110D02*
X510Y110D01*
X0Y109D02*
X9Y109D01*
X200Y109D02*
X209Y109D01*
X301Y109D02*
X310Y109D01*
X501Y109D02*
X510Y109D01*
X0Y108D02*
X9Y108D01*
X200Y108D02*
X209Y108D01*
X301Y108D02*
X310Y108D01*
X501Y108D02*
X510Y108D01*
X0Y107D02*
X9Y107D01*
X200Y107D02*
X209Y107D01*
X301Y107D02*
X310Y107D01*
X501Y107D02*
X510Y107D01*
X0Y106D02*
X9Y106D01*
X200Y106D02*
X209Y106D01*
X301Y106D02*
X310Y106D01*
X501Y106D02*
X510Y106D01*
X0Y105D02*
X9Y105D01*
X200Y105D02*
X209Y105D01*
X301Y105D02*
X310Y105D01*
X501Y105D02*
X510Y105D01*
X0Y104D02*
X9Y104D01*
X200Y104D02*
X209Y104D01*
X301Y104D02*
X310Y104D01*
X501Y104D02*
X510Y104D01*
X0Y103D02*
X9Y103D01*
X200Y103D02*
X209Y103D01*
X301Y103D02*
X310Y103D01*
X501Y103D02*
X510Y103D01*
X0Y102D02*
X9Y102D01*
X200Y102D02*
X209Y102D01*
X301Y102D02*
X310Y102D01*
X501Y102D02*
X510Y102D01*
X0Y101D02*
X9Y101D01*
X200Y101D02*
X209Y101D01*
X301Y101D02*
X310Y101D01*
X501Y101D02*
X510Y101D01*
X0Y100D02*
X9Y100D01*
X200Y100D02*
X209Y100D01*
X302Y100D02*
X311Y100D01*
X501Y100D02*
X510Y100D01*
X0Y99D02*
X10Y99D01*
X200Y99D02*
X209Y99D01*
X302Y99D02*
X311Y99D01*
X501Y99D02*
X510Y99D01*
X0Y98D02*
X10Y98D01*
X200Y98D02*
X209Y98D01*
X302Y98D02*
X311Y98D01*
X501Y98D02*
X510Y98D01*
X0Y97D02*
X10Y97D01*
X200Y97D02*
X208Y97D01*
X302Y97D02*
X311Y97D01*
X501Y97D02*
X510Y97D01*
X0Y96D02*
X10Y96D01*
X199Y96D02*
X208Y96D01*
X302Y96D02*
X311Y96D01*
X500Y96D02*
X510Y96D01*
X0Y95D02*
X10Y95D01*
X199Y95D02*
X208Y95D01*
X302Y95D02*
X311Y95D01*
X500Y95D02*
X510Y95D01*
X0Y94D02*
X10Y94D01*
X199Y94D02*
X208Y94D01*
X302Y94D02*
X311Y94D01*
X500Y94D02*
X510Y94D01*
X0Y93D02*
X10Y93D01*
X199Y93D02*
X208Y93D01*
X302Y93D02*
X311Y93D01*
X500Y93D02*
X510Y93D01*
X0Y92D02*
X10Y92D01*
X199Y92D02*
X208Y92D01*
X302Y92D02*
X311Y92D01*
X500Y92D02*
X510Y92D01*
X0Y91D02*
X10Y91D01*
X199Y91D02*
X208Y91D01*
X302Y91D02*
X312Y91D01*
X500Y91D02*
X510Y91D01*
X0Y90D02*
X11Y90D01*
X199Y90D02*
X208Y90D01*
X303Y90D02*
X312Y90D01*
X500Y90D02*
X510Y90D01*
X0Y89D02*
X11Y89D01*
X198Y89D02*
X207Y89D01*
X303Y89D02*
X312Y89D01*
X499Y89D02*
X510Y89D01*
X0Y88D02*
X11Y88D01*
X198Y88D02*
X207Y88D01*
X303Y88D02*
X312Y88D01*
X499Y88D02*
X510Y88D01*
X0Y87D02*
X11Y87D01*
X198Y87D02*
X207Y87D01*
X303Y87D02*
X312Y87D01*
X499Y87D02*
X510Y87D01*
X0Y86D02*
X11Y86D01*
X198Y86D02*
X207Y86D01*
X303Y86D02*
X312Y86D01*
X499Y86D02*
X510Y86D01*
X0Y85D02*
X12Y85D01*
X198Y85D02*
X207Y85D01*
X304Y85D02*
X313Y85D01*
X499Y85D02*
X510Y85D01*
X0Y84D02*
X12Y84D01*
X197Y84D02*
X206Y84D01*
X304Y84D02*
X313Y84D01*
X498Y84D02*
X510Y84D01*
X0Y83D02*
X12Y83D01*
X197Y83D02*
X206Y83D01*
X304Y83D02*
X313Y83D01*
X498Y83D02*
X510Y83D01*
X0Y82D02*
X12Y82D01*
X197Y82D02*
X206Y82D01*
X304Y82D02*
X313Y82D01*
X498Y82D02*
X510Y82D01*
X0Y81D02*
X12Y81D01*
X197Y81D02*
X206Y81D01*
X304Y81D02*
X313Y81D01*
X498Y81D02*
X510Y81D01*
X0Y80D02*
X12Y80D01*
X196Y80D02*
X206Y80D01*
X305Y80D02*
X313Y80D01*
X497Y80D02*
X510Y80D01*
X0Y79D02*
X12Y79D01*
X196Y79D02*
X205Y79D01*
X305Y79D02*
X313Y79D01*
X497Y79D02*
X510Y79D01*
X0Y78D02*
X12Y78D01*
X196Y78D02*
X205Y78D01*
X305Y78D02*
X313Y78D01*
X497Y78D02*
X510Y78D01*
X0Y77D02*
X12Y77D01*
X195Y77D02*
X205Y77D01*
X306Y77D02*
X313Y77D01*
X496Y77D02*
X510Y77D01*
X0Y76D02*
X12Y76D01*
X195Y76D02*
X204Y76D01*
X306Y76D02*
X313Y76D01*
X496Y76D02*
X510Y76D01*
X0Y75D02*
X12Y75D01*
X195Y75D02*
X204Y75D01*
X306Y75D02*
X313Y75D01*
X496Y75D02*
X510Y75D01*
X0Y74D02*
X12Y74D01*
X194Y74D02*
X204Y74D01*
X306Y74D02*
X313Y74D01*
X495Y74D02*
X510Y74D01*
X0Y73D02*
X12Y73D01*
X194Y73D02*
X203Y73D01*
X307Y73D02*
X313Y73D01*
X495Y73D02*
X510Y73D01*
X0Y72D02*
X12Y72D01*
X194Y72D02*
X203Y72D01*
X307Y72D02*
X313Y72D01*
X495Y72D02*
X510Y72D01*
X0Y71D02*
X12Y71D01*
X193Y71D02*
X203Y71D01*
X308Y71D02*
X313Y71D01*
X494Y71D02*
X510Y71D01*
X0Y70D02*
X12Y70D01*
X193Y70D02*
X202Y70D01*
X308Y70D02*
X313Y70D01*
X494Y70D02*
X510Y70D01*
X0Y69D02*
X12Y69D01*
X192Y69D02*
X202Y69D01*
X308Y69D02*
X313Y69D01*
X494Y69D02*
X510Y69D01*
X0Y68D02*
X12Y68D01*
X192Y68D02*
X202Y68D01*
X309Y68D02*
X313Y68D01*
X493Y68D02*
X510Y68D01*
X0Y67D02*
X12Y67D01*
X191Y67D02*
X201Y67D01*
X309Y67D02*
X313Y67D01*
X493Y67D02*
X510Y67D01*
X0Y66D02*
X12Y66D01*
X191Y66D02*
X201Y66D01*
X309Y66D02*
X313Y66D01*
X492Y66D02*
X510Y66D01*
X0Y65D02*
X7Y65D01*
X9Y65D02*
X12Y65D01*
X191Y65D02*
X200Y65D01*
X310Y65D02*
X313Y65D01*
X492Y65D02*
X501Y65D01*
X503Y65D02*
X510Y65D01*
X0Y64D02*
X7Y64D01*
X9Y64D02*
X12Y64D01*
X190Y64D02*
X200Y64D01*
X310Y64D02*
X313Y64D01*
X491Y64D02*
X501Y64D01*
X503Y64D02*
X510Y64D01*
X0Y63D02*
X7Y63D01*
X10Y63D02*
X20Y63D01*
X190Y63D02*
X199Y63D01*
X311Y63D02*
X321Y63D01*
X491Y63D02*
X500Y63D01*
X503Y63D02*
X510Y63D01*
X0Y62D02*
X7Y62D01*
X10Y62D02*
X20Y62D01*
X189Y62D02*
X199Y62D01*
X311Y62D02*
X321Y62D01*
X490Y62D02*
X500Y62D01*
X503Y62D02*
X510Y62D01*
X0Y61D02*
X7Y61D01*
X11Y61D02*
X21Y61D01*
X189Y61D02*
X198Y61D01*
X312Y61D02*
X322Y61D01*
X490Y61D02*
X500Y61D01*
X503Y61D02*
X510Y61D01*
X0Y60D02*
X7Y60D01*
X11Y60D02*
X21Y60D01*
X188Y60D02*
X198Y60D01*
X312Y60D02*
X322Y60D01*
X489Y60D02*
X499Y60D01*
X503Y60D02*
X510Y60D01*
X0Y59D02*
X7Y59D01*
X12Y59D02*
X22Y59D01*
X187Y59D02*
X197Y59D01*
X313Y59D02*
X323Y59D01*
X488Y59D02*
X499Y59D01*
X503Y59D02*
X510Y59D01*
X0Y58D02*
X7Y58D01*
X12Y58D02*
X22Y58D01*
X187Y58D02*
X197Y58D01*
X313Y58D02*
X324Y58D01*
X488Y58D02*
X498Y58D01*
X503Y58D02*
X510Y58D01*
X0Y57D02*
X7Y57D01*
X13Y57D02*
X23Y57D01*
X186Y57D02*
X197Y57D01*
X314Y57D02*
X324Y57D01*
X487Y57D02*
X498Y57D01*
X503Y57D02*
X510Y57D01*
X0Y56D02*
X7Y56D01*
X13Y56D02*
X24Y56D01*
X186Y56D02*
X196Y56D01*
X314Y56D02*
X325Y56D01*
X487Y56D02*
X497Y56D01*
X503Y56D02*
X510Y56D01*
X0Y55D02*
X7Y55D01*
X14Y55D02*
X24Y55D01*
X185Y55D02*
X195Y55D01*
X315Y55D02*
X325Y55D01*
X486Y55D02*
X496Y55D01*
X503Y55D02*
X510Y55D01*
X0Y54D02*
X7Y54D01*
X14Y54D02*
X25Y54D01*
X184Y54D02*
X195Y54D01*
X315Y54D02*
X326Y54D01*
X485Y54D02*
X496Y54D01*
X503Y54D02*
X510Y54D01*
X0Y53D02*
X7Y53D01*
X15Y53D02*
X26Y53D01*
X184Y53D02*
X194Y53D01*
X316Y53D02*
X327Y53D01*
X485Y53D02*
X495Y53D01*
X503Y53D02*
X510Y53D01*
X0Y52D02*
X7Y52D01*
X16Y52D02*
X26Y52D01*
X183Y52D02*
X194Y52D01*
X317Y52D02*
X327Y52D01*
X484Y52D02*
X495Y52D01*
X503Y52D02*
X510Y52D01*
X0Y51D02*
X7Y51D01*
X16Y51D02*
X27Y51D01*
X182Y51D02*
X193Y51D01*
X317Y51D02*
X328Y51D01*
X483Y51D02*
X494Y51D01*
X503Y51D02*
X510Y51D01*
X0Y50D02*
X7Y50D01*
X17Y50D02*
X28Y50D01*
X181Y50D02*
X192Y50D01*
X318Y50D02*
X329Y50D01*
X482Y50D02*
X493Y50D01*
X503Y50D02*
X510Y50D01*
X0Y49D02*
X7Y49D01*
X17Y49D02*
X29Y49D01*
X181Y49D02*
X192Y49D01*
X318Y49D02*
X330Y49D01*
X482Y49D02*
X493Y49D01*
X503Y49D02*
X510Y49D01*
X0Y48D02*
X7Y48D01*
X18Y48D02*
X29Y48D01*
X180Y48D02*
X191Y48D01*
X319Y48D02*
X330Y48D01*
X481Y48D02*
X492Y48D01*
X503Y48D02*
X510Y48D01*
X0Y47D02*
X7Y47D01*
X19Y47D02*
X30Y47D01*
X179Y47D02*
X191Y47D01*
X320Y47D02*
X331Y47D01*
X480Y47D02*
X492Y47D01*
X503Y47D02*
X510Y47D01*
X0Y46D02*
X7Y46D01*
X19Y46D02*
X31Y46D01*
X178Y46D02*
X190Y46D01*
X320Y46D02*
X332Y46D01*
X479Y46D02*
X491Y46D01*
X503Y46D02*
X510Y46D01*
X0Y45D02*
X7Y45D01*
X20Y45D02*
X32Y45D01*
X177Y45D02*
X189Y45D01*
X321Y45D02*
X333Y45D01*
X479Y45D02*
X490Y45D01*
X503Y45D02*
X510Y45D01*
X0Y44D02*
X7Y44D01*
X21Y44D02*
X33Y44D01*
X177Y44D02*
X188Y44D01*
X322Y44D02*
X334Y44D01*
X478Y44D02*
X489Y44D01*
X503Y44D02*
X510Y44D01*
X0Y43D02*
X7Y43D01*
X22Y43D02*
X34Y43D01*
X176Y43D02*
X188Y43D01*
X323Y43D02*
X335Y43D01*
X477Y43D02*
X489Y43D01*
X503Y43D02*
X510Y43D01*
X0Y42D02*
X7Y42D01*
X22Y42D02*
X34Y42D01*
X175Y42D02*
X187Y42D01*
X323Y42D02*
X336Y42D01*
X476Y42D02*
X488Y42D01*
X503Y42D02*
X510Y42D01*
X0Y41D02*
X7Y41D01*
X23Y41D02*
X35Y41D01*
X174Y41D02*
X186Y41D01*
X324Y41D02*
X336Y41D01*
X475Y41D02*
X487Y41D01*
X503Y41D02*
X510Y41D01*
X0Y40D02*
X7Y40D01*
X24Y40D02*
X36Y40D01*
X173Y40D02*
X185Y40D01*
X325Y40D02*
X337Y40D01*
X474Y40D02*
X486Y40D01*
X503Y40D02*
X510Y40D01*
X0Y39D02*
X7Y39D01*
X25Y39D02*
X37Y39D01*
X172Y39D02*
X184Y39D01*
X326Y39D02*
X338Y39D01*
X473Y39D02*
X486Y39D01*
X503Y39D02*
X510Y39D01*
X0Y38D02*
X7Y38D01*
X26Y38D02*
X38Y38D01*
X171Y38D02*
X184Y38D01*
X327Y38D02*
X339Y38D01*
X472Y38D02*
X485Y38D01*
X503Y38D02*
X510Y38D01*
X0Y37D02*
X7Y37D01*
X27Y37D02*
X39Y37D01*
X170Y37D02*
X183Y37D01*
X328Y37D02*
X340Y37D01*
X471Y37D02*
X484Y37D01*
X503Y37D02*
X510Y37D01*
X0Y36D02*
X7Y36D01*
X27Y36D02*
X41Y36D01*
X169Y36D02*
X182Y36D01*
X328Y36D02*
X342Y36D01*
X470Y36D02*
X483Y36D01*
X503Y36D02*
X510Y36D01*
X0Y35D02*
X7Y35D01*
X28Y35D02*
X42Y35D01*
X168Y35D02*
X181Y35D01*
X329Y35D02*
X343Y35D01*
X469Y35D02*
X482Y35D01*
X503Y35D02*
X510Y35D01*
X0Y34D02*
X7Y34D01*
X29Y34D02*
X43Y34D01*
X166Y34D02*
X180Y34D01*
X330Y34D02*
X344Y34D01*
X468Y34D02*
X481Y34D01*
X503Y34D02*
X510Y34D01*
X0Y33D02*
X7Y33D01*
X30Y33D02*
X44Y33D01*
X165Y33D02*
X179Y33D01*
X331Y33D02*
X345Y33D01*
X466Y33D02*
X480Y33D01*
X503Y33D02*
X510Y33D01*
X0Y32D02*
X7Y32D01*
X31Y32D02*
X45Y32D01*
X164Y32D02*
X178Y32D01*
X332Y32D02*
X346Y32D01*
X465Y32D02*
X479Y32D01*
X503Y32D02*
X510Y32D01*
X0Y31D02*
X7Y31D01*
X32Y31D02*
X46Y31D01*
X163Y31D02*
X177Y31D01*
X333Y31D02*
X348Y31D01*
X464Y31D02*
X478Y31D01*
X503Y31D02*
X510Y31D01*
X0Y30D02*
X7Y30D01*
X33Y30D02*
X48Y30D01*
X161Y30D02*
X176Y30D01*
X334Y30D02*
X349Y30D01*
X462Y30D02*
X477Y30D01*
X503Y30D02*
X510Y30D01*
X0Y29D02*
X7Y29D01*
X34Y29D02*
X49Y29D01*
X160Y29D02*
X175Y29D01*
X335Y29D02*
X350Y29D01*
X461Y29D02*
X476Y29D01*
X503Y29D02*
X510Y29D01*
X0Y28D02*
X7Y28D01*
X35Y28D02*
X50Y28D01*
X159Y28D02*
X174Y28D01*
X337Y28D02*
X352Y28D01*
X460Y28D02*
X475Y28D01*
X503Y28D02*
X510Y28D01*
X0Y27D02*
X7Y27D01*
X37Y27D02*
X52Y27D01*
X157Y27D02*
X173Y27D01*
X338Y27D02*
X353Y27D01*
X458Y27D02*
X474Y27D01*
X503Y27D02*
X510Y27D01*
X0Y26D02*
X7Y26D01*
X38Y26D02*
X54Y26D01*
X156Y26D02*
X171Y26D01*
X339Y26D02*
X355Y26D01*
X457Y26D02*
X473Y26D01*
X503Y26D02*
X510Y26D01*
X0Y25D02*
X7Y25D01*
X39Y25D02*
X55Y25D01*
X154Y25D02*
X170Y25D01*
X340Y25D02*
X356Y25D01*
X455Y25D02*
X471Y25D01*
X503Y25D02*
X510Y25D01*
X0Y24D02*
X7Y24D01*
X40Y24D02*
X57Y24D01*
X152Y24D02*
X169Y24D01*
X341Y24D02*
X358Y24D01*
X453Y24D02*
X470Y24D01*
X503Y24D02*
X510Y24D01*
X0Y23D02*
X7Y23D01*
X42Y23D02*
X58Y23D01*
X151Y23D02*
X168Y23D01*
X343Y23D02*
X360Y23D01*
X452Y23D02*
X469Y23D01*
X503Y23D02*
X510Y23D01*
X0Y22D02*
X7Y22D01*
X43Y22D02*
X60Y22D01*
X149Y22D02*
X166Y22D01*
X344Y22D02*
X361Y22D01*
X450Y22D02*
X467Y22D01*
X503Y22D02*
X510Y22D01*
X0Y21D02*
X7Y21D01*
X44Y21D02*
X62Y21D01*
X147Y21D02*
X165Y21D01*
X345Y21D02*
X364Y21D01*
X448Y21D02*
X466Y21D01*
X503Y21D02*
X510Y21D01*
X0Y20D02*
X7Y20D01*
X46Y20D02*
X65Y20D01*
X145Y20D02*
X164Y20D01*
X347Y20D02*
X366Y20D01*
X446Y20D02*
X465Y20D01*
X503Y20D02*
X510Y20D01*
X0Y19D02*
X7Y19D01*
X47Y19D02*
X67Y19D01*
X143Y19D02*
X162Y19D01*
X348Y19D02*
X368Y19D01*
X444Y19D02*
X463Y19D01*
X503Y19D02*
X510Y19D01*
X0Y18D02*
X7Y18D01*
X49Y18D02*
X69Y18D01*
X140Y18D02*
X160Y18D01*
X350Y18D02*
X370Y18D01*
X441Y18D02*
X462Y18D01*
X503Y18D02*
X510Y18D01*
X0Y17D02*
X7Y17D01*
X50Y17D02*
X72Y17D01*
X137Y17D02*
X159Y17D01*
X351Y17D02*
X373Y17D01*
X438Y17D02*
X460Y17D01*
X503Y17D02*
X510Y17D01*
X0Y16D02*
X7Y16D01*
X52Y16D02*
X75Y16D01*
X135Y16D02*
X157Y16D01*
X353Y16D02*
X376Y16D01*
X436Y16D02*
X458Y16D01*
X503Y16D02*
X510Y16D01*
X0Y15D02*
X7Y15D01*
X54Y15D02*
X78Y15D01*
X131Y15D02*
X155Y15D01*
X355Y15D02*
X379Y15D01*
X432Y15D02*
X457Y15D01*
X503Y15D02*
X510Y15D01*
X0Y14D02*
X7Y14D01*
X55Y14D02*
X82Y14D01*
X128Y14D02*
X154Y14D01*
X356Y14D02*
X383Y14D01*
X429Y14D02*
X455Y14D01*
X503Y14D02*
X510Y14D01*
X0Y13D02*
X7Y13D01*
X57Y13D02*
X86Y13D01*
X123Y13D02*
X152Y13D01*
X359Y13D02*
X388Y13D01*
X424Y13D02*
X453Y13D01*
X503Y13D02*
X510Y13D01*
X0Y12D02*
X7Y12D01*
X60Y12D02*
X93Y12D01*
X116Y12D02*
X150Y12D01*
X361Y12D02*
X394Y12D01*
X417Y12D02*
X451Y12D01*
X503Y12D02*
X510Y12D01*
X0Y11D02*
X7Y11D01*
X62Y11D02*
X148Y11D01*
X363Y11D02*
X449Y11D01*
X503Y11D02*
X510Y11D01*
X0Y10D02*
X7Y10D01*
X64Y10D02*
X145Y10D01*
X365Y10D02*
X447Y10D01*
X503Y10D02*
X510Y10D01*
X0Y9D02*
X510Y9D01*
X0Y8D02*
X510Y8D01*
X0Y7D02*
X510Y7D01*
X0Y6D02*
X510Y6D01*
X0Y5D02*
X510Y5D01*
X0Y4D02*
X510Y4D01*
X0Y3D02*
X510Y3D01*
X0Y2D02*
X510Y2D01*
D02*
G04 End of Silk1*
M02*