G04 MADE WITH FRITZING*
G04 WWW.FRITZING.ORG*
G04 DOUBLE SIDED*
G04 HOLES PLATED*
G04 CONTOUR ON CENTER OF CONTOUR VECTOR*
%ASAXBY*%
%FSLAX23Y23*%
%MOIN*%
%OFA0B0*%
%SFA1.0B1.0*%
%ADD10C,0.075000*%
%ADD11C,0.062992*%
%ADD12R,0.075000X0.075000*%
%ADD13R,0.059055X0.059055*%
%ADD14C,0.024000*%
%LNCOPPER0*%
G90*
G70*
G54D10*
X357Y105D03*
X457Y105D03*
X55Y105D03*
X155Y105D03*
X155Y406D03*
X55Y406D03*
X457Y406D03*
X357Y406D03*
G54D11*
X374Y266D03*
X295Y266D03*
X216Y266D03*
X137Y266D03*
X125Y185D03*
X385Y185D03*
G54D12*
X357Y105D03*
X55Y105D03*
X155Y406D03*
X457Y406D03*
G54D13*
X303Y40D03*
X226Y40D03*
G54D14*
X129Y211D02*
X133Y239D01*
D02*
X145Y132D02*
X135Y159D01*
D02*
X55Y378D02*
X55Y134D01*
D02*
X328Y406D02*
X184Y406D01*
D02*
X457Y134D02*
X457Y378D01*
D02*
X185Y332D02*
X153Y288D01*
D02*
X264Y333D02*
X185Y332D01*
D02*
X264Y333D02*
X284Y290D01*
D02*
X376Y159D02*
X366Y132D01*
D02*
X234Y150D02*
X220Y240D01*
D02*
X228Y74D02*
X234Y150D01*
D02*
X234Y150D02*
X353Y249D01*
D02*
X339Y83D02*
X325Y67D01*
G04 End of Copper0*
M02*