G04 MADE WITH FRITZING*
G04 WWW.FRITZING.ORG*
G04 DOUBLE SIDED*
G04 HOLES PLATED*
G04 CONTOUR ON CENTER OF CONTOUR VECTOR*
%ASAXBY*%
%FSLAX23Y23*%
%MOIN*%
%OFA0B0*%
%SFA1.0B1.0*%
%ADD10C,0.075000*%
%ADD11C,0.051181*%
%ADD12C,0.047244*%
%ADD13R,0.075000X0.075000*%
%ADD14R,0.059055X0.059055*%
%ADD15C,0.024000*%
%LNCOPPER0*%
G90*
G70*
G54D10*
X388Y156D03*
X488Y156D03*
X95Y156D03*
X195Y156D03*
X195Y447D03*
X95Y447D03*
X488Y447D03*
X388Y447D03*
G54D11*
X401Y301D03*
X342Y301D03*
X283Y301D03*
X224Y301D03*
G54D12*
X394Y216D03*
X194Y216D03*
G54D13*
X388Y156D03*
X95Y156D03*
X195Y447D03*
X488Y447D03*
G54D14*
X439Y40D03*
X265Y39D03*
G54D15*
X95Y418D02*
X95Y184D01*
D02*
X359Y447D02*
X223Y447D01*
D02*
X488Y184D02*
X488Y418D01*
D02*
X225Y362D02*
X224Y322D01*
D02*
X343Y360D02*
X225Y362D01*
D02*
X343Y360D02*
X342Y322D01*
D02*
X194Y195D02*
X194Y184D01*
D02*
X392Y195D02*
X391Y184D01*
D02*
X217Y282D02*
X201Y236D01*
D02*
X285Y205D02*
X283Y281D01*
D02*
X269Y73D02*
X285Y205D01*
D02*
X339Y246D02*
X385Y287D01*
D02*
X285Y205D02*
X339Y246D01*
D02*
X400Y130D02*
X425Y72D01*
G04 End of Copper0*
M02*