G04 MADE WITH FRITZING*
G04 WWW.FRITZING.ORG*
G04 DOUBLE SIDED*
G04 HOLES PLATED*
G04 CONTOUR ON CENTER OF CONTOUR VECTOR*
%ASAXBY*%
%FSLAX23Y23*%
%MOIN*%
%OFA0B0*%
%SFA1.0B1.0*%
%ADD10R,0.001000X0.001000*%
%LNSILK0*%
G90*
G70*
G54D10*
X0Y591D02*
X589Y591D01*
X0Y590D02*
X589Y590D01*
X0Y589D02*
X589Y589D01*
X0Y588D02*
X589Y588D01*
X0Y587D02*
X589Y587D01*
X0Y586D02*
X589Y586D01*
X0Y585D02*
X589Y585D01*
X0Y584D02*
X589Y584D01*
X0Y583D02*
X7Y583D01*
X582Y583D02*
X589Y583D01*
X0Y582D02*
X7Y582D01*
X582Y582D02*
X589Y582D01*
X0Y581D02*
X7Y581D01*
X582Y581D02*
X589Y581D01*
X0Y580D02*
X7Y580D01*
X582Y580D02*
X589Y580D01*
X0Y579D02*
X7Y579D01*
X582Y579D02*
X589Y579D01*
X0Y578D02*
X7Y578D01*
X582Y578D02*
X589Y578D01*
X0Y577D02*
X7Y577D01*
X582Y577D02*
X589Y577D01*
X0Y576D02*
X7Y576D01*
X582Y576D02*
X589Y576D01*
X0Y575D02*
X7Y575D01*
X582Y575D02*
X589Y575D01*
X0Y574D02*
X7Y574D01*
X582Y574D02*
X589Y574D01*
X0Y573D02*
X7Y573D01*
X582Y573D02*
X589Y573D01*
X0Y572D02*
X7Y572D01*
X582Y572D02*
X589Y572D01*
X0Y571D02*
X7Y571D01*
X582Y571D02*
X589Y571D01*
X0Y570D02*
X7Y570D01*
X582Y570D02*
X589Y570D01*
X0Y569D02*
X7Y569D01*
X582Y569D02*
X589Y569D01*
X0Y568D02*
X7Y568D01*
X582Y568D02*
X589Y568D01*
X0Y567D02*
X7Y567D01*
X582Y567D02*
X589Y567D01*
X0Y566D02*
X7Y566D01*
X582Y566D02*
X589Y566D01*
X0Y565D02*
X7Y565D01*
X582Y565D02*
X589Y565D01*
X0Y564D02*
X7Y564D01*
X582Y564D02*
X589Y564D01*
X0Y563D02*
X7Y563D01*
X582Y563D02*
X589Y563D01*
X0Y562D02*
X7Y562D01*
X582Y562D02*
X589Y562D01*
X0Y561D02*
X7Y561D01*
X582Y561D02*
X589Y561D01*
X0Y560D02*
X7Y560D01*
X582Y560D02*
X589Y560D01*
X0Y559D02*
X7Y559D01*
X582Y559D02*
X589Y559D01*
X0Y558D02*
X7Y558D01*
X582Y558D02*
X589Y558D01*
X0Y557D02*
X7Y557D01*
X582Y557D02*
X589Y557D01*
X0Y556D02*
X7Y556D01*
X582Y556D02*
X589Y556D01*
X0Y555D02*
X7Y555D01*
X582Y555D02*
X589Y555D01*
X0Y554D02*
X7Y554D01*
X582Y554D02*
X589Y554D01*
X0Y553D02*
X7Y553D01*
X582Y553D02*
X589Y553D01*
X0Y552D02*
X7Y552D01*
X582Y552D02*
X589Y552D01*
X0Y551D02*
X7Y551D01*
X582Y551D02*
X589Y551D01*
X0Y550D02*
X7Y550D01*
X582Y550D02*
X589Y550D01*
X0Y549D02*
X7Y549D01*
X582Y549D02*
X589Y549D01*
X0Y548D02*
X7Y548D01*
X582Y548D02*
X589Y548D01*
X0Y547D02*
X7Y547D01*
X582Y547D02*
X589Y547D01*
X0Y546D02*
X7Y546D01*
X582Y546D02*
X589Y546D01*
X0Y545D02*
X7Y545D01*
X582Y545D02*
X589Y545D01*
X0Y544D02*
X7Y544D01*
X582Y544D02*
X589Y544D01*
X0Y543D02*
X7Y543D01*
X582Y543D02*
X589Y543D01*
X0Y542D02*
X7Y542D01*
X582Y542D02*
X589Y542D01*
X0Y541D02*
X7Y541D01*
X582Y541D02*
X589Y541D01*
X0Y540D02*
X7Y540D01*
X582Y540D02*
X589Y540D01*
X0Y539D02*
X7Y539D01*
X582Y539D02*
X589Y539D01*
X0Y538D02*
X7Y538D01*
X582Y538D02*
X589Y538D01*
X0Y537D02*
X7Y537D01*
X582Y537D02*
X589Y537D01*
X0Y536D02*
X7Y536D01*
X582Y536D02*
X589Y536D01*
X0Y535D02*
X7Y535D01*
X582Y535D02*
X589Y535D01*
X0Y534D02*
X7Y534D01*
X582Y534D02*
X589Y534D01*
X0Y533D02*
X7Y533D01*
X582Y533D02*
X589Y533D01*
X0Y532D02*
X7Y532D01*
X582Y532D02*
X589Y532D01*
X0Y531D02*
X7Y531D01*
X582Y531D02*
X589Y531D01*
X0Y530D02*
X7Y530D01*
X582Y530D02*
X589Y530D01*
X0Y529D02*
X7Y529D01*
X582Y529D02*
X589Y529D01*
X0Y528D02*
X7Y528D01*
X582Y528D02*
X589Y528D01*
X0Y527D02*
X7Y527D01*
X582Y527D02*
X589Y527D01*
X0Y526D02*
X7Y526D01*
X582Y526D02*
X589Y526D01*
X0Y525D02*
X7Y525D01*
X582Y525D02*
X589Y525D01*
X0Y524D02*
X7Y524D01*
X582Y524D02*
X589Y524D01*
X0Y523D02*
X7Y523D01*
X582Y523D02*
X589Y523D01*
X0Y522D02*
X7Y522D01*
X582Y522D02*
X589Y522D01*
X0Y521D02*
X7Y521D01*
X582Y521D02*
X589Y521D01*
X0Y520D02*
X7Y520D01*
X582Y520D02*
X589Y520D01*
X0Y519D02*
X7Y519D01*
X582Y519D02*
X589Y519D01*
X0Y518D02*
X7Y518D01*
X582Y518D02*
X589Y518D01*
X0Y517D02*
X7Y517D01*
X582Y517D02*
X589Y517D01*
X0Y516D02*
X7Y516D01*
X582Y516D02*
X589Y516D01*
X0Y515D02*
X7Y515D01*
X582Y515D02*
X589Y515D01*
X0Y514D02*
X7Y514D01*
X582Y514D02*
X589Y514D01*
X0Y513D02*
X7Y513D01*
X582Y513D02*
X589Y513D01*
X0Y512D02*
X7Y512D01*
X582Y512D02*
X589Y512D01*
X0Y511D02*
X7Y511D01*
X582Y511D02*
X589Y511D01*
X0Y510D02*
X7Y510D01*
X582Y510D02*
X589Y510D01*
X0Y509D02*
X7Y509D01*
X582Y509D02*
X589Y509D01*
X0Y508D02*
X7Y508D01*
X582Y508D02*
X589Y508D01*
X0Y507D02*
X7Y507D01*
X582Y507D02*
X589Y507D01*
X0Y506D02*
X7Y506D01*
X582Y506D02*
X589Y506D01*
X0Y505D02*
X7Y505D01*
X582Y505D02*
X589Y505D01*
X0Y504D02*
X7Y504D01*
X582Y504D02*
X589Y504D01*
X0Y503D02*
X7Y503D01*
X582Y503D02*
X589Y503D01*
X0Y502D02*
X7Y502D01*
X582Y502D02*
X589Y502D01*
X0Y501D02*
X7Y501D01*
X582Y501D02*
X589Y501D01*
X0Y500D02*
X7Y500D01*
X582Y500D02*
X589Y500D01*
X0Y499D02*
X7Y499D01*
X582Y499D02*
X589Y499D01*
X0Y498D02*
X7Y498D01*
X582Y498D02*
X589Y498D01*
X0Y497D02*
X7Y497D01*
X582Y497D02*
X589Y497D01*
X0Y496D02*
X7Y496D01*
X582Y496D02*
X589Y496D01*
X0Y495D02*
X7Y495D01*
X582Y495D02*
X589Y495D01*
X0Y494D02*
X7Y494D01*
X582Y494D02*
X589Y494D01*
X0Y493D02*
X7Y493D01*
X582Y493D02*
X589Y493D01*
X0Y492D02*
X7Y492D01*
X582Y492D02*
X589Y492D01*
X0Y491D02*
X7Y491D01*
X582Y491D02*
X589Y491D01*
X0Y490D02*
X7Y490D01*
X582Y490D02*
X589Y490D01*
X0Y489D02*
X7Y489D01*
X582Y489D02*
X589Y489D01*
X0Y488D02*
X7Y488D01*
X582Y488D02*
X589Y488D01*
X0Y487D02*
X7Y487D01*
X582Y487D02*
X589Y487D01*
X0Y486D02*
X7Y486D01*
X582Y486D02*
X589Y486D01*
X0Y485D02*
X7Y485D01*
X582Y485D02*
X589Y485D01*
X0Y484D02*
X7Y484D01*
X582Y484D02*
X589Y484D01*
X0Y483D02*
X7Y483D01*
X582Y483D02*
X589Y483D01*
X0Y482D02*
X7Y482D01*
X582Y482D02*
X589Y482D01*
X0Y481D02*
X7Y481D01*
X582Y481D02*
X589Y481D01*
X0Y480D02*
X7Y480D01*
X582Y480D02*
X589Y480D01*
X0Y479D02*
X7Y479D01*
X582Y479D02*
X589Y479D01*
X0Y478D02*
X7Y478D01*
X582Y478D02*
X589Y478D01*
X0Y477D02*
X7Y477D01*
X582Y477D02*
X589Y477D01*
X0Y476D02*
X7Y476D01*
X582Y476D02*
X589Y476D01*
X0Y475D02*
X7Y475D01*
X582Y475D02*
X589Y475D01*
X0Y474D02*
X7Y474D01*
X582Y474D02*
X589Y474D01*
X0Y473D02*
X7Y473D01*
X582Y473D02*
X589Y473D01*
X0Y472D02*
X7Y472D01*
X582Y472D02*
X589Y472D01*
X0Y471D02*
X7Y471D01*
X582Y471D02*
X589Y471D01*
X0Y470D02*
X7Y470D01*
X582Y470D02*
X589Y470D01*
X0Y469D02*
X7Y469D01*
X582Y469D02*
X589Y469D01*
X0Y468D02*
X7Y468D01*
X582Y468D02*
X589Y468D01*
X0Y467D02*
X7Y467D01*
X582Y467D02*
X589Y467D01*
X0Y466D02*
X7Y466D01*
X582Y466D02*
X589Y466D01*
X0Y465D02*
X7Y465D01*
X582Y465D02*
X589Y465D01*
X0Y464D02*
X7Y464D01*
X582Y464D02*
X589Y464D01*
X0Y463D02*
X7Y463D01*
X582Y463D02*
X589Y463D01*
X0Y462D02*
X7Y462D01*
X582Y462D02*
X589Y462D01*
X0Y461D02*
X7Y461D01*
X582Y461D02*
X589Y461D01*
X0Y460D02*
X7Y460D01*
X582Y460D02*
X589Y460D01*
X0Y459D02*
X7Y459D01*
X582Y459D02*
X589Y459D01*
X0Y458D02*
X7Y458D01*
X582Y458D02*
X589Y458D01*
X0Y457D02*
X7Y457D01*
X582Y457D02*
X589Y457D01*
X0Y456D02*
X7Y456D01*
X582Y456D02*
X589Y456D01*
X0Y455D02*
X7Y455D01*
X582Y455D02*
X589Y455D01*
X0Y454D02*
X7Y454D01*
X582Y454D02*
X589Y454D01*
X0Y453D02*
X7Y453D01*
X582Y453D02*
X589Y453D01*
X0Y452D02*
X7Y452D01*
X582Y452D02*
X589Y452D01*
X0Y451D02*
X7Y451D01*
X582Y451D02*
X589Y451D01*
X0Y450D02*
X7Y450D01*
X582Y450D02*
X589Y450D01*
X0Y449D02*
X7Y449D01*
X582Y449D02*
X589Y449D01*
X0Y448D02*
X7Y448D01*
X582Y448D02*
X589Y448D01*
X0Y447D02*
X7Y447D01*
X582Y447D02*
X589Y447D01*
X0Y446D02*
X7Y446D01*
X582Y446D02*
X589Y446D01*
X0Y445D02*
X7Y445D01*
X582Y445D02*
X589Y445D01*
X0Y444D02*
X7Y444D01*
X582Y444D02*
X589Y444D01*
X0Y443D02*
X7Y443D01*
X582Y443D02*
X589Y443D01*
X0Y442D02*
X7Y442D01*
X582Y442D02*
X589Y442D01*
X0Y441D02*
X7Y441D01*
X582Y441D02*
X589Y441D01*
X0Y440D02*
X7Y440D01*
X582Y440D02*
X589Y440D01*
X0Y439D02*
X7Y439D01*
X582Y439D02*
X589Y439D01*
X0Y438D02*
X7Y438D01*
X582Y438D02*
X589Y438D01*
X0Y437D02*
X7Y437D01*
X582Y437D02*
X589Y437D01*
X0Y436D02*
X7Y436D01*
X582Y436D02*
X589Y436D01*
X0Y435D02*
X7Y435D01*
X582Y435D02*
X589Y435D01*
X0Y434D02*
X7Y434D01*
X582Y434D02*
X589Y434D01*
X0Y433D02*
X7Y433D01*
X582Y433D02*
X589Y433D01*
X0Y432D02*
X7Y432D01*
X582Y432D02*
X589Y432D01*
X0Y431D02*
X7Y431D01*
X582Y431D02*
X589Y431D01*
X0Y430D02*
X7Y430D01*
X582Y430D02*
X589Y430D01*
X0Y429D02*
X7Y429D01*
X582Y429D02*
X589Y429D01*
X0Y428D02*
X7Y428D01*
X582Y428D02*
X589Y428D01*
X0Y427D02*
X7Y427D01*
X582Y427D02*
X589Y427D01*
X0Y426D02*
X7Y426D01*
X582Y426D02*
X589Y426D01*
X0Y425D02*
X7Y425D01*
X582Y425D02*
X589Y425D01*
X0Y424D02*
X7Y424D01*
X582Y424D02*
X589Y424D01*
X0Y423D02*
X7Y423D01*
X582Y423D02*
X589Y423D01*
X0Y422D02*
X7Y422D01*
X582Y422D02*
X589Y422D01*
X0Y421D02*
X7Y421D01*
X582Y421D02*
X589Y421D01*
X0Y420D02*
X7Y420D01*
X582Y420D02*
X589Y420D01*
X0Y419D02*
X7Y419D01*
X582Y419D02*
X589Y419D01*
X0Y418D02*
X7Y418D01*
X582Y418D02*
X589Y418D01*
X0Y417D02*
X7Y417D01*
X582Y417D02*
X589Y417D01*
X0Y416D02*
X7Y416D01*
X582Y416D02*
X589Y416D01*
X0Y415D02*
X7Y415D01*
X582Y415D02*
X589Y415D01*
X0Y414D02*
X7Y414D01*
X582Y414D02*
X589Y414D01*
X0Y413D02*
X7Y413D01*
X582Y413D02*
X589Y413D01*
X0Y412D02*
X7Y412D01*
X582Y412D02*
X589Y412D01*
X0Y411D02*
X7Y411D01*
X582Y411D02*
X589Y411D01*
X0Y410D02*
X7Y410D01*
X582Y410D02*
X589Y410D01*
X0Y409D02*
X7Y409D01*
X582Y409D02*
X589Y409D01*
X0Y408D02*
X7Y408D01*
X582Y408D02*
X589Y408D01*
X0Y407D02*
X7Y407D01*
X582Y407D02*
X589Y407D01*
X0Y406D02*
X7Y406D01*
X582Y406D02*
X589Y406D01*
X0Y405D02*
X7Y405D01*
X582Y405D02*
X589Y405D01*
X0Y404D02*
X7Y404D01*
X582Y404D02*
X589Y404D01*
X0Y403D02*
X7Y403D01*
X582Y403D02*
X589Y403D01*
X0Y402D02*
X7Y402D01*
X582Y402D02*
X589Y402D01*
X0Y401D02*
X7Y401D01*
X582Y401D02*
X589Y401D01*
X0Y400D02*
X7Y400D01*
X582Y400D02*
X589Y400D01*
X0Y399D02*
X7Y399D01*
X582Y399D02*
X589Y399D01*
X0Y398D02*
X7Y398D01*
X582Y398D02*
X589Y398D01*
X0Y397D02*
X7Y397D01*
X582Y397D02*
X589Y397D01*
X0Y396D02*
X7Y396D01*
X582Y396D02*
X589Y396D01*
X0Y395D02*
X7Y395D01*
X582Y395D02*
X589Y395D01*
X0Y394D02*
X7Y394D01*
X582Y394D02*
X589Y394D01*
X0Y393D02*
X7Y393D01*
X582Y393D02*
X589Y393D01*
X0Y392D02*
X7Y392D01*
X582Y392D02*
X589Y392D01*
X0Y391D02*
X7Y391D01*
X582Y391D02*
X589Y391D01*
X0Y390D02*
X7Y390D01*
X582Y390D02*
X589Y390D01*
X0Y389D02*
X7Y389D01*
X582Y389D02*
X589Y389D01*
X0Y388D02*
X7Y388D01*
X582Y388D02*
X589Y388D01*
X0Y387D02*
X7Y387D01*
X582Y387D02*
X589Y387D01*
X0Y386D02*
X7Y386D01*
X582Y386D02*
X589Y386D01*
X0Y385D02*
X7Y385D01*
X582Y385D02*
X589Y385D01*
X0Y384D02*
X7Y384D01*
X582Y384D02*
X589Y384D01*
X0Y383D02*
X7Y383D01*
X582Y383D02*
X589Y383D01*
X0Y382D02*
X7Y382D01*
X582Y382D02*
X589Y382D01*
X0Y381D02*
X7Y381D01*
X582Y381D02*
X589Y381D01*
X0Y380D02*
X7Y380D01*
X582Y380D02*
X589Y380D01*
X0Y379D02*
X7Y379D01*
X582Y379D02*
X589Y379D01*
X0Y378D02*
X7Y378D01*
X582Y378D02*
X589Y378D01*
X0Y377D02*
X7Y377D01*
X582Y377D02*
X589Y377D01*
X0Y376D02*
X7Y376D01*
X582Y376D02*
X589Y376D01*
X0Y375D02*
X7Y375D01*
X582Y375D02*
X589Y375D01*
X0Y374D02*
X7Y374D01*
X582Y374D02*
X589Y374D01*
X0Y373D02*
X7Y373D01*
X582Y373D02*
X589Y373D01*
X0Y372D02*
X7Y372D01*
X582Y372D02*
X589Y372D01*
X0Y371D02*
X7Y371D01*
X582Y371D02*
X589Y371D01*
X0Y370D02*
X7Y370D01*
X582Y370D02*
X589Y370D01*
X0Y369D02*
X7Y369D01*
X582Y369D02*
X589Y369D01*
X0Y368D02*
X7Y368D01*
X582Y368D02*
X589Y368D01*
X0Y367D02*
X7Y367D01*
X582Y367D02*
X589Y367D01*
X0Y366D02*
X7Y366D01*
X582Y366D02*
X589Y366D01*
X0Y365D02*
X7Y365D01*
X582Y365D02*
X589Y365D01*
X0Y364D02*
X7Y364D01*
X582Y364D02*
X589Y364D01*
X0Y363D02*
X7Y363D01*
X582Y363D02*
X589Y363D01*
X0Y362D02*
X7Y362D01*
X582Y362D02*
X589Y362D01*
X0Y361D02*
X7Y361D01*
X582Y361D02*
X589Y361D01*
X0Y360D02*
X7Y360D01*
X582Y360D02*
X589Y360D01*
X0Y359D02*
X7Y359D01*
X582Y359D02*
X589Y359D01*
X0Y358D02*
X7Y358D01*
X582Y358D02*
X589Y358D01*
X0Y357D02*
X7Y357D01*
X582Y357D02*
X589Y357D01*
X0Y356D02*
X7Y356D01*
X582Y356D02*
X589Y356D01*
X0Y355D02*
X7Y355D01*
X582Y355D02*
X589Y355D01*
X0Y354D02*
X7Y354D01*
X582Y354D02*
X589Y354D01*
X0Y353D02*
X7Y353D01*
X582Y353D02*
X589Y353D01*
X0Y352D02*
X7Y352D01*
X582Y352D02*
X589Y352D01*
X0Y351D02*
X7Y351D01*
X582Y351D02*
X589Y351D01*
X0Y350D02*
X7Y350D01*
X582Y350D02*
X589Y350D01*
X0Y349D02*
X7Y349D01*
X582Y349D02*
X589Y349D01*
X0Y348D02*
X7Y348D01*
X582Y348D02*
X589Y348D01*
X0Y347D02*
X7Y347D01*
X582Y347D02*
X589Y347D01*
X0Y346D02*
X7Y346D01*
X582Y346D02*
X589Y346D01*
X0Y345D02*
X7Y345D01*
X582Y345D02*
X589Y345D01*
X0Y344D02*
X7Y344D01*
X582Y344D02*
X589Y344D01*
X0Y343D02*
X7Y343D01*
X582Y343D02*
X589Y343D01*
X0Y342D02*
X7Y342D01*
X582Y342D02*
X589Y342D01*
X0Y341D02*
X7Y341D01*
X582Y341D02*
X589Y341D01*
X0Y340D02*
X7Y340D01*
X582Y340D02*
X589Y340D01*
X0Y339D02*
X7Y339D01*
X582Y339D02*
X589Y339D01*
X0Y338D02*
X7Y338D01*
X582Y338D02*
X589Y338D01*
X0Y337D02*
X7Y337D01*
X582Y337D02*
X589Y337D01*
X0Y336D02*
X7Y336D01*
X582Y336D02*
X589Y336D01*
X0Y335D02*
X7Y335D01*
X582Y335D02*
X589Y335D01*
X0Y334D02*
X7Y334D01*
X582Y334D02*
X589Y334D01*
X0Y333D02*
X7Y333D01*
X582Y333D02*
X589Y333D01*
X0Y332D02*
X7Y332D01*
X582Y332D02*
X589Y332D01*
X0Y331D02*
X7Y331D01*
X582Y331D02*
X589Y331D01*
X0Y330D02*
X7Y330D01*
X582Y330D02*
X589Y330D01*
X0Y329D02*
X7Y329D01*
X582Y329D02*
X589Y329D01*
X0Y328D02*
X7Y328D01*
X582Y328D02*
X589Y328D01*
X0Y327D02*
X7Y327D01*
X582Y327D02*
X589Y327D01*
X0Y326D02*
X7Y326D01*
X582Y326D02*
X589Y326D01*
X0Y325D02*
X7Y325D01*
X582Y325D02*
X589Y325D01*
X0Y324D02*
X7Y324D01*
X582Y324D02*
X589Y324D01*
X0Y323D02*
X7Y323D01*
X582Y323D02*
X589Y323D01*
X0Y322D02*
X7Y322D01*
X582Y322D02*
X589Y322D01*
X0Y321D02*
X7Y321D01*
X582Y321D02*
X589Y321D01*
X0Y320D02*
X7Y320D01*
X582Y320D02*
X589Y320D01*
X0Y319D02*
X7Y319D01*
X582Y319D02*
X589Y319D01*
X0Y318D02*
X7Y318D01*
X582Y318D02*
X589Y318D01*
X0Y317D02*
X7Y317D01*
X582Y317D02*
X589Y317D01*
X0Y316D02*
X7Y316D01*
X582Y316D02*
X589Y316D01*
X0Y315D02*
X7Y315D01*
X582Y315D02*
X589Y315D01*
X0Y314D02*
X7Y314D01*
X582Y314D02*
X589Y314D01*
X0Y313D02*
X7Y313D01*
X582Y313D02*
X589Y313D01*
X0Y312D02*
X7Y312D01*
X582Y312D02*
X589Y312D01*
X0Y311D02*
X7Y311D01*
X582Y311D02*
X589Y311D01*
X0Y310D02*
X7Y310D01*
X582Y310D02*
X589Y310D01*
X0Y309D02*
X7Y309D01*
X582Y309D02*
X589Y309D01*
X0Y308D02*
X7Y308D01*
X582Y308D02*
X589Y308D01*
X0Y307D02*
X7Y307D01*
X582Y307D02*
X589Y307D01*
X0Y306D02*
X7Y306D01*
X582Y306D02*
X589Y306D01*
X0Y305D02*
X7Y305D01*
X582Y305D02*
X589Y305D01*
X0Y304D02*
X7Y304D01*
X582Y304D02*
X589Y304D01*
X0Y303D02*
X7Y303D01*
X582Y303D02*
X589Y303D01*
X0Y302D02*
X7Y302D01*
X582Y302D02*
X589Y302D01*
X0Y301D02*
X7Y301D01*
X582Y301D02*
X589Y301D01*
X0Y300D02*
X7Y300D01*
X582Y300D02*
X589Y300D01*
X0Y299D02*
X7Y299D01*
X582Y299D02*
X589Y299D01*
X0Y298D02*
X7Y298D01*
X582Y298D02*
X589Y298D01*
X0Y297D02*
X7Y297D01*
X582Y297D02*
X589Y297D01*
X0Y296D02*
X7Y296D01*
X582Y296D02*
X589Y296D01*
X0Y295D02*
X7Y295D01*
X582Y295D02*
X589Y295D01*
X0Y294D02*
X7Y294D01*
X582Y294D02*
X589Y294D01*
X0Y293D02*
X7Y293D01*
X582Y293D02*
X589Y293D01*
X0Y292D02*
X7Y292D01*
X582Y292D02*
X589Y292D01*
X0Y291D02*
X7Y291D01*
X582Y291D02*
X589Y291D01*
X0Y290D02*
X7Y290D01*
X582Y290D02*
X589Y290D01*
X0Y289D02*
X7Y289D01*
X582Y289D02*
X589Y289D01*
X0Y288D02*
X7Y288D01*
X582Y288D02*
X589Y288D01*
X0Y287D02*
X7Y287D01*
X582Y287D02*
X589Y287D01*
X0Y286D02*
X7Y286D01*
X582Y286D02*
X589Y286D01*
X0Y285D02*
X7Y285D01*
X582Y285D02*
X589Y285D01*
X0Y284D02*
X7Y284D01*
X582Y284D02*
X589Y284D01*
X0Y283D02*
X7Y283D01*
X582Y283D02*
X589Y283D01*
X0Y282D02*
X7Y282D01*
X582Y282D02*
X589Y282D01*
X0Y281D02*
X7Y281D01*
X582Y281D02*
X589Y281D01*
X0Y280D02*
X7Y280D01*
X582Y280D02*
X589Y280D01*
X0Y279D02*
X7Y279D01*
X582Y279D02*
X589Y279D01*
X0Y278D02*
X7Y278D01*
X582Y278D02*
X589Y278D01*
X0Y277D02*
X7Y277D01*
X582Y277D02*
X589Y277D01*
X0Y276D02*
X7Y276D01*
X582Y276D02*
X589Y276D01*
X0Y275D02*
X7Y275D01*
X582Y275D02*
X589Y275D01*
X0Y274D02*
X7Y274D01*
X582Y274D02*
X589Y274D01*
X0Y273D02*
X7Y273D01*
X582Y273D02*
X589Y273D01*
X0Y272D02*
X7Y272D01*
X582Y272D02*
X589Y272D01*
X0Y271D02*
X7Y271D01*
X582Y271D02*
X589Y271D01*
X0Y270D02*
X7Y270D01*
X582Y270D02*
X589Y270D01*
X0Y269D02*
X7Y269D01*
X582Y269D02*
X589Y269D01*
X0Y268D02*
X7Y268D01*
X582Y268D02*
X589Y268D01*
X0Y267D02*
X7Y267D01*
X582Y267D02*
X589Y267D01*
X0Y266D02*
X7Y266D01*
X582Y266D02*
X589Y266D01*
X0Y265D02*
X7Y265D01*
X582Y265D02*
X589Y265D01*
X0Y264D02*
X7Y264D01*
X582Y264D02*
X589Y264D01*
X0Y263D02*
X7Y263D01*
X582Y263D02*
X589Y263D01*
X0Y262D02*
X7Y262D01*
X582Y262D02*
X589Y262D01*
X0Y261D02*
X7Y261D01*
X582Y261D02*
X589Y261D01*
X0Y260D02*
X7Y260D01*
X582Y260D02*
X589Y260D01*
X0Y259D02*
X7Y259D01*
X582Y259D02*
X589Y259D01*
X0Y258D02*
X7Y258D01*
X582Y258D02*
X589Y258D01*
X0Y257D02*
X7Y257D01*
X582Y257D02*
X589Y257D01*
X0Y256D02*
X7Y256D01*
X582Y256D02*
X589Y256D01*
X0Y255D02*
X7Y255D01*
X582Y255D02*
X589Y255D01*
X0Y254D02*
X7Y254D01*
X582Y254D02*
X589Y254D01*
X0Y253D02*
X7Y253D01*
X582Y253D02*
X589Y253D01*
X0Y252D02*
X7Y252D01*
X582Y252D02*
X589Y252D01*
X0Y251D02*
X7Y251D01*
X582Y251D02*
X589Y251D01*
X0Y250D02*
X7Y250D01*
X582Y250D02*
X589Y250D01*
X0Y249D02*
X7Y249D01*
X582Y249D02*
X589Y249D01*
X0Y248D02*
X7Y248D01*
X582Y248D02*
X589Y248D01*
X0Y247D02*
X7Y247D01*
X582Y247D02*
X589Y247D01*
X0Y246D02*
X7Y246D01*
X582Y246D02*
X589Y246D01*
X0Y245D02*
X7Y245D01*
X582Y245D02*
X589Y245D01*
X0Y244D02*
X7Y244D01*
X582Y244D02*
X589Y244D01*
X0Y243D02*
X7Y243D01*
X582Y243D02*
X589Y243D01*
X0Y242D02*
X7Y242D01*
X582Y242D02*
X589Y242D01*
X0Y241D02*
X7Y241D01*
X582Y241D02*
X589Y241D01*
X0Y240D02*
X7Y240D01*
X582Y240D02*
X589Y240D01*
X0Y239D02*
X7Y239D01*
X582Y239D02*
X589Y239D01*
X0Y238D02*
X7Y238D01*
X582Y238D02*
X589Y238D01*
X0Y237D02*
X7Y237D01*
X582Y237D02*
X589Y237D01*
X0Y236D02*
X7Y236D01*
X582Y236D02*
X589Y236D01*
X0Y235D02*
X7Y235D01*
X582Y235D02*
X589Y235D01*
X0Y234D02*
X7Y234D01*
X582Y234D02*
X589Y234D01*
X0Y233D02*
X7Y233D01*
X582Y233D02*
X589Y233D01*
X0Y232D02*
X7Y232D01*
X582Y232D02*
X589Y232D01*
X0Y231D02*
X7Y231D01*
X582Y231D02*
X589Y231D01*
X0Y230D02*
X7Y230D01*
X582Y230D02*
X589Y230D01*
X0Y229D02*
X7Y229D01*
X582Y229D02*
X589Y229D01*
X0Y228D02*
X7Y228D01*
X582Y228D02*
X589Y228D01*
X0Y227D02*
X7Y227D01*
X582Y227D02*
X589Y227D01*
X0Y226D02*
X7Y226D01*
X582Y226D02*
X589Y226D01*
X0Y225D02*
X7Y225D01*
X582Y225D02*
X589Y225D01*
X0Y224D02*
X7Y224D01*
X582Y224D02*
X589Y224D01*
X0Y223D02*
X7Y223D01*
X582Y223D02*
X589Y223D01*
X0Y222D02*
X7Y222D01*
X582Y222D02*
X589Y222D01*
X0Y221D02*
X7Y221D01*
X582Y221D02*
X589Y221D01*
X0Y220D02*
X7Y220D01*
X582Y220D02*
X589Y220D01*
X0Y219D02*
X7Y219D01*
X582Y219D02*
X589Y219D01*
X0Y218D02*
X7Y218D01*
X582Y218D02*
X589Y218D01*
X0Y217D02*
X7Y217D01*
X582Y217D02*
X589Y217D01*
X0Y216D02*
X7Y216D01*
X582Y216D02*
X589Y216D01*
X0Y215D02*
X7Y215D01*
X582Y215D02*
X589Y215D01*
X0Y214D02*
X7Y214D01*
X582Y214D02*
X589Y214D01*
X0Y213D02*
X7Y213D01*
X582Y213D02*
X589Y213D01*
X0Y212D02*
X7Y212D01*
X582Y212D02*
X589Y212D01*
X0Y211D02*
X7Y211D01*
X582Y211D02*
X589Y211D01*
X0Y210D02*
X7Y210D01*
X582Y210D02*
X589Y210D01*
X0Y209D02*
X7Y209D01*
X582Y209D02*
X589Y209D01*
X0Y208D02*
X7Y208D01*
X582Y208D02*
X589Y208D01*
X0Y207D02*
X7Y207D01*
X582Y207D02*
X589Y207D01*
X0Y206D02*
X7Y206D01*
X582Y206D02*
X589Y206D01*
X0Y205D02*
X7Y205D01*
X582Y205D02*
X589Y205D01*
X0Y204D02*
X7Y204D01*
X582Y204D02*
X589Y204D01*
X0Y203D02*
X7Y203D01*
X582Y203D02*
X589Y203D01*
X0Y202D02*
X7Y202D01*
X582Y202D02*
X589Y202D01*
X0Y201D02*
X7Y201D01*
X582Y201D02*
X589Y201D01*
X0Y200D02*
X7Y200D01*
X582Y200D02*
X589Y200D01*
X0Y199D02*
X7Y199D01*
X582Y199D02*
X589Y199D01*
X0Y198D02*
X7Y198D01*
X582Y198D02*
X589Y198D01*
X0Y197D02*
X7Y197D01*
X582Y197D02*
X589Y197D01*
X0Y196D02*
X7Y196D01*
X582Y196D02*
X589Y196D01*
X0Y195D02*
X7Y195D01*
X582Y195D02*
X589Y195D01*
X0Y194D02*
X7Y194D01*
X582Y194D02*
X589Y194D01*
X0Y193D02*
X7Y193D01*
X582Y193D02*
X589Y193D01*
X0Y192D02*
X7Y192D01*
X582Y192D02*
X589Y192D01*
X0Y191D02*
X7Y191D01*
X582Y191D02*
X589Y191D01*
X0Y190D02*
X7Y190D01*
X582Y190D02*
X589Y190D01*
X0Y189D02*
X7Y189D01*
X582Y189D02*
X589Y189D01*
X0Y188D02*
X7Y188D01*
X582Y188D02*
X589Y188D01*
X0Y187D02*
X7Y187D01*
X582Y187D02*
X589Y187D01*
X0Y186D02*
X7Y186D01*
X582Y186D02*
X589Y186D01*
X0Y185D02*
X7Y185D01*
X582Y185D02*
X589Y185D01*
X0Y184D02*
X7Y184D01*
X582Y184D02*
X589Y184D01*
X0Y183D02*
X7Y183D01*
X582Y183D02*
X589Y183D01*
X0Y182D02*
X7Y182D01*
X582Y182D02*
X589Y182D01*
X0Y181D02*
X7Y181D01*
X582Y181D02*
X589Y181D01*
X0Y180D02*
X7Y180D01*
X582Y180D02*
X589Y180D01*
X0Y179D02*
X7Y179D01*
X582Y179D02*
X589Y179D01*
X0Y178D02*
X7Y178D01*
X582Y178D02*
X589Y178D01*
X0Y177D02*
X7Y177D01*
X582Y177D02*
X589Y177D01*
X0Y176D02*
X7Y176D01*
X582Y176D02*
X589Y176D01*
X0Y175D02*
X7Y175D01*
X582Y175D02*
X589Y175D01*
X0Y174D02*
X7Y174D01*
X582Y174D02*
X589Y174D01*
X0Y173D02*
X7Y173D01*
X582Y173D02*
X589Y173D01*
X0Y172D02*
X7Y172D01*
X582Y172D02*
X589Y172D01*
X0Y171D02*
X7Y171D01*
X582Y171D02*
X589Y171D01*
X0Y170D02*
X7Y170D01*
X582Y170D02*
X589Y170D01*
X0Y169D02*
X7Y169D01*
X582Y169D02*
X589Y169D01*
X0Y168D02*
X7Y168D01*
X582Y168D02*
X589Y168D01*
X0Y167D02*
X7Y167D01*
X582Y167D02*
X589Y167D01*
X0Y166D02*
X7Y166D01*
X582Y166D02*
X589Y166D01*
X0Y165D02*
X7Y165D01*
X582Y165D02*
X589Y165D01*
X0Y164D02*
X7Y164D01*
X582Y164D02*
X589Y164D01*
X0Y163D02*
X7Y163D01*
X582Y163D02*
X589Y163D01*
X0Y162D02*
X7Y162D01*
X582Y162D02*
X589Y162D01*
X0Y161D02*
X7Y161D01*
X582Y161D02*
X589Y161D01*
X0Y160D02*
X7Y160D01*
X582Y160D02*
X589Y160D01*
X0Y159D02*
X7Y159D01*
X582Y159D02*
X589Y159D01*
X0Y158D02*
X7Y158D01*
X582Y158D02*
X589Y158D01*
X0Y157D02*
X7Y157D01*
X582Y157D02*
X589Y157D01*
X0Y156D02*
X7Y156D01*
X582Y156D02*
X589Y156D01*
X0Y155D02*
X7Y155D01*
X582Y155D02*
X589Y155D01*
X0Y154D02*
X7Y154D01*
X582Y154D02*
X589Y154D01*
X0Y153D02*
X7Y153D01*
X582Y153D02*
X589Y153D01*
X0Y152D02*
X7Y152D01*
X582Y152D02*
X589Y152D01*
X0Y151D02*
X7Y151D01*
X582Y151D02*
X589Y151D01*
X0Y150D02*
X7Y150D01*
X582Y150D02*
X589Y150D01*
X0Y149D02*
X7Y149D01*
X582Y149D02*
X589Y149D01*
X0Y148D02*
X7Y148D01*
X582Y148D02*
X589Y148D01*
X0Y147D02*
X7Y147D01*
X582Y147D02*
X589Y147D01*
X0Y146D02*
X7Y146D01*
X582Y146D02*
X589Y146D01*
X0Y145D02*
X7Y145D01*
X582Y145D02*
X589Y145D01*
X0Y144D02*
X7Y144D01*
X582Y144D02*
X589Y144D01*
X0Y143D02*
X7Y143D01*
X582Y143D02*
X589Y143D01*
X0Y142D02*
X7Y142D01*
X582Y142D02*
X589Y142D01*
X0Y141D02*
X7Y141D01*
X582Y141D02*
X589Y141D01*
X0Y140D02*
X7Y140D01*
X582Y140D02*
X589Y140D01*
X0Y139D02*
X7Y139D01*
X582Y139D02*
X589Y139D01*
X0Y138D02*
X7Y138D01*
X582Y138D02*
X589Y138D01*
X0Y137D02*
X7Y137D01*
X582Y137D02*
X589Y137D01*
X0Y136D02*
X7Y136D01*
X582Y136D02*
X589Y136D01*
X0Y135D02*
X7Y135D01*
X582Y135D02*
X589Y135D01*
X0Y134D02*
X7Y134D01*
X582Y134D02*
X589Y134D01*
X0Y133D02*
X7Y133D01*
X582Y133D02*
X589Y133D01*
X0Y132D02*
X7Y132D01*
X582Y132D02*
X589Y132D01*
X0Y131D02*
X7Y131D01*
X582Y131D02*
X589Y131D01*
X0Y130D02*
X7Y130D01*
X582Y130D02*
X589Y130D01*
X0Y129D02*
X7Y129D01*
X582Y129D02*
X589Y129D01*
X0Y128D02*
X7Y128D01*
X582Y128D02*
X589Y128D01*
X0Y127D02*
X7Y127D01*
X582Y127D02*
X589Y127D01*
X0Y126D02*
X7Y126D01*
X582Y126D02*
X589Y126D01*
X0Y125D02*
X7Y125D01*
X582Y125D02*
X589Y125D01*
X0Y124D02*
X7Y124D01*
X582Y124D02*
X589Y124D01*
X0Y123D02*
X7Y123D01*
X582Y123D02*
X589Y123D01*
X0Y122D02*
X7Y122D01*
X582Y122D02*
X589Y122D01*
X0Y121D02*
X7Y121D01*
X582Y121D02*
X589Y121D01*
X0Y120D02*
X7Y120D01*
X582Y120D02*
X589Y120D01*
X0Y119D02*
X7Y119D01*
X582Y119D02*
X589Y119D01*
X0Y118D02*
X7Y118D01*
X582Y118D02*
X589Y118D01*
X0Y117D02*
X7Y117D01*
X582Y117D02*
X589Y117D01*
X0Y116D02*
X7Y116D01*
X582Y116D02*
X589Y116D01*
X0Y115D02*
X7Y115D01*
X582Y115D02*
X589Y115D01*
X0Y114D02*
X7Y114D01*
X582Y114D02*
X589Y114D01*
X0Y113D02*
X7Y113D01*
X582Y113D02*
X589Y113D01*
X0Y112D02*
X7Y112D01*
X582Y112D02*
X589Y112D01*
X0Y111D02*
X7Y111D01*
X582Y111D02*
X589Y111D01*
X0Y110D02*
X7Y110D01*
X582Y110D02*
X589Y110D01*
X0Y109D02*
X7Y109D01*
X582Y109D02*
X589Y109D01*
X0Y108D02*
X7Y108D01*
X582Y108D02*
X589Y108D01*
X0Y107D02*
X7Y107D01*
X582Y107D02*
X589Y107D01*
X0Y106D02*
X7Y106D01*
X582Y106D02*
X589Y106D01*
X0Y105D02*
X7Y105D01*
X582Y105D02*
X589Y105D01*
X0Y104D02*
X7Y104D01*
X582Y104D02*
X589Y104D01*
X0Y103D02*
X7Y103D01*
X582Y103D02*
X589Y103D01*
X0Y102D02*
X7Y102D01*
X582Y102D02*
X589Y102D01*
X0Y101D02*
X7Y101D01*
X582Y101D02*
X589Y101D01*
X0Y100D02*
X7Y100D01*
X582Y100D02*
X589Y100D01*
X0Y99D02*
X7Y99D01*
X582Y99D02*
X589Y99D01*
X0Y98D02*
X7Y98D01*
X582Y98D02*
X589Y98D01*
X0Y97D02*
X7Y97D01*
X582Y97D02*
X589Y97D01*
X0Y96D02*
X7Y96D01*
X582Y96D02*
X589Y96D01*
X0Y95D02*
X7Y95D01*
X582Y95D02*
X589Y95D01*
X0Y94D02*
X7Y94D01*
X582Y94D02*
X589Y94D01*
X0Y93D02*
X7Y93D01*
X582Y93D02*
X589Y93D01*
X0Y92D02*
X7Y92D01*
X582Y92D02*
X589Y92D01*
X0Y91D02*
X7Y91D01*
X582Y91D02*
X589Y91D01*
X0Y90D02*
X7Y90D01*
X582Y90D02*
X589Y90D01*
X0Y89D02*
X7Y89D01*
X582Y89D02*
X589Y89D01*
X0Y88D02*
X7Y88D01*
X582Y88D02*
X589Y88D01*
X0Y87D02*
X7Y87D01*
X582Y87D02*
X589Y87D01*
X0Y86D02*
X7Y86D01*
X582Y86D02*
X589Y86D01*
X0Y85D02*
X7Y85D01*
X582Y85D02*
X589Y85D01*
X0Y84D02*
X7Y84D01*
X582Y84D02*
X589Y84D01*
X0Y83D02*
X7Y83D01*
X582Y83D02*
X589Y83D01*
X0Y82D02*
X7Y82D01*
X582Y82D02*
X589Y82D01*
X0Y81D02*
X7Y81D01*
X582Y81D02*
X589Y81D01*
X0Y80D02*
X7Y80D01*
X582Y80D02*
X589Y80D01*
X0Y79D02*
X7Y79D01*
X582Y79D02*
X589Y79D01*
X0Y78D02*
X7Y78D01*
X582Y78D02*
X589Y78D01*
X0Y77D02*
X7Y77D01*
X582Y77D02*
X589Y77D01*
X0Y76D02*
X7Y76D01*
X582Y76D02*
X589Y76D01*
X0Y75D02*
X7Y75D01*
X582Y75D02*
X589Y75D01*
X0Y74D02*
X7Y74D01*
X582Y74D02*
X589Y74D01*
X0Y73D02*
X7Y73D01*
X582Y73D02*
X589Y73D01*
X0Y72D02*
X7Y72D01*
X582Y72D02*
X589Y72D01*
X0Y71D02*
X7Y71D01*
X582Y71D02*
X589Y71D01*
X0Y70D02*
X7Y70D01*
X582Y70D02*
X589Y70D01*
X0Y69D02*
X7Y69D01*
X582Y69D02*
X589Y69D01*
X0Y68D02*
X7Y68D01*
X582Y68D02*
X589Y68D01*
X0Y67D02*
X7Y67D01*
X582Y67D02*
X589Y67D01*
X0Y66D02*
X7Y66D01*
X582Y66D02*
X589Y66D01*
X0Y65D02*
X7Y65D01*
X582Y65D02*
X589Y65D01*
X0Y64D02*
X7Y64D01*
X582Y64D02*
X589Y64D01*
X0Y63D02*
X7Y63D01*
X582Y63D02*
X589Y63D01*
X0Y62D02*
X7Y62D01*
X582Y62D02*
X589Y62D01*
X0Y61D02*
X7Y61D01*
X582Y61D02*
X589Y61D01*
X0Y60D02*
X7Y60D01*
X582Y60D02*
X589Y60D01*
X0Y59D02*
X7Y59D01*
X582Y59D02*
X589Y59D01*
X0Y58D02*
X7Y58D01*
X582Y58D02*
X589Y58D01*
X0Y57D02*
X7Y57D01*
X582Y57D02*
X589Y57D01*
X0Y56D02*
X7Y56D01*
X582Y56D02*
X589Y56D01*
X0Y55D02*
X7Y55D01*
X582Y55D02*
X589Y55D01*
X0Y54D02*
X7Y54D01*
X582Y54D02*
X589Y54D01*
X0Y53D02*
X7Y53D01*
X582Y53D02*
X589Y53D01*
X0Y52D02*
X7Y52D01*
X204Y52D02*
X207Y52D01*
X582Y52D02*
X589Y52D01*
X0Y51D02*
X7Y51D01*
X203Y51D02*
X208Y51D01*
X582Y51D02*
X589Y51D01*
X0Y50D02*
X7Y50D01*
X203Y50D02*
X209Y50D01*
X582Y50D02*
X589Y50D01*
X0Y49D02*
X7Y49D01*
X203Y49D02*
X209Y49D01*
X582Y49D02*
X589Y49D01*
X0Y48D02*
X7Y48D01*
X203Y48D02*
X209Y48D01*
X582Y48D02*
X589Y48D01*
X0Y47D02*
X7Y47D01*
X203Y47D02*
X209Y47D01*
X582Y47D02*
X589Y47D01*
X0Y46D02*
X7Y46D01*
X203Y46D02*
X209Y46D01*
X582Y46D02*
X589Y46D01*
X0Y45D02*
X7Y45D01*
X203Y45D02*
X209Y45D01*
X582Y45D02*
X589Y45D01*
X0Y44D02*
X7Y44D01*
X203Y44D02*
X209Y44D01*
X501Y44D02*
X511Y44D01*
X523Y44D02*
X525Y44D01*
X537Y44D02*
X542Y44D01*
X553Y44D02*
X562Y44D01*
X582Y44D02*
X589Y44D01*
X0Y43D02*
X7Y43D01*
X203Y43D02*
X209Y43D01*
X499Y43D02*
X512Y43D01*
X522Y43D02*
X525Y43D01*
X537Y43D02*
X542Y43D01*
X553Y43D02*
X564Y43D01*
X582Y43D02*
X589Y43D01*
X0Y42D02*
X7Y42D01*
X203Y42D02*
X209Y42D01*
X498Y42D02*
X512Y42D01*
X522Y42D02*
X526Y42D01*
X536Y42D02*
X542Y42D01*
X552Y42D02*
X565Y42D01*
X582Y42D02*
X589Y42D01*
X0Y41D02*
X7Y41D01*
X203Y41D02*
X209Y41D01*
X498Y41D02*
X511Y41D01*
X522Y41D02*
X526Y41D01*
X536Y41D02*
X542Y41D01*
X553Y41D02*
X566Y41D01*
X582Y41D02*
X589Y41D01*
X0Y40D02*
X7Y40D01*
X203Y40D02*
X209Y40D01*
X497Y40D02*
X501Y40D01*
X504Y40D02*
X508Y40D01*
X522Y40D02*
X526Y40D01*
X536Y40D02*
X542Y40D01*
X562Y40D02*
X566Y40D01*
X582Y40D02*
X589Y40D01*
X0Y39D02*
X7Y39D01*
X193Y39D02*
X219Y39D01*
X497Y39D02*
X500Y39D01*
X505Y39D02*
X508Y39D01*
X522Y39D02*
X526Y39D01*
X535Y39D02*
X542Y39D01*
X563Y39D02*
X567Y39D01*
X582Y39D02*
X589Y39D01*
X0Y38D02*
X7Y38D01*
X190Y38D02*
X222Y38D01*
X496Y38D02*
X500Y38D01*
X505Y38D02*
X508Y38D01*
X522Y38D02*
X526Y38D01*
X535Y38D02*
X542Y38D01*
X563Y38D02*
X568Y38D01*
X582Y38D02*
X589Y38D01*
X0Y37D02*
X7Y37D01*
X189Y37D02*
X222Y37D01*
X496Y37D02*
X499Y37D01*
X505Y37D02*
X508Y37D01*
X522Y37D02*
X526Y37D01*
X534Y37D02*
X542Y37D01*
X564Y37D02*
X569Y37D01*
X582Y37D02*
X589Y37D01*
X0Y36D02*
X7Y36D01*
X189Y36D02*
X223Y36D01*
X495Y36D02*
X499Y36D01*
X505Y36D02*
X508Y36D01*
X522Y36D02*
X526Y36D01*
X534Y36D02*
X542Y36D01*
X565Y36D02*
X569Y36D01*
X582Y36D02*
X589Y36D01*
X0Y35D02*
X7Y35D01*
X189Y35D02*
X223Y35D01*
X495Y35D02*
X498Y35D01*
X505Y35D02*
X508Y35D01*
X522Y35D02*
X526Y35D01*
X533Y35D02*
X537Y35D01*
X539Y35D02*
X542Y35D01*
X566Y35D02*
X570Y35D01*
X582Y35D02*
X589Y35D01*
X0Y34D02*
X7Y34D01*
X189Y34D02*
X222Y34D01*
X494Y34D02*
X498Y34D01*
X505Y34D02*
X508Y34D01*
X522Y34D02*
X526Y34D01*
X533Y34D02*
X537Y34D01*
X539Y34D02*
X542Y34D01*
X567Y34D02*
X571Y34D01*
X582Y34D02*
X589Y34D01*
X0Y33D02*
X7Y33D01*
X190Y33D02*
X222Y33D01*
X494Y33D02*
X497Y33D01*
X505Y33D02*
X508Y33D01*
X522Y33D02*
X526Y33D01*
X533Y33D02*
X536Y33D01*
X539Y33D02*
X542Y33D01*
X567Y33D02*
X571Y33D01*
X582Y33D02*
X589Y33D01*
X0Y32D02*
X7Y32D01*
X193Y32D02*
X219Y32D01*
X493Y32D02*
X497Y32D01*
X505Y32D02*
X508Y32D01*
X522Y32D02*
X526Y32D01*
X532Y32D02*
X536Y32D01*
X539Y32D02*
X542Y32D01*
X568Y32D02*
X572Y32D01*
X582Y32D02*
X589Y32D01*
X0Y31D02*
X7Y31D01*
X203Y31D02*
X209Y31D01*
X493Y31D02*
X496Y31D01*
X505Y31D02*
X508Y31D01*
X522Y31D02*
X526Y31D01*
X532Y31D02*
X535Y31D01*
X539Y31D02*
X542Y31D01*
X569Y31D02*
X572Y31D01*
X582Y31D02*
X589Y31D01*
X0Y30D02*
X7Y30D01*
X203Y30D02*
X209Y30D01*
X492Y30D02*
X496Y30D01*
X505Y30D02*
X508Y30D01*
X522Y30D02*
X526Y30D01*
X531Y30D02*
X535Y30D01*
X539Y30D02*
X542Y30D01*
X569Y30D02*
X572Y30D01*
X582Y30D02*
X589Y30D01*
X0Y29D02*
X7Y29D01*
X203Y29D02*
X209Y29D01*
X492Y29D02*
X496Y29D01*
X505Y29D02*
X508Y29D01*
X522Y29D02*
X526Y29D01*
X531Y29D02*
X534Y29D01*
X539Y29D02*
X542Y29D01*
X569Y29D02*
X572Y29D01*
X582Y29D02*
X589Y29D01*
X0Y28D02*
X7Y28D01*
X203Y28D02*
X209Y28D01*
X492Y28D02*
X495Y28D01*
X505Y28D02*
X508Y28D01*
X522Y28D02*
X526Y28D01*
X530Y28D02*
X534Y28D01*
X539Y28D02*
X542Y28D01*
X569Y28D02*
X572Y28D01*
X582Y28D02*
X589Y28D01*
X0Y27D02*
X7Y27D01*
X203Y27D02*
X209Y27D01*
X492Y27D02*
X496Y27D01*
X505Y27D02*
X508Y27D01*
X522Y27D02*
X526Y27D01*
X530Y27D02*
X533Y27D01*
X539Y27D02*
X542Y27D01*
X569Y27D02*
X572Y27D01*
X582Y27D02*
X589Y27D01*
X0Y26D02*
X7Y26D01*
X203Y26D02*
X209Y26D01*
X493Y26D02*
X496Y26D01*
X505Y26D02*
X508Y26D01*
X522Y26D02*
X526Y26D01*
X529Y26D02*
X533Y26D01*
X539Y26D02*
X542Y26D01*
X552Y26D02*
X561Y26D01*
X569Y26D02*
X572Y26D01*
X582Y26D02*
X589Y26D01*
X0Y25D02*
X7Y25D01*
X203Y25D02*
X209Y25D01*
X493Y25D02*
X496Y25D01*
X505Y25D02*
X508Y25D01*
X522Y25D02*
X526Y25D01*
X529Y25D02*
X533Y25D01*
X539Y25D02*
X542Y25D01*
X552Y25D02*
X562Y25D01*
X569Y25D02*
X572Y25D01*
X582Y25D02*
X589Y25D01*
X0Y24D02*
X7Y24D01*
X203Y24D02*
X209Y24D01*
X493Y24D02*
X497Y24D01*
X505Y24D02*
X508Y24D01*
X522Y24D02*
X526Y24D01*
X529Y24D02*
X532Y24D01*
X539Y24D02*
X542Y24D01*
X552Y24D02*
X562Y24D01*
X569Y24D02*
X572Y24D01*
X582Y24D02*
X589Y24D01*
X0Y23D02*
X7Y23D01*
X203Y23D02*
X209Y23D01*
X494Y23D02*
X497Y23D01*
X505Y23D02*
X508Y23D01*
X522Y23D02*
X526Y23D01*
X528Y23D02*
X532Y23D01*
X539Y23D02*
X542Y23D01*
X552Y23D02*
X561Y23D01*
X569Y23D02*
X572Y23D01*
X582Y23D02*
X589Y23D01*
X0Y22D02*
X7Y22D01*
X203Y22D02*
X209Y22D01*
X494Y22D02*
X498Y22D01*
X505Y22D02*
X508Y22D01*
X522Y22D02*
X526Y22D01*
X528Y22D02*
X531Y22D01*
X539Y22D02*
X542Y22D01*
X552Y22D02*
X556Y22D01*
X569Y22D02*
X572Y22D01*
X582Y22D02*
X589Y22D01*
X0Y21D02*
X7Y21D01*
X203Y21D02*
X209Y21D01*
X495Y21D02*
X498Y21D01*
X505Y21D02*
X508Y21D01*
X522Y21D02*
X531Y21D01*
X539Y21D02*
X542Y21D01*
X552Y21D02*
X556Y21D01*
X569Y21D02*
X572Y21D01*
X582Y21D02*
X589Y21D01*
X0Y20D02*
X7Y20D01*
X203Y20D02*
X208Y20D01*
X495Y20D02*
X499Y20D01*
X505Y20D02*
X508Y20D01*
X522Y20D02*
X530Y20D01*
X539Y20D02*
X542Y20D01*
X552Y20D02*
X556Y20D01*
X569Y20D02*
X572Y20D01*
X582Y20D02*
X589Y20D01*
X0Y19D02*
X7Y19D01*
X204Y19D02*
X208Y19D01*
X496Y19D02*
X499Y19D01*
X505Y19D02*
X508Y19D01*
X522Y19D02*
X530Y19D01*
X539Y19D02*
X542Y19D01*
X552Y19D02*
X556Y19D01*
X569Y19D02*
X572Y19D01*
X582Y19D02*
X589Y19D01*
X0Y18D02*
X7Y18D01*
X496Y18D02*
X500Y18D01*
X505Y18D02*
X508Y18D01*
X522Y18D02*
X530Y18D01*
X539Y18D02*
X542Y18D01*
X552Y18D02*
X556Y18D01*
X569Y18D02*
X572Y18D01*
X582Y18D02*
X589Y18D01*
X0Y17D02*
X7Y17D01*
X497Y17D02*
X501Y17D01*
X505Y17D02*
X508Y17D01*
X522Y17D02*
X529Y17D01*
X539Y17D02*
X542Y17D01*
X553Y17D02*
X556Y17D01*
X568Y17D02*
X572Y17D01*
X582Y17D02*
X589Y17D01*
X0Y16D02*
X7Y16D01*
X497Y16D02*
X510Y16D01*
X522Y16D02*
X529Y16D01*
X539Y16D02*
X542Y16D01*
X553Y16D02*
X572Y16D01*
X582Y16D02*
X589Y16D01*
X0Y15D02*
X7Y15D01*
X498Y15D02*
X512Y15D01*
X522Y15D02*
X528Y15D01*
X539Y15D02*
X542Y15D01*
X553Y15D02*
X571Y15D01*
X582Y15D02*
X589Y15D01*
X0Y14D02*
X7Y14D01*
X498Y14D02*
X512Y14D01*
X522Y14D02*
X528Y14D01*
X539Y14D02*
X542Y14D01*
X554Y14D02*
X570Y14D01*
X582Y14D02*
X589Y14D01*
X0Y13D02*
X7Y13D01*
X500Y13D02*
X512Y13D01*
X522Y13D02*
X527Y13D01*
X539Y13D02*
X542Y13D01*
X555Y13D02*
X569Y13D01*
X582Y13D02*
X589Y13D01*
X0Y12D02*
X7Y12D01*
X503Y12D02*
X510Y12D01*
X523Y12D02*
X527Y12D01*
X558Y12D02*
X567Y12D01*
X582Y12D02*
X589Y12D01*
X0Y11D02*
X7Y11D01*
X582Y11D02*
X589Y11D01*
X0Y10D02*
X7Y10D01*
X582Y10D02*
X589Y10D01*
X0Y9D02*
X229Y9D01*
X299Y9D02*
X403Y9D01*
X473Y9D02*
X589Y9D01*
X0Y8D02*
X229Y8D01*
X299Y8D02*
X403Y8D01*
X473Y8D02*
X589Y8D01*
X0Y7D02*
X229Y7D01*
X299Y7D02*
X403Y7D01*
X472Y7D02*
X589Y7D01*
X0Y6D02*
X229Y6D01*
X299Y6D02*
X589Y6D01*
X0Y5D02*
X589Y5D01*
X0Y4D02*
X589Y4D01*
X0Y3D02*
X589Y3D01*
X0Y2D02*
X589Y2D01*
D02*
G04 End of Silk0*
M02*