G04 MADE WITH FRITZING*
G04 WWW.FRITZING.ORG*
G04 DOUBLE SIDED*
G04 HOLES PLATED*
G04 CONTOUR ON CENTER OF CONTOUR VECTOR*
%ASAXBY*%
%FSLAX23Y23*%
%MOIN*%
%OFA0B0*%
%SFA1.0B1.0*%
%ADD10C,0.010000*%
%ADD11C,0.005000*%
%ADD12C,0.011000*%
%ADD13R,0.001000X0.001000*%
%LNSILK1*%
G90*
G70*
G54D10*
X451Y351D02*
X174Y351D01*
D02*
X174Y351D02*
X174Y251D01*
D02*
X174Y251D02*
X451Y251D01*
D02*
X451Y251D02*
X451Y351D01*
G54D11*
D02*
X416Y351D02*
X451Y316D01*
G54D12*
X373Y102D02*
X403Y102D01*
D02*
X79Y212D02*
X109Y212D01*
D02*
X79Y102D02*
X109Y102D01*
D02*
G54D13*
X0Y591D02*
X589Y591D01*
X0Y590D02*
X589Y590D01*
X0Y589D02*
X589Y589D01*
X0Y588D02*
X589Y588D01*
X0Y587D02*
X589Y587D01*
X0Y586D02*
X589Y586D01*
X0Y585D02*
X589Y585D01*
X0Y584D02*
X589Y584D01*
X0Y583D02*
X7Y583D01*
X582Y583D02*
X589Y583D01*
X0Y582D02*
X7Y582D01*
X582Y582D02*
X589Y582D01*
X0Y581D02*
X7Y581D01*
X582Y581D02*
X589Y581D01*
X0Y580D02*
X7Y580D01*
X582Y580D02*
X589Y580D01*
X0Y579D02*
X7Y579D01*
X582Y579D02*
X589Y579D01*
X0Y578D02*
X7Y578D01*
X582Y578D02*
X589Y578D01*
X0Y577D02*
X7Y577D01*
X582Y577D02*
X589Y577D01*
X0Y576D02*
X7Y576D01*
X582Y576D02*
X589Y576D01*
X0Y575D02*
X7Y575D01*
X582Y575D02*
X589Y575D01*
X0Y574D02*
X7Y574D01*
X582Y574D02*
X589Y574D01*
X0Y573D02*
X7Y573D01*
X582Y573D02*
X589Y573D01*
X0Y572D02*
X7Y572D01*
X582Y572D02*
X589Y572D01*
X0Y571D02*
X7Y571D01*
X582Y571D02*
X589Y571D01*
X0Y570D02*
X7Y570D01*
X582Y570D02*
X589Y570D01*
X0Y569D02*
X7Y569D01*
X582Y569D02*
X589Y569D01*
X0Y568D02*
X7Y568D01*
X582Y568D02*
X589Y568D01*
X0Y567D02*
X7Y567D01*
X582Y567D02*
X589Y567D01*
X0Y566D02*
X7Y566D01*
X582Y566D02*
X589Y566D01*
X0Y565D02*
X7Y565D01*
X582Y565D02*
X589Y565D01*
X0Y564D02*
X7Y564D01*
X582Y564D02*
X589Y564D01*
X0Y563D02*
X7Y563D01*
X582Y563D02*
X589Y563D01*
X0Y562D02*
X7Y562D01*
X582Y562D02*
X589Y562D01*
X0Y561D02*
X7Y561D01*
X582Y561D02*
X589Y561D01*
X0Y560D02*
X7Y560D01*
X582Y560D02*
X589Y560D01*
X0Y559D02*
X7Y559D01*
X582Y559D02*
X589Y559D01*
X0Y558D02*
X7Y558D01*
X582Y558D02*
X589Y558D01*
X0Y557D02*
X7Y557D01*
X582Y557D02*
X589Y557D01*
X0Y556D02*
X7Y556D01*
X582Y556D02*
X589Y556D01*
X0Y555D02*
X7Y555D01*
X582Y555D02*
X589Y555D01*
X0Y554D02*
X7Y554D01*
X582Y554D02*
X589Y554D01*
X0Y553D02*
X7Y553D01*
X582Y553D02*
X589Y553D01*
X0Y552D02*
X7Y552D01*
X131Y552D02*
X156Y552D01*
X425Y552D02*
X450Y552D01*
X582Y552D02*
X589Y552D01*
X0Y551D02*
X7Y551D01*
X125Y551D02*
X163Y551D01*
X418Y551D02*
X456Y551D01*
X582Y551D02*
X589Y551D01*
X0Y550D02*
X7Y550D01*
X120Y550D02*
X167Y550D01*
X414Y550D02*
X461Y550D01*
X582Y550D02*
X589Y550D01*
X0Y549D02*
X7Y549D01*
X117Y549D02*
X171Y549D01*
X410Y549D02*
X465Y549D01*
X582Y549D02*
X589Y549D01*
X0Y548D02*
X7Y548D01*
X113Y548D02*
X175Y548D01*
X406Y548D02*
X468Y548D01*
X582Y548D02*
X589Y548D01*
X0Y547D02*
X7Y547D01*
X110Y547D02*
X178Y547D01*
X403Y547D02*
X471Y547D01*
X582Y547D02*
X589Y547D01*
X0Y546D02*
X7Y546D01*
X107Y546D02*
X180Y546D01*
X401Y546D02*
X474Y546D01*
X582Y546D02*
X589Y546D01*
X0Y545D02*
X7Y545D01*
X105Y545D02*
X183Y545D01*
X398Y545D02*
X476Y545D01*
X582Y545D02*
X589Y545D01*
X0Y544D02*
X7Y544D01*
X103Y544D02*
X185Y544D01*
X396Y544D02*
X479Y544D01*
X582Y544D02*
X589Y544D01*
X0Y543D02*
X7Y543D01*
X100Y543D02*
X187Y543D01*
X394Y543D02*
X481Y543D01*
X582Y543D02*
X589Y543D01*
X0Y542D02*
X7Y542D01*
X98Y542D02*
X131Y542D01*
X157Y542D02*
X189Y542D01*
X392Y542D02*
X424Y542D01*
X450Y542D02*
X483Y542D01*
X582Y542D02*
X589Y542D01*
X0Y541D02*
X7Y541D01*
X96Y541D02*
X124Y541D01*
X163Y541D02*
X192Y541D01*
X390Y541D02*
X418Y541D01*
X457Y541D02*
X485Y541D01*
X582Y541D02*
X589Y541D01*
X0Y540D02*
X7Y540D01*
X94Y540D02*
X120Y540D01*
X168Y540D02*
X194Y540D01*
X388Y540D02*
X413Y540D01*
X461Y540D02*
X487Y540D01*
X582Y540D02*
X589Y540D01*
X0Y539D02*
X7Y539D01*
X93Y539D02*
X116Y539D01*
X171Y539D02*
X195Y539D01*
X386Y539D02*
X410Y539D01*
X465Y539D02*
X488Y539D01*
X582Y539D02*
X589Y539D01*
X0Y538D02*
X7Y538D01*
X91Y538D02*
X113Y538D01*
X174Y538D02*
X197Y538D01*
X384Y538D02*
X407Y538D01*
X468Y538D02*
X490Y538D01*
X582Y538D02*
X589Y538D01*
X0Y537D02*
X7Y537D01*
X89Y537D02*
X111Y537D01*
X177Y537D02*
X199Y537D01*
X383Y537D02*
X404Y537D01*
X470Y537D02*
X492Y537D01*
X582Y537D02*
X589Y537D01*
X0Y536D02*
X7Y536D01*
X88Y536D02*
X108Y536D01*
X180Y536D02*
X200Y536D01*
X381Y536D02*
X401Y536D01*
X473Y536D02*
X493Y536D01*
X582Y536D02*
X589Y536D01*
X0Y535D02*
X7Y535D01*
X86Y535D02*
X105Y535D01*
X182Y535D02*
X202Y535D01*
X379Y535D02*
X399Y535D01*
X476Y535D02*
X495Y535D01*
X582Y535D02*
X589Y535D01*
X0Y534D02*
X7Y534D01*
X85Y534D02*
X103Y534D01*
X184Y534D02*
X203Y534D01*
X378Y534D02*
X397Y534D01*
X478Y534D02*
X496Y534D01*
X582Y534D02*
X589Y534D01*
X0Y533D02*
X7Y533D01*
X83Y533D02*
X101Y533D01*
X187Y533D02*
X205Y533D01*
X376Y533D02*
X395Y533D01*
X480Y533D02*
X498Y533D01*
X582Y533D02*
X589Y533D01*
X0Y532D02*
X7Y532D01*
X82Y532D02*
X99Y532D01*
X189Y532D02*
X206Y532D01*
X375Y532D02*
X392Y532D01*
X482Y532D02*
X499Y532D01*
X582Y532D02*
X589Y532D01*
X0Y531D02*
X7Y531D01*
X81Y531D02*
X97Y531D01*
X190Y531D02*
X207Y531D01*
X374Y531D02*
X391Y531D01*
X484Y531D02*
X501Y531D01*
X582Y531D02*
X589Y531D01*
X0Y530D02*
X7Y530D01*
X79Y530D02*
X96Y530D01*
X192Y530D02*
X209Y530D01*
X372Y530D02*
X389Y530D01*
X485Y530D02*
X502Y530D01*
X582Y530D02*
X589Y530D01*
X0Y529D02*
X7Y529D01*
X78Y529D02*
X94Y529D01*
X194Y529D02*
X210Y529D01*
X371Y529D02*
X387Y529D01*
X487Y529D02*
X503Y529D01*
X582Y529D02*
X589Y529D01*
X0Y528D02*
X7Y528D01*
X77Y528D02*
X92Y528D01*
X195Y528D02*
X211Y528D01*
X370Y528D02*
X386Y528D01*
X489Y528D02*
X504Y528D01*
X582Y528D02*
X589Y528D01*
X0Y527D02*
X7Y527D01*
X76Y527D02*
X91Y527D01*
X197Y527D02*
X212Y527D01*
X369Y527D02*
X384Y527D01*
X490Y527D02*
X505Y527D01*
X582Y527D02*
X589Y527D01*
X0Y526D02*
X7Y526D01*
X75Y526D02*
X89Y526D01*
X198Y526D02*
X213Y526D01*
X368Y526D02*
X383Y526D01*
X492Y526D02*
X507Y526D01*
X582Y526D02*
X589Y526D01*
X0Y525D02*
X7Y525D01*
X73Y525D02*
X88Y525D01*
X200Y525D02*
X214Y525D01*
X367Y525D02*
X381Y525D01*
X493Y525D02*
X508Y525D01*
X582Y525D02*
X589Y525D01*
X0Y524D02*
X7Y524D01*
X72Y524D02*
X87Y524D01*
X201Y524D02*
X216Y524D01*
X366Y524D02*
X380Y524D01*
X494Y524D02*
X509Y524D01*
X582Y524D02*
X589Y524D01*
X0Y523D02*
X7Y523D01*
X71Y523D02*
X85Y523D01*
X202Y523D02*
X217Y523D01*
X364Y523D02*
X379Y523D01*
X496Y523D02*
X510Y523D01*
X582Y523D02*
X589Y523D01*
X0Y522D02*
X7Y522D01*
X70Y522D02*
X84Y522D01*
X204Y522D02*
X218Y522D01*
X363Y522D02*
X377Y522D01*
X497Y522D02*
X511Y522D01*
X582Y522D02*
X589Y522D01*
X0Y521D02*
X7Y521D01*
X69Y521D02*
X83Y521D01*
X205Y521D02*
X219Y521D01*
X362Y521D02*
X376Y521D01*
X498Y521D02*
X512Y521D01*
X582Y521D02*
X589Y521D01*
X0Y520D02*
X7Y520D01*
X68Y520D02*
X82Y520D01*
X206Y520D02*
X220Y520D01*
X362Y520D02*
X375Y520D01*
X499Y520D02*
X513Y520D01*
X582Y520D02*
X589Y520D01*
X0Y519D02*
X7Y519D01*
X67Y519D02*
X81Y519D01*
X207Y519D02*
X220Y519D01*
X361Y519D02*
X374Y519D01*
X500Y519D02*
X514Y519D01*
X582Y519D02*
X589Y519D01*
X0Y518D02*
X7Y518D01*
X66Y518D02*
X80Y518D01*
X208Y518D02*
X221Y518D01*
X360Y518D02*
X373Y518D01*
X502Y518D02*
X515Y518D01*
X582Y518D02*
X589Y518D01*
X0Y517D02*
X7Y517D01*
X66Y517D02*
X78Y517D01*
X209Y517D02*
X222Y517D01*
X359Y517D02*
X372Y517D01*
X503Y517D02*
X515Y517D01*
X582Y517D02*
X589Y517D01*
X0Y516D02*
X7Y516D01*
X65Y516D02*
X77Y516D01*
X210Y516D02*
X223Y516D01*
X358Y516D02*
X371Y516D01*
X504Y516D02*
X516Y516D01*
X582Y516D02*
X589Y516D01*
X0Y515D02*
X7Y515D01*
X64Y515D02*
X76Y515D01*
X212Y515D02*
X224Y515D01*
X357Y515D02*
X370Y515D01*
X505Y515D02*
X517Y515D01*
X582Y515D02*
X589Y515D01*
X0Y514D02*
X7Y514D01*
X63Y514D02*
X75Y514D01*
X212Y514D02*
X225Y514D01*
X356Y514D02*
X369Y514D01*
X506Y514D02*
X518Y514D01*
X582Y514D02*
X589Y514D01*
X0Y513D02*
X7Y513D01*
X62Y513D02*
X74Y513D01*
X213Y513D02*
X226Y513D01*
X355Y513D02*
X368Y513D01*
X507Y513D02*
X519Y513D01*
X582Y513D02*
X589Y513D01*
X0Y512D02*
X7Y512D01*
X61Y512D02*
X74Y512D01*
X214Y512D02*
X226Y512D01*
X355Y512D02*
X367Y512D01*
X508Y512D02*
X520Y512D01*
X582Y512D02*
X589Y512D01*
X0Y511D02*
X7Y511D01*
X61Y511D02*
X73Y511D01*
X215Y511D02*
X227Y511D01*
X354Y511D02*
X366Y511D01*
X508Y511D02*
X520Y511D01*
X582Y511D02*
X589Y511D01*
X0Y510D02*
X7Y510D01*
X60Y510D02*
X72Y510D01*
X216Y510D02*
X228Y510D01*
X353Y510D02*
X365Y510D01*
X509Y510D02*
X521Y510D01*
X582Y510D02*
X589Y510D01*
X0Y509D02*
X7Y509D01*
X59Y509D02*
X71Y509D01*
X217Y509D02*
X229Y509D01*
X353Y509D02*
X364Y509D01*
X510Y509D02*
X522Y509D01*
X582Y509D02*
X589Y509D01*
X0Y508D02*
X7Y508D01*
X59Y508D02*
X70Y508D01*
X177Y508D02*
X210Y508D01*
X218Y508D02*
X229Y508D01*
X352Y508D02*
X363Y508D01*
X471Y508D02*
X503Y508D01*
X511Y508D02*
X523Y508D01*
X582Y508D02*
X589Y508D01*
X0Y507D02*
X7Y507D01*
X58Y507D02*
X69Y507D01*
X176Y507D02*
X212Y507D01*
X219Y507D02*
X230Y507D01*
X351Y507D02*
X362Y507D01*
X469Y507D02*
X505Y507D01*
X512Y507D02*
X523Y507D01*
X582Y507D02*
X589Y507D01*
X0Y506D02*
X7Y506D01*
X57Y506D02*
X68Y506D01*
X175Y506D02*
X213Y506D01*
X219Y506D02*
X231Y506D01*
X350Y506D02*
X362Y506D01*
X468Y506D02*
X506Y506D01*
X513Y506D02*
X524Y506D01*
X582Y506D02*
X589Y506D01*
X0Y505D02*
X7Y505D01*
X57Y505D02*
X68Y505D01*
X174Y505D02*
X213Y505D01*
X220Y505D02*
X231Y505D01*
X350Y505D02*
X361Y505D01*
X468Y505D02*
X507Y505D01*
X513Y505D02*
X525Y505D01*
X582Y505D02*
X589Y505D01*
X0Y504D02*
X7Y504D01*
X56Y504D02*
X67Y504D01*
X174Y504D02*
X214Y504D01*
X221Y504D02*
X232Y504D01*
X349Y504D02*
X360Y504D01*
X467Y504D02*
X507Y504D01*
X514Y504D02*
X525Y504D01*
X582Y504D02*
X589Y504D01*
X0Y503D02*
X7Y503D01*
X55Y503D02*
X66Y503D01*
X174Y503D02*
X214Y503D01*
X222Y503D02*
X233Y503D01*
X349Y503D02*
X359Y503D01*
X467Y503D02*
X507Y503D01*
X515Y503D02*
X526Y503D01*
X582Y503D02*
X589Y503D01*
X0Y502D02*
X7Y502D01*
X55Y502D02*
X65Y502D01*
X174Y502D02*
X214Y502D01*
X222Y502D02*
X233Y502D01*
X348Y502D02*
X359Y502D01*
X467Y502D02*
X507Y502D01*
X516Y502D02*
X526Y502D01*
X582Y502D02*
X589Y502D01*
X0Y501D02*
X7Y501D01*
X54Y501D02*
X65Y501D01*
X174Y501D02*
X213Y501D01*
X223Y501D02*
X234Y501D01*
X347Y501D02*
X358Y501D01*
X468Y501D02*
X507Y501D01*
X516Y501D02*
X527Y501D01*
X582Y501D02*
X589Y501D01*
X0Y500D02*
X7Y500D01*
X54Y500D02*
X64Y500D01*
X175Y500D02*
X213Y500D01*
X224Y500D02*
X234Y500D01*
X347Y500D02*
X357Y500D01*
X468Y500D02*
X506Y500D01*
X517Y500D02*
X528Y500D01*
X582Y500D02*
X589Y500D01*
X0Y499D02*
X7Y499D01*
X53Y499D02*
X63Y499D01*
X176Y499D02*
X212Y499D01*
X224Y499D02*
X235Y499D01*
X346Y499D02*
X357Y499D01*
X469Y499D02*
X505Y499D01*
X518Y499D02*
X528Y499D01*
X582Y499D02*
X589Y499D01*
X0Y498D02*
X7Y498D01*
X52Y498D02*
X63Y498D01*
X177Y498D02*
X211Y498D01*
X225Y498D02*
X236Y498D01*
X346Y498D02*
X356Y498D01*
X470Y498D02*
X504Y498D01*
X518Y498D02*
X529Y498D01*
X582Y498D02*
X589Y498D01*
X0Y497D02*
X7Y497D01*
X52Y497D02*
X62Y497D01*
X226Y497D02*
X236Y497D01*
X345Y497D02*
X355Y497D01*
X519Y497D02*
X529Y497D01*
X582Y497D02*
X589Y497D01*
X0Y496D02*
X7Y496D01*
X51Y496D02*
X62Y496D01*
X226Y496D02*
X236Y496D01*
X345Y496D02*
X355Y496D01*
X519Y496D02*
X530Y496D01*
X582Y496D02*
X589Y496D01*
X0Y495D02*
X7Y495D01*
X51Y495D02*
X61Y495D01*
X227Y495D02*
X237Y495D01*
X344Y495D02*
X354Y495D01*
X520Y495D02*
X530Y495D01*
X582Y495D02*
X589Y495D01*
X0Y494D02*
X7Y494D01*
X50Y494D02*
X60Y494D01*
X227Y494D02*
X237Y494D01*
X344Y494D02*
X354Y494D01*
X521Y494D02*
X531Y494D01*
X582Y494D02*
X589Y494D01*
X0Y493D02*
X7Y493D01*
X50Y493D02*
X60Y493D01*
X228Y493D02*
X238Y493D01*
X343Y493D02*
X353Y493D01*
X521Y493D02*
X531Y493D01*
X582Y493D02*
X589Y493D01*
X0Y492D02*
X7Y492D01*
X49Y492D02*
X59Y492D01*
X229Y492D02*
X238Y492D01*
X343Y492D02*
X353Y492D01*
X522Y492D02*
X532Y492D01*
X582Y492D02*
X589Y492D01*
X0Y491D02*
X7Y491D01*
X49Y491D02*
X59Y491D01*
X229Y491D02*
X239Y491D01*
X342Y491D02*
X352Y491D01*
X522Y491D02*
X532Y491D01*
X582Y491D02*
X589Y491D01*
X0Y490D02*
X7Y490D01*
X48Y490D02*
X58Y490D01*
X237Y490D02*
X239Y490D01*
X342Y490D02*
X352Y490D01*
X530Y490D02*
X533Y490D01*
X582Y490D02*
X589Y490D01*
X0Y489D02*
X7Y489D01*
X48Y489D02*
X58Y489D01*
X237Y489D02*
X240Y489D01*
X341Y489D02*
X351Y489D01*
X530Y489D02*
X533Y489D01*
X582Y489D02*
X589Y489D01*
X0Y488D02*
X7Y488D01*
X48Y488D02*
X57Y488D01*
X237Y488D02*
X240Y488D01*
X341Y488D02*
X351Y488D01*
X530Y488D02*
X534Y488D01*
X582Y488D02*
X589Y488D01*
X0Y487D02*
X7Y487D01*
X47Y487D02*
X57Y487D01*
X237Y487D02*
X241Y487D01*
X340Y487D02*
X350Y487D01*
X530Y487D02*
X534Y487D01*
X582Y487D02*
X589Y487D01*
X0Y486D02*
X7Y486D01*
X47Y486D02*
X56Y486D01*
X237Y486D02*
X241Y486D01*
X340Y486D02*
X350Y486D01*
X530Y486D02*
X534Y486D01*
X582Y486D02*
X589Y486D01*
X0Y485D02*
X7Y485D01*
X46Y485D02*
X56Y485D01*
X237Y485D02*
X241Y485D01*
X340Y485D02*
X349Y485D01*
X530Y485D02*
X535Y485D01*
X582Y485D02*
X589Y485D01*
X0Y484D02*
X7Y484D01*
X46Y484D02*
X56Y484D01*
X237Y484D02*
X242Y484D01*
X339Y484D02*
X349Y484D01*
X530Y484D02*
X535Y484D01*
X582Y484D02*
X589Y484D01*
X0Y483D02*
X7Y483D01*
X46Y483D02*
X55Y483D01*
X237Y483D02*
X242Y483D01*
X339Y483D02*
X348Y483D01*
X530Y483D02*
X535Y483D01*
X582Y483D02*
X589Y483D01*
X0Y482D02*
X7Y482D01*
X45Y482D02*
X55Y482D01*
X237Y482D02*
X243Y482D01*
X339Y482D02*
X348Y482D01*
X530Y482D02*
X536Y482D01*
X582Y482D02*
X589Y482D01*
X0Y481D02*
X7Y481D01*
X45Y481D02*
X54Y481D01*
X237Y481D02*
X243Y481D01*
X338Y481D02*
X348Y481D01*
X530Y481D02*
X536Y481D01*
X582Y481D02*
X589Y481D01*
X0Y480D02*
X7Y480D01*
X45Y480D02*
X54Y480D01*
X237Y480D02*
X243Y480D01*
X338Y480D02*
X347Y480D01*
X530Y480D02*
X536Y480D01*
X582Y480D02*
X589Y480D01*
X0Y479D02*
X7Y479D01*
X44Y479D02*
X54Y479D01*
X237Y479D02*
X244Y479D01*
X338Y479D02*
X347Y479D01*
X530Y479D02*
X537Y479D01*
X582Y479D02*
X589Y479D01*
X0Y478D02*
X7Y478D01*
X44Y478D02*
X53Y478D01*
X237Y478D02*
X244Y478D01*
X337Y478D02*
X347Y478D01*
X530Y478D02*
X537Y478D01*
X582Y478D02*
X589Y478D01*
X0Y477D02*
X7Y477D01*
X44Y477D02*
X53Y477D01*
X237Y477D02*
X244Y477D01*
X337Y477D02*
X346Y477D01*
X530Y477D02*
X537Y477D01*
X582Y477D02*
X589Y477D01*
X0Y476D02*
X7Y476D01*
X43Y476D02*
X53Y476D01*
X237Y476D02*
X244Y476D01*
X337Y476D02*
X346Y476D01*
X530Y476D02*
X538Y476D01*
X582Y476D02*
X589Y476D01*
X0Y475D02*
X7Y475D01*
X43Y475D02*
X52Y475D01*
X237Y475D02*
X245Y475D01*
X336Y475D02*
X346Y475D01*
X530Y475D02*
X538Y475D01*
X582Y475D02*
X589Y475D01*
X0Y474D02*
X7Y474D01*
X43Y474D02*
X52Y474D01*
X237Y474D02*
X245Y474D01*
X336Y474D02*
X345Y474D01*
X530Y474D02*
X538Y474D01*
X582Y474D02*
X589Y474D01*
X0Y473D02*
X7Y473D01*
X43Y473D02*
X52Y473D01*
X237Y473D02*
X245Y473D01*
X336Y473D02*
X345Y473D01*
X530Y473D02*
X538Y473D01*
X582Y473D02*
X589Y473D01*
X0Y472D02*
X7Y472D01*
X42Y472D02*
X52Y472D01*
X237Y472D02*
X245Y472D01*
X336Y472D02*
X345Y472D01*
X530Y472D02*
X539Y472D01*
X582Y472D02*
X589Y472D01*
X0Y471D02*
X7Y471D01*
X42Y471D02*
X51Y471D01*
X237Y471D02*
X246Y471D01*
X335Y471D02*
X345Y471D01*
X530Y471D02*
X539Y471D01*
X582Y471D02*
X589Y471D01*
X0Y470D02*
X7Y470D01*
X42Y470D02*
X51Y470D01*
X237Y470D02*
X246Y470D01*
X335Y470D02*
X344Y470D01*
X530Y470D02*
X539Y470D01*
X582Y470D02*
X589Y470D01*
X0Y469D02*
X7Y469D01*
X42Y469D02*
X51Y469D01*
X237Y469D02*
X246Y469D01*
X335Y469D02*
X344Y469D01*
X530Y469D02*
X539Y469D01*
X582Y469D02*
X589Y469D01*
X0Y468D02*
X7Y468D01*
X41Y468D02*
X51Y468D01*
X237Y468D02*
X246Y468D01*
X335Y468D02*
X344Y468D01*
X530Y468D02*
X540Y468D01*
X582Y468D02*
X589Y468D01*
X0Y467D02*
X7Y467D01*
X41Y467D02*
X50Y467D01*
X237Y467D02*
X247Y467D01*
X335Y467D02*
X344Y467D01*
X531Y467D02*
X540Y467D01*
X582Y467D02*
X589Y467D01*
X0Y466D02*
X7Y466D01*
X41Y466D02*
X50Y466D01*
X238Y466D02*
X247Y466D01*
X334Y466D02*
X343Y466D01*
X531Y466D02*
X540Y466D01*
X582Y466D02*
X589Y466D01*
X0Y465D02*
X7Y465D01*
X41Y465D02*
X50Y465D01*
X238Y465D02*
X247Y465D01*
X334Y465D02*
X343Y465D01*
X531Y465D02*
X540Y465D01*
X582Y465D02*
X589Y465D01*
X0Y464D02*
X7Y464D01*
X41Y464D02*
X50Y464D01*
X238Y464D02*
X247Y464D01*
X334Y464D02*
X343Y464D01*
X531Y464D02*
X540Y464D01*
X582Y464D02*
X589Y464D01*
X0Y463D02*
X7Y463D01*
X41Y463D02*
X50Y463D01*
X238Y463D02*
X247Y463D01*
X334Y463D02*
X343Y463D01*
X531Y463D02*
X540Y463D01*
X582Y463D02*
X589Y463D01*
X0Y462D02*
X7Y462D01*
X40Y462D02*
X50Y462D01*
X238Y462D02*
X247Y462D01*
X334Y462D02*
X343Y462D01*
X532Y462D02*
X541Y462D01*
X582Y462D02*
X589Y462D01*
X0Y461D02*
X7Y461D01*
X40Y461D02*
X49Y461D01*
X238Y461D02*
X247Y461D01*
X334Y461D02*
X343Y461D01*
X532Y461D02*
X541Y461D01*
X582Y461D02*
X589Y461D01*
X0Y460D02*
X7Y460D01*
X40Y460D02*
X49Y460D01*
X239Y460D02*
X248Y460D01*
X333Y460D02*
X343Y460D01*
X532Y460D02*
X541Y460D01*
X582Y460D02*
X589Y460D01*
X0Y459D02*
X7Y459D01*
X40Y459D02*
X49Y459D01*
X239Y459D02*
X248Y459D01*
X333Y459D02*
X342Y459D01*
X532Y459D02*
X541Y459D01*
X582Y459D02*
X589Y459D01*
X0Y458D02*
X7Y458D01*
X40Y458D02*
X49Y458D01*
X239Y458D02*
X248Y458D01*
X333Y458D02*
X342Y458D01*
X532Y458D02*
X541Y458D01*
X582Y458D02*
X589Y458D01*
X0Y457D02*
X7Y457D01*
X40Y457D02*
X49Y457D01*
X239Y457D02*
X248Y457D01*
X333Y457D02*
X342Y457D01*
X532Y457D02*
X541Y457D01*
X582Y457D02*
X589Y457D01*
X0Y456D02*
X7Y456D01*
X40Y456D02*
X49Y456D01*
X239Y456D02*
X248Y456D01*
X333Y456D02*
X342Y456D01*
X532Y456D02*
X541Y456D01*
X582Y456D02*
X589Y456D01*
X0Y455D02*
X7Y455D01*
X40Y455D02*
X49Y455D01*
X239Y455D02*
X248Y455D01*
X333Y455D02*
X342Y455D01*
X532Y455D02*
X541Y455D01*
X582Y455D02*
X589Y455D01*
X0Y454D02*
X7Y454D01*
X40Y454D02*
X49Y454D01*
X239Y454D02*
X248Y454D01*
X333Y454D02*
X342Y454D01*
X532Y454D02*
X541Y454D01*
X582Y454D02*
X589Y454D01*
X0Y453D02*
X7Y453D01*
X40Y453D02*
X49Y453D01*
X239Y453D02*
X248Y453D01*
X333Y453D02*
X342Y453D01*
X532Y453D02*
X541Y453D01*
X582Y453D02*
X589Y453D01*
X0Y452D02*
X7Y452D01*
X40Y452D02*
X49Y452D01*
X239Y452D02*
X248Y452D01*
X333Y452D02*
X342Y452D01*
X532Y452D02*
X541Y452D01*
X582Y452D02*
X589Y452D01*
X0Y451D02*
X7Y451D01*
X40Y451D02*
X49Y451D01*
X239Y451D02*
X248Y451D01*
X333Y451D02*
X342Y451D01*
X532Y451D02*
X541Y451D01*
X582Y451D02*
X589Y451D01*
X0Y450D02*
X7Y450D01*
X40Y450D02*
X49Y450D01*
X239Y450D02*
X248Y450D01*
X333Y450D02*
X342Y450D01*
X533Y450D02*
X542Y450D01*
X582Y450D02*
X589Y450D01*
X0Y449D02*
X7Y449D01*
X40Y449D02*
X49Y449D01*
X239Y449D02*
X248Y449D01*
X333Y449D02*
X342Y449D01*
X533Y449D02*
X542Y449D01*
X582Y449D02*
X589Y449D01*
X0Y448D02*
X7Y448D01*
X40Y448D02*
X49Y448D01*
X239Y448D02*
X248Y448D01*
X333Y448D02*
X342Y448D01*
X533Y448D02*
X542Y448D01*
X582Y448D02*
X589Y448D01*
X0Y447D02*
X7Y447D01*
X40Y447D02*
X49Y447D01*
X239Y447D02*
X248Y447D01*
X333Y447D02*
X342Y447D01*
X533Y447D02*
X542Y447D01*
X582Y447D02*
X589Y447D01*
X0Y446D02*
X7Y446D01*
X40Y446D02*
X49Y446D01*
X239Y446D02*
X248Y446D01*
X333Y446D02*
X342Y446D01*
X533Y446D02*
X542Y446D01*
X582Y446D02*
X589Y446D01*
X0Y445D02*
X7Y445D01*
X40Y445D02*
X49Y445D01*
X239Y445D02*
X248Y445D01*
X333Y445D02*
X342Y445D01*
X532Y445D02*
X541Y445D01*
X582Y445D02*
X589Y445D01*
X0Y444D02*
X7Y444D01*
X40Y444D02*
X49Y444D01*
X239Y444D02*
X248Y444D01*
X333Y444D02*
X342Y444D01*
X532Y444D02*
X541Y444D01*
X582Y444D02*
X589Y444D01*
X0Y443D02*
X7Y443D01*
X40Y443D02*
X49Y443D01*
X239Y443D02*
X248Y443D01*
X333Y443D02*
X342Y443D01*
X532Y443D02*
X541Y443D01*
X582Y443D02*
X589Y443D01*
X0Y442D02*
X7Y442D01*
X40Y442D02*
X49Y442D01*
X239Y442D02*
X248Y442D01*
X333Y442D02*
X342Y442D01*
X532Y442D02*
X541Y442D01*
X582Y442D02*
X589Y442D01*
X0Y441D02*
X7Y441D01*
X40Y441D02*
X49Y441D01*
X239Y441D02*
X248Y441D01*
X333Y441D02*
X342Y441D01*
X532Y441D02*
X541Y441D01*
X582Y441D02*
X589Y441D01*
X0Y440D02*
X7Y440D01*
X40Y440D02*
X49Y440D01*
X239Y440D02*
X248Y440D01*
X333Y440D02*
X342Y440D01*
X532Y440D02*
X541Y440D01*
X582Y440D02*
X589Y440D01*
X0Y439D02*
X7Y439D01*
X40Y439D02*
X49Y439D01*
X239Y439D02*
X248Y439D01*
X333Y439D02*
X342Y439D01*
X532Y439D02*
X541Y439D01*
X582Y439D02*
X589Y439D01*
X0Y438D02*
X7Y438D01*
X40Y438D02*
X49Y438D01*
X239Y438D02*
X248Y438D01*
X333Y438D02*
X342Y438D01*
X532Y438D02*
X541Y438D01*
X582Y438D02*
X589Y438D01*
X0Y437D02*
X7Y437D01*
X40Y437D02*
X49Y437D01*
X239Y437D02*
X248Y437D01*
X333Y437D02*
X342Y437D01*
X532Y437D02*
X541Y437D01*
X582Y437D02*
X589Y437D01*
X0Y436D02*
X7Y436D01*
X40Y436D02*
X49Y436D01*
X239Y436D02*
X248Y436D01*
X333Y436D02*
X343Y436D01*
X532Y436D02*
X541Y436D01*
X582Y436D02*
X589Y436D01*
X0Y435D02*
X7Y435D01*
X40Y435D02*
X49Y435D01*
X238Y435D02*
X247Y435D01*
X334Y435D02*
X343Y435D01*
X532Y435D02*
X541Y435D01*
X582Y435D02*
X589Y435D01*
X0Y434D02*
X7Y434D01*
X40Y434D02*
X50Y434D01*
X238Y434D02*
X247Y434D01*
X334Y434D02*
X343Y434D01*
X532Y434D02*
X541Y434D01*
X582Y434D02*
X589Y434D01*
X0Y433D02*
X7Y433D01*
X41Y433D02*
X50Y433D01*
X238Y433D02*
X247Y433D01*
X334Y433D02*
X343Y433D01*
X531Y433D02*
X540Y433D01*
X582Y433D02*
X589Y433D01*
X0Y432D02*
X7Y432D01*
X41Y432D02*
X50Y432D01*
X238Y432D02*
X247Y432D01*
X334Y432D02*
X343Y432D01*
X531Y432D02*
X540Y432D01*
X582Y432D02*
X589Y432D01*
X0Y431D02*
X7Y431D01*
X41Y431D02*
X50Y431D01*
X238Y431D02*
X247Y431D01*
X334Y431D02*
X343Y431D01*
X531Y431D02*
X540Y431D01*
X582Y431D02*
X589Y431D01*
X0Y430D02*
X7Y430D01*
X41Y430D02*
X50Y430D01*
X238Y430D02*
X247Y430D01*
X334Y430D02*
X343Y430D01*
X531Y430D02*
X540Y430D01*
X582Y430D02*
X589Y430D01*
X0Y429D02*
X7Y429D01*
X41Y429D02*
X50Y429D01*
X237Y429D02*
X247Y429D01*
X335Y429D02*
X344Y429D01*
X531Y429D02*
X540Y429D01*
X582Y429D02*
X589Y429D01*
X0Y428D02*
X7Y428D01*
X41Y428D02*
X51Y428D01*
X237Y428D02*
X246Y428D01*
X335Y428D02*
X344Y428D01*
X531Y428D02*
X540Y428D01*
X582Y428D02*
X589Y428D01*
X0Y427D02*
X7Y427D01*
X42Y427D02*
X51Y427D01*
X237Y427D02*
X246Y427D01*
X335Y427D02*
X344Y427D01*
X530Y427D02*
X539Y427D01*
X582Y427D02*
X589Y427D01*
X0Y426D02*
X7Y426D01*
X42Y426D02*
X51Y426D01*
X237Y426D02*
X246Y426D01*
X335Y426D02*
X344Y426D01*
X530Y426D02*
X539Y426D01*
X582Y426D02*
X589Y426D01*
X0Y425D02*
X7Y425D01*
X42Y425D02*
X51Y425D01*
X237Y425D02*
X246Y425D01*
X335Y425D02*
X344Y425D01*
X530Y425D02*
X539Y425D01*
X582Y425D02*
X589Y425D01*
X0Y424D02*
X7Y424D01*
X42Y424D02*
X51Y424D01*
X237Y424D02*
X245Y424D01*
X336Y424D02*
X345Y424D01*
X530Y424D02*
X539Y424D01*
X582Y424D02*
X589Y424D01*
X0Y423D02*
X7Y423D01*
X43Y423D02*
X52Y423D01*
X237Y423D02*
X245Y423D01*
X336Y423D02*
X345Y423D01*
X530Y423D02*
X538Y423D01*
X582Y423D02*
X589Y423D01*
X0Y422D02*
X7Y422D01*
X43Y422D02*
X52Y422D01*
X237Y422D02*
X245Y422D01*
X336Y422D02*
X345Y422D01*
X530Y422D02*
X538Y422D01*
X582Y422D02*
X589Y422D01*
X0Y421D02*
X7Y421D01*
X43Y421D02*
X52Y421D01*
X237Y421D02*
X245Y421D01*
X336Y421D02*
X346Y421D01*
X530Y421D02*
X538Y421D01*
X582Y421D02*
X589Y421D01*
X0Y420D02*
X7Y420D01*
X43Y420D02*
X53Y420D01*
X237Y420D02*
X244Y420D01*
X337Y420D02*
X346Y420D01*
X530Y420D02*
X538Y420D01*
X582Y420D02*
X589Y420D01*
X0Y419D02*
X7Y419D01*
X44Y419D02*
X53Y419D01*
X237Y419D02*
X244Y419D01*
X337Y419D02*
X346Y419D01*
X530Y419D02*
X537Y419D01*
X582Y419D02*
X589Y419D01*
X0Y418D02*
X7Y418D01*
X44Y418D02*
X53Y418D01*
X237Y418D02*
X244Y418D01*
X337Y418D02*
X347Y418D01*
X530Y418D02*
X537Y418D01*
X582Y418D02*
X589Y418D01*
X0Y417D02*
X7Y417D01*
X44Y417D02*
X54Y417D01*
X237Y417D02*
X244Y417D01*
X337Y417D02*
X347Y417D01*
X530Y417D02*
X537Y417D01*
X582Y417D02*
X589Y417D01*
X0Y416D02*
X7Y416D01*
X45Y416D02*
X54Y416D01*
X237Y416D02*
X243Y416D01*
X338Y416D02*
X347Y416D01*
X530Y416D02*
X537Y416D01*
X582Y416D02*
X589Y416D01*
X0Y415D02*
X7Y415D01*
X45Y415D02*
X54Y415D01*
X237Y415D02*
X243Y415D01*
X338Y415D02*
X348Y415D01*
X530Y415D02*
X536Y415D01*
X582Y415D02*
X589Y415D01*
X0Y414D02*
X7Y414D01*
X45Y414D02*
X55Y414D01*
X237Y414D02*
X243Y414D01*
X338Y414D02*
X348Y414D01*
X530Y414D02*
X536Y414D01*
X582Y414D02*
X589Y414D01*
X0Y413D02*
X7Y413D01*
X46Y413D02*
X55Y413D01*
X237Y413D02*
X242Y413D01*
X339Y413D02*
X348Y413D01*
X530Y413D02*
X535Y413D01*
X582Y413D02*
X589Y413D01*
X0Y412D02*
X7Y412D01*
X46Y412D02*
X55Y412D01*
X237Y412D02*
X242Y412D01*
X339Y412D02*
X349Y412D01*
X530Y412D02*
X535Y412D01*
X582Y412D02*
X589Y412D01*
X0Y411D02*
X7Y411D01*
X46Y411D02*
X56Y411D01*
X237Y411D02*
X241Y411D01*
X340Y411D02*
X349Y411D01*
X530Y411D02*
X535Y411D01*
X582Y411D02*
X589Y411D01*
X0Y410D02*
X7Y410D01*
X47Y410D02*
X56Y410D01*
X237Y410D02*
X241Y410D01*
X340Y410D02*
X350Y410D01*
X530Y410D02*
X534Y410D01*
X582Y410D02*
X589Y410D01*
X0Y409D02*
X7Y409D01*
X47Y409D02*
X57Y409D01*
X237Y409D02*
X241Y409D01*
X340Y409D02*
X350Y409D01*
X530Y409D02*
X534Y409D01*
X582Y409D02*
X589Y409D01*
X0Y408D02*
X7Y408D01*
X47Y408D02*
X57Y408D01*
X237Y408D02*
X240Y408D01*
X341Y408D02*
X351Y408D01*
X530Y408D02*
X534Y408D01*
X582Y408D02*
X589Y408D01*
X0Y407D02*
X7Y407D01*
X48Y407D02*
X58Y407D01*
X237Y407D02*
X240Y407D01*
X341Y407D02*
X351Y407D01*
X530Y407D02*
X533Y407D01*
X582Y407D02*
X589Y407D01*
X0Y406D02*
X7Y406D01*
X48Y406D02*
X58Y406D01*
X237Y406D02*
X239Y406D01*
X342Y406D02*
X352Y406D01*
X530Y406D02*
X533Y406D01*
X582Y406D02*
X589Y406D01*
X0Y405D02*
X7Y405D01*
X49Y405D02*
X59Y405D01*
X229Y405D02*
X239Y405D01*
X342Y405D02*
X352Y405D01*
X522Y405D02*
X532Y405D01*
X582Y405D02*
X589Y405D01*
X0Y404D02*
X7Y404D01*
X49Y404D02*
X59Y404D01*
X229Y404D02*
X238Y404D01*
X343Y404D02*
X352Y404D01*
X522Y404D02*
X532Y404D01*
X582Y404D02*
X589Y404D01*
X0Y403D02*
X7Y403D01*
X50Y403D02*
X60Y403D01*
X228Y403D02*
X238Y403D01*
X343Y403D02*
X353Y403D01*
X521Y403D02*
X531Y403D01*
X582Y403D02*
X589Y403D01*
X0Y402D02*
X7Y402D01*
X50Y402D02*
X60Y402D01*
X228Y402D02*
X238Y402D01*
X344Y402D02*
X354Y402D01*
X521Y402D02*
X531Y402D01*
X582Y402D02*
X589Y402D01*
X0Y401D02*
X7Y401D01*
X51Y401D02*
X61Y401D01*
X227Y401D02*
X237Y401D01*
X344Y401D02*
X354Y401D01*
X520Y401D02*
X530Y401D01*
X582Y401D02*
X589Y401D01*
X0Y400D02*
X7Y400D01*
X51Y400D02*
X62Y400D01*
X226Y400D02*
X237Y400D01*
X345Y400D02*
X355Y400D01*
X520Y400D02*
X530Y400D01*
X582Y400D02*
X589Y400D01*
X0Y399D02*
X7Y399D01*
X52Y399D02*
X62Y399D01*
X226Y399D02*
X236Y399D01*
X345Y399D02*
X355Y399D01*
X519Y399D02*
X529Y399D01*
X582Y399D02*
X589Y399D01*
X0Y398D02*
X7Y398D01*
X52Y398D02*
X63Y398D01*
X177Y398D02*
X211Y398D01*
X225Y398D02*
X236Y398D01*
X345Y398D02*
X356Y398D01*
X470Y398D02*
X504Y398D01*
X518Y398D02*
X529Y398D01*
X582Y398D02*
X589Y398D01*
X0Y397D02*
X7Y397D01*
X53Y397D02*
X63Y397D01*
X176Y397D02*
X212Y397D01*
X224Y397D02*
X235Y397D01*
X346Y397D02*
X357Y397D01*
X469Y397D02*
X505Y397D01*
X518Y397D02*
X528Y397D01*
X582Y397D02*
X589Y397D01*
X0Y396D02*
X7Y396D01*
X53Y396D02*
X64Y396D01*
X175Y396D02*
X213Y396D01*
X224Y396D02*
X234Y396D01*
X347Y396D02*
X357Y396D01*
X468Y396D02*
X506Y396D01*
X517Y396D02*
X528Y396D01*
X582Y396D02*
X589Y396D01*
X0Y395D02*
X7Y395D01*
X54Y395D02*
X65Y395D01*
X174Y395D02*
X213Y395D01*
X223Y395D02*
X234Y395D01*
X347Y395D02*
X358Y395D01*
X468Y395D02*
X507Y395D01*
X516Y395D02*
X527Y395D01*
X582Y395D02*
X589Y395D01*
X0Y394D02*
X7Y394D01*
X55Y394D02*
X65Y394D01*
X174Y394D02*
X214Y394D01*
X223Y394D02*
X233Y394D01*
X348Y394D02*
X359Y394D01*
X467Y394D02*
X507Y394D01*
X516Y394D02*
X526Y394D01*
X582Y394D02*
X589Y394D01*
X0Y393D02*
X7Y393D01*
X55Y393D02*
X66Y393D01*
X174Y393D02*
X214Y393D01*
X222Y393D02*
X233Y393D01*
X348Y393D02*
X359Y393D01*
X467Y393D02*
X507Y393D01*
X515Y393D02*
X526Y393D01*
X582Y393D02*
X589Y393D01*
X0Y392D02*
X7Y392D01*
X56Y392D02*
X67Y392D01*
X174Y392D02*
X214Y392D01*
X221Y392D02*
X232Y392D01*
X349Y392D02*
X360Y392D01*
X467Y392D02*
X507Y392D01*
X514Y392D02*
X525Y392D01*
X582Y392D02*
X589Y392D01*
X0Y391D02*
X7Y391D01*
X56Y391D02*
X68Y391D01*
X174Y391D02*
X213Y391D01*
X220Y391D02*
X231Y391D01*
X350Y391D02*
X361Y391D01*
X468Y391D02*
X507Y391D01*
X514Y391D02*
X525Y391D01*
X582Y391D02*
X589Y391D01*
X0Y390D02*
X7Y390D01*
X57Y390D02*
X68Y390D01*
X175Y390D02*
X213Y390D01*
X220Y390D02*
X231Y390D01*
X350Y390D02*
X362Y390D01*
X468Y390D02*
X506Y390D01*
X513Y390D02*
X524Y390D01*
X582Y390D02*
X589Y390D01*
X0Y389D02*
X7Y389D01*
X58Y389D02*
X69Y389D01*
X176Y389D02*
X212Y389D01*
X219Y389D02*
X230Y389D01*
X351Y389D02*
X362Y389D01*
X469Y389D02*
X505Y389D01*
X512Y389D02*
X523Y389D01*
X582Y389D02*
X589Y389D01*
X0Y388D02*
X7Y388D01*
X58Y388D02*
X70Y388D01*
X177Y388D02*
X211Y388D01*
X218Y388D02*
X229Y388D01*
X352Y388D02*
X363Y388D01*
X470Y388D02*
X504Y388D01*
X511Y388D02*
X523Y388D01*
X582Y388D02*
X589Y388D01*
X0Y387D02*
X7Y387D01*
X59Y387D02*
X71Y387D01*
X217Y387D02*
X229Y387D01*
X352Y387D02*
X364Y387D01*
X510Y387D02*
X522Y387D01*
X582Y387D02*
X589Y387D01*
X0Y386D02*
X7Y386D01*
X60Y386D02*
X72Y386D01*
X216Y386D02*
X228Y386D01*
X353Y386D02*
X365Y386D01*
X509Y386D02*
X521Y386D01*
X582Y386D02*
X589Y386D01*
X0Y385D02*
X7Y385D01*
X61Y385D02*
X72Y385D01*
X215Y385D02*
X227Y385D01*
X354Y385D02*
X366Y385D01*
X509Y385D02*
X520Y385D01*
X582Y385D02*
X589Y385D01*
X0Y384D02*
X7Y384D01*
X61Y384D02*
X73Y384D01*
X214Y384D02*
X226Y384D01*
X355Y384D02*
X367Y384D01*
X508Y384D02*
X520Y384D01*
X582Y384D02*
X589Y384D01*
X0Y383D02*
X7Y383D01*
X62Y383D02*
X74Y383D01*
X214Y383D02*
X226Y383D01*
X355Y383D02*
X368Y383D01*
X507Y383D02*
X519Y383D01*
X582Y383D02*
X589Y383D01*
X0Y382D02*
X7Y382D01*
X63Y382D02*
X75Y382D01*
X213Y382D02*
X225Y382D01*
X356Y382D02*
X368Y382D01*
X506Y382D02*
X518Y382D01*
X582Y382D02*
X589Y382D01*
X0Y381D02*
X7Y381D01*
X64Y381D02*
X76Y381D01*
X212Y381D02*
X224Y381D01*
X357Y381D02*
X369Y381D01*
X505Y381D02*
X517Y381D01*
X582Y381D02*
X589Y381D01*
X0Y380D02*
X7Y380D01*
X65Y380D02*
X77Y380D01*
X211Y380D02*
X223Y380D01*
X358Y380D02*
X370Y380D01*
X504Y380D02*
X516Y380D01*
X582Y380D02*
X589Y380D01*
X0Y379D02*
X7Y379D01*
X65Y379D02*
X78Y379D01*
X210Y379D02*
X222Y379D01*
X359Y379D02*
X372Y379D01*
X503Y379D02*
X516Y379D01*
X582Y379D02*
X589Y379D01*
X0Y378D02*
X7Y378D01*
X66Y378D02*
X79Y378D01*
X208Y378D02*
X221Y378D01*
X360Y378D02*
X373Y378D01*
X502Y378D02*
X515Y378D01*
X582Y378D02*
X589Y378D01*
X0Y377D02*
X7Y377D01*
X67Y377D02*
X80Y377D01*
X207Y377D02*
X221Y377D01*
X361Y377D02*
X374Y377D01*
X501Y377D02*
X514Y377D01*
X582Y377D02*
X589Y377D01*
X0Y376D02*
X7Y376D01*
X68Y376D02*
X82Y376D01*
X206Y376D02*
X220Y376D01*
X361Y376D02*
X375Y376D01*
X499Y376D02*
X513Y376D01*
X582Y376D02*
X589Y376D01*
X0Y375D02*
X7Y375D01*
X69Y375D02*
X83Y375D01*
X205Y375D02*
X219Y375D01*
X362Y375D02*
X376Y375D01*
X498Y375D02*
X512Y375D01*
X582Y375D02*
X589Y375D01*
X0Y374D02*
X7Y374D01*
X70Y374D02*
X84Y374D01*
X204Y374D02*
X218Y374D01*
X363Y374D02*
X377Y374D01*
X497Y374D02*
X511Y374D01*
X582Y374D02*
X589Y374D01*
X0Y373D02*
X7Y373D01*
X71Y373D02*
X85Y373D01*
X203Y373D02*
X217Y373D01*
X364Y373D02*
X379Y373D01*
X496Y373D02*
X510Y373D01*
X582Y373D02*
X589Y373D01*
X0Y372D02*
X7Y372D01*
X72Y372D02*
X87Y372D01*
X201Y372D02*
X216Y372D01*
X365Y372D02*
X380Y372D01*
X494Y372D02*
X509Y372D01*
X582Y372D02*
X589Y372D01*
X0Y371D02*
X7Y371D01*
X73Y371D02*
X88Y371D01*
X200Y371D02*
X215Y371D01*
X367Y371D02*
X381Y371D01*
X493Y371D02*
X508Y371D01*
X582Y371D02*
X589Y371D01*
X0Y370D02*
X7Y370D01*
X74Y370D02*
X89Y370D01*
X199Y370D02*
X213Y370D01*
X368Y370D02*
X383Y370D01*
X492Y370D02*
X507Y370D01*
X582Y370D02*
X589Y370D01*
X0Y369D02*
X7Y369D01*
X75Y369D02*
X91Y369D01*
X197Y369D02*
X212Y369D01*
X369Y369D02*
X384Y369D01*
X490Y369D02*
X506Y369D01*
X582Y369D02*
X589Y369D01*
X0Y368D02*
X7Y368D01*
X77Y368D02*
X92Y368D01*
X196Y368D02*
X211Y368D01*
X370Y368D02*
X386Y368D01*
X489Y368D02*
X504Y368D01*
X582Y368D02*
X589Y368D01*
X0Y367D02*
X7Y367D01*
X78Y367D02*
X94Y367D01*
X194Y367D02*
X210Y367D01*
X371Y367D02*
X387Y367D01*
X487Y367D02*
X503Y367D01*
X582Y367D02*
X589Y367D01*
X0Y366D02*
X7Y366D01*
X79Y366D02*
X96Y366D01*
X192Y366D02*
X209Y366D01*
X372Y366D02*
X389Y366D01*
X486Y366D02*
X502Y366D01*
X582Y366D02*
X589Y366D01*
X0Y365D02*
X7Y365D01*
X80Y365D02*
X97Y365D01*
X191Y365D02*
X207Y365D01*
X374Y365D02*
X390Y365D01*
X484Y365D02*
X501Y365D01*
X582Y365D02*
X589Y365D01*
X0Y364D02*
X7Y364D01*
X82Y364D02*
X99Y364D01*
X189Y364D02*
X206Y364D01*
X375Y364D02*
X392Y364D01*
X482Y364D02*
X499Y364D01*
X582Y364D02*
X589Y364D01*
X0Y363D02*
X7Y363D01*
X83Y363D02*
X101Y363D01*
X187Y363D02*
X205Y363D01*
X376Y363D02*
X394Y363D01*
X480Y363D02*
X498Y363D01*
X582Y363D02*
X589Y363D01*
X0Y362D02*
X7Y362D01*
X84Y362D02*
X103Y362D01*
X185Y362D02*
X203Y362D01*
X378Y362D02*
X396Y362D01*
X478Y362D02*
X497Y362D01*
X582Y362D02*
X589Y362D01*
X0Y361D02*
X7Y361D01*
X86Y361D02*
X105Y361D01*
X183Y361D02*
X202Y361D01*
X379Y361D02*
X398Y361D01*
X476Y361D02*
X495Y361D01*
X582Y361D02*
X589Y361D01*
X0Y360D02*
X7Y360D01*
X87Y360D02*
X108Y360D01*
X180Y360D02*
X200Y360D01*
X381Y360D02*
X401Y360D01*
X474Y360D02*
X494Y360D01*
X582Y360D02*
X589Y360D01*
X0Y359D02*
X7Y359D01*
X89Y359D02*
X110Y359D01*
X178Y359D02*
X199Y359D01*
X382Y359D02*
X404Y359D01*
X471Y359D02*
X492Y359D01*
X582Y359D02*
X589Y359D01*
X0Y358D02*
X7Y358D01*
X91Y358D02*
X113Y358D01*
X175Y358D02*
X197Y358D01*
X384Y358D02*
X406Y358D01*
X468Y358D02*
X490Y358D01*
X582Y358D02*
X589Y358D01*
X0Y357D02*
X7Y357D01*
X92Y357D02*
X116Y357D01*
X172Y357D02*
X195Y357D01*
X386Y357D02*
X409Y357D01*
X465Y357D02*
X489Y357D01*
X582Y357D02*
X589Y357D01*
X0Y356D02*
X7Y356D01*
X94Y356D02*
X120Y356D01*
X168Y356D02*
X194Y356D01*
X387Y356D02*
X413Y356D01*
X462Y356D02*
X487Y356D01*
X582Y356D02*
X589Y356D01*
X0Y355D02*
X7Y355D01*
X96Y355D02*
X124Y355D01*
X164Y355D02*
X192Y355D01*
X389Y355D02*
X417Y355D01*
X457Y355D02*
X485Y355D01*
X582Y355D02*
X589Y355D01*
X0Y354D02*
X7Y354D01*
X98Y354D02*
X130Y354D01*
X158Y354D02*
X190Y354D01*
X391Y354D02*
X423Y354D01*
X451Y354D02*
X483Y354D01*
X582Y354D02*
X589Y354D01*
X0Y353D02*
X7Y353D01*
X100Y353D02*
X188Y353D01*
X393Y353D02*
X481Y353D01*
X582Y353D02*
X589Y353D01*
X0Y352D02*
X7Y352D01*
X102Y352D02*
X186Y352D01*
X396Y352D02*
X479Y352D01*
X582Y352D02*
X589Y352D01*
X0Y351D02*
X7Y351D01*
X105Y351D02*
X183Y351D01*
X398Y351D02*
X477Y351D01*
X582Y351D02*
X589Y351D01*
X0Y350D02*
X7Y350D01*
X107Y350D02*
X181Y350D01*
X400Y350D02*
X474Y350D01*
X582Y350D02*
X589Y350D01*
X0Y349D02*
X7Y349D01*
X110Y349D02*
X178Y349D01*
X403Y349D02*
X471Y349D01*
X582Y349D02*
X589Y349D01*
X0Y348D02*
X7Y348D01*
X113Y348D02*
X175Y348D01*
X406Y348D02*
X468Y348D01*
X582Y348D02*
X589Y348D01*
X0Y347D02*
X7Y347D01*
X116Y347D02*
X172Y347D01*
X409Y347D02*
X465Y347D01*
X582Y347D02*
X589Y347D01*
X0Y346D02*
X7Y346D01*
X120Y346D02*
X168Y346D01*
X413Y346D02*
X461Y346D01*
X582Y346D02*
X589Y346D01*
X0Y345D02*
X7Y345D01*
X124Y345D02*
X163Y345D01*
X418Y345D02*
X457Y345D01*
X582Y345D02*
X589Y345D01*
X0Y344D02*
X7Y344D01*
X131Y344D02*
X157Y344D01*
X424Y344D02*
X450Y344D01*
X582Y344D02*
X589Y344D01*
X0Y343D02*
X7Y343D01*
X582Y343D02*
X589Y343D01*
X0Y342D02*
X7Y342D01*
X582Y342D02*
X589Y342D01*
X0Y341D02*
X7Y341D01*
X582Y341D02*
X589Y341D01*
X0Y340D02*
X7Y340D01*
X582Y340D02*
X589Y340D01*
X0Y339D02*
X7Y339D01*
X582Y339D02*
X589Y339D01*
X0Y338D02*
X7Y338D01*
X582Y338D02*
X589Y338D01*
X0Y337D02*
X7Y337D01*
X582Y337D02*
X589Y337D01*
X0Y336D02*
X7Y336D01*
X582Y336D02*
X589Y336D01*
X0Y335D02*
X7Y335D01*
X582Y335D02*
X589Y335D01*
X0Y334D02*
X7Y334D01*
X582Y334D02*
X589Y334D01*
X0Y333D02*
X7Y333D01*
X582Y333D02*
X589Y333D01*
X0Y332D02*
X7Y332D01*
X582Y332D02*
X589Y332D01*
X0Y331D02*
X7Y331D01*
X582Y331D02*
X589Y331D01*
X0Y330D02*
X7Y330D01*
X582Y330D02*
X589Y330D01*
X0Y329D02*
X7Y329D01*
X582Y329D02*
X589Y329D01*
X0Y328D02*
X7Y328D01*
X582Y328D02*
X589Y328D01*
X0Y327D02*
X7Y327D01*
X582Y327D02*
X589Y327D01*
X0Y326D02*
X7Y326D01*
X582Y326D02*
X589Y326D01*
X0Y325D02*
X7Y325D01*
X582Y325D02*
X589Y325D01*
X0Y324D02*
X7Y324D01*
X582Y324D02*
X589Y324D01*
X0Y323D02*
X7Y323D01*
X582Y323D02*
X589Y323D01*
X0Y322D02*
X7Y322D01*
X582Y322D02*
X589Y322D01*
X0Y321D02*
X7Y321D01*
X582Y321D02*
X589Y321D01*
X0Y320D02*
X7Y320D01*
X582Y320D02*
X589Y320D01*
X0Y319D02*
X7Y319D01*
X582Y319D02*
X589Y319D01*
X0Y318D02*
X7Y318D01*
X582Y318D02*
X589Y318D01*
X0Y317D02*
X7Y317D01*
X582Y317D02*
X589Y317D01*
X0Y316D02*
X7Y316D01*
X582Y316D02*
X589Y316D01*
X0Y315D02*
X7Y315D01*
X582Y315D02*
X589Y315D01*
X0Y314D02*
X7Y314D01*
X582Y314D02*
X589Y314D01*
X0Y313D02*
X7Y313D01*
X582Y313D02*
X589Y313D01*
X0Y312D02*
X7Y312D01*
X582Y312D02*
X589Y312D01*
X0Y311D02*
X7Y311D01*
X582Y311D02*
X589Y311D01*
X0Y310D02*
X7Y310D01*
X582Y310D02*
X589Y310D01*
X0Y309D02*
X7Y309D01*
X582Y309D02*
X589Y309D01*
X0Y308D02*
X7Y308D01*
X582Y308D02*
X589Y308D01*
X0Y307D02*
X7Y307D01*
X582Y307D02*
X589Y307D01*
X0Y306D02*
X7Y306D01*
X582Y306D02*
X589Y306D01*
X0Y305D02*
X7Y305D01*
X582Y305D02*
X589Y305D01*
X0Y304D02*
X7Y304D01*
X582Y304D02*
X589Y304D01*
X0Y303D02*
X7Y303D01*
X582Y303D02*
X589Y303D01*
X0Y302D02*
X7Y302D01*
X582Y302D02*
X589Y302D01*
X0Y301D02*
X7Y301D01*
X582Y301D02*
X589Y301D01*
X0Y300D02*
X7Y300D01*
X582Y300D02*
X589Y300D01*
X0Y299D02*
X7Y299D01*
X582Y299D02*
X589Y299D01*
X0Y298D02*
X7Y298D01*
X582Y298D02*
X589Y298D01*
X0Y297D02*
X7Y297D01*
X582Y297D02*
X589Y297D01*
X0Y296D02*
X7Y296D01*
X582Y296D02*
X589Y296D01*
X0Y295D02*
X7Y295D01*
X582Y295D02*
X589Y295D01*
X0Y294D02*
X7Y294D01*
X582Y294D02*
X589Y294D01*
X0Y293D02*
X7Y293D01*
X582Y293D02*
X589Y293D01*
X0Y292D02*
X7Y292D01*
X582Y292D02*
X589Y292D01*
X0Y291D02*
X7Y291D01*
X582Y291D02*
X589Y291D01*
X0Y290D02*
X7Y290D01*
X582Y290D02*
X589Y290D01*
X0Y289D02*
X7Y289D01*
X582Y289D02*
X589Y289D01*
X0Y288D02*
X7Y288D01*
X582Y288D02*
X589Y288D01*
X0Y287D02*
X7Y287D01*
X582Y287D02*
X589Y287D01*
X0Y286D02*
X7Y286D01*
X582Y286D02*
X589Y286D01*
X0Y285D02*
X7Y285D01*
X582Y285D02*
X589Y285D01*
X0Y284D02*
X7Y284D01*
X582Y284D02*
X589Y284D01*
X0Y283D02*
X7Y283D01*
X582Y283D02*
X589Y283D01*
X0Y282D02*
X7Y282D01*
X582Y282D02*
X589Y282D01*
X0Y281D02*
X7Y281D01*
X582Y281D02*
X589Y281D01*
X0Y280D02*
X7Y280D01*
X582Y280D02*
X589Y280D01*
X0Y279D02*
X7Y279D01*
X582Y279D02*
X589Y279D01*
X0Y278D02*
X7Y278D01*
X582Y278D02*
X589Y278D01*
X0Y277D02*
X7Y277D01*
X582Y277D02*
X589Y277D01*
X0Y276D02*
X7Y276D01*
X582Y276D02*
X589Y276D01*
X0Y275D02*
X7Y275D01*
X582Y275D02*
X589Y275D01*
X0Y274D02*
X7Y274D01*
X582Y274D02*
X589Y274D01*
X0Y273D02*
X7Y273D01*
X582Y273D02*
X589Y273D01*
X0Y272D02*
X7Y272D01*
X582Y272D02*
X589Y272D01*
X0Y271D02*
X7Y271D01*
X582Y271D02*
X589Y271D01*
X0Y270D02*
X7Y270D01*
X582Y270D02*
X589Y270D01*
X0Y269D02*
X7Y269D01*
X582Y269D02*
X589Y269D01*
X0Y268D02*
X7Y268D01*
X582Y268D02*
X589Y268D01*
X0Y267D02*
X7Y267D01*
X582Y267D02*
X589Y267D01*
X0Y266D02*
X7Y266D01*
X582Y266D02*
X589Y266D01*
X0Y265D02*
X7Y265D01*
X582Y265D02*
X589Y265D01*
X0Y264D02*
X7Y264D01*
X582Y264D02*
X589Y264D01*
X0Y263D02*
X7Y263D01*
X582Y263D02*
X589Y263D01*
X0Y262D02*
X7Y262D01*
X142Y262D02*
X145Y262D01*
X436Y262D02*
X439Y262D01*
X582Y262D02*
X589Y262D01*
X0Y261D02*
X7Y261D01*
X130Y261D02*
X158Y261D01*
X423Y261D02*
X451Y261D01*
X582Y261D02*
X589Y261D01*
X0Y260D02*
X7Y260D01*
X124Y260D02*
X164Y260D01*
X417Y260D02*
X457Y260D01*
X582Y260D02*
X589Y260D01*
X0Y259D02*
X7Y259D01*
X120Y259D02*
X168Y259D01*
X413Y259D02*
X462Y259D01*
X582Y259D02*
X589Y259D01*
X0Y258D02*
X7Y258D01*
X116Y258D02*
X172Y258D01*
X409Y258D02*
X465Y258D01*
X582Y258D02*
X589Y258D01*
X0Y257D02*
X7Y257D01*
X112Y257D02*
X175Y257D01*
X406Y257D02*
X469Y257D01*
X582Y257D02*
X589Y257D01*
X0Y256D02*
X7Y256D01*
X110Y256D02*
X178Y256D01*
X403Y256D02*
X472Y256D01*
X582Y256D02*
X589Y256D01*
X0Y255D02*
X7Y255D01*
X107Y255D02*
X181Y255D01*
X400Y255D02*
X474Y255D01*
X582Y255D02*
X589Y255D01*
X0Y254D02*
X7Y254D01*
X104Y254D02*
X184Y254D01*
X398Y254D02*
X477Y254D01*
X582Y254D02*
X589Y254D01*
X0Y253D02*
X7Y253D01*
X102Y253D02*
X186Y253D01*
X395Y253D02*
X479Y253D01*
X582Y253D02*
X589Y253D01*
X0Y252D02*
X7Y252D01*
X100Y252D02*
X141Y252D01*
X147Y252D02*
X188Y252D01*
X393Y252D02*
X434Y252D01*
X440Y252D02*
X481Y252D01*
X582Y252D02*
X589Y252D01*
X0Y251D02*
X7Y251D01*
X98Y251D02*
X129Y251D01*
X159Y251D02*
X190Y251D01*
X391Y251D02*
X422Y251D01*
X452Y251D02*
X483Y251D01*
X582Y251D02*
X589Y251D01*
X0Y250D02*
X7Y250D01*
X96Y250D02*
X123Y250D01*
X164Y250D02*
X192Y250D01*
X389Y250D02*
X417Y250D01*
X458Y250D02*
X485Y250D01*
X582Y250D02*
X589Y250D01*
X0Y249D02*
X7Y249D01*
X94Y249D02*
X119Y249D01*
X169Y249D02*
X194Y249D01*
X387Y249D02*
X412Y249D01*
X462Y249D02*
X487Y249D01*
X582Y249D02*
X589Y249D01*
X0Y248D02*
X7Y248D01*
X92Y248D02*
X116Y248D01*
X172Y248D02*
X196Y248D01*
X385Y248D02*
X409Y248D01*
X465Y248D02*
X489Y248D01*
X582Y248D02*
X589Y248D01*
X0Y247D02*
X7Y247D01*
X91Y247D02*
X113Y247D01*
X175Y247D02*
X197Y247D01*
X384Y247D02*
X406Y247D01*
X468Y247D02*
X490Y247D01*
X582Y247D02*
X589Y247D01*
X0Y246D02*
X7Y246D01*
X89Y246D02*
X110Y246D01*
X178Y246D02*
X191Y246D01*
X196Y246D02*
X199Y246D01*
X382Y246D02*
X391Y246D01*
X396Y246D02*
X403Y246D01*
X471Y246D02*
X492Y246D01*
X582Y246D02*
X589Y246D01*
X0Y245D02*
X7Y245D01*
X87Y245D02*
X107Y245D01*
X181Y245D02*
X186Y245D01*
X201Y245D02*
X201Y245D01*
X381Y245D02*
X386Y245D01*
X401Y245D02*
X401Y245D01*
X474Y245D02*
X494Y245D01*
X582Y245D02*
X589Y245D01*
X0Y244D02*
X7Y244D01*
X86Y244D02*
X105Y244D01*
X183Y244D02*
X183Y244D01*
X379Y244D02*
X383Y244D01*
X476Y244D02*
X495Y244D01*
X582Y244D02*
X589Y244D01*
X0Y243D02*
X7Y243D01*
X84Y243D02*
X103Y243D01*
X378Y243D02*
X381Y243D01*
X478Y243D02*
X497Y243D01*
X582Y243D02*
X589Y243D01*
X0Y242D02*
X7Y242D01*
X83Y242D02*
X101Y242D01*
X376Y242D02*
X379Y242D01*
X480Y242D02*
X498Y242D01*
X582Y242D02*
X589Y242D01*
X0Y241D02*
X7Y241D01*
X82Y241D02*
X99Y241D01*
X375Y241D02*
X377Y241D01*
X482Y241D02*
X499Y241D01*
X582Y241D02*
X589Y241D01*
X0Y240D02*
X7Y240D01*
X80Y240D02*
X97Y240D01*
X374Y240D02*
X375Y240D01*
X484Y240D02*
X501Y240D01*
X582Y240D02*
X589Y240D01*
X0Y239D02*
X7Y239D01*
X79Y239D02*
X95Y239D01*
X372Y239D02*
X374Y239D01*
X486Y239D02*
X502Y239D01*
X582Y239D02*
X589Y239D01*
X0Y238D02*
X7Y238D01*
X78Y238D02*
X94Y238D01*
X371Y238D02*
X373Y238D01*
X487Y238D02*
X503Y238D01*
X582Y238D02*
X589Y238D01*
X0Y237D02*
X7Y237D01*
X76Y237D02*
X92Y237D01*
X370Y237D02*
X372Y237D01*
X489Y237D02*
X505Y237D01*
X582Y237D02*
X589Y237D01*
X0Y236D02*
X7Y236D01*
X75Y236D02*
X91Y236D01*
X369Y236D02*
X371Y236D01*
X491Y236D02*
X506Y236D01*
X582Y236D02*
X589Y236D01*
X0Y235D02*
X7Y235D01*
X74Y235D02*
X89Y235D01*
X368Y235D02*
X370Y235D01*
X492Y235D02*
X507Y235D01*
X582Y235D02*
X589Y235D01*
X0Y234D02*
X7Y234D01*
X73Y234D02*
X88Y234D01*
X366Y234D02*
X370Y234D01*
X493Y234D02*
X508Y234D01*
X582Y234D02*
X589Y234D01*
X0Y233D02*
X7Y233D01*
X72Y233D02*
X86Y233D01*
X365Y233D02*
X369Y233D01*
X495Y233D02*
X509Y233D01*
X582Y233D02*
X589Y233D01*
X0Y232D02*
X7Y232D01*
X71Y232D02*
X85Y232D01*
X364Y232D02*
X369Y232D01*
X496Y232D02*
X510Y232D01*
X582Y232D02*
X589Y232D01*
X0Y231D02*
X7Y231D01*
X70Y231D02*
X84Y231D01*
X363Y231D02*
X368Y231D01*
X497Y231D02*
X511Y231D01*
X582Y231D02*
X589Y231D01*
X0Y230D02*
X7Y230D01*
X69Y230D02*
X83Y230D01*
X362Y230D02*
X368Y230D01*
X498Y230D02*
X512Y230D01*
X582Y230D02*
X589Y230D01*
X0Y229D02*
X7Y229D01*
X68Y229D02*
X81Y229D01*
X220Y229D02*
X220Y229D01*
X361Y229D02*
X367Y229D01*
X500Y229D02*
X513Y229D01*
X582Y229D02*
X589Y229D01*
X0Y228D02*
X7Y228D01*
X67Y228D02*
X80Y228D01*
X221Y228D02*
X221Y228D01*
X360Y228D02*
X367Y228D01*
X501Y228D02*
X514Y228D01*
X582Y228D02*
X589Y228D01*
X0Y227D02*
X7Y227D01*
X66Y227D02*
X79Y227D01*
X221Y227D02*
X222Y227D01*
X360Y227D02*
X366Y227D01*
X502Y227D02*
X515Y227D01*
X582Y227D02*
X589Y227D01*
X0Y226D02*
X7Y226D01*
X65Y226D02*
X78Y226D01*
X221Y226D02*
X222Y226D01*
X359Y226D02*
X366Y226D01*
X503Y226D02*
X516Y226D01*
X582Y226D02*
X589Y226D01*
X0Y225D02*
X7Y225D01*
X64Y225D02*
X77Y225D01*
X222Y225D02*
X223Y225D01*
X358Y225D02*
X366Y225D01*
X504Y225D02*
X517Y225D01*
X582Y225D02*
X589Y225D01*
X0Y224D02*
X7Y224D01*
X64Y224D02*
X76Y224D01*
X222Y224D02*
X224Y224D01*
X357Y224D02*
X365Y224D01*
X505Y224D02*
X517Y224D01*
X582Y224D02*
X589Y224D01*
X0Y223D02*
X7Y223D01*
X63Y223D02*
X75Y223D01*
X222Y223D02*
X225Y223D01*
X356Y223D02*
X365Y223D01*
X506Y223D02*
X518Y223D01*
X582Y223D02*
X589Y223D01*
X0Y222D02*
X7Y222D01*
X62Y222D02*
X74Y222D01*
X222Y222D02*
X226Y222D01*
X355Y222D02*
X365Y222D01*
X507Y222D02*
X519Y222D01*
X582Y222D02*
X589Y222D01*
X0Y221D02*
X7Y221D01*
X61Y221D02*
X73Y221D01*
X222Y221D02*
X226Y221D01*
X355Y221D02*
X365Y221D01*
X508Y221D02*
X520Y221D01*
X582Y221D02*
X589Y221D01*
X0Y220D02*
X7Y220D01*
X61Y220D02*
X72Y220D01*
X223Y220D02*
X227Y220D01*
X354Y220D02*
X365Y220D01*
X509Y220D02*
X520Y220D01*
X582Y220D02*
X589Y220D01*
X0Y219D02*
X7Y219D01*
X60Y219D02*
X71Y219D01*
X223Y219D02*
X228Y219D01*
X353Y219D02*
X364Y219D01*
X510Y219D02*
X521Y219D01*
X582Y219D02*
X589Y219D01*
X0Y218D02*
X7Y218D01*
X59Y218D02*
X71Y218D01*
X223Y218D02*
X229Y218D01*
X352Y218D02*
X364Y218D01*
X510Y218D02*
X522Y218D01*
X582Y218D02*
X589Y218D01*
X0Y217D02*
X7Y217D01*
X58Y217D02*
X70Y217D01*
X223Y217D02*
X229Y217D01*
X352Y217D02*
X363Y217D01*
X511Y217D02*
X523Y217D01*
X582Y217D02*
X589Y217D01*
X0Y216D02*
X7Y216D01*
X58Y216D02*
X69Y216D01*
X223Y216D02*
X230Y216D01*
X351Y216D02*
X362Y216D01*
X512Y216D02*
X523Y216D01*
X582Y216D02*
X589Y216D01*
X0Y215D02*
X7Y215D01*
X57Y215D02*
X68Y215D01*
X223Y215D02*
X231Y215D01*
X350Y215D02*
X361Y215D01*
X513Y215D02*
X524Y215D01*
X582Y215D02*
X589Y215D01*
X0Y214D02*
X7Y214D01*
X56Y214D02*
X67Y214D01*
X222Y214D02*
X231Y214D01*
X350Y214D02*
X361Y214D01*
X514Y214D02*
X525Y214D01*
X582Y214D02*
X589Y214D01*
X0Y213D02*
X7Y213D01*
X56Y213D02*
X67Y213D01*
X222Y213D02*
X232Y213D01*
X349Y213D02*
X360Y213D01*
X514Y213D02*
X525Y213D01*
X582Y213D02*
X589Y213D01*
X0Y212D02*
X7Y212D01*
X55Y212D02*
X66Y212D01*
X222Y212D02*
X233Y212D01*
X348Y212D02*
X359Y212D01*
X515Y212D02*
X526Y212D01*
X582Y212D02*
X589Y212D01*
X0Y211D02*
X7Y211D01*
X55Y211D02*
X65Y211D01*
X223Y211D02*
X233Y211D01*
X348Y211D02*
X358Y211D01*
X516Y211D02*
X526Y211D01*
X582Y211D02*
X589Y211D01*
X0Y210D02*
X7Y210D01*
X54Y210D02*
X65Y210D01*
X223Y210D02*
X234Y210D01*
X347Y210D02*
X358Y210D01*
X517Y210D02*
X527Y210D01*
X582Y210D02*
X589Y210D01*
X0Y209D02*
X7Y209D01*
X53Y209D02*
X64Y209D01*
X224Y209D02*
X234Y209D01*
X347Y209D02*
X357Y209D01*
X517Y209D02*
X528Y209D01*
X582Y209D02*
X589Y209D01*
X0Y208D02*
X7Y208D01*
X53Y208D02*
X63Y208D01*
X225Y208D02*
X235Y208D01*
X346Y208D02*
X357Y208D01*
X518Y208D02*
X528Y208D01*
X582Y208D02*
X589Y208D01*
X0Y207D02*
X7Y207D01*
X52Y207D02*
X63Y207D01*
X225Y207D02*
X236Y207D01*
X345Y207D02*
X356Y207D01*
X518Y207D02*
X529Y207D01*
X582Y207D02*
X589Y207D01*
X0Y206D02*
X7Y206D01*
X52Y206D02*
X62Y206D01*
X226Y206D02*
X236Y206D01*
X345Y206D02*
X355Y206D01*
X519Y206D02*
X529Y206D01*
X582Y206D02*
X589Y206D01*
X0Y205D02*
X7Y205D01*
X51Y205D02*
X61Y205D01*
X226Y205D02*
X237Y205D01*
X344Y205D02*
X355Y205D01*
X520Y205D02*
X530Y205D01*
X582Y205D02*
X589Y205D01*
X0Y204D02*
X7Y204D01*
X51Y204D02*
X61Y204D01*
X227Y204D02*
X237Y204D01*
X344Y204D02*
X354Y204D01*
X520Y204D02*
X530Y204D01*
X582Y204D02*
X589Y204D01*
X0Y203D02*
X7Y203D01*
X50Y203D02*
X60Y203D01*
X228Y203D02*
X238Y203D01*
X344Y203D02*
X353Y203D01*
X521Y203D02*
X531Y203D01*
X582Y203D02*
X589Y203D01*
X0Y202D02*
X7Y202D01*
X50Y202D02*
X60Y202D01*
X228Y202D02*
X238Y202D01*
X343Y202D02*
X353Y202D01*
X521Y202D02*
X531Y202D01*
X582Y202D02*
X589Y202D01*
X0Y201D02*
X7Y201D01*
X49Y201D02*
X59Y201D01*
X229Y201D02*
X239Y201D01*
X343Y201D02*
X352Y201D01*
X522Y201D02*
X532Y201D01*
X582Y201D02*
X589Y201D01*
X0Y200D02*
X7Y200D01*
X49Y200D02*
X59Y200D01*
X229Y200D02*
X239Y200D01*
X342Y200D02*
X352Y200D01*
X522Y200D02*
X532Y200D01*
X582Y200D02*
X589Y200D01*
X0Y199D02*
X7Y199D01*
X48Y199D02*
X51Y199D01*
X230Y199D02*
X239Y199D01*
X342Y199D02*
X344Y199D01*
X523Y199D02*
X533Y199D01*
X582Y199D02*
X589Y199D01*
X0Y198D02*
X7Y198D01*
X48Y198D02*
X51Y198D01*
X230Y198D02*
X240Y198D01*
X341Y198D02*
X344Y198D01*
X523Y198D02*
X533Y198D01*
X582Y198D02*
X589Y198D01*
X0Y197D02*
X7Y197D01*
X47Y197D02*
X51Y197D01*
X231Y197D02*
X240Y197D01*
X341Y197D02*
X344Y197D01*
X524Y197D02*
X534Y197D01*
X582Y197D02*
X589Y197D01*
X0Y196D02*
X7Y196D01*
X47Y196D02*
X51Y196D01*
X231Y196D02*
X241Y196D01*
X340Y196D02*
X344Y196D01*
X524Y196D02*
X534Y196D01*
X582Y196D02*
X589Y196D01*
X0Y195D02*
X7Y195D01*
X47Y195D02*
X51Y195D01*
X232Y195D02*
X241Y195D01*
X340Y195D02*
X344Y195D01*
X525Y195D02*
X534Y195D01*
X582Y195D02*
X589Y195D01*
X0Y194D02*
X7Y194D01*
X46Y194D02*
X51Y194D01*
X232Y194D02*
X242Y194D01*
X340Y194D02*
X344Y194D01*
X525Y194D02*
X535Y194D01*
X582Y194D02*
X589Y194D01*
X0Y193D02*
X7Y193D01*
X46Y193D02*
X51Y193D01*
X232Y193D02*
X242Y193D01*
X339Y193D02*
X344Y193D01*
X526Y193D02*
X535Y193D01*
X582Y193D02*
X589Y193D01*
X0Y192D02*
X7Y192D01*
X46Y192D02*
X51Y192D01*
X233Y192D02*
X242Y192D01*
X339Y192D02*
X344Y192D01*
X526Y192D02*
X536Y192D01*
X582Y192D02*
X589Y192D01*
X0Y191D02*
X7Y191D01*
X45Y191D02*
X51Y191D01*
X233Y191D02*
X243Y191D01*
X338Y191D02*
X344Y191D01*
X526Y191D02*
X536Y191D01*
X582Y191D02*
X589Y191D01*
X0Y190D02*
X7Y190D01*
X45Y190D02*
X51Y190D01*
X233Y190D02*
X243Y190D01*
X338Y190D02*
X344Y190D01*
X527Y190D02*
X536Y190D01*
X582Y190D02*
X589Y190D01*
X0Y189D02*
X7Y189D01*
X45Y189D02*
X51Y189D01*
X234Y189D02*
X243Y189D01*
X338Y189D02*
X344Y189D01*
X527Y189D02*
X537Y189D01*
X582Y189D02*
X589Y189D01*
X0Y188D02*
X7Y188D01*
X44Y188D02*
X51Y188D01*
X234Y188D02*
X244Y188D01*
X337Y188D02*
X344Y188D01*
X527Y188D02*
X537Y188D01*
X582Y188D02*
X589Y188D01*
X0Y187D02*
X7Y187D01*
X44Y187D02*
X51Y187D01*
X235Y187D02*
X244Y187D01*
X337Y187D02*
X344Y187D01*
X528Y187D02*
X537Y187D01*
X582Y187D02*
X589Y187D01*
X0Y186D02*
X7Y186D01*
X44Y186D02*
X51Y186D01*
X235Y186D02*
X244Y186D01*
X337Y186D02*
X344Y186D01*
X528Y186D02*
X537Y186D01*
X582Y186D02*
X589Y186D01*
X0Y185D02*
X7Y185D01*
X43Y185D02*
X51Y185D01*
X235Y185D02*
X244Y185D01*
X337Y185D02*
X344Y185D01*
X528Y185D02*
X538Y185D01*
X582Y185D02*
X589Y185D01*
X0Y184D02*
X7Y184D01*
X43Y184D02*
X51Y184D01*
X236Y184D02*
X245Y184D01*
X336Y184D02*
X344Y184D01*
X529Y184D02*
X538Y184D01*
X582Y184D02*
X589Y184D01*
X0Y183D02*
X7Y183D01*
X43Y183D02*
X51Y183D01*
X236Y183D02*
X245Y183D01*
X336Y183D02*
X344Y183D01*
X529Y183D02*
X538Y183D01*
X582Y183D02*
X589Y183D01*
X0Y182D02*
X7Y182D01*
X43Y182D02*
X51Y182D01*
X236Y182D02*
X245Y182D01*
X336Y182D02*
X344Y182D01*
X529Y182D02*
X539Y182D01*
X582Y182D02*
X589Y182D01*
X0Y181D02*
X7Y181D01*
X42Y181D02*
X51Y181D01*
X236Y181D02*
X245Y181D01*
X336Y181D02*
X344Y181D01*
X530Y181D02*
X539Y181D01*
X582Y181D02*
X589Y181D01*
X0Y180D02*
X7Y180D01*
X42Y180D02*
X51Y180D01*
X237Y180D02*
X246Y180D01*
X335Y180D02*
X344Y180D01*
X530Y180D02*
X539Y180D01*
X582Y180D02*
X589Y180D01*
X0Y179D02*
X7Y179D01*
X42Y179D02*
X51Y179D01*
X237Y179D02*
X246Y179D01*
X335Y179D02*
X344Y179D01*
X530Y179D02*
X539Y179D01*
X582Y179D02*
X589Y179D01*
X0Y178D02*
X7Y178D01*
X42Y178D02*
X51Y178D01*
X237Y178D02*
X246Y178D01*
X335Y178D02*
X344Y178D01*
X530Y178D02*
X539Y178D01*
X582Y178D02*
X589Y178D01*
X0Y177D02*
X7Y177D01*
X41Y177D02*
X51Y177D01*
X237Y177D02*
X246Y177D01*
X335Y177D02*
X344Y177D01*
X531Y177D02*
X540Y177D01*
X582Y177D02*
X589Y177D01*
X0Y176D02*
X7Y176D01*
X41Y176D02*
X50Y176D01*
X237Y176D02*
X247Y176D01*
X335Y176D02*
X344Y176D01*
X531Y176D02*
X540Y176D01*
X582Y176D02*
X589Y176D01*
X0Y175D02*
X7Y175D01*
X41Y175D02*
X50Y175D01*
X238Y175D02*
X247Y175D01*
X334Y175D02*
X343Y175D01*
X531Y175D02*
X540Y175D01*
X582Y175D02*
X589Y175D01*
X0Y174D02*
X7Y174D01*
X41Y174D02*
X50Y174D01*
X238Y174D02*
X247Y174D01*
X334Y174D02*
X343Y174D01*
X531Y174D02*
X540Y174D01*
X582Y174D02*
X589Y174D01*
X0Y173D02*
X7Y173D01*
X41Y173D02*
X50Y173D01*
X238Y173D02*
X247Y173D01*
X334Y173D02*
X343Y173D01*
X531Y173D02*
X540Y173D01*
X582Y173D02*
X589Y173D01*
X0Y172D02*
X7Y172D01*
X41Y172D02*
X50Y172D01*
X238Y172D02*
X247Y172D01*
X334Y172D02*
X343Y172D01*
X531Y172D02*
X540Y172D01*
X582Y172D02*
X589Y172D01*
X0Y171D02*
X7Y171D01*
X40Y171D02*
X49Y171D01*
X238Y171D02*
X247Y171D01*
X334Y171D02*
X343Y171D01*
X532Y171D02*
X541Y171D01*
X582Y171D02*
X589Y171D01*
X0Y170D02*
X7Y170D01*
X40Y170D02*
X49Y170D01*
X238Y170D02*
X247Y170D01*
X334Y170D02*
X343Y170D01*
X532Y170D02*
X541Y170D01*
X582Y170D02*
X589Y170D01*
X0Y169D02*
X7Y169D01*
X40Y169D02*
X49Y169D01*
X239Y169D02*
X248Y169D01*
X333Y169D02*
X342Y169D01*
X532Y169D02*
X541Y169D01*
X582Y169D02*
X589Y169D01*
X0Y168D02*
X7Y168D01*
X40Y168D02*
X49Y168D01*
X239Y168D02*
X248Y168D01*
X333Y168D02*
X342Y168D01*
X532Y168D02*
X541Y168D01*
X582Y168D02*
X589Y168D01*
X0Y167D02*
X7Y167D01*
X40Y167D02*
X49Y167D01*
X239Y167D02*
X248Y167D01*
X333Y167D02*
X342Y167D01*
X532Y167D02*
X541Y167D01*
X582Y167D02*
X589Y167D01*
X0Y166D02*
X7Y166D01*
X40Y166D02*
X49Y166D01*
X239Y166D02*
X248Y166D01*
X333Y166D02*
X342Y166D01*
X532Y166D02*
X541Y166D01*
X582Y166D02*
X589Y166D01*
X0Y165D02*
X7Y165D01*
X40Y165D02*
X49Y165D01*
X239Y165D02*
X248Y165D01*
X333Y165D02*
X342Y165D01*
X532Y165D02*
X541Y165D01*
X582Y165D02*
X589Y165D01*
X0Y164D02*
X7Y164D01*
X40Y164D02*
X49Y164D01*
X239Y164D02*
X248Y164D01*
X333Y164D02*
X342Y164D01*
X532Y164D02*
X541Y164D01*
X582Y164D02*
X589Y164D01*
X0Y163D02*
X7Y163D01*
X40Y163D02*
X49Y163D01*
X239Y163D02*
X248Y163D01*
X333Y163D02*
X342Y163D01*
X532Y163D02*
X541Y163D01*
X582Y163D02*
X589Y163D01*
X0Y162D02*
X7Y162D01*
X40Y162D02*
X49Y162D01*
X239Y162D02*
X248Y162D01*
X333Y162D02*
X342Y162D01*
X532Y162D02*
X541Y162D01*
X582Y162D02*
X589Y162D01*
X0Y161D02*
X7Y161D01*
X40Y161D02*
X49Y161D01*
X239Y161D02*
X248Y161D01*
X333Y161D02*
X342Y161D01*
X532Y161D02*
X541Y161D01*
X582Y161D02*
X589Y161D01*
X0Y160D02*
X7Y160D01*
X40Y160D02*
X49Y160D01*
X239Y160D02*
X248Y160D01*
X333Y160D02*
X342Y160D01*
X533Y160D02*
X541Y160D01*
X582Y160D02*
X589Y160D01*
X0Y159D02*
X7Y159D01*
X40Y159D02*
X49Y159D01*
X239Y159D02*
X248Y159D01*
X333Y159D02*
X342Y159D01*
X533Y159D02*
X542Y159D01*
X582Y159D02*
X589Y159D01*
X0Y158D02*
X7Y158D01*
X40Y158D02*
X49Y158D01*
X239Y158D02*
X248Y158D01*
X333Y158D02*
X342Y158D01*
X533Y158D02*
X542Y158D01*
X582Y158D02*
X589Y158D01*
X0Y157D02*
X7Y157D01*
X40Y157D02*
X49Y157D01*
X239Y157D02*
X248Y157D01*
X333Y157D02*
X342Y157D01*
X533Y157D02*
X542Y157D01*
X582Y157D02*
X589Y157D01*
X0Y156D02*
X7Y156D01*
X40Y156D02*
X49Y156D01*
X239Y156D02*
X248Y156D01*
X333Y156D02*
X342Y156D01*
X533Y156D02*
X542Y156D01*
X582Y156D02*
X589Y156D01*
X0Y155D02*
X7Y155D01*
X40Y155D02*
X49Y155D01*
X239Y155D02*
X248Y155D01*
X333Y155D02*
X342Y155D01*
X533Y155D02*
X542Y155D01*
X582Y155D02*
X589Y155D01*
X0Y154D02*
X7Y154D01*
X40Y154D02*
X49Y154D01*
X239Y154D02*
X248Y154D01*
X333Y154D02*
X342Y154D01*
X532Y154D02*
X541Y154D01*
X582Y154D02*
X589Y154D01*
X0Y153D02*
X7Y153D01*
X40Y153D02*
X49Y153D01*
X239Y153D02*
X248Y153D01*
X333Y153D02*
X342Y153D01*
X532Y153D02*
X541Y153D01*
X582Y153D02*
X589Y153D01*
X0Y152D02*
X7Y152D01*
X40Y152D02*
X49Y152D01*
X239Y152D02*
X248Y152D01*
X333Y152D02*
X342Y152D01*
X532Y152D02*
X541Y152D01*
X582Y152D02*
X589Y152D01*
X0Y151D02*
X7Y151D01*
X40Y151D02*
X49Y151D01*
X239Y151D02*
X248Y151D01*
X333Y151D02*
X342Y151D01*
X532Y151D02*
X541Y151D01*
X582Y151D02*
X589Y151D01*
X0Y150D02*
X7Y150D01*
X40Y150D02*
X49Y150D01*
X239Y150D02*
X248Y150D01*
X333Y150D02*
X342Y150D01*
X532Y150D02*
X541Y150D01*
X582Y150D02*
X589Y150D01*
X0Y149D02*
X7Y149D01*
X40Y149D02*
X49Y149D01*
X239Y149D02*
X248Y149D01*
X333Y149D02*
X342Y149D01*
X532Y149D02*
X541Y149D01*
X582Y149D02*
X589Y149D01*
X0Y148D02*
X7Y148D01*
X40Y148D02*
X49Y148D01*
X239Y148D02*
X248Y148D01*
X333Y148D02*
X342Y148D01*
X532Y148D02*
X541Y148D01*
X582Y148D02*
X589Y148D01*
X0Y147D02*
X7Y147D01*
X40Y147D02*
X49Y147D01*
X239Y147D02*
X248Y147D01*
X333Y147D02*
X342Y147D01*
X532Y147D02*
X541Y147D01*
X582Y147D02*
X589Y147D01*
X0Y146D02*
X7Y146D01*
X40Y146D02*
X49Y146D01*
X239Y146D02*
X248Y146D01*
X333Y146D02*
X342Y146D01*
X532Y146D02*
X541Y146D01*
X582Y146D02*
X589Y146D01*
X0Y145D02*
X7Y145D01*
X40Y145D02*
X49Y145D01*
X239Y145D02*
X248Y145D01*
X333Y145D02*
X343Y145D01*
X532Y145D02*
X541Y145D01*
X582Y145D02*
X589Y145D01*
X0Y144D02*
X7Y144D01*
X40Y144D02*
X49Y144D01*
X238Y144D02*
X247Y144D01*
X334Y144D02*
X343Y144D01*
X532Y144D02*
X541Y144D01*
X582Y144D02*
X589Y144D01*
X0Y143D02*
X7Y143D01*
X41Y143D02*
X50Y143D01*
X238Y143D02*
X247Y143D01*
X334Y143D02*
X343Y143D01*
X532Y143D02*
X541Y143D01*
X582Y143D02*
X589Y143D01*
X0Y142D02*
X7Y142D01*
X41Y142D02*
X50Y142D01*
X238Y142D02*
X247Y142D01*
X334Y142D02*
X343Y142D01*
X531Y142D02*
X540Y142D01*
X582Y142D02*
X589Y142D01*
X0Y141D02*
X7Y141D01*
X41Y141D02*
X50Y141D01*
X238Y141D02*
X247Y141D01*
X334Y141D02*
X343Y141D01*
X531Y141D02*
X540Y141D01*
X582Y141D02*
X589Y141D01*
X0Y140D02*
X7Y140D01*
X41Y140D02*
X50Y140D01*
X238Y140D02*
X247Y140D01*
X334Y140D02*
X343Y140D01*
X531Y140D02*
X540Y140D01*
X582Y140D02*
X589Y140D01*
X0Y139D02*
X7Y139D01*
X41Y139D02*
X50Y139D01*
X238Y139D02*
X247Y139D01*
X334Y139D02*
X343Y139D01*
X531Y139D02*
X540Y139D01*
X582Y139D02*
X589Y139D01*
X0Y138D02*
X7Y138D01*
X41Y138D02*
X50Y138D01*
X237Y138D02*
X246Y138D01*
X335Y138D02*
X344Y138D01*
X531Y138D02*
X540Y138D01*
X582Y138D02*
X589Y138D01*
X0Y137D02*
X7Y137D01*
X42Y137D02*
X51Y137D01*
X237Y137D02*
X246Y137D01*
X335Y137D02*
X344Y137D01*
X530Y137D02*
X540Y137D01*
X582Y137D02*
X589Y137D01*
X0Y136D02*
X7Y136D01*
X42Y136D02*
X51Y136D01*
X237Y136D02*
X246Y136D01*
X335Y136D02*
X344Y136D01*
X530Y136D02*
X539Y136D01*
X582Y136D02*
X589Y136D01*
X0Y135D02*
X7Y135D01*
X42Y135D02*
X51Y135D01*
X237Y135D02*
X246Y135D01*
X335Y135D02*
X344Y135D01*
X530Y135D02*
X539Y135D01*
X582Y135D02*
X589Y135D01*
X0Y134D02*
X7Y134D01*
X42Y134D02*
X51Y134D01*
X237Y134D02*
X246Y134D01*
X335Y134D02*
X344Y134D01*
X530Y134D02*
X539Y134D01*
X582Y134D02*
X589Y134D01*
X0Y133D02*
X7Y133D01*
X42Y133D02*
X51Y133D01*
X236Y133D02*
X245Y133D01*
X336Y133D02*
X344Y133D01*
X530Y133D02*
X539Y133D01*
X582Y133D02*
X589Y133D01*
X0Y132D02*
X7Y132D01*
X43Y132D02*
X51Y132D01*
X236Y132D02*
X245Y132D01*
X336Y132D02*
X344Y132D01*
X529Y132D02*
X538Y132D01*
X582Y132D02*
X589Y132D01*
X0Y131D02*
X7Y131D01*
X43Y131D02*
X51Y131D01*
X236Y131D02*
X245Y131D01*
X336Y131D02*
X344Y131D01*
X529Y131D02*
X538Y131D01*
X582Y131D02*
X589Y131D01*
X0Y130D02*
X7Y130D01*
X43Y130D02*
X51Y130D01*
X235Y130D02*
X245Y130D01*
X336Y130D02*
X344Y130D01*
X529Y130D02*
X538Y130D01*
X582Y130D02*
X589Y130D01*
X0Y129D02*
X7Y129D01*
X43Y129D02*
X51Y129D01*
X235Y129D02*
X244Y129D01*
X337Y129D02*
X344Y129D01*
X528Y129D02*
X538Y129D01*
X582Y129D02*
X589Y129D01*
X0Y128D02*
X7Y128D01*
X44Y128D02*
X51Y128D01*
X235Y128D02*
X244Y128D01*
X337Y128D02*
X344Y128D01*
X528Y128D02*
X537Y128D01*
X582Y128D02*
X589Y128D01*
X0Y127D02*
X7Y127D01*
X44Y127D02*
X51Y127D01*
X234Y127D02*
X244Y127D01*
X337Y127D02*
X344Y127D01*
X528Y127D02*
X537Y127D01*
X582Y127D02*
X589Y127D01*
X0Y126D02*
X7Y126D01*
X44Y126D02*
X51Y126D01*
X234Y126D02*
X244Y126D01*
X338Y126D02*
X344Y126D01*
X527Y126D02*
X537Y126D01*
X582Y126D02*
X589Y126D01*
X0Y125D02*
X7Y125D01*
X45Y125D02*
X51Y125D01*
X234Y125D02*
X243Y125D01*
X338Y125D02*
X344Y125D01*
X527Y125D02*
X536Y125D01*
X582Y125D02*
X589Y125D01*
X0Y124D02*
X7Y124D01*
X45Y124D02*
X51Y124D01*
X233Y124D02*
X243Y124D01*
X338Y124D02*
X344Y124D01*
X527Y124D02*
X536Y124D01*
X582Y124D02*
X589Y124D01*
X0Y123D02*
X7Y123D01*
X45Y123D02*
X51Y123D01*
X233Y123D02*
X242Y123D01*
X339Y123D02*
X344Y123D01*
X526Y123D02*
X536Y123D01*
X582Y123D02*
X589Y123D01*
X0Y122D02*
X7Y122D01*
X46Y122D02*
X51Y122D01*
X233Y122D02*
X242Y122D01*
X339Y122D02*
X344Y122D01*
X526Y122D02*
X535Y122D01*
X582Y122D02*
X589Y122D01*
X0Y121D02*
X7Y121D01*
X46Y121D02*
X51Y121D01*
X232Y121D02*
X242Y121D01*
X339Y121D02*
X344Y121D01*
X525Y121D02*
X535Y121D01*
X582Y121D02*
X589Y121D01*
X0Y120D02*
X7Y120D01*
X46Y120D02*
X51Y120D01*
X232Y120D02*
X241Y120D01*
X340Y120D02*
X344Y120D01*
X525Y120D02*
X535Y120D01*
X582Y120D02*
X589Y120D01*
X0Y119D02*
X7Y119D01*
X47Y119D02*
X51Y119D01*
X231Y119D02*
X241Y119D01*
X340Y119D02*
X344Y119D01*
X525Y119D02*
X534Y119D01*
X582Y119D02*
X589Y119D01*
X0Y118D02*
X7Y118D01*
X47Y118D02*
X51Y118D01*
X231Y118D02*
X241Y118D01*
X340Y118D02*
X344Y118D01*
X524Y118D02*
X534Y118D01*
X582Y118D02*
X589Y118D01*
X0Y117D02*
X7Y117D01*
X48Y117D02*
X51Y117D01*
X230Y117D02*
X240Y117D01*
X341Y117D02*
X344Y117D01*
X524Y117D02*
X533Y117D01*
X582Y117D02*
X589Y117D01*
X0Y116D02*
X7Y116D01*
X48Y116D02*
X51Y116D01*
X230Y116D02*
X240Y116D01*
X341Y116D02*
X344Y116D01*
X523Y116D02*
X533Y116D01*
X582Y116D02*
X589Y116D01*
X0Y115D02*
X7Y115D01*
X48Y115D02*
X51Y115D01*
X229Y115D02*
X239Y115D01*
X342Y115D02*
X344Y115D01*
X523Y115D02*
X533Y115D01*
X582Y115D02*
X589Y115D01*
X0Y114D02*
X7Y114D01*
X49Y114D02*
X59Y114D01*
X229Y114D02*
X239Y114D01*
X342Y114D02*
X352Y114D01*
X522Y114D02*
X532Y114D01*
X582Y114D02*
X589Y114D01*
X0Y113D02*
X7Y113D01*
X49Y113D02*
X59Y113D01*
X228Y113D02*
X238Y113D01*
X343Y113D02*
X353Y113D01*
X522Y113D02*
X532Y113D01*
X582Y113D02*
X589Y113D01*
X0Y112D02*
X7Y112D01*
X50Y112D02*
X60Y112D01*
X228Y112D02*
X238Y112D01*
X343Y112D02*
X353Y112D01*
X521Y112D02*
X531Y112D01*
X582Y112D02*
X589Y112D01*
X0Y111D02*
X7Y111D01*
X50Y111D02*
X60Y111D01*
X227Y111D02*
X237Y111D01*
X344Y111D02*
X354Y111D01*
X521Y111D02*
X531Y111D01*
X582Y111D02*
X589Y111D01*
X0Y110D02*
X7Y110D01*
X51Y110D02*
X61Y110D01*
X227Y110D02*
X237Y110D01*
X344Y110D02*
X354Y110D01*
X520Y110D02*
X530Y110D01*
X582Y110D02*
X589Y110D01*
X0Y109D02*
X7Y109D01*
X51Y109D02*
X62Y109D01*
X226Y109D02*
X236Y109D01*
X345Y109D02*
X355Y109D01*
X519Y109D02*
X530Y109D01*
X582Y109D02*
X589Y109D01*
X0Y108D02*
X7Y108D01*
X52Y108D02*
X62Y108D01*
X226Y108D02*
X236Y108D01*
X345Y108D02*
X355Y108D01*
X519Y108D02*
X529Y108D01*
X582Y108D02*
X589Y108D01*
X0Y107D02*
X7Y107D01*
X52Y107D02*
X63Y107D01*
X225Y107D02*
X235Y107D01*
X346Y107D02*
X356Y107D01*
X518Y107D02*
X529Y107D01*
X582Y107D02*
X589Y107D01*
X0Y106D02*
X7Y106D01*
X53Y106D02*
X63Y106D01*
X224Y106D02*
X235Y106D01*
X346Y106D02*
X357Y106D01*
X518Y106D02*
X528Y106D01*
X582Y106D02*
X589Y106D01*
X0Y105D02*
X7Y105D01*
X54Y105D02*
X64Y105D01*
X224Y105D02*
X234Y105D01*
X347Y105D02*
X357Y105D01*
X517Y105D02*
X528Y105D01*
X582Y105D02*
X589Y105D01*
X0Y104D02*
X7Y104D01*
X54Y104D02*
X65Y104D01*
X223Y104D02*
X234Y104D01*
X347Y104D02*
X358Y104D01*
X516Y104D02*
X527Y104D01*
X582Y104D02*
X589Y104D01*
X0Y103D02*
X7Y103D01*
X55Y103D02*
X65Y103D01*
X222Y103D02*
X233Y103D01*
X348Y103D02*
X359Y103D01*
X516Y103D02*
X526Y103D01*
X582Y103D02*
X589Y103D01*
X0Y102D02*
X7Y102D01*
X55Y102D02*
X66Y102D01*
X222Y102D02*
X232Y102D01*
X349Y102D02*
X359Y102D01*
X515Y102D02*
X526Y102D01*
X582Y102D02*
X589Y102D01*
X0Y101D02*
X7Y101D01*
X56Y101D02*
X67Y101D01*
X221Y101D02*
X232Y101D01*
X349Y101D02*
X360Y101D01*
X514Y101D02*
X525Y101D01*
X582Y101D02*
X589Y101D01*
X0Y100D02*
X7Y100D01*
X57Y100D02*
X68Y100D01*
X220Y100D02*
X231Y100D01*
X350Y100D02*
X361Y100D01*
X513Y100D02*
X524Y100D01*
X582Y100D02*
X589Y100D01*
X0Y99D02*
X7Y99D01*
X57Y99D02*
X68Y99D01*
X219Y99D02*
X231Y99D01*
X350Y99D02*
X362Y99D01*
X513Y99D02*
X524Y99D01*
X582Y99D02*
X589Y99D01*
X0Y98D02*
X7Y98D01*
X58Y98D02*
X69Y98D01*
X219Y98D02*
X230Y98D01*
X351Y98D02*
X362Y98D01*
X512Y98D02*
X523Y98D01*
X582Y98D02*
X589Y98D01*
X0Y97D02*
X7Y97D01*
X59Y97D02*
X70Y97D01*
X218Y97D02*
X229Y97D01*
X352Y97D02*
X363Y97D01*
X511Y97D02*
X522Y97D01*
X582Y97D02*
X589Y97D01*
X0Y96D02*
X7Y96D01*
X59Y96D02*
X71Y96D01*
X217Y96D02*
X228Y96D01*
X353Y96D02*
X364Y96D01*
X510Y96D02*
X522Y96D01*
X582Y96D02*
X589Y96D01*
X0Y95D02*
X7Y95D01*
X60Y95D02*
X72Y95D01*
X216Y95D02*
X228Y95D01*
X353Y95D02*
X365Y95D01*
X509Y95D02*
X521Y95D01*
X582Y95D02*
X589Y95D01*
X0Y94D02*
X7Y94D01*
X61Y94D02*
X73Y94D01*
X215Y94D02*
X227Y94D01*
X354Y94D02*
X366Y94D01*
X508Y94D02*
X520Y94D01*
X582Y94D02*
X589Y94D01*
X0Y93D02*
X7Y93D01*
X62Y93D02*
X74Y93D01*
X214Y93D02*
X226Y93D01*
X355Y93D02*
X367Y93D01*
X507Y93D02*
X519Y93D01*
X582Y93D02*
X589Y93D01*
X0Y92D02*
X7Y92D01*
X62Y92D02*
X75Y92D01*
X213Y92D02*
X226Y92D01*
X356Y92D02*
X368Y92D01*
X507Y92D02*
X519Y92D01*
X582Y92D02*
X589Y92D01*
X0Y91D02*
X7Y91D01*
X63Y91D02*
X75Y91D01*
X212Y91D02*
X225Y91D01*
X356Y91D02*
X369Y91D01*
X506Y91D02*
X518Y91D01*
X582Y91D02*
X589Y91D01*
X0Y90D02*
X7Y90D01*
X64Y90D02*
X76Y90D01*
X211Y90D02*
X224Y90D01*
X357Y90D02*
X370Y90D01*
X505Y90D02*
X517Y90D01*
X582Y90D02*
X589Y90D01*
X0Y89D02*
X7Y89D01*
X65Y89D02*
X77Y89D01*
X210Y89D02*
X223Y89D01*
X358Y89D02*
X371Y89D01*
X504Y89D02*
X516Y89D01*
X582Y89D02*
X589Y89D01*
X0Y88D02*
X7Y88D01*
X66Y88D02*
X79Y88D01*
X209Y88D02*
X222Y88D01*
X359Y88D02*
X372Y88D01*
X503Y88D02*
X515Y88D01*
X582Y88D02*
X589Y88D01*
X0Y87D02*
X7Y87D01*
X67Y87D02*
X80Y87D01*
X208Y87D02*
X221Y87D01*
X360Y87D02*
X373Y87D01*
X501Y87D02*
X514Y87D01*
X582Y87D02*
X589Y87D01*
X0Y86D02*
X7Y86D01*
X67Y86D02*
X81Y86D01*
X207Y86D02*
X220Y86D01*
X361Y86D02*
X374Y86D01*
X500Y86D02*
X514Y86D01*
X582Y86D02*
X589Y86D01*
X0Y85D02*
X7Y85D01*
X68Y85D02*
X82Y85D01*
X206Y85D02*
X219Y85D01*
X362Y85D02*
X375Y85D01*
X499Y85D02*
X513Y85D01*
X582Y85D02*
X589Y85D01*
X0Y84D02*
X7Y84D01*
X69Y84D02*
X83Y84D01*
X205Y84D02*
X219Y84D01*
X363Y84D02*
X376Y84D01*
X498Y84D02*
X512Y84D01*
X582Y84D02*
X589Y84D01*
X0Y83D02*
X7Y83D01*
X70Y83D02*
X84Y83D01*
X204Y83D02*
X218Y83D01*
X363Y83D02*
X377Y83D01*
X497Y83D02*
X511Y83D01*
X582Y83D02*
X589Y83D01*
X0Y82D02*
X7Y82D01*
X71Y82D02*
X86Y82D01*
X202Y82D02*
X217Y82D01*
X365Y82D02*
X379Y82D01*
X496Y82D02*
X510Y82D01*
X582Y82D02*
X589Y82D01*
X0Y81D02*
X7Y81D01*
X72Y81D02*
X87Y81D01*
X201Y81D02*
X215Y81D01*
X366Y81D02*
X380Y81D01*
X494Y81D02*
X509Y81D01*
X582Y81D02*
X589Y81D01*
X0Y80D02*
X7Y80D01*
X74Y80D02*
X88Y80D01*
X200Y80D02*
X214Y80D01*
X367Y80D02*
X381Y80D01*
X493Y80D02*
X508Y80D01*
X582Y80D02*
X589Y80D01*
X0Y79D02*
X7Y79D01*
X75Y79D02*
X90Y79D01*
X198Y79D02*
X213Y79D01*
X368Y79D02*
X383Y79D01*
X492Y79D02*
X506Y79D01*
X582Y79D02*
X589Y79D01*
X0Y78D02*
X7Y78D01*
X76Y78D02*
X91Y78D01*
X197Y78D02*
X212Y78D01*
X369Y78D02*
X384Y78D01*
X490Y78D02*
X505Y78D01*
X582Y78D02*
X589Y78D01*
X0Y77D02*
X7Y77D01*
X77Y77D02*
X93Y77D01*
X195Y77D02*
X211Y77D01*
X370Y77D02*
X386Y77D01*
X488Y77D02*
X504Y77D01*
X582Y77D02*
X589Y77D01*
X0Y76D02*
X7Y76D01*
X78Y76D02*
X94Y76D01*
X194Y76D02*
X210Y76D01*
X371Y76D02*
X387Y76D01*
X487Y76D02*
X503Y76D01*
X582Y76D02*
X589Y76D01*
X0Y75D02*
X7Y75D01*
X79Y75D02*
X96Y75D01*
X192Y75D02*
X208Y75D01*
X373Y75D02*
X389Y75D01*
X485Y75D02*
X502Y75D01*
X582Y75D02*
X589Y75D01*
X0Y74D02*
X7Y74D01*
X81Y74D02*
X98Y74D01*
X190Y74D02*
X207Y74D01*
X374Y74D02*
X391Y74D01*
X484Y74D02*
X500Y74D01*
X582Y74D02*
X589Y74D01*
X0Y73D02*
X7Y73D01*
X82Y73D02*
X99Y73D01*
X188Y73D02*
X206Y73D01*
X375Y73D02*
X393Y73D01*
X482Y73D02*
X499Y73D01*
X582Y73D02*
X589Y73D01*
X0Y72D02*
X7Y72D01*
X83Y72D02*
X101Y72D01*
X186Y72D02*
X204Y72D01*
X377Y72D02*
X395Y72D01*
X480Y72D02*
X498Y72D01*
X582Y72D02*
X589Y72D01*
X0Y71D02*
X7Y71D01*
X85Y71D02*
X104Y71D01*
X184Y71D02*
X203Y71D01*
X378Y71D02*
X397Y71D01*
X478Y71D02*
X496Y71D01*
X582Y71D02*
X589Y71D01*
X0Y70D02*
X7Y70D01*
X86Y70D02*
X106Y70D01*
X182Y70D02*
X202Y70D01*
X379Y70D02*
X399Y70D01*
X475Y70D02*
X495Y70D01*
X582Y70D02*
X589Y70D01*
X0Y69D02*
X7Y69D01*
X88Y69D02*
X108Y69D01*
X180Y69D02*
X200Y69D01*
X381Y69D02*
X401Y69D01*
X473Y69D02*
X493Y69D01*
X582Y69D02*
X589Y69D01*
X0Y68D02*
X7Y68D01*
X89Y68D02*
X111Y68D01*
X177Y68D02*
X198Y68D01*
X383Y68D02*
X404Y68D01*
X470Y68D02*
X492Y68D01*
X582Y68D02*
X589Y68D01*
X0Y67D02*
X7Y67D01*
X91Y67D02*
X114Y67D01*
X174Y67D02*
X197Y67D01*
X384Y67D02*
X407Y67D01*
X467Y67D02*
X490Y67D01*
X582Y67D02*
X589Y67D01*
X0Y66D02*
X7Y66D01*
X93Y66D02*
X117Y66D01*
X171Y66D02*
X195Y66D01*
X386Y66D02*
X410Y66D01*
X464Y66D02*
X488Y66D01*
X582Y66D02*
X589Y66D01*
X0Y65D02*
X7Y65D01*
X94Y65D02*
X120Y65D01*
X167Y65D02*
X193Y65D01*
X388Y65D02*
X414Y65D01*
X461Y65D02*
X487Y65D01*
X582Y65D02*
X589Y65D01*
X0Y64D02*
X7Y64D01*
X96Y64D02*
X125Y64D01*
X163Y64D02*
X191Y64D01*
X390Y64D02*
X418Y64D01*
X456Y64D02*
X485Y64D01*
X582Y64D02*
X589Y64D01*
X0Y63D02*
X7Y63D01*
X99Y63D02*
X131Y63D01*
X156Y63D02*
X189Y63D01*
X392Y63D02*
X425Y63D01*
X450Y63D02*
X482Y63D01*
X582Y63D02*
X589Y63D01*
X0Y62D02*
X7Y62D01*
X101Y62D02*
X187Y62D01*
X394Y62D02*
X480Y62D01*
X582Y62D02*
X589Y62D01*
X0Y61D02*
X7Y61D01*
X103Y61D02*
X185Y61D01*
X396Y61D02*
X478Y61D01*
X582Y61D02*
X589Y61D01*
X0Y60D02*
X7Y60D01*
X105Y60D02*
X183Y60D01*
X398Y60D02*
X476Y60D01*
X582Y60D02*
X589Y60D01*
X0Y59D02*
X7Y59D01*
X108Y59D02*
X180Y59D01*
X401Y59D02*
X473Y59D01*
X582Y59D02*
X589Y59D01*
X0Y58D02*
X7Y58D01*
X110Y58D02*
X177Y58D01*
X404Y58D02*
X471Y58D01*
X582Y58D02*
X589Y58D01*
X0Y57D02*
X7Y57D01*
X113Y57D02*
X174Y57D01*
X407Y57D02*
X468Y57D01*
X582Y57D02*
X589Y57D01*
X0Y56D02*
X7Y56D01*
X117Y56D02*
X171Y56D01*
X410Y56D02*
X464Y56D01*
X582Y56D02*
X589Y56D01*
X0Y55D02*
X7Y55D01*
X121Y55D02*
X167Y55D01*
X414Y55D02*
X460Y55D01*
X582Y55D02*
X589Y55D01*
X0Y54D02*
X7Y54D01*
X126Y54D02*
X162Y54D01*
X419Y54D02*
X455Y54D01*
X582Y54D02*
X589Y54D01*
X0Y53D02*
X7Y53D01*
X132Y53D02*
X156Y53D01*
X425Y53D02*
X449Y53D01*
X582Y53D02*
X589Y53D01*
X0Y52D02*
X7Y52D01*
X582Y52D02*
X589Y52D01*
X0Y51D02*
X7Y51D01*
X582Y51D02*
X589Y51D01*
X0Y50D02*
X7Y50D01*
X582Y50D02*
X589Y50D01*
X0Y49D02*
X7Y49D01*
X582Y49D02*
X589Y49D01*
X0Y48D02*
X7Y48D01*
X582Y48D02*
X589Y48D01*
X0Y47D02*
X7Y47D01*
X582Y47D02*
X589Y47D01*
X0Y46D02*
X7Y46D01*
X582Y46D02*
X589Y46D01*
X0Y45D02*
X7Y45D01*
X582Y45D02*
X589Y45D01*
X0Y44D02*
X7Y44D01*
X582Y44D02*
X589Y44D01*
X0Y43D02*
X7Y43D01*
X582Y43D02*
X589Y43D01*
X0Y42D02*
X7Y42D01*
X582Y42D02*
X589Y42D01*
X0Y41D02*
X7Y41D01*
X582Y41D02*
X589Y41D01*
X0Y40D02*
X7Y40D01*
X582Y40D02*
X589Y40D01*
X0Y39D02*
X7Y39D01*
X582Y39D02*
X589Y39D01*
X0Y38D02*
X7Y38D01*
X582Y38D02*
X589Y38D01*
X0Y37D02*
X7Y37D01*
X582Y37D02*
X589Y37D01*
X0Y36D02*
X7Y36D01*
X582Y36D02*
X589Y36D01*
X0Y35D02*
X7Y35D01*
X582Y35D02*
X589Y35D01*
X0Y34D02*
X7Y34D01*
X582Y34D02*
X589Y34D01*
X0Y33D02*
X7Y33D01*
X582Y33D02*
X589Y33D01*
X0Y32D02*
X7Y32D01*
X582Y32D02*
X589Y32D01*
X0Y31D02*
X7Y31D01*
X582Y31D02*
X589Y31D01*
X0Y30D02*
X7Y30D01*
X582Y30D02*
X589Y30D01*
X0Y29D02*
X7Y29D01*
X582Y29D02*
X589Y29D01*
X0Y28D02*
X7Y28D01*
X582Y28D02*
X589Y28D01*
X0Y27D02*
X7Y27D01*
X582Y27D02*
X589Y27D01*
X0Y26D02*
X7Y26D01*
X582Y26D02*
X589Y26D01*
X0Y25D02*
X7Y25D01*
X582Y25D02*
X589Y25D01*
X0Y24D02*
X7Y24D01*
X582Y24D02*
X589Y24D01*
X0Y23D02*
X7Y23D01*
X582Y23D02*
X589Y23D01*
X0Y22D02*
X7Y22D01*
X582Y22D02*
X589Y22D01*
X0Y21D02*
X7Y21D01*
X582Y21D02*
X589Y21D01*
X0Y20D02*
X7Y20D01*
X582Y20D02*
X589Y20D01*
X0Y19D02*
X7Y19D01*
X582Y19D02*
X589Y19D01*
X0Y18D02*
X7Y18D01*
X582Y18D02*
X589Y18D01*
X0Y17D02*
X7Y17D01*
X582Y17D02*
X589Y17D01*
X0Y16D02*
X7Y16D01*
X582Y16D02*
X589Y16D01*
X0Y15D02*
X7Y15D01*
X582Y15D02*
X589Y15D01*
X0Y14D02*
X7Y14D01*
X582Y14D02*
X589Y14D01*
X0Y13D02*
X7Y13D01*
X582Y13D02*
X589Y13D01*
X0Y12D02*
X7Y12D01*
X582Y12D02*
X589Y12D01*
X0Y11D02*
X7Y11D01*
X582Y11D02*
X589Y11D01*
X0Y10D02*
X7Y10D01*
X582Y10D02*
X589Y10D01*
X0Y9D02*
X589Y9D01*
X0Y8D02*
X589Y8D01*
X0Y7D02*
X589Y7D01*
X0Y6D02*
X589Y6D01*
X0Y5D02*
X589Y5D01*
X0Y4D02*
X589Y4D01*
X0Y3D02*
X589Y3D01*
X0Y2D02*
X589Y2D01*
D02*
G04 End of Silk1*
M02*