G04 MADE WITH FRITZING*
G04 WWW.FRITZING.ORG*
G04 DOUBLE SIDED*
G04 HOLES PLATED*
G04 CONTOUR ON CENTER OF CONTOUR VECTOR*
%ASAXBY*%
%FSLAX23Y23*%
%MOIN*%
%OFA0B0*%
%SFA1.0B1.0*%
%ADD10C,0.110000*%
%ADD11C,0.080000*%
%ADD12C,0.085000*%
%ADD13C,0.092000*%
%ADD14C,0.088000*%
%ADD15C,0.049370*%
%ADD16C,0.135984*%
%ADD17C,0.128110*%
%ADD18C,0.109055*%
%ADD19R,0.110000X0.110000*%
%ADD20R,0.080000X0.079972*%
%ADD21R,0.085000X0.085000*%
%ADD22R,0.092000X0.092000*%
%ADD23R,0.109055X0.109055*%
%LNMASK0*%
G90*
G70*
G54D10*
X656Y550D03*
X856Y350D03*
X656Y350D03*
X856Y550D03*
G54D11*
X1087Y1607D03*
X1187Y1607D03*
X1287Y1607D03*
X1387Y1607D03*
X1487Y1607D03*
X1587Y1607D03*
X1687Y1607D03*
X1787Y1607D03*
X1887Y1607D03*
X1987Y1607D03*
X2087Y1607D03*
X2187Y1607D03*
X2287Y1607D03*
X2387Y1607D03*
X2487Y1607D03*
X1087Y2207D03*
X1187Y2207D03*
X1287Y2207D03*
X1387Y2207D03*
X1487Y2207D03*
X1587Y2207D03*
X1687Y2207D03*
X1787Y2207D03*
X1887Y2207D03*
X1987Y2207D03*
X2087Y2207D03*
X2187Y2207D03*
X2287Y2207D03*
X2387Y2207D03*
X2487Y2207D03*
X2295Y557D03*
X2295Y457D03*
X1233Y559D03*
X1233Y459D03*
G54D12*
X1989Y557D03*
X1989Y457D03*
X1318Y1118D03*
X1618Y1118D03*
X1318Y1018D03*
X1618Y1018D03*
X1318Y918D03*
X1618Y918D03*
X1318Y818D03*
X1618Y818D03*
X195Y1013D03*
X595Y1013D03*
G54D13*
X1134Y1014D03*
X1134Y716D03*
G54D12*
X1742Y914D03*
X2142Y914D03*
X1742Y1016D03*
X2142Y1016D03*
G54D13*
X1516Y459D03*
X1616Y459D03*
X1716Y459D03*
G54D14*
X3199Y2770D03*
X3199Y2670D03*
X3199Y2570D03*
X3199Y2470D03*
X3199Y2370D03*
X3199Y2270D03*
X3199Y2170D03*
X3199Y2070D03*
X3199Y3638D03*
X3199Y3538D03*
X3199Y3438D03*
X3199Y3338D03*
X3199Y3238D03*
X3199Y3138D03*
X3199Y3038D03*
X3199Y2938D03*
G54D15*
X1385Y2102D03*
X2474Y1118D03*
G54D14*
X3199Y1921D03*
X3199Y1821D03*
X3199Y1721D03*
X3199Y1621D03*
X3199Y1521D03*
X3199Y1421D03*
X3199Y1321D03*
X3199Y1221D03*
X3199Y1121D03*
X3199Y1021D03*
X3199Y921D03*
X3199Y821D03*
G54D15*
X2736Y3644D03*
X2785Y3542D03*
X2842Y3436D03*
X2893Y3245D03*
X2941Y3143D03*
X2989Y3038D03*
X3044Y2936D03*
X3044Y3800D03*
X2989Y3701D03*
X2941Y3587D03*
X2893Y3489D03*
X2842Y3293D03*
X2785Y3193D03*
X2736Y3114D03*
G54D14*
X3199Y555D03*
X3199Y455D03*
G54D16*
X3235Y3826D03*
G54D17*
X3239Y106D03*
X104Y106D03*
G54D16*
X108Y3826D03*
G54D18*
X200Y559D03*
X200Y359D03*
G54D14*
X1473Y3805D03*
X1473Y3705D03*
X1473Y3605D03*
X1473Y3505D03*
X1473Y3405D03*
X1473Y3305D03*
X1473Y3205D03*
X1473Y3105D03*
X1473Y3005D03*
X1473Y2905D03*
X1473Y3805D03*
X1473Y3705D03*
X1473Y3605D03*
X1473Y3505D03*
X1473Y3405D03*
X1473Y3305D03*
X1473Y3205D03*
X1473Y3105D03*
X1473Y3005D03*
X1473Y2905D03*
X1573Y2905D03*
X1573Y3005D03*
X1573Y3105D03*
X1573Y3205D03*
X1573Y3305D03*
X1573Y3405D03*
X1573Y3505D03*
X1573Y3605D03*
X1573Y3705D03*
X1573Y3805D03*
X882Y3805D03*
X882Y3705D03*
X882Y3605D03*
X882Y3505D03*
X882Y3405D03*
X882Y3305D03*
X882Y3205D03*
X882Y3105D03*
X882Y3005D03*
X882Y2905D03*
X353Y2402D03*
X353Y2302D03*
X353Y2202D03*
X353Y2102D03*
X122Y2402D03*
X122Y2302D03*
X122Y2202D03*
X122Y2102D03*
G54D19*
X656Y550D03*
G54D20*
X1087Y1607D03*
G54D21*
X1989Y557D03*
X1318Y1118D03*
G54D22*
X1134Y1015D03*
X1516Y459D03*
G54D23*
X200Y559D03*
G04 End of Mask0*
M02*