; NON-PLATED HOLES START AT T1
; THROUGH (PLATED) HOLES START AT T100
M48
INCH
T1C0.118110
T2C0.125984
T100C0.035000
T101C0.038000
T102C0.040000
T103C0.042000
T104C0.036000
T105C0.015748
T106C0.059055
T107C0.030000
%
T1
X001037Y001058
X032387Y001058
T2
X001077Y038262
X032347Y038262
T100
X005951Y010129
X013176Y009175
X013176Y008175
X021421Y010159
X017421Y009141
X016176Y009175
X016176Y008175
X013176Y010175
X001951Y010129
X016176Y011175
X019891Y004570
X017421Y010159
X016176Y010175
X019891Y005570
X013176Y011175
X021421Y009141
T101
X001220Y022018
X031991Y021695
X031991Y030381
X014734Y033051
X031991Y026695
X031991Y008207
X031991Y015207
X031991Y012207
X003531Y022018
X031991Y031381
X031991Y036381
X008824Y032051
X014734Y030051
X031991Y023695
X015734Y029051
X014734Y038051
X015734Y037051
X014734Y035051
X031991Y011207
X014734Y031051
X015734Y032051
X014734Y034051
X014734Y036051
X031991Y020695
X008824Y029051
X031991Y018207
X031991Y022695
X008824Y037051
X008824Y030051
X031991Y014207
X008824Y035051
X031991Y019207
X008824Y038051
X001220Y021018
X031991Y024695
X008824Y031051
X003531Y021018
X031991Y016207
X031991Y029381
X015734Y036051
X003531Y023018
X015734Y034051
X008824Y033051
X001220Y023018
X031991Y017207
X031991Y004554
X014734Y032051
X031991Y010207
X015734Y031051
X031991Y013207
X031991Y025695
X015734Y030051
X014734Y029051
X031991Y027695
X015734Y038051
X015734Y035051
X014734Y037051
X031991Y035381
X031991Y005554
X031991Y009207
X031991Y033381
X001220Y024018
X008824Y034051
X031991Y032381
X008824Y036051
X015734Y033051
X003531Y024018
X031991Y034381
T102
X006558Y003504
X008558Y003504
X006558Y005504
X008558Y005504
T103
X011342Y010139
X011342Y007159
X017162Y004592
X015162Y004592
X016162Y004592
T104
X013873Y016069
X020873Y016069
X017873Y016069
X018873Y022069
X010873Y016069
X020873Y022069
X017873Y022069
X018873Y016069
X010873Y022069
X024873Y016069
X014873Y016069
X019873Y016069
X024873Y022069
X014873Y022069
X019873Y022069
X021873Y022069
X012873Y016069
X023873Y022069
X015873Y022069
X022873Y016069
X013873Y022069
X011873Y022069
X016873Y016069
X012873Y022069
X023873Y016069
X021873Y016069
X015873Y016069
X011873Y016069
X022873Y022069
X016873Y022069
T105
X030435Y029364
X029893Y037005
X029893Y030384
X028925Y034887
X013847Y021020
X027850Y031933
X030435Y037997
X029413Y031426
X027355Y031139
X029413Y035865
X027850Y035421
X027355Y036441
X028925Y032447
X028422Y034364
X028422Y032934
X024736Y011180
T106
X002000Y005593
X002000Y003593
T107
X012331Y004586
X012331Y005586
X022953Y005570
X022953Y004570
T00
M30
