G04 MADE WITH FRITZING*
G04 WWW.FRITZING.ORG*
G04 DOUBLE SIDED*
G04 HOLES PLATED*
G04 CONTOUR ON CENTER OF CONTOUR VECTOR*
%ASAXBY*%
%FSLAX23Y23*%
%MOIN*%
%OFA0B0*%
%SFA1.0B1.0*%
%ADD10R,0.956693X0.314961X0.940693X0.298961*%
%ADD11C,0.008000*%
%ADD12R,0.001000X0.001000*%
%LNSILK0*%
G90*
G70*
G54D11*
X4Y311D02*
X953Y311D01*
X953Y4D01*
X4Y4D01*
X4Y311D01*
D02*
G54D12*
X476Y88D02*
X476Y88D01*
X474Y87D02*
X478Y87D01*
X474Y86D02*
X479Y86D01*
X473Y85D02*
X479Y85D01*
X473Y84D02*
X479Y84D01*
X473Y83D02*
X479Y83D01*
X473Y82D02*
X479Y82D01*
X473Y81D02*
X479Y81D01*
X473Y80D02*
X479Y80D01*
X473Y79D02*
X479Y79D01*
X473Y78D02*
X479Y78D01*
X473Y77D02*
X479Y77D01*
X860Y77D02*
X869Y77D01*
X882Y77D02*
X883Y77D01*
X896Y77D02*
X900Y77D01*
X912Y77D02*
X920Y77D01*
X473Y76D02*
X479Y76D01*
X858Y76D02*
X870Y76D01*
X881Y76D02*
X884Y76D01*
X896Y76D02*
X901Y76D01*
X911Y76D02*
X922Y76D01*
X473Y75D02*
X479Y75D01*
X857Y75D02*
X870Y75D01*
X881Y75D02*
X884Y75D01*
X895Y75D02*
X901Y75D01*
X911Y75D02*
X923Y75D01*
X462Y74D02*
X491Y74D01*
X856Y74D02*
X870Y74D01*
X881Y74D02*
X884Y74D01*
X895Y74D02*
X901Y74D01*
X911Y74D02*
X924Y74D01*
X460Y73D02*
X492Y73D01*
X856Y73D02*
X860Y73D01*
X863Y73D02*
X867Y73D01*
X881Y73D02*
X884Y73D01*
X894Y73D02*
X901Y73D01*
X920Y73D02*
X925Y73D01*
X460Y72D02*
X493Y72D01*
X855Y72D02*
X859Y72D01*
X863Y72D02*
X866Y72D01*
X881Y72D02*
X884Y72D01*
X894Y72D02*
X901Y72D01*
X921Y72D02*
X926Y72D01*
X460Y71D02*
X493Y71D01*
X855Y71D02*
X858Y71D01*
X863Y71D02*
X866Y71D01*
X881Y71D02*
X884Y71D01*
X893Y71D02*
X901Y71D01*
X922Y71D02*
X926Y71D01*
X460Y70D02*
X493Y70D01*
X854Y70D02*
X858Y70D01*
X863Y70D02*
X866Y70D01*
X881Y70D02*
X884Y70D01*
X893Y70D02*
X901Y70D01*
X923Y70D02*
X927Y70D01*
X460Y69D02*
X492Y69D01*
X854Y69D02*
X857Y69D01*
X863Y69D02*
X866Y69D01*
X881Y69D02*
X884Y69D01*
X892Y69D02*
X901Y69D01*
X924Y69D02*
X928Y69D01*
X461Y68D02*
X491Y68D01*
X853Y68D02*
X857Y68D01*
X863Y68D02*
X866Y68D01*
X881Y68D02*
X884Y68D01*
X892Y68D02*
X901Y68D01*
X924Y68D02*
X929Y68D01*
X473Y67D02*
X479Y67D01*
X853Y67D02*
X856Y67D01*
X863Y67D02*
X866Y67D01*
X881Y67D02*
X884Y67D01*
X892Y67D02*
X895Y67D01*
X897Y67D02*
X901Y67D01*
X925Y67D02*
X929Y67D01*
X473Y66D02*
X479Y66D01*
X852Y66D02*
X856Y66D01*
X863Y66D02*
X866Y66D01*
X881Y66D02*
X884Y66D01*
X891Y66D02*
X895Y66D01*
X897Y66D02*
X901Y66D01*
X926Y66D02*
X930Y66D01*
X473Y65D02*
X479Y65D01*
X852Y65D02*
X855Y65D01*
X863Y65D02*
X866Y65D01*
X881Y65D02*
X884Y65D01*
X891Y65D02*
X894Y65D01*
X897Y65D02*
X901Y65D01*
X927Y65D02*
X930Y65D01*
X473Y64D02*
X479Y64D01*
X851Y64D02*
X855Y64D01*
X863Y64D02*
X866Y64D01*
X881Y64D02*
X884Y64D01*
X890Y64D02*
X894Y64D01*
X897Y64D02*
X901Y64D01*
X927Y64D02*
X931Y64D01*
X473Y63D02*
X479Y63D01*
X851Y63D02*
X854Y63D01*
X863Y63D02*
X866Y63D01*
X881Y63D02*
X884Y63D01*
X890Y63D02*
X893Y63D01*
X897Y63D02*
X901Y63D01*
X927Y63D02*
X931Y63D01*
X473Y62D02*
X479Y62D01*
X851Y62D02*
X854Y62D01*
X863Y62D02*
X866Y62D01*
X881Y62D02*
X884Y62D01*
X889Y62D02*
X893Y62D01*
X897Y62D02*
X901Y62D01*
X928Y62D02*
X931Y62D01*
X473Y61D02*
X479Y61D01*
X851Y61D02*
X854Y61D01*
X863Y61D02*
X866Y61D01*
X881Y61D02*
X884Y61D01*
X889Y61D02*
X893Y61D01*
X897Y61D02*
X901Y61D01*
X928Y61D02*
X931Y61D01*
X473Y60D02*
X479Y60D01*
X851Y60D02*
X854Y60D01*
X863Y60D02*
X866Y60D01*
X881Y60D02*
X884Y60D01*
X888Y60D02*
X892Y60D01*
X897Y60D02*
X901Y60D01*
X928Y60D02*
X931Y60D01*
X473Y59D02*
X479Y59D01*
X851Y59D02*
X854Y59D01*
X863Y59D02*
X866Y59D01*
X881Y59D02*
X884Y59D01*
X888Y59D02*
X892Y59D01*
X897Y59D02*
X901Y59D01*
X911Y59D02*
X920Y59D01*
X928Y59D02*
X931Y59D01*
X473Y58D02*
X479Y58D01*
X851Y58D02*
X855Y58D01*
X863Y58D02*
X866Y58D01*
X881Y58D02*
X884Y58D01*
X888Y58D02*
X891Y58D01*
X897Y58D02*
X901Y58D01*
X911Y58D02*
X920Y58D01*
X928Y58D02*
X931Y58D01*
X473Y57D02*
X479Y57D01*
X852Y57D02*
X855Y57D01*
X863Y57D02*
X866Y57D01*
X881Y57D02*
X884Y57D01*
X887Y57D02*
X891Y57D01*
X897Y57D02*
X901Y57D01*
X911Y57D02*
X920Y57D01*
X928Y57D02*
X931Y57D01*
X474Y56D02*
X479Y56D01*
X852Y56D02*
X856Y56D01*
X863Y56D02*
X866Y56D01*
X881Y56D02*
X884Y56D01*
X887Y56D02*
X890Y56D01*
X897Y56D02*
X901Y56D01*
X911Y56D02*
X920Y56D01*
X928Y56D02*
X931Y56D01*
X474Y55D02*
X479Y55D01*
X853Y55D02*
X856Y55D01*
X863Y55D02*
X866Y55D01*
X881Y55D02*
X884Y55D01*
X886Y55D02*
X890Y55D01*
X897Y55D02*
X901Y55D01*
X911Y55D02*
X914Y55D01*
X928Y55D02*
X931Y55D01*
X475Y54D02*
X477Y54D01*
X853Y54D02*
X857Y54D01*
X863Y54D02*
X866Y54D01*
X881Y54D02*
X884Y54D01*
X886Y54D02*
X889Y54D01*
X897Y54D02*
X901Y54D01*
X911Y54D02*
X914Y54D01*
X928Y54D02*
X931Y54D01*
X854Y53D02*
X857Y53D01*
X863Y53D02*
X866Y53D01*
X881Y53D02*
X889Y53D01*
X897Y53D02*
X901Y53D01*
X911Y53D02*
X914Y53D01*
X928Y53D02*
X931Y53D01*
X854Y52D02*
X858Y52D01*
X863Y52D02*
X866Y52D01*
X881Y52D02*
X889Y52D01*
X897Y52D02*
X901Y52D01*
X911Y52D02*
X914Y52D01*
X928Y52D02*
X931Y52D01*
X855Y51D02*
X858Y51D01*
X863Y51D02*
X866Y51D01*
X881Y51D02*
X888Y51D01*
X897Y51D02*
X901Y51D01*
X911Y51D02*
X914Y51D01*
X927Y51D02*
X931Y51D01*
X855Y50D02*
X859Y50D01*
X863Y50D02*
X866Y50D01*
X881Y50D02*
X888Y50D01*
X897Y50D02*
X901Y50D01*
X911Y50D02*
X915Y50D01*
X927Y50D02*
X931Y50D01*
X856Y49D02*
X869Y49D01*
X881Y49D02*
X887Y49D01*
X897Y49D02*
X901Y49D01*
X911Y49D02*
X930Y49D01*
X856Y48D02*
X870Y48D01*
X881Y48D02*
X887Y48D01*
X897Y48D02*
X901Y48D01*
X912Y48D02*
X930Y48D01*
X857Y47D02*
X870Y47D01*
X881Y47D02*
X886Y47D01*
X897Y47D02*
X901Y47D01*
X913Y47D02*
X929Y47D01*
X858Y46D02*
X870Y46D01*
X881Y46D02*
X886Y46D01*
X898Y46D02*
X900Y46D01*
X914Y46D02*
X928Y46D01*
X861Y45D02*
X869Y45D01*
X881Y45D02*
X885Y45D01*
X899Y45D02*
X899Y45D01*
X916Y45D02*
X926Y45D01*
D02*
G04 End of Silk0*
M02*