G04 MADE WITH FRITZING*
G04 WWW.FRITZING.ORG*
G04 DOUBLE SIDED*
G04 HOLES PLATED*
G04 CONTOUR ON CENTER OF CONTOUR VECTOR*
%ASAXBY*%
%FSLAX23Y23*%
%MOIN*%
%OFA0B0*%
%SFA1.0B1.0*%
%ADD10C,0.075000*%
%ADD11C,0.062992*%
%ADD12R,0.075000X0.075000*%
%ADD13R,0.078740X0.078740*%
%ADD14C,0.024000*%
%LNCOPPER0*%
G90*
G70*
G54D10*
X901Y205D03*
X801Y205D03*
X155Y205D03*
X55Y205D03*
X404Y205D03*
X304Y205D03*
X653Y205D03*
X553Y205D03*
G54D11*
X402Y67D03*
X323Y67D03*
X244Y67D03*
X165Y67D03*
X231Y271D03*
X724Y271D03*
G54D12*
X901Y205D03*
X155Y205D03*
X404Y205D03*
X653Y205D03*
G54D13*
X807Y63D03*
X545Y64D03*
G54D14*
X428Y67D02*
X503Y65D01*
D02*
X244Y20D02*
X244Y41D01*
D02*
X402Y20D02*
X244Y20D01*
D02*
X402Y41D02*
X402Y20D01*
D02*
X55Y67D02*
X139Y67D01*
D02*
X55Y177D02*
X55Y67D01*
D02*
X901Y271D02*
X751Y271D01*
D02*
X901Y234D02*
X901Y271D01*
D02*
X276Y205D02*
X184Y205D01*
D02*
X524Y205D02*
X433Y205D01*
D02*
X772Y205D02*
X681Y205D01*
D02*
X165Y130D02*
X165Y88D01*
D02*
X323Y130D02*
X165Y130D01*
D02*
X323Y130D02*
X323Y88D01*
D02*
X55Y271D02*
X55Y234D01*
D02*
X204Y271D02*
X55Y271D01*
D02*
X901Y60D02*
X850Y62D01*
D02*
X901Y177D02*
X901Y60D01*
G04 End of Copper0*
M02*