G04 MADE WITH FRITZING*
G04 WWW.FRITZING.ORG*
G04 DOUBLE SIDED*
G04 HOLES PLATED*
G04 CONTOUR ON CENTER OF CONTOUR VECTOR*
%ASAXBY*%
%FSLAX23Y23*%
%MOIN*%
%OFA0B0*%
%SFA1.0B1.0*%
%ADD10R,0.001000X0.001000*%
%LNSILK1*%
G90*
G70*
G54D10*
X0Y315D02*
X955Y315D01*
X0Y314D02*
X955Y314D01*
X0Y313D02*
X955Y313D01*
X0Y312D02*
X955Y312D01*
X0Y311D02*
X955Y311D01*
X0Y310D02*
X955Y310D01*
X0Y309D02*
X955Y309D01*
X0Y308D02*
X955Y308D01*
X0Y307D02*
X7Y307D01*
X78Y307D02*
X132Y307D01*
X326Y307D02*
X381Y307D01*
X575Y307D02*
X629Y307D01*
X823Y307D02*
X877Y307D01*
X948Y307D02*
X955Y307D01*
X0Y306D02*
X7Y306D01*
X74Y306D02*
X135Y306D01*
X323Y306D02*
X384Y306D01*
X571Y306D02*
X632Y306D01*
X819Y306D02*
X880Y306D01*
X948Y306D02*
X955Y306D01*
X0Y305D02*
X7Y305D01*
X71Y305D02*
X138Y305D01*
X320Y305D02*
X387Y305D01*
X568Y305D02*
X635Y305D01*
X816Y305D02*
X883Y305D01*
X948Y305D02*
X955Y305D01*
X0Y304D02*
X7Y304D01*
X68Y304D02*
X141Y304D01*
X317Y304D02*
X390Y304D01*
X565Y304D02*
X638Y304D01*
X813Y304D02*
X886Y304D01*
X948Y304D02*
X955Y304D01*
X0Y303D02*
X7Y303D01*
X66Y303D02*
X144Y303D01*
X315Y303D02*
X392Y303D01*
X563Y303D02*
X641Y303D01*
X811Y303D02*
X889Y303D01*
X948Y303D02*
X955Y303D01*
X0Y302D02*
X7Y302D01*
X63Y302D02*
X146Y302D01*
X312Y302D02*
X395Y302D01*
X561Y302D02*
X643Y302D01*
X809Y302D02*
X891Y302D01*
X948Y302D02*
X955Y302D01*
X0Y301D02*
X7Y301D01*
X61Y301D02*
X148Y301D01*
X310Y301D02*
X397Y301D01*
X558Y301D02*
X645Y301D01*
X806Y301D02*
X893Y301D01*
X948Y301D02*
X955Y301D01*
X0Y300D02*
X7Y300D01*
X59Y300D02*
X92Y300D01*
X117Y300D02*
X150Y300D01*
X308Y300D02*
X341Y300D01*
X366Y300D02*
X399Y300D01*
X556Y300D02*
X589Y300D01*
X614Y300D02*
X647Y300D01*
X804Y300D02*
X837Y300D01*
X862Y300D02*
X895Y300D01*
X948Y300D02*
X955Y300D01*
X0Y299D02*
X7Y299D01*
X57Y299D02*
X86Y299D01*
X124Y299D02*
X152Y299D01*
X306Y299D02*
X334Y299D01*
X373Y299D02*
X401Y299D01*
X554Y299D02*
X583Y299D01*
X621Y299D02*
X649Y299D01*
X802Y299D02*
X831Y299D01*
X869Y299D02*
X897Y299D01*
X948Y299D02*
X955Y299D01*
X0Y298D02*
X7Y298D01*
X55Y298D02*
X81Y298D01*
X128Y298D02*
X154Y298D01*
X304Y298D02*
X330Y298D01*
X377Y298D02*
X403Y298D01*
X552Y298D02*
X578Y298D01*
X625Y298D02*
X651Y298D01*
X800Y298D02*
X826Y298D01*
X873Y298D02*
X899Y298D01*
X948Y298D02*
X955Y298D01*
X0Y297D02*
X7Y297D01*
X53Y297D02*
X77Y297D01*
X132Y297D02*
X156Y297D01*
X302Y297D02*
X326Y297D01*
X381Y297D02*
X405Y297D01*
X551Y297D02*
X574Y297D01*
X629Y297D02*
X653Y297D01*
X799Y297D02*
X822Y297D01*
X877Y297D02*
X901Y297D01*
X948Y297D02*
X955Y297D01*
X0Y296D02*
X7Y296D01*
X52Y296D02*
X74Y296D01*
X135Y296D02*
X158Y296D01*
X301Y296D02*
X323Y296D01*
X384Y296D02*
X406Y296D01*
X549Y296D02*
X571Y296D01*
X632Y296D02*
X655Y296D01*
X797Y296D02*
X819Y296D01*
X880Y296D02*
X903Y296D01*
X948Y296D02*
X955Y296D01*
X0Y295D02*
X7Y295D01*
X50Y295D02*
X71Y295D01*
X138Y295D02*
X159Y295D01*
X299Y295D02*
X320Y295D01*
X387Y295D02*
X408Y295D01*
X547Y295D02*
X569Y295D01*
X635Y295D02*
X656Y295D01*
X795Y295D02*
X817Y295D01*
X883Y295D02*
X904Y295D01*
X948Y295D02*
X955Y295D01*
X0Y294D02*
X7Y294D01*
X48Y294D02*
X69Y294D01*
X141Y294D02*
X161Y294D01*
X297Y294D02*
X318Y294D01*
X389Y294D02*
X410Y294D01*
X546Y294D02*
X566Y294D01*
X638Y294D02*
X658Y294D01*
X794Y294D02*
X814Y294D01*
X886Y294D02*
X906Y294D01*
X948Y294D02*
X955Y294D01*
X0Y293D02*
X7Y293D01*
X47Y293D02*
X66Y293D01*
X143Y293D02*
X162Y293D01*
X296Y293D02*
X315Y293D01*
X392Y293D02*
X411Y293D01*
X544Y293D02*
X563Y293D01*
X640Y293D02*
X660Y293D01*
X792Y293D02*
X811Y293D01*
X888Y293D02*
X908Y293D01*
X948Y293D02*
X955Y293D01*
X0Y292D02*
X7Y292D01*
X45Y292D02*
X64Y292D01*
X145Y292D02*
X164Y292D01*
X294Y292D02*
X313Y292D01*
X394Y292D02*
X413Y292D01*
X542Y292D02*
X561Y292D01*
X642Y292D02*
X661Y292D01*
X791Y292D02*
X809Y292D01*
X890Y292D02*
X909Y292D01*
X948Y292D02*
X955Y292D01*
X0Y291D02*
X7Y291D01*
X44Y291D02*
X62Y291D01*
X147Y291D02*
X165Y291D01*
X293Y291D02*
X311Y291D01*
X396Y291D02*
X414Y291D01*
X541Y291D02*
X559Y291D01*
X644Y291D02*
X662Y291D01*
X789Y291D02*
X807Y291D01*
X892Y291D02*
X910Y291D01*
X948Y291D02*
X955Y291D01*
X0Y290D02*
X7Y290D01*
X43Y290D02*
X60Y290D01*
X149Y290D02*
X167Y290D01*
X292Y290D02*
X309Y290D01*
X398Y290D02*
X416Y290D01*
X540Y290D02*
X557Y290D01*
X646Y290D02*
X664Y290D01*
X788Y290D02*
X805Y290D01*
X894Y290D02*
X912Y290D01*
X948Y290D02*
X955Y290D01*
X0Y289D02*
X7Y289D01*
X41Y289D02*
X58Y289D01*
X151Y289D02*
X168Y289D01*
X290Y289D02*
X307Y289D01*
X400Y289D02*
X417Y289D01*
X538Y289D02*
X555Y289D01*
X648Y289D02*
X665Y289D01*
X786Y289D02*
X803Y289D01*
X896Y289D02*
X913Y289D01*
X948Y289D02*
X955Y289D01*
X0Y288D02*
X7Y288D01*
X40Y288D02*
X57Y288D01*
X153Y288D02*
X169Y288D01*
X289Y288D02*
X305Y288D01*
X402Y288D02*
X418Y288D01*
X537Y288D02*
X554Y288D01*
X650Y288D02*
X666Y288D01*
X785Y288D02*
X802Y288D01*
X898Y288D02*
X914Y288D01*
X948Y288D02*
X955Y288D01*
X0Y287D02*
X7Y287D01*
X39Y287D02*
X55Y287D01*
X154Y287D02*
X171Y287D01*
X288Y287D02*
X304Y287D01*
X403Y287D02*
X420Y287D01*
X536Y287D02*
X552Y287D01*
X651Y287D02*
X668Y287D01*
X784Y287D02*
X800Y287D01*
X900Y287D02*
X916Y287D01*
X948Y287D02*
X955Y287D01*
X0Y286D02*
X7Y286D01*
X37Y286D02*
X53Y286D01*
X156Y286D02*
X172Y286D01*
X286Y286D02*
X302Y286D01*
X405Y286D02*
X421Y286D01*
X535Y286D02*
X550Y286D01*
X653Y286D02*
X669Y286D01*
X783Y286D02*
X798Y286D01*
X901Y286D02*
X917Y286D01*
X948Y286D02*
X955Y286D01*
X0Y285D02*
X7Y285D01*
X36Y285D02*
X52Y285D01*
X158Y285D02*
X173Y285D01*
X285Y285D02*
X301Y285D01*
X407Y285D02*
X422Y285D01*
X533Y285D02*
X549Y285D01*
X655Y285D02*
X670Y285D01*
X782Y285D02*
X797Y285D01*
X903Y285D02*
X918Y285D01*
X948Y285D02*
X955Y285D01*
X0Y284D02*
X7Y284D01*
X35Y284D02*
X50Y284D01*
X159Y284D02*
X174Y284D01*
X284Y284D02*
X299Y284D01*
X408Y284D02*
X423Y284D01*
X532Y284D02*
X547Y284D01*
X656Y284D02*
X671Y284D01*
X780Y284D02*
X795Y284D01*
X904Y284D02*
X919Y284D01*
X948Y284D02*
X955Y284D01*
X0Y283D02*
X7Y283D01*
X34Y283D02*
X49Y283D01*
X160Y283D02*
X175Y283D01*
X283Y283D02*
X298Y283D01*
X409Y283D02*
X424Y283D01*
X531Y283D02*
X546Y283D01*
X658Y283D02*
X672Y283D01*
X779Y283D02*
X794Y283D01*
X906Y283D02*
X920Y283D01*
X948Y283D02*
X955Y283D01*
X0Y282D02*
X7Y282D01*
X33Y282D02*
X48Y282D01*
X162Y282D02*
X176Y282D01*
X282Y282D02*
X296Y282D01*
X411Y282D02*
X425Y282D01*
X530Y282D02*
X545Y282D01*
X659Y282D02*
X673Y282D01*
X778Y282D02*
X793Y282D01*
X907Y282D02*
X921Y282D01*
X948Y282D02*
X955Y282D01*
X0Y281D02*
X7Y281D01*
X32Y281D02*
X46Y281D01*
X163Y281D02*
X177Y281D01*
X281Y281D02*
X295Y281D01*
X412Y281D02*
X426Y281D01*
X529Y281D02*
X543Y281D01*
X660Y281D02*
X674Y281D01*
X777Y281D02*
X791Y281D01*
X908Y281D02*
X922Y281D01*
X948Y281D02*
X955Y281D01*
X0Y280D02*
X7Y280D01*
X31Y280D02*
X45Y280D01*
X164Y280D02*
X178Y280D01*
X280Y280D02*
X294Y280D01*
X413Y280D02*
X427Y280D01*
X528Y280D02*
X542Y280D01*
X662Y280D02*
X675Y280D01*
X776Y280D02*
X790Y280D01*
X910Y280D02*
X924Y280D01*
X948Y280D02*
X955Y280D01*
X0Y279D02*
X7Y279D01*
X30Y279D02*
X44Y279D01*
X166Y279D02*
X179Y279D01*
X279Y279D02*
X293Y279D01*
X415Y279D02*
X428Y279D01*
X527Y279D02*
X541Y279D01*
X663Y279D02*
X676Y279D01*
X775Y279D02*
X789Y279D01*
X911Y279D02*
X924Y279D01*
X948Y279D02*
X955Y279D01*
X0Y278D02*
X7Y278D01*
X29Y278D02*
X42Y278D01*
X167Y278D02*
X180Y278D01*
X278Y278D02*
X291Y278D01*
X416Y278D02*
X429Y278D01*
X526Y278D02*
X540Y278D01*
X664Y278D02*
X677Y278D01*
X774Y278D02*
X788Y278D01*
X912Y278D02*
X925Y278D01*
X948Y278D02*
X955Y278D01*
X0Y277D02*
X7Y277D01*
X28Y277D02*
X41Y277D01*
X168Y277D02*
X181Y277D01*
X277Y277D02*
X290Y277D01*
X417Y277D02*
X430Y277D01*
X525Y277D02*
X538Y277D01*
X665Y277D02*
X678Y277D01*
X773Y277D02*
X787Y277D01*
X913Y277D02*
X926Y277D01*
X948Y277D02*
X955Y277D01*
X0Y276D02*
X7Y276D01*
X27Y276D02*
X40Y276D01*
X169Y276D02*
X182Y276D01*
X276Y276D02*
X289Y276D01*
X418Y276D02*
X431Y276D01*
X524Y276D02*
X537Y276D01*
X666Y276D02*
X679Y276D01*
X772Y276D02*
X785Y276D01*
X914Y276D02*
X927Y276D01*
X948Y276D02*
X955Y276D01*
X0Y275D02*
X7Y275D01*
X26Y275D02*
X39Y275D01*
X170Y275D02*
X183Y275D01*
X275Y275D02*
X288Y275D01*
X419Y275D02*
X432Y275D01*
X523Y275D02*
X536Y275D01*
X667Y275D02*
X680Y275D01*
X771Y275D02*
X784Y275D01*
X915Y275D02*
X928Y275D01*
X948Y275D02*
X955Y275D01*
X0Y274D02*
X7Y274D01*
X25Y274D02*
X38Y274D01*
X171Y274D02*
X184Y274D01*
X274Y274D02*
X287Y274D01*
X420Y274D02*
X433Y274D01*
X523Y274D02*
X535Y274D01*
X668Y274D02*
X681Y274D01*
X771Y274D02*
X783Y274D01*
X916Y274D02*
X929Y274D01*
X948Y274D02*
X955Y274D01*
X0Y273D02*
X7Y273D01*
X25Y273D02*
X37Y273D01*
X172Y273D02*
X185Y273D01*
X273Y273D02*
X286Y273D01*
X421Y273D02*
X434Y273D01*
X522Y273D02*
X534Y273D01*
X669Y273D02*
X682Y273D01*
X770Y273D02*
X782Y273D01*
X917Y273D02*
X930Y273D01*
X948Y273D02*
X955Y273D01*
X0Y272D02*
X7Y272D01*
X24Y272D02*
X36Y272D01*
X173Y272D02*
X186Y272D01*
X273Y272D02*
X285Y272D01*
X422Y272D02*
X434Y272D01*
X521Y272D02*
X533Y272D01*
X670Y272D02*
X683Y272D01*
X769Y272D02*
X781Y272D01*
X918Y272D02*
X931Y272D01*
X948Y272D02*
X955Y272D01*
X0Y271D02*
X7Y271D01*
X23Y271D02*
X35Y271D01*
X174Y271D02*
X186Y271D01*
X272Y271D02*
X284Y271D01*
X423Y271D02*
X435Y271D01*
X520Y271D02*
X532Y271D01*
X671Y271D02*
X683Y271D01*
X768Y271D02*
X780Y271D01*
X919Y271D02*
X931Y271D01*
X948Y271D02*
X955Y271D01*
X0Y270D02*
X7Y270D01*
X22Y270D02*
X34Y270D01*
X175Y270D02*
X187Y270D01*
X271Y270D02*
X283Y270D01*
X424Y270D02*
X436Y270D01*
X519Y270D02*
X531Y270D01*
X672Y270D02*
X684Y270D01*
X767Y270D02*
X779Y270D01*
X920Y270D02*
X932Y270D01*
X948Y270D02*
X955Y270D01*
X0Y269D02*
X7Y269D01*
X21Y269D02*
X33Y269D01*
X176Y269D02*
X188Y269D01*
X270Y269D02*
X282Y269D01*
X425Y269D02*
X437Y269D01*
X519Y269D02*
X530Y269D01*
X673Y269D02*
X685Y269D01*
X767Y269D02*
X778Y269D01*
X921Y269D02*
X933Y269D01*
X948Y269D02*
X955Y269D01*
X0Y268D02*
X7Y268D01*
X21Y268D02*
X32Y268D01*
X177Y268D02*
X189Y268D01*
X270Y268D02*
X281Y268D01*
X426Y268D02*
X437Y268D01*
X518Y268D02*
X530Y268D01*
X674Y268D02*
X686Y268D01*
X766Y268D02*
X778Y268D01*
X922Y268D02*
X934Y268D01*
X948Y268D02*
X955Y268D01*
X0Y267D02*
X7Y267D01*
X20Y267D02*
X31Y267D01*
X178Y267D02*
X189Y267D01*
X269Y267D02*
X280Y267D01*
X427Y267D02*
X438Y267D01*
X517Y267D02*
X529Y267D01*
X675Y267D02*
X686Y267D01*
X765Y267D02*
X777Y267D01*
X923Y267D02*
X934Y267D01*
X948Y267D02*
X955Y267D01*
X0Y266D02*
X7Y266D01*
X19Y266D02*
X31Y266D01*
X138Y266D02*
X171Y266D01*
X179Y266D02*
X190Y266D01*
X268Y266D02*
X280Y266D01*
X387Y266D02*
X420Y266D01*
X428Y266D02*
X439Y266D01*
X516Y266D02*
X528Y266D01*
X635Y266D02*
X668Y266D01*
X676Y266D02*
X687Y266D01*
X764Y266D02*
X776Y266D01*
X883Y266D02*
X916Y266D01*
X924Y266D02*
X935Y266D01*
X948Y266D02*
X955Y266D01*
X0Y265D02*
X7Y265D01*
X19Y265D02*
X30Y265D01*
X137Y265D02*
X173Y265D01*
X179Y265D02*
X191Y265D01*
X267Y265D02*
X279Y265D01*
X385Y265D02*
X422Y265D01*
X428Y265D02*
X440Y265D01*
X516Y265D02*
X527Y265D01*
X634Y265D02*
X670Y265D01*
X676Y265D02*
X687Y265D01*
X764Y265D02*
X775Y265D01*
X882Y265D02*
X918Y265D01*
X925Y265D02*
X936Y265D01*
X948Y265D02*
X955Y265D01*
X0Y264D02*
X7Y264D01*
X18Y264D02*
X29Y264D01*
X136Y264D02*
X174Y264D01*
X180Y264D02*
X191Y264D01*
X267Y264D02*
X278Y264D01*
X385Y264D02*
X422Y264D01*
X429Y264D02*
X440Y264D01*
X515Y264D02*
X526Y264D01*
X633Y264D02*
X671Y264D01*
X677Y264D02*
X687Y264D01*
X763Y264D02*
X774Y264D01*
X881Y264D02*
X919Y264D01*
X925Y264D02*
X937Y264D01*
X948Y264D02*
X955Y264D01*
X0Y263D02*
X7Y263D01*
X17Y263D02*
X28Y263D01*
X135Y263D02*
X174Y263D01*
X181Y263D02*
X192Y263D01*
X266Y263D02*
X277Y263D01*
X384Y263D02*
X423Y263D01*
X430Y263D02*
X441Y263D01*
X514Y263D02*
X525Y263D01*
X632Y263D02*
X671Y263D01*
X678Y263D02*
X687Y263D01*
X762Y263D02*
X774Y263D01*
X880Y263D02*
X919Y263D01*
X926Y263D02*
X937Y263D01*
X948Y263D02*
X955Y263D01*
X0Y262D02*
X7Y262D01*
X17Y262D02*
X28Y262D01*
X135Y262D02*
X174Y262D01*
X182Y262D02*
X193Y262D01*
X266Y262D02*
X277Y262D01*
X384Y262D02*
X423Y262D01*
X431Y262D02*
X442Y262D01*
X514Y262D02*
X525Y262D01*
X632Y262D02*
X671Y262D01*
X679Y262D02*
X688Y262D01*
X762Y262D02*
X773Y262D01*
X880Y262D02*
X920Y262D01*
X927Y262D02*
X938Y262D01*
X948Y262D02*
X955Y262D01*
X0Y261D02*
X7Y261D01*
X16Y261D02*
X27Y261D01*
X135Y261D02*
X175Y261D01*
X182Y261D02*
X193Y261D01*
X265Y261D02*
X276Y261D01*
X384Y261D02*
X423Y261D01*
X431Y261D02*
X442Y261D01*
X513Y261D02*
X524Y261D01*
X632Y261D02*
X672Y261D01*
X680Y261D02*
X688Y261D01*
X761Y261D02*
X772Y261D01*
X880Y261D02*
X920Y261D01*
X928Y261D02*
X938Y261D01*
X948Y261D02*
X955Y261D01*
X0Y260D02*
X7Y260D01*
X15Y260D02*
X26Y260D01*
X135Y260D02*
X174Y260D01*
X183Y260D02*
X194Y260D01*
X265Y260D02*
X275Y260D01*
X384Y260D02*
X423Y260D01*
X432Y260D02*
X443Y260D01*
X512Y260D02*
X523Y260D01*
X632Y260D02*
X672Y260D01*
X680Y260D02*
X688Y260D01*
X761Y260D02*
X771Y260D01*
X880Y260D02*
X920Y260D01*
X928Y260D02*
X939Y260D01*
X948Y260D02*
X955Y260D01*
X0Y259D02*
X7Y259D01*
X15Y259D02*
X25Y259D01*
X135Y259D02*
X174Y259D01*
X184Y259D02*
X194Y259D01*
X265Y259D02*
X274Y259D01*
X384Y259D02*
X423Y259D01*
X433Y259D02*
X443Y259D01*
X512Y259D02*
X522Y259D01*
X632Y259D02*
X671Y259D01*
X681Y259D02*
X689Y259D01*
X760Y259D02*
X771Y259D01*
X880Y259D02*
X919Y259D01*
X929Y259D02*
X940Y259D01*
X948Y259D02*
X955Y259D01*
X0Y258D02*
X7Y258D01*
X14Y258D02*
X25Y258D01*
X136Y258D02*
X174Y258D01*
X185Y258D02*
X195Y258D01*
X264Y258D02*
X274Y258D01*
X384Y258D02*
X423Y258D01*
X433Y258D02*
X444Y258D01*
X511Y258D02*
X522Y258D01*
X633Y258D02*
X671Y258D01*
X682Y258D02*
X689Y258D01*
X759Y258D02*
X770Y258D01*
X881Y258D02*
X919Y258D01*
X930Y258D02*
X940Y258D01*
X948Y258D02*
X955Y258D01*
X0Y257D02*
X7Y257D01*
X14Y257D02*
X24Y257D01*
X136Y257D02*
X173Y257D01*
X185Y257D02*
X196Y257D01*
X264Y257D02*
X273Y257D01*
X385Y257D02*
X422Y257D01*
X434Y257D02*
X445Y257D01*
X511Y257D02*
X521Y257D01*
X633Y257D02*
X670Y257D01*
X682Y257D02*
X690Y257D01*
X759Y257D02*
X769Y257D01*
X881Y257D02*
X918Y257D01*
X930Y257D02*
X941Y257D01*
X948Y257D02*
X955Y257D01*
X0Y256D02*
X7Y256D01*
X13Y256D02*
X24Y256D01*
X138Y256D02*
X171Y256D01*
X186Y256D02*
X196Y256D01*
X263Y256D02*
X272Y256D01*
X387Y256D02*
X420Y256D01*
X435Y256D02*
X445Y256D01*
X510Y256D02*
X521Y256D01*
X635Y256D02*
X669Y256D01*
X683Y256D02*
X690Y256D01*
X758Y256D02*
X769Y256D01*
X883Y256D02*
X917Y256D01*
X931Y256D02*
X941Y256D01*
X948Y256D02*
X955Y256D01*
X0Y255D02*
X7Y255D01*
X13Y255D02*
X23Y255D01*
X186Y255D02*
X197Y255D01*
X263Y255D02*
X272Y255D01*
X435Y255D02*
X446Y255D01*
X510Y255D02*
X520Y255D01*
X683Y255D02*
X690Y255D01*
X758Y255D02*
X768Y255D01*
X932Y255D02*
X942Y255D01*
X948Y255D02*
X955Y255D01*
X0Y254D02*
X7Y254D01*
X12Y254D02*
X22Y254D01*
X187Y254D02*
X197Y254D01*
X263Y254D02*
X271Y254D01*
X436Y254D02*
X446Y254D01*
X509Y254D02*
X519Y254D01*
X684Y254D02*
X691Y254D01*
X757Y254D02*
X767Y254D01*
X932Y254D02*
X942Y254D01*
X948Y254D02*
X955Y254D01*
X0Y253D02*
X7Y253D01*
X12Y253D02*
X22Y253D01*
X188Y253D02*
X198Y253D01*
X262Y253D02*
X271Y253D01*
X437Y253D02*
X447Y253D01*
X509Y253D02*
X519Y253D01*
X685Y253D02*
X692Y253D01*
X757Y253D02*
X767Y253D01*
X933Y253D02*
X943Y253D01*
X948Y253D02*
X955Y253D01*
X0Y252D02*
X7Y252D01*
X11Y252D02*
X21Y252D01*
X188Y252D02*
X198Y252D01*
X261Y252D02*
X270Y252D01*
X437Y252D02*
X447Y252D01*
X508Y252D02*
X518Y252D01*
X685Y252D02*
X692Y252D01*
X756Y252D02*
X766Y252D01*
X933Y252D02*
X943Y252D01*
X948Y252D02*
X955Y252D01*
X0Y251D02*
X7Y251D01*
X11Y251D02*
X20Y251D01*
X189Y251D02*
X199Y251D01*
X261Y251D02*
X269Y251D01*
X438Y251D02*
X448Y251D01*
X508Y251D02*
X518Y251D01*
X686Y251D02*
X693Y251D01*
X756Y251D02*
X766Y251D01*
X934Y251D02*
X944Y251D01*
X948Y251D02*
X955Y251D01*
X0Y250D02*
X7Y250D01*
X10Y250D02*
X20Y250D01*
X189Y250D02*
X199Y250D01*
X260Y250D02*
X269Y250D01*
X438Y250D02*
X448Y250D01*
X507Y250D02*
X517Y250D01*
X686Y250D02*
X693Y250D01*
X755Y250D02*
X765Y250D01*
X934Y250D02*
X944Y250D01*
X948Y250D02*
X955Y250D01*
X0Y249D02*
X7Y249D01*
X10Y249D02*
X20Y249D01*
X190Y249D02*
X200Y249D01*
X259Y249D02*
X268Y249D01*
X439Y249D02*
X449Y249D01*
X507Y249D02*
X517Y249D01*
X687Y249D02*
X694Y249D01*
X755Y249D02*
X765Y249D01*
X935Y249D02*
X945Y249D01*
X948Y249D02*
X955Y249D01*
X0Y248D02*
X7Y248D01*
X9Y248D02*
X19Y248D01*
X198Y248D02*
X200Y248D01*
X259Y248D02*
X268Y248D01*
X446Y248D02*
X449Y248D01*
X506Y248D02*
X516Y248D01*
X695Y248D02*
X695Y248D01*
X754Y248D02*
X764Y248D01*
X943Y248D02*
X945Y248D01*
X948Y248D02*
X955Y248D01*
X0Y247D02*
X7Y247D01*
X9Y247D02*
X19Y247D01*
X198Y247D02*
X201Y247D01*
X258Y247D02*
X267Y247D01*
X447Y247D02*
X450Y247D01*
X506Y247D02*
X516Y247D01*
X695Y247D02*
X696Y247D01*
X754Y247D02*
X764Y247D01*
X943Y247D02*
X946Y247D01*
X948Y247D02*
X955Y247D01*
X0Y246D02*
X18Y246D01*
X198Y246D02*
X201Y246D01*
X257Y246D02*
X267Y246D01*
X447Y246D02*
X450Y246D01*
X505Y246D02*
X515Y246D01*
X695Y246D02*
X697Y246D01*
X753Y246D02*
X763Y246D01*
X943Y246D02*
X946Y246D01*
X948Y246D02*
X955Y246D01*
X0Y245D02*
X18Y245D01*
X198Y245D02*
X201Y245D01*
X257Y245D02*
X266Y245D01*
X447Y245D02*
X450Y245D01*
X505Y245D02*
X515Y245D01*
X695Y245D02*
X698Y245D01*
X753Y245D02*
X763Y245D01*
X943Y245D02*
X955Y245D01*
X0Y244D02*
X17Y244D01*
X198Y244D02*
X202Y244D01*
X256Y244D02*
X266Y244D01*
X447Y244D02*
X451Y244D01*
X505Y244D02*
X514Y244D01*
X695Y244D02*
X699Y244D01*
X753Y244D02*
X762Y244D01*
X943Y244D02*
X955Y244D01*
X0Y243D02*
X17Y243D01*
X198Y243D02*
X202Y243D01*
X256Y243D02*
X266Y243D01*
X447Y243D02*
X451Y243D01*
X504Y243D02*
X514Y243D01*
X695Y243D02*
X699Y243D01*
X752Y243D02*
X762Y243D01*
X943Y243D02*
X955Y243D01*
X0Y242D02*
X16Y242D01*
X198Y242D02*
X203Y242D01*
X256Y242D02*
X265Y242D01*
X447Y242D02*
X452Y242D01*
X504Y242D02*
X513Y242D01*
X695Y242D02*
X700Y242D01*
X752Y242D02*
X761Y242D01*
X943Y242D02*
X955Y242D01*
X0Y241D02*
X16Y241D01*
X198Y241D02*
X203Y241D01*
X255Y241D02*
X265Y241D01*
X447Y241D02*
X452Y241D01*
X503Y241D02*
X513Y241D01*
X695Y241D02*
X700Y241D01*
X751Y241D02*
X761Y241D01*
X943Y241D02*
X955Y241D01*
X0Y240D02*
X16Y240D01*
X198Y240D02*
X203Y240D01*
X255Y240D02*
X264Y240D01*
X447Y240D02*
X452Y240D01*
X503Y240D02*
X513Y240D01*
X695Y240D02*
X700Y240D01*
X751Y240D02*
X761Y240D01*
X943Y240D02*
X955Y240D01*
X0Y239D02*
X15Y239D01*
X198Y239D02*
X204Y239D01*
X255Y239D02*
X264Y239D01*
X447Y239D02*
X453Y239D01*
X503Y239D02*
X512Y239D01*
X695Y239D02*
X701Y239D01*
X751Y239D02*
X760Y239D01*
X943Y239D02*
X955Y239D01*
X0Y238D02*
X15Y238D01*
X198Y238D02*
X204Y238D01*
X254Y238D02*
X264Y238D01*
X447Y238D02*
X453Y238D01*
X502Y238D02*
X512Y238D01*
X695Y238D02*
X701Y238D01*
X750Y238D02*
X760Y238D01*
X943Y238D02*
X955Y238D01*
X0Y237D02*
X14Y237D01*
X198Y237D02*
X204Y237D01*
X254Y237D02*
X263Y237D01*
X447Y237D02*
X453Y237D01*
X502Y237D02*
X511Y237D01*
X695Y237D02*
X701Y237D01*
X750Y237D02*
X760Y237D01*
X943Y237D02*
X955Y237D01*
X0Y236D02*
X14Y236D01*
X198Y236D02*
X205Y236D01*
X254Y236D02*
X263Y236D01*
X447Y236D02*
X454Y236D01*
X502Y236D02*
X511Y236D01*
X695Y236D02*
X702Y236D01*
X750Y236D02*
X759Y236D01*
X943Y236D02*
X955Y236D01*
X0Y235D02*
X14Y235D01*
X198Y235D02*
X205Y235D01*
X253Y235D02*
X263Y235D01*
X447Y235D02*
X454Y235D01*
X501Y235D02*
X511Y235D01*
X695Y235D02*
X702Y235D01*
X750Y235D02*
X759Y235D01*
X943Y235D02*
X955Y235D01*
X0Y234D02*
X13Y234D01*
X198Y234D02*
X205Y234D01*
X253Y234D02*
X262Y234D01*
X447Y234D02*
X454Y234D01*
X501Y234D02*
X510Y234D01*
X695Y234D02*
X702Y234D01*
X749Y234D02*
X758Y234D01*
X943Y234D02*
X955Y234D01*
X0Y233D02*
X13Y233D01*
X198Y233D02*
X205Y233D01*
X253Y233D02*
X262Y233D01*
X447Y233D02*
X454Y233D01*
X501Y233D02*
X510Y233D01*
X695Y233D02*
X703Y233D01*
X749Y233D02*
X758Y233D01*
X943Y233D02*
X955Y233D01*
X0Y232D02*
X13Y232D01*
X198Y232D02*
X206Y232D01*
X252Y232D02*
X262Y232D01*
X447Y232D02*
X455Y232D01*
X501Y232D02*
X510Y232D01*
X695Y232D02*
X703Y232D01*
X749Y232D02*
X758Y232D01*
X943Y232D02*
X955Y232D01*
X0Y231D02*
X12Y231D01*
X198Y231D02*
X206Y231D01*
X252Y231D02*
X261Y231D01*
X447Y231D02*
X455Y231D01*
X500Y231D02*
X510Y231D01*
X695Y231D02*
X703Y231D01*
X748Y231D02*
X758Y231D01*
X943Y231D02*
X955Y231D01*
X0Y230D02*
X12Y230D01*
X198Y230D02*
X206Y230D01*
X252Y230D02*
X261Y230D01*
X447Y230D02*
X455Y230D01*
X500Y230D02*
X509Y230D01*
X695Y230D02*
X703Y230D01*
X748Y230D02*
X757Y230D01*
X943Y230D02*
X955Y230D01*
X0Y229D02*
X12Y229D01*
X198Y229D02*
X206Y229D01*
X252Y229D02*
X261Y229D01*
X447Y229D02*
X455Y229D01*
X500Y229D02*
X509Y229D01*
X695Y229D02*
X704Y229D01*
X748Y229D02*
X757Y229D01*
X943Y229D02*
X955Y229D01*
X0Y228D02*
X12Y228D01*
X198Y228D02*
X207Y228D01*
X252Y228D02*
X261Y228D01*
X447Y228D02*
X456Y228D01*
X500Y228D02*
X509Y228D01*
X695Y228D02*
X704Y228D01*
X748Y228D02*
X757Y228D01*
X943Y228D02*
X955Y228D01*
X0Y227D02*
X12Y227D01*
X198Y227D02*
X207Y227D01*
X251Y227D02*
X260Y227D01*
X447Y227D02*
X456Y227D01*
X499Y227D02*
X509Y227D01*
X695Y227D02*
X704Y227D01*
X748Y227D02*
X757Y227D01*
X943Y227D02*
X955Y227D01*
X0Y226D02*
X11Y226D01*
X198Y226D02*
X207Y226D01*
X251Y226D02*
X260Y226D01*
X447Y226D02*
X456Y226D01*
X499Y226D02*
X508Y226D01*
X695Y226D02*
X704Y226D01*
X747Y226D02*
X756Y226D01*
X943Y226D02*
X955Y226D01*
X0Y225D02*
X11Y225D01*
X198Y225D02*
X207Y225D01*
X251Y225D02*
X260Y225D01*
X447Y225D02*
X456Y225D01*
X499Y225D02*
X508Y225D01*
X695Y225D02*
X704Y225D01*
X747Y225D02*
X756Y225D01*
X943Y225D02*
X955Y225D01*
X0Y224D02*
X11Y224D01*
X198Y224D02*
X207Y224D01*
X251Y224D02*
X260Y224D01*
X447Y224D02*
X456Y224D01*
X499Y224D02*
X508Y224D01*
X695Y224D02*
X705Y224D01*
X747Y224D02*
X756Y224D01*
X944Y224D02*
X955Y224D01*
X0Y223D02*
X11Y223D01*
X199Y223D02*
X208Y223D01*
X251Y223D02*
X260Y223D01*
X447Y223D02*
X457Y223D01*
X499Y223D02*
X508Y223D01*
X696Y223D02*
X705Y223D01*
X747Y223D02*
X756Y223D01*
X944Y223D02*
X955Y223D01*
X0Y222D02*
X11Y222D01*
X199Y222D02*
X208Y222D01*
X250Y222D02*
X259Y222D01*
X448Y222D02*
X457Y222D01*
X499Y222D02*
X508Y222D01*
X696Y222D02*
X705Y222D01*
X747Y222D02*
X756Y222D01*
X944Y222D02*
X955Y222D01*
X0Y221D02*
X10Y221D01*
X199Y221D02*
X208Y221D01*
X250Y221D02*
X259Y221D01*
X448Y221D02*
X457Y221D01*
X498Y221D02*
X507Y221D01*
X696Y221D02*
X705Y221D01*
X746Y221D02*
X756Y221D01*
X944Y221D02*
X955Y221D01*
X0Y220D02*
X10Y220D01*
X199Y220D02*
X208Y220D01*
X250Y220D02*
X259Y220D01*
X448Y220D02*
X457Y220D01*
X498Y220D02*
X507Y220D01*
X696Y220D02*
X705Y220D01*
X746Y220D02*
X755Y220D01*
X944Y220D02*
X955Y220D01*
X0Y219D02*
X10Y219D01*
X199Y219D02*
X208Y219D01*
X250Y219D02*
X259Y219D01*
X448Y219D02*
X457Y219D01*
X498Y219D02*
X507Y219D01*
X696Y219D02*
X705Y219D01*
X746Y219D02*
X755Y219D01*
X944Y219D02*
X955Y219D01*
X0Y218D02*
X10Y218D01*
X199Y218D02*
X208Y218D01*
X250Y218D02*
X259Y218D01*
X448Y218D02*
X457Y218D01*
X498Y218D02*
X507Y218D01*
X696Y218D02*
X705Y218D01*
X746Y218D02*
X755Y218D01*
X944Y218D02*
X955Y218D01*
X0Y217D02*
X10Y217D01*
X199Y217D02*
X208Y217D01*
X250Y217D02*
X259Y217D01*
X448Y217D02*
X457Y217D01*
X498Y217D02*
X507Y217D01*
X697Y217D02*
X706Y217D01*
X746Y217D02*
X755Y217D01*
X945Y217D02*
X955Y217D01*
X0Y216D02*
X10Y216D01*
X200Y216D02*
X209Y216D01*
X250Y216D02*
X259Y216D01*
X448Y216D02*
X457Y216D01*
X498Y216D02*
X507Y216D01*
X697Y216D02*
X706Y216D01*
X746Y216D02*
X755Y216D01*
X945Y216D02*
X955Y216D01*
X0Y215D02*
X10Y215D01*
X200Y215D02*
X209Y215D01*
X250Y215D02*
X259Y215D01*
X449Y215D02*
X458Y215D01*
X498Y215D02*
X507Y215D01*
X697Y215D02*
X706Y215D01*
X746Y215D02*
X755Y215D01*
X945Y215D02*
X955Y215D01*
X0Y214D02*
X10Y214D01*
X200Y214D02*
X209Y214D01*
X249Y214D02*
X258Y214D01*
X449Y214D02*
X458Y214D01*
X498Y214D02*
X507Y214D01*
X697Y214D02*
X706Y214D01*
X746Y214D02*
X755Y214D01*
X945Y214D02*
X955Y214D01*
X0Y213D02*
X9Y213D01*
X200Y213D02*
X209Y213D01*
X249Y213D02*
X258Y213D01*
X449Y213D02*
X458Y213D01*
X498Y213D02*
X507Y213D01*
X697Y213D02*
X706Y213D01*
X746Y213D02*
X755Y213D01*
X945Y213D02*
X955Y213D01*
X0Y212D02*
X9Y212D01*
X200Y212D02*
X209Y212D01*
X249Y212D02*
X258Y212D01*
X449Y212D02*
X458Y212D01*
X497Y212D02*
X506Y212D01*
X697Y212D02*
X706Y212D01*
X746Y212D02*
X755Y212D01*
X945Y212D02*
X955Y212D01*
X0Y211D02*
X9Y211D01*
X200Y211D02*
X209Y211D01*
X249Y211D02*
X258Y211D01*
X449Y211D02*
X458Y211D01*
X497Y211D02*
X506Y211D01*
X697Y211D02*
X706Y211D01*
X745Y211D02*
X754Y211D01*
X945Y211D02*
X955Y211D01*
X0Y210D02*
X9Y210D01*
X200Y210D02*
X209Y210D01*
X249Y210D02*
X258Y210D01*
X449Y210D02*
X458Y210D01*
X497Y210D02*
X506Y210D01*
X697Y210D02*
X706Y210D01*
X745Y210D02*
X754Y210D01*
X945Y210D02*
X955Y210D01*
X0Y209D02*
X9Y209D01*
X200Y209D02*
X209Y209D01*
X249Y209D02*
X258Y209D01*
X449Y209D02*
X458Y209D01*
X497Y209D02*
X506Y209D01*
X697Y209D02*
X706Y209D01*
X745Y209D02*
X754Y209D01*
X945Y209D02*
X955Y209D01*
X0Y208D02*
X9Y208D01*
X200Y208D02*
X209Y208D01*
X249Y208D02*
X258Y208D01*
X449Y208D02*
X458Y208D01*
X497Y208D02*
X506Y208D01*
X697Y208D02*
X706Y208D01*
X745Y208D02*
X754Y208D01*
X945Y208D02*
X955Y208D01*
X0Y207D02*
X9Y207D01*
X200Y207D02*
X209Y207D01*
X249Y207D02*
X258Y207D01*
X449Y207D02*
X458Y207D01*
X497Y207D02*
X506Y207D01*
X697Y207D02*
X706Y207D01*
X745Y207D02*
X754Y207D01*
X945Y207D02*
X955Y207D01*
X0Y206D02*
X9Y206D01*
X200Y206D02*
X209Y206D01*
X249Y206D02*
X258Y206D01*
X449Y206D02*
X458Y206D01*
X497Y206D02*
X506Y206D01*
X697Y206D02*
X706Y206D01*
X745Y206D02*
X754Y206D01*
X945Y206D02*
X955Y206D01*
X0Y205D02*
X9Y205D01*
X200Y205D02*
X209Y205D01*
X249Y205D02*
X258Y205D01*
X449Y205D02*
X458Y205D01*
X497Y205D02*
X506Y205D01*
X697Y205D02*
X706Y205D01*
X745Y205D02*
X754Y205D01*
X945Y205D02*
X955Y205D01*
X0Y204D02*
X9Y204D01*
X200Y204D02*
X209Y204D01*
X249Y204D02*
X258Y204D01*
X449Y204D02*
X458Y204D01*
X497Y204D02*
X506Y204D01*
X697Y204D02*
X706Y204D01*
X745Y204D02*
X754Y204D01*
X945Y204D02*
X955Y204D01*
X0Y203D02*
X9Y203D01*
X200Y203D02*
X209Y203D01*
X249Y203D02*
X258Y203D01*
X449Y203D02*
X458Y203D01*
X497Y203D02*
X506Y203D01*
X697Y203D02*
X706Y203D01*
X745Y203D02*
X754Y203D01*
X945Y203D02*
X955Y203D01*
X0Y202D02*
X9Y202D01*
X200Y202D02*
X209Y202D01*
X249Y202D02*
X258Y202D01*
X449Y202D02*
X458Y202D01*
X497Y202D02*
X506Y202D01*
X697Y202D02*
X706Y202D01*
X745Y202D02*
X754Y202D01*
X945Y202D02*
X955Y202D01*
X0Y201D02*
X9Y201D01*
X200Y201D02*
X209Y201D01*
X249Y201D02*
X258Y201D01*
X449Y201D02*
X458Y201D01*
X497Y201D02*
X506Y201D01*
X697Y201D02*
X706Y201D01*
X745Y201D02*
X755Y201D01*
X945Y201D02*
X955Y201D01*
X0Y200D02*
X9Y200D01*
X200Y200D02*
X209Y200D01*
X249Y200D02*
X258Y200D01*
X449Y200D02*
X458Y200D01*
X498Y200D02*
X507Y200D01*
X697Y200D02*
X706Y200D01*
X746Y200D02*
X755Y200D01*
X945Y200D02*
X955Y200D01*
X0Y199D02*
X9Y199D01*
X200Y199D02*
X209Y199D01*
X249Y199D02*
X258Y199D01*
X449Y199D02*
X458Y199D01*
X498Y199D02*
X507Y199D01*
X697Y199D02*
X706Y199D01*
X746Y199D02*
X755Y199D01*
X945Y199D02*
X955Y199D01*
X0Y198D02*
X10Y198D01*
X200Y198D02*
X209Y198D01*
X249Y198D02*
X258Y198D01*
X449Y198D02*
X458Y198D01*
X498Y198D02*
X507Y198D01*
X697Y198D02*
X706Y198D01*
X746Y198D02*
X755Y198D01*
X945Y198D02*
X955Y198D01*
X0Y197D02*
X10Y197D01*
X200Y197D02*
X209Y197D01*
X250Y197D02*
X259Y197D01*
X449Y197D02*
X458Y197D01*
X498Y197D02*
X507Y197D01*
X697Y197D02*
X706Y197D01*
X746Y197D02*
X755Y197D01*
X945Y197D02*
X955Y197D01*
X0Y196D02*
X10Y196D01*
X200Y196D02*
X209Y196D01*
X250Y196D02*
X259Y196D01*
X448Y196D02*
X457Y196D01*
X498Y196D02*
X507Y196D01*
X697Y196D02*
X706Y196D01*
X746Y196D02*
X755Y196D01*
X945Y196D02*
X955Y196D01*
X0Y195D02*
X10Y195D01*
X199Y195D02*
X208Y195D01*
X250Y195D02*
X259Y195D01*
X448Y195D02*
X457Y195D01*
X498Y195D02*
X507Y195D01*
X697Y195D02*
X706Y195D01*
X746Y195D02*
X755Y195D01*
X945Y195D02*
X955Y195D01*
X0Y194D02*
X10Y194D01*
X199Y194D02*
X208Y194D01*
X250Y194D02*
X259Y194D01*
X448Y194D02*
X457Y194D01*
X498Y194D02*
X507Y194D01*
X696Y194D02*
X705Y194D01*
X746Y194D02*
X755Y194D01*
X944Y194D02*
X955Y194D01*
X0Y193D02*
X10Y193D01*
X199Y193D02*
X208Y193D01*
X250Y193D02*
X259Y193D01*
X448Y193D02*
X457Y193D01*
X498Y193D02*
X507Y193D01*
X696Y193D02*
X705Y193D01*
X746Y193D02*
X755Y193D01*
X944Y193D02*
X955Y193D01*
X0Y192D02*
X10Y192D01*
X199Y192D02*
X208Y192D01*
X250Y192D02*
X259Y192D01*
X448Y192D02*
X457Y192D01*
X498Y192D02*
X507Y192D01*
X696Y192D02*
X705Y192D01*
X746Y192D02*
X755Y192D01*
X944Y192D02*
X955Y192D01*
X0Y191D02*
X10Y191D01*
X199Y191D02*
X208Y191D01*
X250Y191D02*
X259Y191D01*
X448Y191D02*
X457Y191D01*
X498Y191D02*
X507Y191D01*
X696Y191D02*
X705Y191D01*
X746Y191D02*
X756Y191D01*
X944Y191D02*
X955Y191D01*
X0Y190D02*
X11Y190D01*
X199Y190D02*
X208Y190D01*
X250Y190D02*
X259Y190D01*
X448Y190D02*
X457Y190D01*
X499Y190D02*
X508Y190D01*
X696Y190D02*
X705Y190D01*
X747Y190D02*
X756Y190D01*
X944Y190D02*
X955Y190D01*
X0Y189D02*
X11Y189D01*
X199Y189D02*
X208Y189D01*
X251Y189D02*
X260Y189D01*
X447Y189D02*
X457Y189D01*
X499Y189D02*
X508Y189D01*
X696Y189D02*
X705Y189D01*
X747Y189D02*
X756Y189D01*
X944Y189D02*
X955Y189D01*
X0Y188D02*
X11Y188D01*
X198Y188D02*
X207Y188D01*
X251Y188D02*
X260Y188D01*
X447Y188D02*
X456Y188D01*
X499Y188D02*
X508Y188D01*
X695Y188D02*
X705Y188D01*
X747Y188D02*
X756Y188D01*
X944Y188D02*
X955Y188D01*
X0Y187D02*
X11Y187D01*
X198Y187D02*
X207Y187D01*
X251Y187D02*
X260Y187D01*
X447Y187D02*
X456Y187D01*
X499Y187D02*
X508Y187D01*
X695Y187D02*
X704Y187D01*
X747Y187D02*
X756Y187D01*
X943Y187D02*
X955Y187D01*
X0Y186D02*
X11Y186D01*
X198Y186D02*
X207Y186D01*
X251Y186D02*
X260Y186D01*
X447Y186D02*
X456Y186D01*
X499Y186D02*
X508Y186D01*
X695Y186D02*
X704Y186D01*
X747Y186D02*
X756Y186D01*
X943Y186D02*
X955Y186D01*
X0Y185D02*
X12Y185D01*
X198Y185D02*
X207Y185D01*
X251Y185D02*
X260Y185D01*
X447Y185D02*
X456Y185D01*
X499Y185D02*
X509Y185D01*
X695Y185D02*
X704Y185D01*
X748Y185D02*
X757Y185D01*
X943Y185D02*
X955Y185D01*
X0Y184D02*
X12Y184D01*
X198Y184D02*
X207Y184D01*
X252Y184D02*
X261Y184D01*
X447Y184D02*
X456Y184D01*
X500Y184D02*
X509Y184D01*
X695Y184D02*
X704Y184D01*
X748Y184D02*
X757Y184D01*
X943Y184D02*
X955Y184D01*
X0Y183D02*
X12Y183D01*
X198Y183D02*
X206Y183D01*
X252Y183D02*
X261Y183D01*
X447Y183D02*
X455Y183D01*
X500Y183D02*
X509Y183D01*
X695Y183D02*
X704Y183D01*
X748Y183D02*
X757Y183D01*
X943Y183D02*
X955Y183D01*
X0Y182D02*
X12Y182D01*
X198Y182D02*
X206Y182D01*
X252Y182D02*
X261Y182D01*
X447Y182D02*
X455Y182D01*
X500Y182D02*
X509Y182D01*
X695Y182D02*
X703Y182D01*
X748Y182D02*
X757Y182D01*
X943Y182D02*
X955Y182D01*
X0Y181D02*
X13Y181D01*
X198Y181D02*
X206Y181D01*
X252Y181D02*
X261Y181D01*
X447Y181D02*
X455Y181D01*
X500Y181D02*
X510Y181D01*
X695Y181D02*
X703Y181D01*
X748Y181D02*
X758Y181D01*
X943Y181D02*
X955Y181D01*
X0Y180D02*
X13Y180D01*
X198Y180D02*
X206Y180D01*
X252Y180D02*
X262Y180D01*
X447Y180D02*
X455Y180D01*
X501Y180D02*
X510Y180D01*
X695Y180D02*
X703Y180D01*
X749Y180D02*
X758Y180D01*
X943Y180D02*
X955Y180D01*
X0Y179D02*
X13Y179D01*
X198Y179D02*
X205Y179D01*
X253Y179D02*
X262Y179D01*
X447Y179D02*
X454Y179D01*
X501Y179D02*
X510Y179D01*
X695Y179D02*
X703Y179D01*
X749Y179D02*
X758Y179D01*
X943Y179D02*
X955Y179D01*
X0Y178D02*
X13Y178D01*
X198Y178D02*
X205Y178D01*
X253Y178D02*
X262Y178D01*
X447Y178D02*
X454Y178D01*
X501Y178D02*
X510Y178D01*
X695Y178D02*
X702Y178D01*
X749Y178D02*
X759Y178D01*
X943Y178D02*
X955Y178D01*
X0Y177D02*
X14Y177D01*
X198Y177D02*
X205Y177D01*
X253Y177D02*
X263Y177D01*
X447Y177D02*
X454Y177D01*
X502Y177D02*
X511Y177D01*
X695Y177D02*
X702Y177D01*
X750Y177D02*
X759Y177D01*
X943Y177D02*
X955Y177D01*
X0Y176D02*
X14Y176D01*
X198Y176D02*
X205Y176D01*
X254Y176D02*
X263Y176D01*
X447Y176D02*
X453Y176D01*
X502Y176D02*
X511Y176D01*
X695Y176D02*
X702Y176D01*
X750Y176D02*
X759Y176D01*
X943Y176D02*
X955Y176D01*
X0Y175D02*
X14Y175D01*
X198Y175D02*
X204Y175D01*
X254Y175D02*
X263Y175D01*
X447Y175D02*
X453Y175D01*
X502Y175D02*
X512Y175D01*
X695Y175D02*
X701Y175D01*
X750Y175D02*
X760Y175D01*
X943Y175D02*
X955Y175D01*
X0Y174D02*
X15Y174D01*
X198Y174D02*
X204Y174D01*
X254Y174D02*
X264Y174D01*
X447Y174D02*
X453Y174D01*
X502Y174D02*
X512Y174D01*
X695Y174D02*
X701Y174D01*
X750Y174D02*
X760Y174D01*
X943Y174D02*
X955Y174D01*
X0Y173D02*
X15Y173D01*
X198Y173D02*
X204Y173D01*
X255Y173D02*
X264Y173D01*
X447Y173D02*
X453Y173D01*
X503Y173D02*
X512Y173D01*
X695Y173D02*
X701Y173D01*
X751Y173D02*
X760Y173D01*
X943Y173D02*
X955Y173D01*
X0Y172D02*
X16Y172D01*
X198Y172D02*
X203Y172D01*
X255Y172D02*
X264Y172D01*
X447Y172D02*
X452Y172D01*
X503Y172D02*
X513Y172D01*
X695Y172D02*
X700Y172D01*
X751Y172D02*
X761Y172D01*
X943Y172D02*
X955Y172D01*
X0Y171D02*
X16Y171D01*
X198Y171D02*
X203Y171D01*
X255Y171D02*
X265Y171D01*
X447Y171D02*
X452Y171D01*
X503Y171D02*
X513Y171D01*
X695Y171D02*
X700Y171D01*
X752Y171D02*
X761Y171D01*
X943Y171D02*
X955Y171D01*
X0Y170D02*
X16Y170D01*
X198Y170D02*
X203Y170D01*
X256Y170D02*
X265Y170D01*
X447Y170D02*
X451Y170D01*
X504Y170D02*
X513Y170D01*
X695Y170D02*
X700Y170D01*
X752Y170D02*
X761Y170D01*
X943Y170D02*
X955Y170D01*
X0Y169D02*
X17Y169D01*
X198Y169D02*
X202Y169D01*
X256Y169D02*
X266Y169D01*
X447Y169D02*
X451Y169D01*
X504Y169D02*
X514Y169D01*
X695Y169D02*
X699Y169D01*
X752Y169D02*
X762Y169D01*
X943Y169D02*
X955Y169D01*
X0Y168D02*
X17Y168D01*
X198Y168D02*
X202Y168D01*
X256Y168D02*
X266Y168D01*
X447Y168D02*
X451Y168D01*
X505Y168D02*
X514Y168D01*
X695Y168D02*
X699Y168D01*
X753Y168D02*
X762Y168D01*
X943Y168D02*
X955Y168D01*
X0Y167D02*
X18Y167D01*
X198Y167D02*
X201Y167D01*
X257Y167D02*
X267Y167D01*
X447Y167D02*
X450Y167D01*
X505Y167D02*
X515Y167D01*
X695Y167D02*
X698Y167D01*
X753Y167D02*
X763Y167D01*
X943Y167D02*
X955Y167D01*
X0Y166D02*
X18Y166D01*
X198Y166D02*
X201Y166D01*
X257Y166D02*
X267Y166D01*
X447Y166D02*
X450Y166D01*
X505Y166D02*
X515Y166D01*
X695Y166D02*
X698Y166D01*
X753Y166D02*
X763Y166D01*
X943Y166D02*
X946Y166D01*
X948Y166D02*
X955Y166D01*
X0Y165D02*
X7Y165D01*
X9Y165D02*
X19Y165D01*
X198Y165D02*
X201Y165D01*
X258Y165D02*
X268Y165D01*
X447Y165D02*
X449Y165D01*
X506Y165D02*
X516Y165D01*
X695Y165D02*
X698Y165D01*
X754Y165D02*
X764Y165D01*
X943Y165D02*
X946Y165D01*
X948Y165D02*
X955Y165D01*
X0Y164D02*
X7Y164D01*
X9Y164D02*
X19Y164D01*
X197Y164D02*
X200Y164D01*
X258Y164D02*
X268Y164D01*
X446Y164D02*
X449Y164D01*
X506Y164D02*
X516Y164D01*
X695Y164D02*
X697Y164D01*
X754Y164D02*
X764Y164D01*
X943Y164D02*
X945Y164D01*
X948Y164D02*
X955Y164D01*
X0Y163D02*
X7Y163D01*
X10Y163D02*
X20Y163D01*
X190Y163D02*
X200Y163D01*
X259Y163D02*
X268Y163D01*
X439Y163D02*
X449Y163D01*
X507Y163D02*
X517Y163D01*
X687Y163D02*
X697Y163D01*
X755Y163D02*
X765Y163D01*
X935Y163D02*
X945Y163D01*
X948Y163D02*
X955Y163D01*
X0Y162D02*
X7Y162D01*
X10Y162D02*
X20Y162D01*
X189Y162D02*
X199Y162D01*
X259Y162D02*
X269Y162D01*
X438Y162D02*
X448Y162D01*
X507Y162D02*
X517Y162D01*
X686Y162D02*
X696Y162D01*
X755Y162D02*
X765Y162D01*
X934Y162D02*
X944Y162D01*
X948Y162D02*
X955Y162D01*
X0Y161D02*
X7Y161D01*
X11Y161D02*
X21Y161D01*
X189Y161D02*
X199Y161D01*
X260Y161D02*
X269Y161D01*
X438Y161D02*
X448Y161D01*
X508Y161D02*
X518Y161D01*
X686Y161D02*
X696Y161D01*
X756Y161D02*
X766Y161D01*
X934Y161D02*
X944Y161D01*
X948Y161D02*
X955Y161D01*
X0Y160D02*
X7Y160D01*
X11Y160D02*
X21Y160D01*
X188Y160D02*
X198Y160D01*
X260Y160D02*
X270Y160D01*
X437Y160D02*
X447Y160D01*
X508Y160D02*
X518Y160D01*
X685Y160D02*
X695Y160D01*
X756Y160D02*
X766Y160D01*
X933Y160D02*
X943Y160D01*
X948Y160D02*
X955Y160D01*
X0Y159D02*
X7Y159D01*
X12Y159D02*
X22Y159D01*
X188Y159D02*
X198Y159D01*
X261Y159D02*
X271Y159D01*
X436Y159D02*
X447Y159D01*
X509Y159D02*
X519Y159D01*
X685Y159D02*
X695Y159D01*
X757Y159D02*
X767Y159D01*
X933Y159D02*
X943Y159D01*
X948Y159D02*
X955Y159D01*
X0Y158D02*
X7Y158D01*
X12Y158D02*
X22Y158D01*
X187Y158D02*
X197Y158D01*
X261Y158D02*
X271Y158D01*
X436Y158D02*
X446Y158D01*
X509Y158D02*
X519Y158D01*
X684Y158D02*
X694Y158D01*
X757Y158D02*
X768Y158D01*
X932Y158D02*
X942Y158D01*
X948Y158D02*
X955Y158D01*
X0Y157D02*
X7Y157D01*
X13Y157D02*
X23Y157D01*
X186Y157D02*
X197Y157D01*
X261Y157D02*
X272Y157D01*
X435Y157D02*
X446Y157D01*
X510Y157D02*
X520Y157D01*
X683Y157D02*
X694Y157D01*
X758Y157D02*
X768Y157D01*
X931Y157D02*
X942Y157D01*
X948Y157D02*
X955Y157D01*
X0Y156D02*
X7Y156D01*
X13Y156D02*
X24Y156D01*
X138Y156D02*
X172Y156D01*
X186Y156D02*
X196Y156D01*
X262Y156D02*
X273Y156D01*
X386Y156D02*
X421Y156D01*
X435Y156D02*
X445Y156D01*
X510Y156D02*
X521Y156D01*
X635Y156D02*
X669Y156D01*
X683Y156D02*
X693Y156D01*
X758Y156D02*
X769Y156D01*
X883Y156D02*
X917Y156D01*
X931Y156D02*
X941Y156D01*
X948Y156D02*
X955Y156D01*
X0Y155D02*
X7Y155D01*
X14Y155D02*
X24Y155D01*
X136Y155D02*
X173Y155D01*
X185Y155D02*
X196Y155D01*
X263Y155D02*
X273Y155D01*
X385Y155D02*
X422Y155D01*
X434Y155D02*
X445Y155D01*
X511Y155D02*
X521Y155D01*
X633Y155D02*
X670Y155D01*
X682Y155D02*
X693Y155D01*
X759Y155D02*
X769Y155D01*
X881Y155D02*
X918Y155D01*
X930Y155D02*
X941Y155D01*
X948Y155D02*
X955Y155D01*
X0Y154D02*
X7Y154D01*
X14Y154D02*
X25Y154D01*
X135Y154D02*
X174Y154D01*
X184Y154D02*
X195Y154D01*
X263Y154D02*
X274Y154D01*
X384Y154D02*
X423Y154D01*
X433Y154D02*
X444Y154D01*
X511Y154D02*
X522Y154D01*
X633Y154D02*
X671Y154D01*
X682Y154D02*
X692Y154D01*
X759Y154D02*
X770Y154D01*
X881Y154D02*
X919Y154D01*
X930Y154D02*
X940Y154D01*
X948Y154D02*
X955Y154D01*
X0Y153D02*
X7Y153D01*
X15Y153D02*
X25Y153D01*
X135Y153D02*
X174Y153D01*
X184Y153D02*
X194Y153D01*
X264Y153D02*
X274Y153D01*
X384Y153D02*
X423Y153D01*
X433Y153D02*
X443Y153D01*
X512Y153D02*
X523Y153D01*
X632Y153D02*
X671Y153D01*
X681Y153D02*
X691Y153D01*
X760Y153D02*
X771Y153D01*
X880Y153D02*
X919Y153D01*
X929Y153D02*
X940Y153D01*
X948Y153D02*
X955Y153D01*
X0Y152D02*
X7Y152D01*
X16Y152D02*
X26Y152D01*
X135Y152D02*
X174Y152D01*
X183Y152D02*
X194Y152D01*
X264Y152D02*
X275Y152D01*
X384Y152D02*
X423Y152D01*
X432Y152D02*
X443Y152D01*
X513Y152D02*
X523Y152D01*
X632Y152D02*
X672Y152D01*
X680Y152D02*
X691Y152D01*
X761Y152D02*
X771Y152D01*
X880Y152D02*
X920Y152D01*
X928Y152D02*
X939Y152D01*
X948Y152D02*
X955Y152D01*
X0Y151D02*
X7Y151D01*
X16Y151D02*
X27Y151D01*
X135Y151D02*
X175Y151D01*
X182Y151D02*
X193Y151D01*
X265Y151D02*
X276Y151D01*
X384Y151D02*
X423Y151D01*
X431Y151D02*
X442Y151D01*
X513Y151D02*
X524Y151D01*
X632Y151D02*
X672Y151D01*
X679Y151D02*
X690Y151D01*
X761Y151D02*
X772Y151D01*
X880Y151D02*
X920Y151D01*
X927Y151D02*
X938Y151D01*
X948Y151D02*
X955Y151D01*
X0Y150D02*
X7Y150D01*
X17Y150D02*
X28Y150D01*
X135Y150D02*
X174Y150D01*
X182Y150D02*
X193Y150D01*
X266Y150D02*
X277Y150D01*
X384Y150D02*
X423Y150D01*
X430Y150D02*
X441Y150D01*
X514Y150D02*
X525Y150D01*
X632Y150D02*
X671Y150D01*
X679Y150D02*
X690Y150D01*
X762Y150D02*
X773Y150D01*
X880Y150D02*
X919Y150D01*
X927Y150D02*
X938Y150D01*
X948Y150D02*
X955Y150D01*
X0Y149D02*
X7Y149D01*
X17Y149D02*
X28Y149D01*
X135Y149D02*
X174Y149D01*
X181Y149D02*
X192Y149D01*
X266Y149D02*
X277Y149D01*
X384Y149D02*
X423Y149D01*
X430Y149D02*
X441Y149D01*
X514Y149D02*
X526Y149D01*
X632Y149D02*
X671Y149D01*
X678Y149D02*
X689Y149D01*
X762Y149D02*
X774Y149D01*
X880Y149D02*
X919Y149D01*
X926Y149D02*
X937Y149D01*
X948Y149D02*
X955Y149D01*
X0Y148D02*
X7Y148D01*
X18Y148D02*
X29Y148D01*
X136Y148D02*
X173Y148D01*
X180Y148D02*
X191Y148D01*
X267Y148D02*
X278Y148D01*
X385Y148D02*
X422Y148D01*
X429Y148D02*
X440Y148D01*
X515Y148D02*
X526Y148D01*
X633Y148D02*
X671Y148D01*
X677Y148D02*
X688Y148D01*
X763Y148D02*
X774Y148D01*
X881Y148D02*
X919Y148D01*
X925Y148D02*
X937Y148D01*
X948Y148D02*
X955Y148D01*
X0Y147D02*
X7Y147D01*
X19Y147D02*
X30Y147D01*
X137Y147D02*
X172Y147D01*
X179Y147D02*
X191Y147D01*
X268Y147D02*
X279Y147D01*
X386Y147D02*
X421Y147D01*
X428Y147D02*
X440Y147D01*
X516Y147D02*
X527Y147D01*
X634Y147D02*
X670Y147D01*
X676Y147D02*
X688Y147D01*
X764Y147D02*
X775Y147D01*
X882Y147D02*
X918Y147D01*
X924Y147D02*
X936Y147D01*
X948Y147D02*
X955Y147D01*
X0Y146D02*
X7Y146D01*
X19Y146D02*
X31Y146D01*
X139Y146D02*
X170Y146D01*
X179Y146D02*
X190Y146D01*
X268Y146D02*
X280Y146D01*
X388Y146D02*
X419Y146D01*
X427Y146D02*
X439Y146D01*
X516Y146D02*
X528Y146D01*
X636Y146D02*
X667Y146D01*
X676Y146D02*
X687Y146D01*
X764Y146D02*
X776Y146D01*
X884Y146D02*
X915Y146D01*
X924Y146D02*
X935Y146D01*
X948Y146D02*
X955Y146D01*
X0Y145D02*
X7Y145D01*
X20Y145D02*
X32Y145D01*
X178Y145D02*
X189Y145D01*
X269Y145D02*
X281Y145D01*
X427Y145D02*
X438Y145D01*
X517Y145D02*
X529Y145D01*
X675Y145D02*
X686Y145D01*
X765Y145D02*
X777Y145D01*
X923Y145D02*
X934Y145D01*
X948Y145D02*
X955Y145D01*
X0Y144D02*
X7Y144D01*
X21Y144D02*
X33Y144D01*
X177Y144D02*
X188Y144D01*
X270Y144D02*
X281Y144D01*
X426Y144D02*
X437Y144D01*
X518Y144D02*
X530Y144D01*
X674Y144D02*
X686Y144D01*
X766Y144D02*
X778Y144D01*
X922Y144D02*
X934Y144D01*
X948Y144D02*
X955Y144D01*
X0Y143D02*
X7Y143D01*
X22Y143D02*
X33Y143D01*
X176Y143D02*
X188Y143D01*
X270Y143D02*
X282Y143D01*
X425Y143D02*
X437Y143D01*
X519Y143D02*
X531Y143D01*
X673Y143D02*
X685Y143D01*
X767Y143D02*
X779Y143D01*
X921Y143D02*
X933Y143D01*
X948Y143D02*
X955Y143D01*
X0Y142D02*
X7Y142D01*
X22Y142D02*
X34Y142D01*
X175Y142D02*
X187Y142D01*
X271Y142D02*
X283Y142D01*
X424Y142D02*
X436Y142D01*
X519Y142D02*
X531Y142D01*
X672Y142D02*
X684Y142D01*
X767Y142D02*
X780Y142D01*
X920Y142D02*
X932Y142D01*
X948Y142D02*
X955Y142D01*
X0Y141D02*
X7Y141D01*
X23Y141D02*
X35Y141D01*
X174Y141D02*
X186Y141D01*
X272Y141D02*
X284Y141D01*
X423Y141D02*
X435Y141D01*
X520Y141D02*
X532Y141D01*
X671Y141D02*
X683Y141D01*
X768Y141D02*
X780Y141D01*
X919Y141D02*
X931Y141D01*
X948Y141D02*
X955Y141D01*
X0Y140D02*
X7Y140D01*
X24Y140D02*
X36Y140D01*
X173Y140D02*
X185Y140D01*
X273Y140D02*
X285Y140D01*
X422Y140D02*
X434Y140D01*
X521Y140D02*
X533Y140D01*
X670Y140D02*
X683Y140D01*
X769Y140D02*
X781Y140D01*
X918Y140D02*
X931Y140D01*
X948Y140D02*
X955Y140D01*
X0Y139D02*
X7Y139D01*
X25Y139D02*
X37Y139D01*
X172Y139D02*
X185Y139D01*
X274Y139D02*
X286Y139D01*
X421Y139D02*
X434Y139D01*
X522Y139D02*
X534Y139D01*
X669Y139D02*
X682Y139D01*
X770Y139D02*
X782Y139D01*
X917Y139D02*
X930Y139D01*
X948Y139D02*
X955Y139D01*
X0Y138D02*
X7Y138D01*
X26Y138D02*
X38Y138D01*
X171Y138D02*
X184Y138D01*
X274Y138D02*
X287Y138D01*
X420Y138D02*
X433Y138D01*
X523Y138D02*
X535Y138D01*
X668Y138D02*
X681Y138D01*
X771Y138D02*
X783Y138D01*
X916Y138D02*
X929Y138D01*
X948Y138D02*
X955Y138D01*
X0Y137D02*
X7Y137D01*
X26Y137D02*
X39Y137D01*
X170Y137D02*
X183Y137D01*
X275Y137D02*
X288Y137D01*
X419Y137D02*
X432Y137D01*
X524Y137D02*
X536Y137D01*
X667Y137D02*
X680Y137D01*
X772Y137D02*
X784Y137D01*
X915Y137D02*
X928Y137D01*
X948Y137D02*
X955Y137D01*
X0Y136D02*
X7Y136D01*
X27Y136D02*
X40Y136D01*
X169Y136D02*
X182Y136D01*
X276Y136D02*
X289Y136D01*
X418Y136D02*
X431Y136D01*
X524Y136D02*
X538Y136D01*
X666Y136D02*
X679Y136D01*
X773Y136D02*
X786Y136D01*
X914Y136D02*
X927Y136D01*
X948Y136D02*
X955Y136D01*
X0Y135D02*
X7Y135D01*
X28Y135D02*
X42Y135D01*
X168Y135D02*
X181Y135D01*
X277Y135D02*
X290Y135D01*
X417Y135D02*
X430Y135D01*
X525Y135D02*
X539Y135D01*
X665Y135D02*
X678Y135D01*
X773Y135D02*
X787Y135D01*
X913Y135D02*
X926Y135D01*
X948Y135D02*
X955Y135D01*
X0Y134D02*
X7Y134D01*
X29Y134D02*
X43Y134D01*
X167Y134D02*
X180Y134D01*
X278Y134D02*
X292Y134D01*
X416Y134D02*
X429Y134D01*
X526Y134D02*
X540Y134D01*
X664Y134D02*
X677Y134D01*
X774Y134D02*
X788Y134D01*
X912Y134D02*
X925Y134D01*
X948Y134D02*
X955Y134D01*
X0Y133D02*
X7Y133D01*
X30Y133D02*
X44Y133D01*
X166Y133D02*
X179Y133D01*
X279Y133D02*
X293Y133D01*
X414Y133D02*
X428Y133D01*
X527Y133D02*
X541Y133D01*
X663Y133D02*
X676Y133D01*
X775Y133D02*
X789Y133D01*
X911Y133D02*
X924Y133D01*
X948Y133D02*
X955Y133D01*
X0Y132D02*
X7Y132D01*
X31Y132D02*
X45Y132D01*
X164Y132D02*
X178Y132D01*
X280Y132D02*
X294Y132D01*
X413Y132D02*
X427Y132D01*
X528Y132D02*
X542Y132D01*
X661Y132D02*
X675Y132D01*
X776Y132D02*
X790Y132D01*
X909Y132D02*
X923Y132D01*
X948Y132D02*
X955Y132D01*
X0Y131D02*
X7Y131D01*
X32Y131D02*
X46Y131D01*
X163Y131D02*
X177Y131D01*
X281Y131D02*
X295Y131D01*
X412Y131D02*
X426Y131D01*
X529Y131D02*
X543Y131D01*
X660Y131D02*
X674Y131D01*
X777Y131D02*
X792Y131D01*
X908Y131D02*
X922Y131D01*
X948Y131D02*
X955Y131D01*
X0Y130D02*
X7Y130D01*
X33Y130D02*
X48Y130D01*
X162Y130D02*
X176Y130D01*
X282Y130D02*
X297Y130D01*
X410Y130D02*
X425Y130D01*
X530Y130D02*
X545Y130D01*
X659Y130D02*
X673Y130D01*
X778Y130D02*
X793Y130D01*
X907Y130D02*
X921Y130D01*
X948Y130D02*
X955Y130D01*
X0Y129D02*
X7Y129D01*
X34Y129D02*
X49Y129D01*
X160Y129D02*
X175Y129D01*
X283Y129D02*
X298Y129D01*
X409Y129D02*
X424Y129D01*
X531Y129D02*
X546Y129D01*
X657Y129D02*
X672Y129D01*
X779Y129D02*
X794Y129D01*
X905Y129D02*
X920Y129D01*
X948Y129D02*
X955Y129D01*
X0Y128D02*
X7Y128D01*
X35Y128D02*
X50Y128D01*
X159Y128D02*
X174Y128D01*
X284Y128D02*
X299Y128D01*
X408Y128D02*
X423Y128D01*
X533Y128D02*
X547Y128D01*
X656Y128D02*
X671Y128D01*
X781Y128D02*
X796Y128D01*
X904Y128D02*
X919Y128D01*
X948Y128D02*
X955Y128D01*
X0Y127D02*
X7Y127D01*
X37Y127D02*
X52Y127D01*
X157Y127D02*
X173Y127D01*
X285Y127D02*
X301Y127D01*
X406Y127D02*
X422Y127D01*
X534Y127D02*
X549Y127D01*
X655Y127D02*
X670Y127D01*
X782Y127D02*
X797Y127D01*
X903Y127D02*
X918Y127D01*
X948Y127D02*
X955Y127D01*
X0Y126D02*
X7Y126D01*
X38Y126D02*
X53Y126D01*
X156Y126D02*
X172Y126D01*
X287Y126D02*
X302Y126D01*
X405Y126D02*
X421Y126D01*
X535Y126D02*
X551Y126D01*
X653Y126D02*
X669Y126D01*
X783Y126D02*
X799Y126D01*
X901Y126D02*
X917Y126D01*
X948Y126D02*
X955Y126D01*
X0Y125D02*
X7Y125D01*
X39Y125D02*
X55Y125D01*
X154Y125D02*
X170Y125D01*
X288Y125D02*
X304Y125D01*
X403Y125D02*
X419Y125D01*
X536Y125D02*
X552Y125D01*
X651Y125D02*
X668Y125D01*
X784Y125D02*
X800Y125D01*
X899Y125D02*
X916Y125D01*
X948Y125D02*
X955Y125D01*
X0Y124D02*
X7Y124D01*
X40Y124D02*
X57Y124D01*
X153Y124D02*
X169Y124D01*
X289Y124D02*
X306Y124D01*
X401Y124D02*
X418Y124D01*
X537Y124D02*
X554Y124D01*
X650Y124D02*
X666Y124D01*
X785Y124D02*
X802Y124D01*
X898Y124D02*
X914Y124D01*
X948Y124D02*
X955Y124D01*
X0Y123D02*
X7Y123D01*
X42Y123D02*
X58Y123D01*
X151Y123D02*
X168Y123D01*
X290Y123D02*
X307Y123D01*
X400Y123D02*
X417Y123D01*
X539Y123D02*
X556Y123D01*
X648Y123D02*
X665Y123D01*
X787Y123D02*
X804Y123D01*
X896Y123D02*
X913Y123D01*
X948Y123D02*
X955Y123D01*
X0Y122D02*
X7Y122D01*
X43Y122D02*
X60Y122D01*
X149Y122D02*
X166Y122D01*
X292Y122D02*
X309Y122D01*
X398Y122D02*
X415Y122D01*
X540Y122D02*
X557Y122D01*
X646Y122D02*
X663Y122D01*
X788Y122D02*
X806Y122D01*
X894Y122D02*
X912Y122D01*
X948Y122D02*
X955Y122D01*
X0Y121D02*
X7Y121D01*
X44Y121D02*
X62Y121D01*
X147Y121D02*
X165Y121D01*
X293Y121D02*
X311Y121D01*
X396Y121D02*
X414Y121D01*
X541Y121D02*
X560Y121D01*
X644Y121D02*
X662Y121D01*
X789Y121D02*
X808Y121D01*
X892Y121D02*
X910Y121D01*
X948Y121D02*
X955Y121D01*
X0Y120D02*
X7Y120D01*
X46Y120D02*
X64Y120D01*
X145Y120D02*
X164Y120D01*
X294Y120D02*
X313Y120D01*
X394Y120D02*
X413Y120D01*
X543Y120D02*
X562Y120D01*
X642Y120D02*
X661Y120D01*
X791Y120D02*
X810Y120D01*
X890Y120D02*
X909Y120D01*
X948Y120D02*
X955Y120D01*
X0Y119D02*
X7Y119D01*
X47Y119D02*
X67Y119D01*
X143Y119D02*
X162Y119D01*
X296Y119D02*
X315Y119D01*
X392Y119D02*
X411Y119D01*
X544Y119D02*
X564Y119D01*
X640Y119D02*
X659Y119D01*
X792Y119D02*
X812Y119D01*
X888Y119D02*
X907Y119D01*
X948Y119D02*
X955Y119D01*
X0Y118D02*
X7Y118D01*
X49Y118D02*
X69Y118D01*
X140Y118D02*
X161Y118D01*
X298Y118D02*
X318Y118D01*
X389Y118D02*
X409Y118D01*
X546Y118D02*
X566Y118D01*
X637Y118D02*
X658Y118D01*
X794Y118D02*
X814Y118D01*
X885Y118D02*
X906Y118D01*
X948Y118D02*
X955Y118D01*
X0Y117D02*
X7Y117D01*
X50Y117D02*
X72Y117D01*
X137Y117D02*
X159Y117D01*
X299Y117D02*
X321Y117D01*
X386Y117D02*
X408Y117D01*
X547Y117D02*
X569Y117D01*
X635Y117D02*
X656Y117D01*
X796Y117D02*
X817Y117D01*
X883Y117D02*
X904Y117D01*
X948Y117D02*
X955Y117D01*
X0Y116D02*
X7Y116D01*
X52Y116D02*
X75Y116D01*
X135Y116D02*
X157Y116D01*
X301Y116D02*
X324Y116D01*
X384Y116D02*
X406Y116D01*
X549Y116D02*
X572Y116D01*
X632Y116D02*
X654Y116D01*
X797Y116D02*
X820Y116D01*
X880Y116D02*
X902Y116D01*
X948Y116D02*
X955Y116D01*
X0Y115D02*
X7Y115D01*
X54Y115D02*
X78Y115D01*
X131Y115D02*
X156Y115D01*
X303Y115D02*
X327Y115D01*
X380Y115D02*
X405Y115D01*
X551Y115D02*
X575Y115D01*
X629Y115D02*
X653Y115D01*
X799Y115D02*
X823Y115D01*
X877Y115D02*
X901Y115D01*
X948Y115D02*
X955Y115D01*
X0Y114D02*
X7Y114D01*
X55Y114D02*
X82Y114D01*
X128Y114D02*
X154Y114D01*
X304Y114D02*
X331Y114D01*
X377Y114D02*
X403Y114D01*
X552Y114D02*
X579Y114D01*
X625Y114D02*
X651Y114D01*
X801Y114D02*
X827Y114D01*
X873Y114D02*
X899Y114D01*
X948Y114D02*
X955Y114D01*
X0Y113D02*
X7Y113D01*
X57Y113D02*
X86Y113D01*
X123Y113D02*
X152Y113D01*
X306Y113D02*
X335Y113D01*
X372Y113D02*
X401Y113D01*
X555Y113D02*
X583Y113D01*
X620Y113D02*
X649Y113D01*
X803Y113D02*
X832Y113D01*
X868Y113D02*
X897Y113D01*
X948Y113D02*
X955Y113D01*
X0Y112D02*
X7Y112D01*
X60Y112D02*
X93Y112D01*
X116Y112D02*
X150Y112D01*
X308Y112D02*
X342Y112D01*
X365Y112D02*
X399Y112D01*
X557Y112D02*
X590Y112D01*
X613Y112D02*
X647Y112D01*
X805Y112D02*
X838Y112D01*
X861Y112D02*
X895Y112D01*
X948Y112D02*
X955Y112D01*
X0Y111D02*
X7Y111D01*
X62Y111D02*
X148Y111D01*
X311Y111D02*
X397Y111D01*
X559Y111D02*
X645Y111D01*
X807Y111D02*
X893Y111D01*
X948Y111D02*
X955Y111D01*
X0Y110D02*
X7Y110D01*
X64Y110D02*
X146Y110D01*
X313Y110D02*
X394Y110D01*
X561Y110D02*
X643Y110D01*
X809Y110D02*
X891Y110D01*
X948Y110D02*
X955Y110D01*
X0Y109D02*
X7Y109D01*
X66Y109D02*
X143Y109D01*
X315Y109D02*
X392Y109D01*
X563Y109D02*
X640Y109D01*
X811Y109D02*
X888Y109D01*
X948Y109D02*
X955Y109D01*
X0Y108D02*
X7Y108D01*
X69Y108D02*
X141Y108D01*
X318Y108D02*
X390Y108D01*
X566Y108D02*
X638Y108D01*
X814Y108D02*
X886Y108D01*
X948Y108D02*
X955Y108D01*
X0Y107D02*
X7Y107D01*
X72Y107D02*
X138Y107D01*
X320Y107D02*
X387Y107D01*
X569Y107D02*
X635Y107D01*
X817Y107D02*
X883Y107D01*
X948Y107D02*
X955Y107D01*
X0Y106D02*
X7Y106D01*
X75Y106D02*
X135Y106D01*
X323Y106D02*
X384Y106D01*
X572Y106D02*
X632Y106D01*
X820Y106D02*
X880Y106D01*
X948Y106D02*
X955Y106D01*
X0Y105D02*
X7Y105D01*
X78Y105D02*
X131Y105D01*
X327Y105D02*
X380Y105D01*
X575Y105D02*
X628Y105D01*
X823Y105D02*
X876Y105D01*
X948Y105D02*
X955Y105D01*
X0Y104D02*
X7Y104D01*
X82Y104D02*
X127Y104D01*
X331Y104D02*
X376Y104D01*
X579Y104D02*
X624Y104D01*
X827Y104D02*
X872Y104D01*
X948Y104D02*
X955Y104D01*
X0Y103D02*
X7Y103D01*
X87Y103D02*
X122Y103D01*
X336Y103D02*
X371Y103D01*
X584Y103D02*
X619Y103D01*
X832Y103D02*
X867Y103D01*
X948Y103D02*
X955Y103D01*
X0Y102D02*
X7Y102D01*
X94Y102D02*
X115Y102D01*
X343Y102D02*
X364Y102D01*
X591Y102D02*
X612Y102D01*
X839Y102D02*
X860Y102D01*
X948Y102D02*
X955Y102D01*
X0Y101D02*
X7Y101D01*
X948Y101D02*
X955Y101D01*
X0Y100D02*
X7Y100D01*
X948Y100D02*
X955Y100D01*
X0Y99D02*
X7Y99D01*
X948Y99D02*
X955Y99D01*
X0Y98D02*
X7Y98D01*
X948Y98D02*
X955Y98D01*
X0Y97D02*
X7Y97D01*
X948Y97D02*
X955Y97D01*
X0Y96D02*
X7Y96D01*
X948Y96D02*
X955Y96D01*
X0Y95D02*
X7Y95D01*
X948Y95D02*
X955Y95D01*
X0Y94D02*
X7Y94D01*
X948Y94D02*
X955Y94D01*
X0Y93D02*
X7Y93D01*
X948Y93D02*
X955Y93D01*
X0Y92D02*
X7Y92D01*
X948Y92D02*
X955Y92D01*
X0Y91D02*
X7Y91D01*
X948Y91D02*
X955Y91D01*
X0Y90D02*
X7Y90D01*
X948Y90D02*
X955Y90D01*
X0Y89D02*
X7Y89D01*
X948Y89D02*
X955Y89D01*
X0Y88D02*
X7Y88D01*
X948Y88D02*
X955Y88D01*
X0Y87D02*
X7Y87D01*
X948Y87D02*
X955Y87D01*
X0Y86D02*
X7Y86D01*
X948Y86D02*
X955Y86D01*
X0Y85D02*
X7Y85D01*
X948Y85D02*
X955Y85D01*
X0Y84D02*
X7Y84D01*
X948Y84D02*
X955Y84D01*
X0Y83D02*
X7Y83D01*
X948Y83D02*
X955Y83D01*
X0Y82D02*
X7Y82D01*
X948Y82D02*
X955Y82D01*
X0Y81D02*
X7Y81D01*
X948Y81D02*
X955Y81D01*
X0Y80D02*
X7Y80D01*
X948Y80D02*
X955Y80D01*
X0Y79D02*
X7Y79D01*
X948Y79D02*
X955Y79D01*
X0Y78D02*
X7Y78D01*
X948Y78D02*
X955Y78D01*
X0Y77D02*
X7Y77D01*
X948Y77D02*
X955Y77D01*
X0Y76D02*
X7Y76D01*
X948Y76D02*
X955Y76D01*
X0Y75D02*
X7Y75D01*
X948Y75D02*
X955Y75D01*
X0Y74D02*
X7Y74D01*
X948Y74D02*
X955Y74D01*
X0Y73D02*
X7Y73D01*
X948Y73D02*
X955Y73D01*
X0Y72D02*
X7Y72D01*
X948Y72D02*
X955Y72D01*
X0Y71D02*
X7Y71D01*
X948Y71D02*
X955Y71D01*
X0Y70D02*
X7Y70D01*
X948Y70D02*
X955Y70D01*
X0Y69D02*
X7Y69D01*
X948Y69D02*
X955Y69D01*
X0Y68D02*
X7Y68D01*
X948Y68D02*
X955Y68D01*
X0Y67D02*
X7Y67D01*
X948Y67D02*
X955Y67D01*
X0Y66D02*
X7Y66D01*
X948Y66D02*
X955Y66D01*
X0Y65D02*
X7Y65D01*
X948Y65D02*
X955Y65D01*
X0Y64D02*
X7Y64D01*
X948Y64D02*
X955Y64D01*
X0Y63D02*
X7Y63D01*
X948Y63D02*
X955Y63D01*
X0Y62D02*
X7Y62D01*
X948Y62D02*
X955Y62D01*
X0Y61D02*
X7Y61D01*
X948Y61D02*
X955Y61D01*
X0Y60D02*
X7Y60D01*
X948Y60D02*
X955Y60D01*
X0Y59D02*
X7Y59D01*
X948Y59D02*
X955Y59D01*
X0Y58D02*
X7Y58D01*
X948Y58D02*
X955Y58D01*
X0Y57D02*
X7Y57D01*
X948Y57D02*
X955Y57D01*
X0Y56D02*
X7Y56D01*
X948Y56D02*
X955Y56D01*
X0Y55D02*
X7Y55D01*
X948Y55D02*
X955Y55D01*
X0Y54D02*
X7Y54D01*
X948Y54D02*
X955Y54D01*
X0Y53D02*
X7Y53D01*
X948Y53D02*
X955Y53D01*
X0Y52D02*
X7Y52D01*
X948Y52D02*
X955Y52D01*
X0Y51D02*
X7Y51D01*
X948Y51D02*
X955Y51D01*
X0Y50D02*
X7Y50D01*
X948Y50D02*
X955Y50D01*
X0Y49D02*
X7Y49D01*
X948Y49D02*
X955Y49D01*
X0Y48D02*
X7Y48D01*
X948Y48D02*
X955Y48D01*
X0Y47D02*
X7Y47D01*
X948Y47D02*
X955Y47D01*
X0Y46D02*
X7Y46D01*
X948Y46D02*
X955Y46D01*
X0Y45D02*
X7Y45D01*
X948Y45D02*
X955Y45D01*
X0Y44D02*
X7Y44D01*
X948Y44D02*
X955Y44D01*
X0Y43D02*
X7Y43D01*
X948Y43D02*
X955Y43D01*
X0Y42D02*
X7Y42D01*
X948Y42D02*
X955Y42D01*
X0Y41D02*
X7Y41D01*
X14Y41D02*
X28Y41D01*
X40Y41D02*
X57Y41D01*
X68Y41D02*
X81Y41D01*
X100Y41D02*
X102Y41D01*
X121Y41D02*
X134Y41D01*
X198Y41D02*
X213Y41D01*
X948Y41D02*
X955Y41D01*
X0Y40D02*
X7Y40D01*
X14Y40D02*
X29Y40D01*
X40Y40D02*
X57Y40D01*
X67Y40D02*
X82Y40D01*
X100Y40D02*
X103Y40D01*
X120Y40D02*
X135Y40D01*
X198Y40D02*
X214Y40D01*
X948Y40D02*
X955Y40D01*
X0Y39D02*
X7Y39D01*
X14Y39D02*
X30Y39D01*
X40Y39D02*
X57Y39D01*
X67Y39D02*
X83Y39D01*
X100Y39D02*
X103Y39D01*
X119Y39D02*
X136Y39D01*
X198Y39D02*
X215Y39D01*
X948Y39D02*
X955Y39D01*
X0Y38D02*
X7Y38D01*
X14Y38D02*
X31Y38D01*
X40Y38D02*
X57Y38D01*
X66Y38D02*
X83Y38D01*
X99Y38D02*
X103Y38D01*
X119Y38D02*
X136Y38D01*
X200Y38D02*
X215Y38D01*
X948Y38D02*
X955Y38D01*
X0Y37D02*
X7Y37D01*
X14Y37D02*
X17Y37D01*
X28Y37D02*
X31Y37D01*
X40Y37D02*
X43Y37D01*
X47Y37D02*
X50Y37D01*
X55Y37D02*
X57Y37D01*
X66Y37D02*
X69Y37D01*
X81Y37D02*
X83Y37D01*
X99Y37D02*
X103Y37D01*
X119Y37D02*
X122Y37D01*
X133Y37D02*
X136Y37D01*
X146Y37D02*
X147Y37D01*
X212Y37D02*
X215Y37D01*
X948Y37D02*
X955Y37D01*
X0Y36D02*
X7Y36D01*
X14Y36D02*
X17Y36D01*
X28Y36D02*
X31Y36D01*
X40Y36D02*
X43Y36D01*
X47Y36D02*
X50Y36D01*
X55Y36D02*
X57Y36D01*
X67Y36D02*
X70Y36D01*
X81Y36D02*
X83Y36D01*
X99Y36D02*
X104Y36D01*
X119Y36D02*
X122Y36D01*
X133Y36D02*
X136Y36D01*
X146Y36D02*
X149Y36D01*
X212Y36D02*
X215Y36D01*
X948Y36D02*
X955Y36D01*
X0Y35D02*
X7Y35D01*
X14Y35D02*
X17Y35D01*
X28Y35D02*
X31Y35D01*
X47Y35D02*
X50Y35D01*
X56Y35D02*
X56Y35D01*
X67Y35D02*
X71Y35D01*
X82Y35D02*
X82Y35D01*
X98Y35D02*
X104Y35D01*
X119Y35D02*
X122Y35D01*
X133Y35D02*
X136Y35D01*
X146Y35D02*
X149Y35D01*
X212Y35D02*
X215Y35D01*
X948Y35D02*
X955Y35D01*
X0Y34D02*
X7Y34D01*
X14Y34D02*
X17Y34D01*
X28Y34D02*
X31Y34D01*
X47Y34D02*
X50Y34D01*
X68Y34D02*
X72Y34D01*
X98Y34D02*
X104Y34D01*
X119Y34D02*
X122Y34D01*
X133Y34D02*
X136Y34D01*
X146Y34D02*
X149Y34D01*
X212Y34D02*
X215Y34D01*
X948Y34D02*
X955Y34D01*
X0Y33D02*
X7Y33D01*
X14Y33D02*
X17Y33D01*
X28Y33D02*
X31Y33D01*
X47Y33D02*
X50Y33D01*
X69Y33D02*
X72Y33D01*
X98Y33D02*
X105Y33D01*
X119Y33D02*
X122Y33D01*
X133Y33D02*
X136Y33D01*
X146Y33D02*
X149Y33D01*
X157Y33D02*
X158Y33D01*
X212Y33D02*
X215Y33D01*
X948Y33D02*
X955Y33D01*
X0Y32D02*
X7Y32D01*
X14Y32D02*
X30Y32D01*
X47Y32D02*
X50Y32D01*
X70Y32D02*
X73Y32D01*
X97Y32D02*
X100Y32D01*
X102Y32D02*
X105Y32D01*
X119Y32D02*
X122Y32D01*
X133Y32D02*
X136Y32D01*
X146Y32D02*
X149Y32D01*
X157Y32D02*
X160Y32D01*
X212Y32D02*
X215Y32D01*
X948Y32D02*
X955Y32D01*
X0Y31D02*
X7Y31D01*
X14Y31D02*
X30Y31D01*
X47Y31D02*
X50Y31D01*
X70Y31D02*
X74Y31D01*
X97Y31D02*
X100Y31D01*
X102Y31D02*
X105Y31D01*
X119Y31D02*
X122Y31D01*
X133Y31D02*
X136Y31D01*
X146Y31D02*
X149Y31D01*
X157Y31D02*
X160Y31D01*
X212Y31D02*
X215Y31D01*
X948Y31D02*
X955Y31D01*
X0Y30D02*
X7Y30D01*
X14Y30D02*
X29Y30D01*
X47Y30D02*
X50Y30D01*
X71Y30D02*
X75Y30D01*
X97Y30D02*
X100Y30D01*
X103Y30D02*
X105Y30D01*
X119Y30D02*
X122Y30D01*
X133Y30D02*
X136Y30D01*
X146Y30D02*
X149Y30D01*
X157Y30D02*
X160Y30D01*
X212Y30D02*
X215Y30D01*
X948Y30D02*
X955Y30D01*
X0Y29D02*
X7Y29D01*
X14Y29D02*
X27Y29D01*
X47Y29D02*
X50Y29D01*
X72Y29D02*
X76Y29D01*
X97Y29D02*
X99Y29D01*
X103Y29D02*
X106Y29D01*
X119Y29D02*
X122Y29D01*
X133Y29D02*
X136Y29D01*
X146Y29D02*
X149Y29D01*
X157Y29D02*
X160Y29D01*
X172Y29D02*
X188Y29D01*
X202Y29D02*
X214Y29D01*
X948Y29D02*
X955Y29D01*
X0Y28D02*
X7Y28D01*
X14Y28D02*
X17Y28D01*
X20Y28D02*
X24Y28D01*
X47Y28D02*
X50Y28D01*
X73Y28D02*
X76Y28D01*
X96Y28D02*
X99Y28D01*
X103Y28D02*
X106Y28D01*
X119Y28D02*
X122Y28D01*
X133Y28D02*
X136Y28D01*
X146Y28D02*
X149Y28D01*
X157Y28D02*
X160Y28D01*
X172Y28D02*
X188Y28D01*
X201Y28D02*
X214Y28D01*
X948Y28D02*
X955Y28D01*
X0Y27D02*
X7Y27D01*
X14Y27D02*
X17Y27D01*
X21Y27D02*
X24Y27D01*
X47Y27D02*
X50Y27D01*
X73Y27D02*
X77Y27D01*
X96Y27D02*
X99Y27D01*
X104Y27D02*
X106Y27D01*
X119Y27D02*
X122Y27D01*
X133Y27D02*
X136Y27D01*
X146Y27D02*
X149Y27D01*
X157Y27D02*
X160Y27D01*
X171Y27D02*
X189Y27D01*
X201Y27D02*
X214Y27D01*
X948Y27D02*
X955Y27D01*
X0Y26D02*
X7Y26D01*
X14Y26D02*
X17Y26D01*
X22Y26D02*
X25Y26D01*
X47Y26D02*
X50Y26D01*
X74Y26D02*
X78Y26D01*
X96Y26D02*
X99Y26D01*
X104Y26D02*
X107Y26D01*
X119Y26D02*
X122Y26D01*
X133Y26D02*
X136Y26D01*
X146Y26D02*
X160Y26D01*
X171Y26D02*
X188Y26D01*
X202Y26D02*
X214Y26D01*
X948Y26D02*
X955Y26D01*
X0Y25D02*
X7Y25D01*
X14Y25D02*
X17Y25D01*
X22Y25D02*
X26Y25D01*
X47Y25D02*
X50Y25D01*
X75Y25D02*
X79Y25D01*
X95Y25D02*
X98Y25D01*
X104Y25D02*
X107Y25D01*
X119Y25D02*
X122Y25D01*
X133Y25D02*
X136Y25D01*
X146Y25D02*
X161Y25D01*
X172Y25D02*
X188Y25D01*
X212Y25D02*
X215Y25D01*
X948Y25D02*
X955Y25D01*
X0Y24D02*
X7Y24D01*
X14Y24D02*
X17Y24D01*
X23Y24D02*
X26Y24D01*
X47Y24D02*
X50Y24D01*
X76Y24D02*
X79Y24D01*
X95Y24D02*
X98Y24D01*
X104Y24D02*
X107Y24D01*
X119Y24D02*
X122Y24D01*
X133Y24D02*
X136Y24D01*
X146Y24D02*
X161Y24D01*
X212Y24D02*
X215Y24D01*
X948Y24D02*
X955Y24D01*
X0Y23D02*
X7Y23D01*
X14Y23D02*
X17Y23D01*
X23Y23D02*
X27Y23D01*
X47Y23D02*
X50Y23D01*
X77Y23D02*
X80Y23D01*
X95Y23D02*
X108Y23D01*
X119Y23D02*
X122Y23D01*
X133Y23D02*
X136Y23D01*
X146Y23D02*
X161Y23D01*
X212Y23D02*
X215Y23D01*
X948Y23D02*
X955Y23D01*
X0Y22D02*
X7Y22D01*
X14Y22D02*
X17Y22D01*
X24Y22D02*
X27Y22D01*
X47Y22D02*
X50Y22D01*
X77Y22D02*
X81Y22D01*
X95Y22D02*
X108Y22D01*
X119Y22D02*
X122Y22D01*
X133Y22D02*
X136Y22D01*
X157Y22D02*
X160Y22D01*
X212Y22D02*
X215Y22D01*
X948Y22D02*
X955Y22D01*
X0Y21D02*
X7Y21D01*
X14Y21D02*
X17Y21D01*
X25Y21D02*
X28Y21D01*
X47Y21D02*
X50Y21D01*
X78Y21D02*
X82Y21D01*
X94Y21D02*
X108Y21D01*
X119Y21D02*
X122Y21D01*
X133Y21D02*
X136Y21D01*
X157Y21D02*
X160Y21D01*
X212Y21D02*
X215Y21D01*
X948Y21D02*
X955Y21D01*
X0Y20D02*
X7Y20D01*
X14Y20D02*
X17Y20D01*
X25Y20D02*
X28Y20D01*
X47Y20D02*
X50Y20D01*
X68Y20D02*
X68Y20D01*
X79Y20D02*
X83Y20D01*
X94Y20D02*
X108Y20D01*
X119Y20D02*
X122Y20D01*
X133Y20D02*
X136Y20D01*
X157Y20D02*
X160Y20D01*
X212Y20D02*
X215Y20D01*
X948Y20D02*
X955Y20D01*
X0Y19D02*
X7Y19D01*
X14Y19D02*
X17Y19D01*
X26Y19D02*
X29Y19D01*
X47Y19D02*
X50Y19D01*
X67Y19D02*
X69Y19D01*
X80Y19D02*
X83Y19D01*
X94Y19D02*
X96Y19D01*
X106Y19D02*
X109Y19D01*
X119Y19D02*
X122Y19D01*
X133Y19D02*
X136Y19D01*
X157Y19D02*
X160Y19D01*
X212Y19D02*
X215Y19D01*
X948Y19D02*
X955Y19D01*
X0Y18D02*
X7Y18D01*
X14Y18D02*
X17Y18D01*
X26Y18D02*
X30Y18D01*
X47Y18D02*
X50Y18D01*
X66Y18D02*
X69Y18D01*
X80Y18D02*
X83Y18D01*
X93Y18D02*
X96Y18D01*
X106Y18D02*
X109Y18D01*
X119Y18D02*
X122Y18D01*
X133Y18D02*
X136Y18D01*
X157Y18D02*
X160Y18D01*
X212Y18D02*
X215Y18D01*
X948Y18D02*
X955Y18D01*
X0Y17D02*
X7Y17D01*
X14Y17D02*
X17Y17D01*
X27Y17D02*
X30Y17D01*
X47Y17D02*
X50Y17D01*
X67Y17D02*
X83Y17D01*
X93Y17D02*
X96Y17D01*
X106Y17D02*
X109Y17D01*
X119Y17D02*
X136Y17D01*
X157Y17D02*
X160Y17D01*
X199Y17D02*
X215Y17D01*
X948Y17D02*
X955Y17D01*
X0Y16D02*
X7Y16D01*
X14Y16D02*
X17Y16D01*
X28Y16D02*
X31Y16D01*
X47Y16D02*
X50Y16D01*
X67Y16D02*
X83Y16D01*
X93Y16D02*
X96Y16D01*
X107Y16D02*
X110Y16D01*
X119Y16D02*
X136Y16D01*
X157Y16D02*
X160Y16D01*
X198Y16D02*
X215Y16D01*
X948Y16D02*
X955Y16D01*
X0Y15D02*
X7Y15D01*
X14Y15D02*
X16Y15D01*
X28Y15D02*
X31Y15D01*
X47Y15D02*
X50Y15D01*
X68Y15D02*
X83Y15D01*
X93Y15D02*
X95Y15D01*
X107Y15D02*
X110Y15D01*
X120Y15D02*
X135Y15D01*
X157Y15D02*
X159Y15D01*
X198Y15D02*
X214Y15D01*
X948Y15D02*
X955Y15D01*
X0Y14D02*
X7Y14D01*
X14Y14D02*
X16Y14D01*
X29Y14D02*
X30Y14D01*
X48Y14D02*
X49Y14D01*
X69Y14D02*
X81Y14D01*
X93Y14D02*
X95Y14D01*
X108Y14D02*
X109Y14D01*
X121Y14D02*
X134Y14D01*
X157Y14D02*
X159Y14D01*
X198Y14D02*
X213Y14D01*
X948Y14D02*
X955Y14D01*
X0Y13D02*
X7Y13D01*
X948Y13D02*
X955Y13D01*
X0Y12D02*
X7Y12D01*
X948Y12D02*
X955Y12D01*
X0Y11D02*
X7Y11D01*
X948Y11D02*
X955Y11D01*
X0Y10D02*
X7Y10D01*
X948Y10D02*
X955Y10D01*
X0Y9D02*
X955Y9D01*
X0Y8D02*
X955Y8D01*
X0Y7D02*
X955Y7D01*
X0Y6D02*
X955Y6D01*
X0Y5D02*
X955Y5D01*
X0Y4D02*
X955Y4D01*
X0Y3D02*
X955Y3D01*
X0Y2D02*
X955Y2D01*
D02*
G04 End of Silk1*
M02*